<?xml version="1.0" encoding="UTF-8"?>
<svg xmlns="http://www.w3.org/2000/svg" width="67" height="74" viewBox="0 0 67 74" fill="none">
  <g id="Group">
    <path id="Vector" d="M9.38978 74C7.34435 72.6575 6.52247 70.7757 6.77536 68.3435C6.97246 66.4282 6.48528 64.8179 5.35844 63.0812C4.22044 61.3258 3.72954 58.9643 3.53987 56.8185C3.2498 53.5383 3.46549 50.2136 3.46549 46.9112C2.82955 46.6025 1.82543 46.3496 1.14115 45.7323C-0.134454 44.5831 -0.24602 43.01 0.341574 41.4666C0.936607 39.9047 2.21964 39.0642 3.83739 39.3208C6.28074 39.7113 7.30718 38.603 7.98403 36.4163C8.77988 33.8353 9.88439 31.3474 10.9183 28.8445C12.5844 24.8132 15.4331 22.9425 19.7805 22.9425C24.5222 22.9425 29.2638 22.9425 34.1877 22.9425C32.5105 17.4794 32.9084 12.3584 35.9245 7.59441C38.048 4.24364 41.0232 1.93417 44.8091 0.740388C52.3771 -1.64346 60.4882 1.88583 64.1476 9.07456C67.5542 15.765 66.8215 25.9623 57.2304 32.0056C58.0597 34.1329 58.863 36.3084 59.7778 38.4357C59.9415 38.8187 60.5402 39.1348 60.9939 39.2427C61.5778 39.3803 62.2175 39.2724 62.8348 39.2799C65.2298 39.3134 66.5872 40.4253 66.7992 42.5191C67.0335 44.836 65.9178 46.2343 63.4484 46.7289C63.3369 46.7513 63.2402 46.8405 63.4484 46.7252C63.4484 49.8417 63.4819 52.7759 63.441 55.7102C63.3927 58.9717 62.9055 62.0956 60.4993 64.6022C60.213 64.8997 60.1386 65.4836 60.1126 65.941C60.0568 66.9861 60.027 68.0422 60.1088 69.0835C60.2836 71.3 59.1865 72.7988 57.4944 74C55.5196 74 53.5486 74 51.5738 74C48.4313 72.2037 49.0078 69.0538 48.9371 66.2088C38.5017 66.2088 28.2746 66.2088 18.0624 66.2088C17.3967 72.319 17.3967 72.319 15.3066 74C13.3393 74 11.3645 74 9.38978 74ZM54.2738 33.3258C53.8387 33.3258 53.649 33.2961 53.4779 33.3296C46.6797 34.7279 41.1199 32.7085 36.6794 27.3867C36.2666 26.892 35.3332 26.6094 34.6377 26.602C29.7734 26.535 24.9015 26.6689 20.0371 26.5239C17.4078 26.4458 15.8384 27.647 14.8715 29.8635C13.7633 32.3998 12.7071 34.9585 11.7141 37.5394C10.1596 41.5968 10.3604 41.9724 14.667 42.56C25.768 44.081 36.9063 43.8951 48.0483 43.1402C50.4321 42.9765 52.8011 42.4931 55.1552 42.0579C56.1853 41.8683 57.0816 41.3253 56.6353 40.0125C55.8767 37.7625 55.0548 35.5275 54.2738 33.3258ZM53.2697 9.3386C53.4965 9.2605 53.7234 9.17869 53.9503 9.10059C54.404 9.46877 54.906 9.79231 55.3077 10.2126C58.7775 13.8311 58.4093 19.2831 54.523 22.4553C54.0693 22.8272 53.3775 23.2884 53.3552 23.7384C53.2325 25.9623 53.2994 28.1974 53.2994 30.492C59.934 28.9189 64.3373 21.8492 63.3629 14.7832C62.3476 7.44194 55.9882 2.18706 48.6098 2.59243C41.6852 2.97548 35.9431 9.11175 35.7051 16.3935C35.4819 23.1545 40.4728 29.8561 46.3413 30.5366C46.3413 28.6809 46.2706 26.8363 46.3673 24.9991C46.4268 23.8276 46.0289 23.1471 45.0768 22.4293C40.9823 19.3351 40.8 13.1096 44.638 9.83323C44.969 9.55059 45.4822 9.48736 45.9136 9.32372C46.0586 9.70677 46.2966 10.0861 46.3264 10.4803C46.3896 11.3989 46.3376 12.3286 46.3524 13.2509C46.3859 15.5344 47.0888 16.1666 49.5842 16.1852C52.4515 16.2112 53.2065 15.6311 53.2734 13.2993C53.2994 11.9791 53.2697 10.6588 53.2697 9.3386ZM15.5967 61.0506C18.1888 61.0171 20.2566 58.9308 20.2714 56.3313C20.2863 53.6759 18.0884 51.4855 15.4628 51.5301C12.8001 51.5784 10.736 53.7652 10.8067 56.4651C10.8736 59.0535 12.9934 61.0841 15.5967 61.0506ZM57.2936 56.3759C57.3345 53.7354 55.1515 51.5152 52.5222 51.5264C49.9412 51.5413 47.8475 53.6313 47.814 56.2309C47.7805 58.8527 49.7813 60.9651 52.3771 61.0469C55.0511 61.1324 57.2527 59.0387 57.2936 56.3759ZM33.6188 60.2473C35.891 60.2473 38.1633 60.2919 40.4319 60.2138C40.9265 60.1952 41.4062 59.7415 41.8897 59.4887C41.4211 59.232 40.9562 58.756 40.4839 58.7486C36.0026 58.6928 31.5213 58.6928 27.0362 58.7523C26.5825 58.7597 26.1362 59.2544 25.6899 59.5221C26.1846 59.7639 26.668 60.1952 27.1701 60.2138C29.3196 60.2919 31.4729 60.2473 33.6188 60.2473ZM33.972 55.1226C31.6998 55.1226 29.4275 55.0817 27.1552 55.1561C26.6606 55.171 26.1771 55.5949 25.6862 55.8329C26.1437 56.097 26.5974 56.5879 27.0585 56.5953C31.5399 56.6548 36.0249 56.6548 40.5062 56.5953C40.9711 56.5879 41.4323 56.1007 41.8934 55.8329C41.4025 55.5949 40.9153 55.1747 40.417 55.1561C38.2711 55.078 36.1216 55.1226 33.972 55.1226Z" fill="white"></path>
    <path id="Vector_2" d="M54.2296 34.1063C55.0105 36.3079 55.8324 38.543 56.5948 40.7967C57.0374 42.1094 56.1448 42.6524 55.1147 42.8421C52.7569 43.2772 50.3916 43.7607 48.0078 43.9243C36.8695 44.6792 25.7275 44.8652 14.6265 43.3441C10.3199 42.7528 10.1154 42.3809 11.6736 38.3236C12.6628 35.7389 13.7227 33.1803 14.831 30.6476C15.8016 28.4312 17.371 27.2299 19.9966 27.308C24.861 27.4531 29.7291 27.3192 34.5972 27.3861C35.2927 27.3973 36.2261 27.6762 36.6389 28.1708C41.0794 33.4964 46.6392 35.512 53.4374 34.1137C53.6085 34.0728 53.7944 34.1063 54.2296 34.1063Z" fill="#1F1F1F"></path>
    <path id="Vector_3" d="M53.2253 10.119C53.2253 11.4392 53.2551 12.7557 53.2179 14.076C53.151 16.4115 52.396 16.9879 49.5287 16.9619C47.0333 16.9396 46.3304 16.3111 46.2969 14.0276C46.282 13.1053 46.3341 12.1756 46.2709 11.257C46.2448 10.8628 46.0031 10.4872 45.8581 10.1004C45.4304 10.264 44.9135 10.331 44.5825 10.6099C40.7482 13.8863 40.9305 20.1118 45.0213 23.206C45.9734 23.9275 46.375 24.608 46.3118 25.7758C46.2188 27.6129 46.2858 29.4613 46.2858 31.3133C40.421 30.6327 35.4301 23.9312 35.6495 17.1701C35.8876 9.88842 41.6296 3.74844 48.5543 3.36911C55.9327 2.96374 62.2921 8.21862 63.3074 15.5598C64.2818 22.6258 59.8785 29.6956 53.2439 31.2687C53.2439 28.9741 53.177 26.739 53.2997 24.5151C53.3257 24.0651 54.0137 23.6039 54.4675 23.232C58.3538 20.0598 58.7219 14.6078 55.2521 10.9892C54.8505 10.569 54.3484 10.2454 53.8947 9.87727C53.679 9.95909 53.4522 10.0409 53.2253 10.119Z" fill="#1F1F1F"></path>
    <path id="Vector_4" d="M15.5963 61.0506C12.993 61.0841 10.8695 59.0535 10.8025 56.4651C10.7319 53.7689 12.7959 51.5784 15.4587 51.5301C18.088 51.4817 20.2822 53.6722 20.2673 56.3312C20.2561 58.9308 18.1921 61.0171 15.5963 61.0506Z" fill="#1F1F1F"></path>
    <path id="Vector_5" d="M57.2947 56.3759C57.2537 59.0387 55.0484 61.1324 52.3819 61.0506C49.7861 60.9688 47.7853 58.8564 47.8188 56.2346C47.8522 53.6387 49.946 51.545 52.527 51.5301C55.1525 51.5152 57.3356 53.7354 57.2947 56.3759Z" fill="#1F1F1F"></path>
    <path id="Vector_6" d="M33.6184 60.2474C31.4689 60.2474 29.3193 60.292 27.1735 60.2139C26.6714 60.1953 26.188 59.7639 25.6934 59.5222C26.1434 59.2544 26.5896 58.7561 27.0396 58.7524C31.521 58.6929 36.0023 58.6929 40.4873 58.7487C40.9596 58.7561 41.4245 59.2284 41.8931 59.4887C41.4059 59.7416 40.9262 60.1953 40.4353 60.2139C38.1667 60.292 35.8907 60.2474 33.6184 60.2474Z" fill="#1F1F1F"></path>
    <path id="Vector_7" d="M33.9715 55.1226C36.1211 55.1226 38.2707 55.0779 40.4202 55.156C40.9186 55.1746 41.4057 55.5949 41.8966 55.8329C41.4355 56.0969 40.9743 56.5878 40.5095 56.5953C36.0281 56.6548 31.5431 56.6548 27.0617 56.5953C26.6006 56.5878 26.1469 56.0969 25.6895 55.8329C26.1766 55.5986 26.6601 55.1746 27.1584 55.156C29.427 55.0816 31.6993 55.1226 33.9715 55.1226Z" fill="#1F1F1F"></path>
  </g>
</svg>
