<?xml version="1.0" encoding="UTF-8"?>
<svg xmlns="http://www.w3.org/2000/svg" width="50" height="50" viewBox="0 0 50 50" fill="none">
  <g id="Group 87150 1" clip-path="url(#clip0_217_261)">
    <g id="Group 87150">
      <path id="Path 146572" d="M1.58231 48.5C3.13616 48.5 4.49221 48.505 5.84787 48.4949C6.13336 48.472 6.4172 48.4317 6.69782 48.3744V45.774C6.69782 42.6782 6.72486 39.5821 6.68353 36.4868C6.66885 35.4031 6.98873 34.8525 8.16823 34.9503C9.03277 35.0191 9.90142 35.0191 10.766 34.9503C11.896 34.8634 12.3071 35.3092 12.2916 36.445C12.2437 39.953 12.2742 43.4621 12.2742 46.9705V48.41H15.2293V44.0173C15.2293 39.4353 15.2641 34.8529 15.2058 30.2717C15.1907 29.064 15.5921 28.6278 16.777 28.7395C17.5995 28.8151 18.4271 28.8151 19.2496 28.7395C20.385 28.6363 20.7752 29.0648 20.7594 30.2134C20.7053 34.2166 20.7389 38.221 20.7389 42.2251V48.393H23.4707C23.4989 47.9378 23.553 47.4657 23.5538 46.9905C23.5604 42.6149 23.589 38.2392 23.538 33.8643C23.5237 32.6597 23.9703 32.2127 25.1382 32.305C25.9178 32.3664 26.7055 32.3201 27.4894 32.3243C29.0232 32.3321 29.1248 32.4248 29.126 33.9188C29.1298 38.253 29.1298 42.5872 29.126 46.9214V48.3895H31.9026V46.9878C31.9026 40.1769 31.9026 33.366 31.9026 26.5551C31.9026 24.9858 31.9582 24.9325 33.4769 24.919C34.3435 24.912 35.2154 24.9711 36.0758 24.9047C37.1796 24.8189 37.4941 25.2961 37.489 26.3508C37.4558 33.2029 37.472 40.055 37.4724 46.9071V48.5073C38.5542 48.5073 39.5003 48.454 40.4322 48.5371C40.7463 48.5653 41.0302 48.9381 41.3273 49.1552C41.0639 49.4518 40.7656 49.7154 40.4387 49.9402C40.2139 50.0612 39.8731 49.9681 39.5845 49.9681H1.94933C0.0949 49.9681 0.0925822 49.9661 0.0925822 48.1299C0.0925822 35.2099 0.101082 22.2898 0.118081 9.36962C0.118081 8.71091 -0.422794 7.51519 0.801128 7.49008C1.99878 7.4669 1.5626 8.6491 1.56415 9.32983C1.5899 21.8372 1.59609 34.3445 1.58269 46.8518L1.58231 48.5ZM33.5186 26.428V48.4015H35.9035V26.428H33.5186ZM19.1673 48.4351V30.3339H16.806V48.4351H19.1673ZM25.1977 33.8983V48.3775H27.5342V33.8983H25.1977ZM10.6918 48.4246V36.5602H8.35019V48.4246H10.6918Z" fill="white" stroke="white"></path>
      <path id="Path 146573" d="M27.1578 19.2745C21.3921 12.9567 24.0794 5.43155 28.25 2.37445C30.6228 0.640935 33.571 -0.114271 36.485 0.265049C39.399 0.64437 42.0557 2.12919 43.9056 4.41238C47.5105 8.83403 47.6145 16.2189 41.0853 20.7758L42.2911 22.9906C44.8618 21.8703 44.8629 21.8703 46.1634 24.2748C47.2613 26.3054 48.3721 28.3287 49.4472 30.3713C50.5371 32.4417 49.9773 34.4777 48.0862 35.4601C46.2742 36.402 44.2537 35.7085 43.1746 33.7371C41.8483 31.3147 40.5506 28.8765 39.2417 26.4449C38.5251 25.1128 38.5552 25.0259 39.9248 24.2969C40.2458 24.1261 40.5572 23.936 40.9343 23.7197L39.7142 21.4318C35.7882 22.9458 32.0759 22.6511 28.5351 20.3013C27.7416 20.9342 27.1138 21.4778 27.6709 22.7167C28.228 23.9557 27.7929 25.1692 26.7823 26.0744C26.33 26.5068 25.7581 26.793 25.1408 26.8958C24.5236 26.9985 23.8898 26.913 23.3218 26.6504C22.739 26.424 22.2372 26.0282 21.8812 25.5142C21.5252 25.0001 21.3311 24.3913 21.3241 23.766C21.2217 22.2825 19.001 21.1196 17.706 21.7845C17.0285 22.1564 16.2571 22.3224 15.4865 22.262C14.732 22.1527 14.3456 22.3219 13.9697 22.8956C13.6541 23.3774 13.2871 23.8271 12.9247 24.2764C12.1381 25.2511 11.4435 26.059 12.0956 27.5923C12.8072 29.266 11.3082 31.1745 9.46308 31.4747C9.02273 31.5348 8.57477 31.5056 8.14597 31.3887C7.71718 31.2718 7.31637 31.0696 6.96751 30.7942C6.61864 30.5189 6.32889 30.176 6.11558 29.7861C5.90226 29.3962 5.76977 28.9672 5.72603 28.525C5.52861 26.6559 6.97892 24.8234 8.8318 25.0282C10.2682 25.1866 10.9397 24.5762 11.5833 23.5601C11.8561 23.1468 12.1564 22.7523 12.4823 22.3795C13.0522 21.7022 13.4223 21.1494 12.9104 20.1159C12.3355 18.9546 12.6786 17.6758 13.685 16.7246C14.1247 16.2799 14.6871 15.9766 15.3002 15.8534C15.9133 15.7302 16.5492 15.7927 17.1265 16.0331C17.7379 16.2443 18.2688 16.6397 18.6462 17.165C19.0236 17.6904 19.2289 18.3197 19.234 18.9665C19.3356 20.44 21.557 21.5871 22.8656 20.911C23.4818 20.5906 24.1661 20.4234 24.8606 20.4234C26.3299 20.4543 26.3283 20.5208 27.1578 19.2745ZM35.7365 12.0685L35.3721 11.9781L32.4545 15.4551L29.4797 19.0021C31.5488 20.4956 34.1216 21.117 36.6443 20.7326C39.167 20.3482 41.4379 18.9887 42.9683 16.9468C46.0861 12.8315 45.2972 7.12719 41.1525 3.80776C39.1738 2.20809 36.6476 1.44638 34.1144 1.68558C31.5812 1.92479 29.2422 3.14591 27.5978 5.0877C24.3889 8.96538 24.6868 14.8667 28.3319 18.0154L34.3051 10.8554C33.0271 11.1169 32.1497 11.3545 31.2576 11.4468C30.9513 11.4785 30.6074 11.1478 30.2802 10.9832C30.512 10.6614 30.6882 10.1294 30.9833 10.0518C32.6148 9.62332 34.2734 9.29687 35.9261 8.9538C36.6049 8.81317 37.0678 9.02141 37.0937 9.80799C37.1458 11.4159 37.2443 13.0239 37.2208 14.6307C37.2161 14.9536 36.7521 15.2697 36.5002 15.5892C36.2457 15.2774 35.8137 14.9876 35.7716 14.6496C35.7069 13.7909 35.6952 12.929 35.7365 12.0688V12.0685ZM44.176 23.7784L40.5499 25.7004C41.9731 28.3252 43.3091 30.8731 44.7324 33.3712C44.9992 33.8224 45.4318 34.1514 45.9379 34.288C46.4439 34.4247 46.9833 34.3581 47.441 34.1025C47.8909 33.8757 48.2354 33.4834 48.4023 33.0079C48.5691 32.5325 48.5453 32.0109 48.3357 31.5527C47.0079 28.9588 45.5916 26.4098 44.176 23.7788V23.7784ZM9.01647 29.983C9.49166 29.9568 9.93811 29.7471 10.2617 29.3981C10.5853 29.0491 10.7608 28.5882 10.7511 28.1124C10.7116 27.6587 10.5025 27.2366 10.1655 26.9302C9.8285 26.6239 9.38842 26.4558 8.93303 26.4596C8.45776 26.4823 8.01014 26.6897 7.68544 27.0375C7.36074 27.3853 7.18459 27.846 7.1945 28.3217C7.24051 28.7743 7.45182 29.1941 7.78799 29.5006C8.12416 29.8071 8.56156 29.9789 9.01647 29.983ZM17.7118 19.1025C17.7164 18.8668 17.6733 18.6326 17.5849 18.414C17.4966 18.1955 17.3649 17.997 17.1979 17.8307C17.0308 17.6644 16.8318 17.5336 16.6129 17.4462C16.3939 17.3588 16.1595 17.3167 15.9238 17.3223C15.4691 17.3316 15.0357 17.5163 14.7141 17.8379C14.3925 18.1595 14.2077 18.593 14.1984 19.0477C14.191 19.5027 14.3607 19.9427 14.6718 20.2748C14.9829 20.6069 15.411 20.805 15.8655 20.8272C16.1007 20.838 16.3356 20.8018 16.5566 20.7205C16.7775 20.6392 16.9799 20.5145 17.152 20.3538C17.324 20.1931 17.4622 19.9996 17.5583 19.7847C17.6545 19.5698 17.7066 19.3379 17.7118 19.1025ZM24.6018 21.8734C24.1264 21.8866 23.675 22.0855 23.3444 22.4274C23.0139 22.7693 22.8303 23.2271 22.8331 23.7027C22.8507 24.1576 23.0442 24.5878 23.3729 24.9029C23.7015 25.2179 24.1396 25.393 24.5948 25.3914C25.0505 25.3947 25.4899 25.2218 25.8211 24.9087C26.1523 24.5957 26.3497 24.1667 26.372 23.7116C26.371 23.236 26.1862 22.7791 25.8564 22.4365C25.5265 22.0939 25.077 21.8924 24.6018 21.8734Z" fill="white" stroke="white"></path>
    </g>
  </g>
  <defs>
    <clipPath id="clip0_217_261">
      <rect width="50" height="49.8327" fill="white" transform="translate(0 0.167236)"></rect>
    </clipPath>
  </defs>
</svg>
