<?xml version="1.0" encoding="UTF-8"?>
<svg xmlns="http://www.w3.org/2000/svg" width="50" height="50" viewBox="0 0 50 50" fill="none">
  <g id="recommendations">
    <g id="_x31_0">
      <path id="Vector" d="M45.0836 28.6491C43.956 27.9762 42.5873 27.9457 41.4932 28.5408L29.5859 34.3013C29.1933 32.5597 27.6403 31.2523 25.7812 31.2523H19.397L16.7297 28.5851C16.4368 28.2921 16.04 28.1273 15.625 28.1273H9.375V28.125C9.375 27.2621 8.67615 26.5625 7.8125 26.5625H4.6875C3.82385 26.5625 3.125 27.2621 3.125 28.125C3.125 28.9879 3.82385 29.6875 4.6875 29.6875H6.25V40.625H4.6875C3.82385 40.625 3.125 41.3246 3.125 42.1875C3.125 43.0504 3.82385 43.75 4.6875 43.75H7.8125C8.67558 43.75 9.37376 43.0511 9.37471 42.189H12.1338L19.2734 45.7291C20.8176 46.4935 22.4411 46.8689 24.0417 46.8689C26.2741 46.8689 28.4592 46.138 30.3131 44.7151L45.2835 34.8129C46.2799 34.1286 46.875 33.0002 46.875 31.7947C46.875 30.4932 46.2051 29.3175 45.0836 28.6491ZM43.5364 32.222L28.5004 42.1715C26.1642 43.9636 23.3063 44.2398 20.6619 42.9291L13.1943 39.2265C12.9776 39.1197 12.7411 39.064 12.5 39.064H9.375V31.2523H14.978L17.6453 33.9195C17.9382 34.2125 18.335 34.3773 18.75 34.3773H25.7812C26.2115 34.3773 26.5625 34.7275 26.5625 35.1585C26.5625 35.5856 26.2174 35.9311 25.7926 35.9375H25C24.996 35.9375 24.9927 35.9398 24.9887 35.9398H18.75C17.8864 35.9398 17.1875 36.6394 17.1875 37.5023C17.1875 38.3652 17.8864 39.0648 18.75 39.0648H25.7812C25.789 39.0648 25.7961 39.0625 25.8039 39.0625H26.5625C26.7975 39.0625 27.0309 39.0091 27.243 38.9069L42.9169 31.3217C43.1641 31.1874 43.3777 31.2706 43.4845 31.3332C43.5837 31.3927 43.75 31.5315 43.75 31.7947C43.75 31.9702 43.6615 32.1358 43.5364 32.222Z" fill="white" stroke="#252525" stroke-width="2"></path>
      <path id="Vector_2" d="M41.0597 15.625C41.6019 16.5545 42.5988 17.1875 43.75 17.1875C45.4727 17.1875 46.875 15.786 46.875 14.0625C46.875 12.339 45.4727 10.9375 43.75 10.9375C42.5988 10.9375 41.6019 11.5705 41.0597 12.5H34.375C34.375 11.9666 34.3199 11.4469 34.2339 10.9375H35.9375C36.3525 10.9375 36.7493 10.7727 37.0422 10.4797L39.7095 7.8125H41.0597C41.6019 8.74205 42.5988 9.375 43.75 9.375C45.4727 9.375 46.875 7.97348 46.875 6.25C46.875 4.52652 45.4727 3.125 43.75 3.125C42.5988 3.125 41.6019 3.75795 41.0597 4.6875H39.0625C38.6475 4.6875 38.2507 4.85229 37.9578 5.14526L35.2905 7.8125H33.1066C31.4826 5.01499 28.4612 3.125 25 3.125C21.5388 3.125 18.5174 5.01499 16.8934 7.8125H14.7095L12.0422 5.14526C11.7493 4.85229 11.3525 4.6875 10.9375 4.6875H8.94032C8.39806 3.75795 7.40118 3.125 6.25 3.125C4.52728 3.125 3.125 4.52652 3.125 6.25C3.125 7.97348 4.52728 9.375 6.25 9.375C7.40118 9.375 8.39806 8.74205 8.94032 7.8125H10.2905L12.9578 10.4797C13.2507 10.7727 13.6475 10.9375 14.0625 10.9375H15.7661C15.6801 11.4469 15.625 11.9666 15.625 12.5H8.94032C8.39806 11.5705 7.40118 10.9375 6.25 10.9375C4.52728 10.9375 3.125 12.339 3.125 14.0625C3.125 15.786 4.52728 17.1875 6.25 17.1875C7.40118 17.1875 8.39806 16.5545 8.94032 15.625H16.1719C16.3658 16.1709 16.6065 16.6933 16.8934 17.1875H14.0625C13.6475 17.1875 13.2507 17.3523 12.9578 17.6453L10.2905 20.3125H8.94032C8.39806 19.383 7.40118 18.75 6.25 18.75C4.52728 18.75 3.125 20.1515 3.125 21.875C3.125 23.5985 4.52728 25 6.25 25C7.40118 25 8.39806 24.367 8.94032 23.4375H10.9375C11.3525 23.4375 11.7493 23.2727 12.0422 22.9797L14.7095 20.3125H17.1875L14.3753 24.0623C14.0198 24.5361 13.9633 25.1694 14.2273 25.6989C14.4928 26.2283 15.033 26.5625 15.625 26.5625H17.7841L18.9148 28.8239C19.1803 29.3549 19.722 29.6875 20.3125 29.6875C20.3339 29.6875 20.3552 29.6867 20.3781 29.686C20.9915 29.6608 21.5347 29.2763 21.7636 28.7056L24.5058 21.85C24.6705 21.8587 24.8332 21.875 25 21.875C25.1668 21.875 25.3295 21.8587 25.4942 21.85L28.2364 28.7056C28.4653 29.2763 29.0085 29.6608 29.6219 29.686C29.6448 29.6867 29.6661 29.6875 29.6875 29.6875C30.278 29.6875 30.8197 29.3549 31.0852 28.8239L32.2159 26.5625H34.375C34.967 26.5625 35.5072 26.2283 35.7727 25.6989C36.0367 25.1694 35.9802 24.5361 35.6247 24.0623L32.8123 20.3125H35.2905L37.9578 22.9797C38.2507 23.2727 38.6475 23.4375 39.0625 23.4375H41.0597C41.6019 24.367 42.5988 25 43.75 25C45.4727 25 46.875 23.5985 46.875 21.875C46.875 20.1515 45.4727 18.75 43.75 18.75C42.5988 18.75 41.6019 19.383 41.0597 20.3125H39.7095L37.0422 17.6453C36.7493 17.3523 36.3525 17.1875 35.9375 17.1875H33.1066C33.3935 16.6933 33.6342 16.1709 33.8281 15.625H41.0597ZM25 6.25C28.447 6.25 31.25 9.0538 31.25 12.5C31.25 15.9462 28.447 18.75 25 18.75C21.553 18.75 18.75 15.9462 18.75 12.5C18.75 9.0538 21.553 6.25 25 6.25ZM20.1538 24.3141L20.1477 24.3011C19.8822 23.7717 19.342 23.4375 18.75 23.4375L20.7088 20.8257C20.9397 20.9453 21.1739 21.0592 21.4154 21.1596L20.1538 24.3141ZM29.8523 24.3011L29.8462 24.3141L28.5846 21.1596C28.8261 21.0592 29.0603 20.9453 29.2912 20.8257L31.25 23.4375C30.658 23.4375 30.1178 23.7717 29.8523 24.3011Z" fill="white" stroke="#252525" stroke-width="2"></path>
      <path id="Vector_3" d="M23.8953 15.1672C24.2004 15.4724 24.6002 15.625 25 15.625C25.3998 15.625 25.7996 15.4724 26.1047 15.1672L29.2297 12.0422C29.8401 11.4319 29.8401 10.4431 29.2297 9.83276C28.6194 9.22241 27.6306 9.22241 27.0203 9.83276L25 11.853L24.5422 11.3953C23.9319 10.7849 22.9431 10.7849 22.3328 11.3953C21.7224 12.0056 21.7224 12.9944 22.3328 13.6047L23.8953 15.1672Z" fill="white"></path>
    </g>
  </g>
</svg>
