<?xml version="1.0" encoding="UTF-8"?>
<svg xmlns="http://www.w3.org/2000/svg" width="75" height="75" viewBox="0 0 75 75" fill="none">
  <g id="Group_88448_1_">
    <g id="Group_88446_1_">
      <path id="Path_164390_1_" d="M73.6694 69.5652C73.6893 70.8541 73.2946 71.4886 71.878 71.4258C62.5592 71.0127 53.3863 72.642 44.157 73.4615C38.9486 73.9242 33.7301 73.7358 28.933 71.6373C21.5218 68.392 14.293 64.737 7.00774 61.2141C3.93242 59.727 2.83433 56.9973 4.10493 54.2907C5.33572 51.6667 8.04611 50.7777 11.1612 52.0534C16.6683 54.3105 22.1919 56.5346 27.6392 58.9272C32.078 60.8737 36.2481 60.5532 40.2424 57.9259C40.8661 57.5161 41.2144 56.6932 41.6888 56.062C40.9092 55.7481 40.123 55.1433 39.3566 55.1697C36.1652 55.2689 32.9837 55.6225 29.7923 55.7348C28.7008 55.7811 27.6127 55.5696 26.6208 55.1169C24.9919 54.3237 24.1326 52.2483 24.4644 50.6092C24.8691 48.6098 26.226 47.1788 28.3193 46.9541C33.8794 46.3626 39.4528 45.9296 45.0129 45.3513C48.7518 44.9514 52.5304 45.4505 56.0336 46.812C61.189 48.7783 66.3577 50.8042 72.0837 50.054C73.3244 49.892 73.6628 50.6488 73.6529 51.746C73.6296 54.6839 73.6462 57.6219 73.6462 60.5598C73.6529 63.5638 73.6197 66.5645 73.6694 69.5652ZM64.2279 52.6581C64.2046 52.0732 63.7302 51.1578 63.2525 50.9925C59.0857 49.545 54.8957 48.1372 50.6527 46.9343C49.2859 46.5476 47.7233 46.6699 46.267 46.7823C40.9391 47.1987 35.6178 47.7142 30.2932 48.1901C29.8653 48.2298 29.4307 48.2364 29.006 48.2992C27.0653 48.5801 25.8146 49.9119 25.934 51.551C26.0601 53.2728 27.5928 54.4691 29.6131 54.3369C32.924 54.1221 36.2349 53.8743 39.5424 53.6C41.1613 53.4645 42.5315 53.7586 43.0987 55.4705C43.6561 57.1592 42.8201 58.1903 41.3969 59.0759C36.7922 61.9412 32.1079 62.5393 27.0288 60.2789C21.5948 57.8598 16.0512 55.6754 10.5475 53.4083C8.47075 52.5524 6.65276 53.0183 5.66747 54.5881C4.5926 56.3066 5.05705 58.5208 6.9812 59.4659C14.5219 63.1705 22.036 66.9479 29.7226 70.3253C34.0984 72.2454 38.9154 72.48 43.6859 72.0041C49.9825 71.3795 56.2659 70.6294 62.5625 70.018C63.9061 69.8891 64.3473 69.4099 64.3008 68.0814C64.2113 65.5136 64.2743 62.9392 64.2743 60.3681H64.2677C64.2743 57.8003 64.334 55.2259 64.2279 52.6581ZM72.1898 53.1737C72.2131 52.0137 71.8083 51.5081 70.5941 51.5378C64.8184 51.6667 65.9894 50.705 65.8966 56.0752C65.8269 60.1103 65.9131 64.1487 65.8634 68.1838C65.8468 69.4198 66.215 69.9486 67.5354 69.9122C73.0988 69.7602 72.0704 70.7153 72.1766 65.4673C72.2097 63.8778 72.1799 62.2882 72.1799 60.6986C72.1733 58.187 72.1368 55.6787 72.1898 53.1737Z" fill="white" stroke="white" stroke-width="2"></path>
      <path id="Path_164391_1_" d="M18.6713 36.6697C8.51645 36.7655 0.0701094 28.5632 0.000442031 18.5365C-0.0692253 8.36451 8.10508 0.0464464 18.2168 0.000179837C28.3451 -0.112182 36.6488 7.97785 36.7616 18.0706C36.7616 18.1069 36.7616 18.1433 36.7616 18.1796C36.8213 28.2525 28.6802 36.5739 18.6713 36.6697ZM18.177 1.51706C8.95436 1.57324 1.36061 9.33941 1.49331 18.5795C1.62601 27.7799 9.38231 35.2354 18.7078 35.1264C27.7679 35.0206 35.3384 27.3371 35.2687 18.325C35.2588 9.03537 27.6949 1.50715 18.3694 1.51706C18.3031 1.51706 18.24 1.51706 18.177 1.51706Z" fill="white"></path>
      <path id="Path_164392_1_" d="M64.2728 60.3714C64.2728 57.8003 64.3325 55.2259 64.2263 52.6581C64.2031 52.0732 63.7287 51.1577 63.251 50.9892C59.0842 49.5417 54.8942 48.1339 50.6512 46.931C49.2844 46.5443 47.7218 46.6666 46.2654 46.779C40.9375 47.1954 35.6163 47.7109 30.2917 48.1868C29.8638 48.2264 29.4292 48.233 29.0045 48.2958C27.0638 48.5767 25.8131 49.9086 25.9325 51.5477C26.0586 53.2695 27.5913 54.4658 29.6116 54.3336C32.9225 54.1188 36.2333 53.8709 39.5409 53.5967C41.1598 53.4612 42.5299 53.7553 43.0972 55.4671C43.6546 57.1559 42.8186 58.187 41.3954 59.0726C36.7907 61.9379 32.1064 62.536 27.0273 60.2756C21.5932 57.8565 16.0497 55.6753 10.546 53.4083C8.46924 52.5524 6.65126 53.0183 5.66596 54.5881C4.59109 56.3066 5.05554 58.5207 6.97969 59.4659C14.5203 63.1705 22.0345 66.9479 29.7211 70.3253C34.0969 72.2454 38.9139 72.48 43.6844 72.0041C49.981 71.3795 56.2644 70.6293 62.561 70.018C63.9046 69.8891 64.3458 69.4099 64.2993 68.0814C64.2098 65.5136 64.2728 62.9392 64.2728 60.3681V60.3714Z" fill="#252525"></path>
      <path id="Path_164393_1_" d="M72.1732 60.6953C72.1732 58.187 72.1367 55.6786 72.1864 53.1736C72.2097 52.0137 71.8049 51.5081 70.5907 51.5378C64.815 51.6667 65.986 50.705 65.8932 56.0752C65.8235 60.1103 65.9097 64.1487 65.86 68.1838C65.8434 69.4198 66.2116 69.9486 67.532 69.9122C73.0954 69.7602 72.067 70.7153 72.1732 65.4673C72.203 63.8744 72.1732 62.2849 72.1732 60.6953Z" fill="#252525"></path>
      <path id="Path_164394_1_" d="M18.7084 35.1264C9.3829 35.2355 1.6266 27.78 1.4939 18.5795C1.3612 9.34275 8.95494 1.57328 18.1776 1.5171C27.503 1.40473 35.1532 8.84043 35.2693 18.1301C35.2693 18.1929 35.2693 18.259 35.2693 18.3218C35.339 27.3371 27.7684 35.0174 18.7084 35.1264ZM18.6022 33.5401C27.0121 33.4509 33.7797 26.6299 33.7698 18.2524C33.72 9.82524 26.823 3.03398 18.3634 3.08355C18.3401 3.08355 18.3169 3.08355 18.2937 3.08355C9.71465 3.15625 3.08298 9.87481 3.11947 18.4606C3.15265 26.9472 9.99995 33.6128 18.6022 33.5401Z" fill="white"></path>
      <g id="Group 90243">
        <path id="Path_164396_1_" d="M18.5066 5.00013C11.1845 4.96776 4.97101 11.2137 5.00018 18.5826C5.02935 25.8414 11.1975 31.9806 18.4839 32C25.942 32.0065 31.9935 25.9741 32 18.5243C32 18.5211 32 18.5179 32 18.5114C32.0129 11.0616 25.9777 5.01307 18.5163 5.00013C18.513 5.00013 18.5098 5.00013 18.5066 5.00013ZM16.6947 24.5308C14.993 23.9224 14.2248 22.8059 14.173 21.1101C16.4386 19.4337 16.3187 22.7897 17.774 22.7573C18.8728 20.67 18.4774 19.2492 16.4808 18.356C14.9412 17.67 14.3804 16.4952 14.4615 14.9127C14.5425 13.3755 15.3463 12.3723 16.7628 11.7994C17.4369 11.5244 18.0722 11.1554 18.5487 10.916C19.4563 11.3755 20.474 11.6959 21.2325 12.3302C21.9391 12.9224 22.3734 13.8415 22.9147 14.602C20.7819 16.3561 20.5648 13.7315 19.4238 13.5211C18.3607 15.6182 18.6686 16.7379 20.662 17.6214C22.3021 18.3496 23.08 19.4887 22.9244 21.2719C22.7786 22.9515 21.8905 23.9515 20.299 24.534C19.6216 24.78 19.1127 25.4822 18.6103 25.9062C18.0722 25.5049 17.4596 24.8059 16.6947 24.5308Z" fill="white"></path>
        <path id="Path_164397_1_" d="M19.5883 19.3593C19.9449 19.8836 20.6061 20.424 20.5834 20.9321C20.5575 21.5534 19.9611 22.1521 19.611 22.7573C19.329 22.2654 19.1054 21.7411 18.9401 21.2007C18.8396 20.6991 18.9757 20.1522 19.0082 19.6247L19.5883 19.3593Z" fill="white"></path>
        <path id="Path_164398_1_" d="M18.3887 16.56C16.7421 16.1813 16.3272 15.4532 16.6902 14.4111C16.8102 14.0616 17.4357 13.8868 17.8312 13.6344L18.3887 16.56Z" fill="white"></path>
      </g>
    </g>
  </g>
</svg>
