<?xml version="1.0" encoding="UTF-8"?>
<svg xmlns="http://www.w3.org/2000/svg" width="51" height="49" viewBox="0 0 51 49" fill="none">
  <g id="Group 88673" clip-path="url(#clip0_328_622)">
    <g id="Group 88673_2">
      <path id="Path 138312" d="M24.6928 17.2983L24.6928 17.2983C23.4696 16.6706 22.1677 16.217 20.8238 15.9501L24.6928 17.2983ZM24.6928 17.2983L24.6972 17.3005M24.6928 17.2983L24.6972 17.3005M24.6972 17.3005C26.8003 18.3635 28.6475 19.8876 30.1055 21.7643L30.1068 21.7659M24.6972 17.3005L30.1068 21.7659M30.1068 21.7659C31.1061 23.0453 31.9036 24.4758 32.4705 26.0062C32.8732 27.1389 33.1735 28.3068 33.3675 29.4952L33.3683 29.4998C33.5606 30.6355 33.6051 31.792 33.5008 32.9397L33.5008 32.94M30.1068 21.7659L33.5008 32.94M33.5008 32.94C33.403 34.0217 33.2051 35.0914 32.9096 36.1349C32.6144 37.1547 32.2411 38.1492 31.793 39.1091C30.9164 40.9601 29.6743 42.6062 28.1455 43.9449L28.1454 43.9448M33.5008 32.94L28.1454 43.9448M28.1454 43.9448L28.1355 43.9537M28.1454 43.9448L28.1355 43.9537M28.1355 43.9537C26.8319 45.1341 25.3435 46.0831 23.7325 46.7616L23.7305 46.7624M28.1355 43.9537L23.7305 46.7624M23.7305 46.7624C21.2293 47.8238 18.5019 48.2087 15.8124 47.8804C14.9318 47.7505 14.0704 47.5084 13.2487 47.1597L13.2381 47.1552M23.7305 46.7624L13.2381 47.1552M13.2381 47.1552L13.2274 47.151M13.2381 47.1552L13.2274 47.151M13.2274 47.151C12.5665 46.8927 11.9666 46.6031 11.3379 46.2997C10.9166 46.0963 10.4824 45.8867 10.0082 45.6761L9.98496 45.6658M13.2274 47.151L9.98496 45.6658M9.98496 45.6658L9.96111 45.657M9.98496 45.6658L9.96111 45.657M9.96111 45.657C9.75911 45.5822 9.54331 45.552 9.32841 45.5685M9.96111 45.657L8.68616 45.7695M8.68616 45.7695L8.7173 45.7522C8.90492 45.648 9.11301 45.585 9.32841 45.5685M8.68616 45.7695L8.65667 45.7894M8.68616 45.7695L8.65667 45.7894M9.32841 45.5685L9.38965 46.3661L9.3284 45.5685C9.3284 45.5685 9.32841 45.5685 9.32841 45.5685ZM8.65667 45.7894C7.52375 46.5574 6.2664 47.1148 4.94353 47.4361C3.9301 47.6727 2.89074 47.7641 1.85513 47.7089M8.65667 45.7894L1.85513 47.7089M1.85513 47.7089C2.83139 46.7599 3.57668 45.5891 4.0275 44.2892C4.4313 43.2597 4.58424 42.1466 4.47361 41.0445L4.46531 40.9618L4.44021 40.8827C4.2645 40.3284 4.01482 39.8008 3.69752 39.3149C3.16438 38.2953 2.69758 37.2411 2.30069 36.1591C1.77342 34.3829 1.60024 32.5171 1.79133 30.6712L1.79241 30.6607L1.79322 30.6502C1.87694 29.5629 2.04915 28.4846 2.30799 27.4263C2.77435 25.6924 3.53257 24.0545 4.54856 22.5854L4.54859 22.5855L4.55248 22.5797C5.7167 20.8647 7.19912 19.3991 8.91528 18.2651L8.91643 18.2643C10.4402 17.2535 12.1231 16.518 13.8914 16.0897C15.1159 15.795 16.3656 15.6233 17.6228 15.5772C17.9786 15.6161 18.3206 15.6469 18.6536 15.677C19.4038 15.7446 20.1084 15.8082 20.8236 15.95L1.85513 47.7089ZM1.27016 48.2312C1.26905 48.2335 1.26886 48.2336 1.26997 48.2315L1.27016 48.2312ZM28.6431 31.896L28.6434 31.8884L28.6435 31.8808C28.651 31.4707 28.5788 31.0627 28.4302 30.6801C28.2818 30.2979 28.0602 29.9483 27.7771 29.652L27.1986 30.2045L27.7771 29.652C27.4942 29.3557 27.1555 29.1186 26.7805 28.9551C26.4095 28.7934 26.0103 28.707 25.6062 28.7012C25.1971 28.6848 24.7892 28.7532 24.4074 28.9019C24.0213 29.0523 23.6709 29.2815 23.3772 29.5741C23.0835 29.8668 22.8527 30.2169 22.6985 30.6025C22.5468 30.9816 22.4723 31.3872 22.4786 31.7953C22.469 32.2025 22.5397 32.6081 22.6872 32.988C22.8373 33.3744 23.0638 33.7264 23.3535 34.0221C23.6434 34.318 23.9905 34.5511 24.3736 34.7065C24.7543 34.8609 25.1622 34.9353 25.5727 34.9246C26.3733 34.9158 27.1374 34.5944 27.7078 34.0307C28.2798 33.4656 28.6132 32.7007 28.6431 31.896ZM17.635 34.9416L17.6501 34.9421L17.6652 34.942C18.4801 34.9392 19.2584 34.6113 19.8342 34.0331C20.4075 33.4574 20.735 32.6792 20.7504 31.8653C20.7641 31.4536 20.6955 31.0433 20.5492 30.6591L19.8016 30.9438L20.5492 30.659C20.4019 30.2723 20.1785 29.9189 19.8913 29.621C19.604 29.323 19.2592 29.0871 18.8781 28.9282C18.5008 28.7709 18.0959 28.6924 17.6873 28.6979C17.2818 28.6936 16.8799 28.7711 16.5047 28.9255C16.1258 29.0814 15.7817 29.3125 15.4931 29.6047C15.2046 29.8968 14.9772 30.2438 14.8236 30.6249C14.6699 31.0062 14.5929 31.4143 14.5966 31.8254H14.5965L14.5969 31.8385C14.6174 32.6463 14.9402 33.4184 15.5035 33.9961C16.0672 34.5742 16.8293 34.9139 17.635 34.9416ZM6.70119 31.7762L6.70088 31.7922L6.7012 31.8081C6.71791 32.625 7.04354 33.4064 7.61438 33.989C8.18565 34.5721 8.95882 34.9109 9.77355 34.9305L9.77355 34.9306L9.78397 34.9307C10.1903 34.9352 10.5933 34.8572 10.969 34.7016C11.3448 34.5459 11.685 34.316 11.9705 34.0261L11.4006 33.4647L11.9705 34.0261C12.256 33.7364 12.4815 33.3922 12.6339 33.014C12.784 32.6416 12.8604 32.2435 12.8595 31.8423C12.8726 31.4382 12.8063 31.035 12.6636 30.6563C12.5189 30.2722 12.2986 29.9209 12.015 29.6242C11.7314 29.3275 11.3905 29.092 11.0132 28.9325C10.6389 28.7743 10.2367 28.6944 9.83041 28.6979C9.01129 28.6899 8.22424 29.0107 7.63956 29.5866C7.05306 30.1643 6.71727 30.9517 6.70119 31.7762Z" stroke="white" stroke-width="1.6"></path>
      <path id="Path 138315" d="M46.7593 28.4233L46.7611 28.4417L46.7637 28.4599C47.0149 30.2306 47.7727 31.8767 48.9292 33.2005C48.3584 33.3168 47.6518 33.4212 46.8983 33.4417C45.0524 33.492 43.1406 33.043 42.0592 31.3172L41.6396 30.6477L40.965 31.0589L40.9649 31.0589L40.9649 31.0589L40.9645 31.0592L40.9623 31.0605L40.9531 31.0661L40.9157 31.0887C40.8992 31.0986 40.8788 31.1109 40.8546 31.1254C40.8301 31.1401 40.8019 31.157 40.7701 31.1759C40.6436 31.2512 40.4613 31.3589 40.2392 31.4872C39.7943 31.7443 39.1937 32.0821 38.5662 32.4086C37.9344 32.7372 37.2941 33.0445 36.7649 33.2476C36.722 33.2641 36.6804 33.2796 36.6402 33.2943C36.6626 32.7411 36.6699 31.9921 36.6213 31.1047C36.5155 29.1768 36.1445 26.5742 35.0741 23.9047C34.0016 21.2299 32.2235 18.4809 29.3072 16.29C26.5929 14.2507 22.9333 12.7256 18.0254 12.1642C18.1882 11.8359 18.3976 11.4383 18.6565 10.9921C19.4063 9.70009 20.5637 8.01364 22.1944 6.42681C25.4318 3.27644 30.5453 0.497889 38.1689 2.01347L38.1802 2.01637C38.1999 2.02153 38.2315 2.03002 38.2741 2.04212C38.3593 2.06634 38.4885 2.105 38.6549 2.16051C38.9879 2.27158 39.4686 2.44969 40.0435 2.71374C41.1949 3.24264 42.7125 4.11111 44.177 5.46668C47.0715 8.14579 49.8376 12.7962 49.0259 20.7436C49.0206 20.7681 49.0128 20.8036 49.0028 20.8487C48.9817 20.944 48.9505 21.0824 48.9104 21.2525C48.8302 21.5932 48.7152 22.0589 48.576 22.56C48.4363 23.0626 48.2747 23.5921 48.1019 24.0632C47.9254 24.5446 47.755 24.9153 47.6085 25.1355C46.9492 26.0951 46.6486 27.2608 46.7593 28.4233Z" stroke="white" stroke-width="1.6"></path>
    </g>
  </g>
  <defs>
    <clipPath id="clip0_328_622">
      <rect width="50" height="48" fill="white" transform="translate(0.5 0.787354)"></rect>
    </clipPath>
  </defs>
</svg>
