<?xml version="1.0" encoding="UTF-8"?>
<svg xmlns="http://www.w3.org/2000/svg" width="51" height="51" viewBox="0 0 51 51" fill="none">
  <g id="score">
    <path id="Vector" d="M25.5 34.3811C21.625 34.3811 18.4688 37.5374 18.4688 41.4124C18.4688 45.2874 21.625 48.4436 25.5 48.4436C29.375 48.4436 32.5312 45.2874 32.5312 41.4124C32.5312 37.5374 29.375 34.3811 25.5 34.3811ZM25.5 46.8811C22.4844 46.8811 20.0312 44.428 20.0312 41.4124C20.0312 38.3967 22.4844 35.9436 25.5 35.9436C28.5156 35.9436 30.9688 38.3967 30.9688 41.4124C30.9688 44.428 28.5156 46.8811 25.5 46.8811Z" fill="white"></path>
    <path id="Vector_2" d="M27.8438 42.5842H23.1562C22.7266 42.5842 22.375 42.9358 22.375 43.3655C22.375 43.7952 22.7266 44.1467 23.1562 44.1467H27.8438C28.2734 44.1467 28.625 43.7952 28.625 43.3655C28.625 42.9358 28.2734 42.5842 27.8438 42.5842Z" fill="white"></path>
    <path id="Vector_3" d="M20.8125 26.5686C20.8125 29.1546 22.9141 31.2561 25.5 31.2561C28.0859 31.2561 30.1875 29.1546 30.1875 26.5686C30.1875 23.9827 28.0859 21.8811 25.5 21.8811C25.1172 21.8811 24.75 21.928 24.3984 22.014L19.1875 9.8499C19.0156 9.45146 18.5547 9.27177 18.1641 9.44365C17.7656 9.61552 17.5859 10.0765 17.75 10.4671L22.9609 22.6311C21.6719 23.4671 20.8125 24.9202 20.8125 26.5686ZM25.5 23.4436C27.2266 23.4436 28.625 24.8421 28.625 26.5686C28.625 28.2952 27.2266 29.6936 25.5 29.6936C23.7734 29.6936 22.375 28.2952 22.375 26.5686C22.375 24.8421 23.7734 23.4436 25.5 23.4436Z" fill="white"></path>
    <path id="Vector_4" d="M38.7812 27.3499H48.1562C48.5859 27.3499 48.9375 26.9983 48.9375 26.5686C48.9375 20.303 46.5 14.4202 42.0781 9.99048C37.6562 5.5686 31.7656 3.1311 25.5 3.1311C19.2344 3.1311 13.3516 5.5686 8.92188 9.99048C4.5 14.4124 2.0625 20.303 2.0625 26.5686C2.0625 26.9983 2.41406 27.3499 2.84375 27.3499H12.2188C12.6484 27.3499 13 26.9983 13 26.5686C13 23.2327 14.3047 20.092 16.6641 17.7327C17.0781 17.3186 17.5312 16.9202 18.0078 16.5608C18.3516 16.303 18.4219 15.8108 18.1641 15.467C17.9062 15.1233 17.4141 15.053 17.0703 15.3108C16.7422 15.553 16.4297 15.8186 16.125 16.0842L10.5938 10.553C14.4609 6.9436 19.4297 4.88892 24.7188 4.70923V12.5295C24.1953 12.5608 23.6719 12.6155 23.1641 12.7092C22.7422 12.7795 22.4531 13.1858 22.5312 13.6155C22.6094 14.0452 23.0078 14.3264 23.4375 14.2483C24.1094 14.1311 24.8047 14.0686 25.5078 14.0686C28.8437 14.0686 31.9844 15.3655 34.3438 17.7327C36.7031 20.092 38.0078 23.2327 38.0078 26.5686C38.0078 26.9983 38.3594 27.3499 38.7891 27.3499H38.7812ZM11.4609 25.7874H3.64062C3.82812 20.4905 5.88281 15.5295 9.49219 11.6624L15.0234 17.1936C12.8828 19.5842 11.6406 22.5842 11.4609 25.7874ZM26.2812 4.70923C31.5781 4.89673 36.5391 6.95142 40.4062 10.553L34.875 16.0842C32.4844 13.9436 29.4844 12.7014 26.2812 12.5217V4.70923ZM41.5156 11.6624C45.125 15.5295 47.1797 20.4983 47.3672 25.7874H39.5469C39.375 22.5842 38.125 19.5842 35.9844 17.1936L41.5156 11.6624Z" fill="white"></path>
    <path id="Vector_5" d="M23.1562 40.6311C23.8035 40.6311 24.3281 40.1064 24.3281 39.4592C24.3281 38.812 23.8035 38.2874 23.1562 38.2874C22.509 38.2874 21.9844 38.812 21.9844 39.4592C21.9844 40.1064 22.509 40.6311 23.1562 40.6311Z" fill="white"></path>
    <path id="Vector_6" d="M27.8438 40.6311C28.491 40.6311 29.0156 40.1064 29.0156 39.4592C29.0156 38.812 28.491 38.2874 27.8438 38.2874C27.1965 38.2874 26.6719 38.812 26.6719 39.4592C26.6719 40.1064 27.1965 40.6311 27.8438 40.6311Z" fill="white"></path>
    <path id="Vector_7" d="M9.09375 34.3811C5.21875 34.3811 2.0625 37.5374 2.0625 41.4124C2.0625 45.2874 5.21875 48.4436 9.09375 48.4436C12.9688 48.4436 16.125 45.2874 16.125 41.4124C16.125 37.5374 12.9688 34.3811 9.09375 34.3811ZM9.09375 46.8811C6.07812 46.8811 3.625 44.428 3.625 41.4124C3.625 38.3967 6.07812 35.9436 9.09375 35.9436C12.1094 35.9436 14.5625 38.3967 14.5625 41.4124C14.5625 44.428 12.1094 46.8811 9.09375 46.8811Z" fill="white"></path>
    <path id="Vector_8" d="M9.0938 41.803C7.13287 41.803 6.14068 43.2639 6.10162 43.3264C5.86724 43.6858 5.96099 44.1624 6.31255 44.4045C6.66412 44.6467 7.14849 44.553 7.39849 44.2014C7.42193 44.1702 7.99224 43.3733 9.0938 43.3733C10.1954 43.3733 10.7579 44.1545 10.7891 44.2014C10.9376 44.4202 11.1876 44.5452 11.4376 44.5452C11.586 44.5452 11.7344 44.5061 11.8672 44.4124C12.2266 44.1702 12.3204 43.6858 12.086 43.3264C12.0469 43.2639 11.0469 41.803 9.0938 41.803Z" fill="white"></path>
    <path id="Vector_9" d="M6.75 40.6311C7.39721 40.6311 7.92188 40.1064 7.92188 39.4592C7.92188 38.812 7.39721 38.2874 6.75 38.2874C6.10279 38.2874 5.57812 38.812 5.57812 39.4592C5.57812 40.1064 6.10279 40.6311 6.75 40.6311Z" fill="white"></path>
    <path id="Vector_10" d="M11.4375 40.6311C12.0847 40.6311 12.6094 40.1064 12.6094 39.4592C12.6094 38.812 12.0847 38.2874 11.4375 38.2874C10.7903 38.2874 10.2656 38.812 10.2656 39.4592C10.2656 40.1064 10.7903 40.6311 11.4375 40.6311Z" fill="white"></path>
    <path id="Vector_11" d="M41.9062 34.3811C38.0312 34.3811 34.875 37.5374 34.875 41.4124C34.875 45.2874 38.0312 48.4436 41.9062 48.4436C45.7812 48.4436 48.9375 45.2874 48.9375 41.4124C48.9375 37.5374 45.7812 34.3811 41.9062 34.3811ZM41.9062 46.8811C38.8906 46.8811 36.4375 44.428 36.4375 41.4124C36.4375 38.3967 38.8906 35.9436 41.9062 35.9436C44.9219 35.9436 47.375 38.3967 47.375 41.4124C47.375 44.428 44.9219 46.8811 41.9062 46.8811Z" fill="white"></path>
    <path id="Vector_12" d="M43.6012 42.5374C43.6012 42.5374 43.0075 43.3655 41.9059 43.3655C40.8043 43.3655 40.234 42.5686 40.2106 42.5452C39.9684 42.1858 39.484 42.0921 39.1247 42.3264C38.7653 42.5686 38.6715 43.053 38.9059 43.4124C38.945 43.4749 39.945 44.9358 41.8981 44.9358C43.8512 44.9358 44.8512 43.4749 44.8903 43.4124C45.1247 43.053 45.0309 42.5764 44.6793 42.3343C44.3278 42.0921 43.8434 42.1858 43.5934 42.5374H43.6012Z" fill="white"></path>
    <path id="Vector_13" d="M39.5625 40.6311C40.2097 40.6311 40.7344 40.1064 40.7344 39.4592C40.7344 38.812 40.2097 38.2874 39.5625 38.2874C38.9153 38.2874 38.3906 38.812 38.3906 39.4592C38.3906 40.1064 38.9153 40.6311 39.5625 40.6311Z" fill="white"></path>
    <path id="Vector_14" d="M44.25 40.6311C44.8972 40.6311 45.4219 40.1064 45.4219 39.4592C45.4219 38.812 44.8972 38.2874 44.25 38.2874C43.6028 38.2874 43.0781 38.812 43.0781 39.4592C43.0781 40.1064 43.6028 40.6311 44.25 40.6311Z" fill="white"></path>
  </g>
</svg>
