<?xml version="1.0" encoding="UTF-8"?>
<svg xmlns="http://www.w3.org/2000/svg" width="75" height="74" viewBox="0 0 75 74" fill="none">
  <g id="Group">
    <path id="Vector" d="M60.3001 36.9729C60.3001 41.2273 60.2884 45.4818 60.3118 49.7401C60.3156 50.2724 60.1447 50.5443 59.6862 50.8085C52.3818 55.0047 45.089 59.2086 37.8079 63.4475C37.2057 63.7972 36.8016 63.7622 36.2188 63.4242C28.961 59.2047 21.6877 55.0125 14.4066 50.8357C13.886 50.5366 13.7267 50.2141 13.7305 49.6352C13.75 41.204 13.75 32.7767 13.7305 24.3456C13.7305 23.7511 13.9248 23.448 14.4299 23.1566C21.7576 18.9488 29.0737 14.7255 36.3859 10.4905C36.8211 10.2379 37.1397 10.1758 37.6214 10.4555C44.9492 14.7138 52.2924 18.9488 59.6435 23.1644C60.168 23.4636 60.3195 23.7938 60.3156 24.3728C60.2884 28.5728 60.3001 32.7728 60.3001 36.9729ZM34.3966 56.349C34.4122 56.1081 34.4316 55.9566 34.4316 55.8051C34.4316 50.1519 34.4277 44.4988 34.4471 38.8417C34.4471 38.3638 34.2645 38.1307 33.876 37.9092C29.0931 35.1623 24.3219 32.3998 19.543 29.649C19.3681 29.548 19.1739 29.4858 18.9524 29.3848C18.9369 29.5636 18.9175 29.6685 18.9175 29.7734C18.9175 35.4809 18.9252 41.1885 18.898 46.896C18.8941 47.4166 19.1545 47.5915 19.5158 47.7974C24.2714 50.5366 29.0232 53.2796 33.775 56.0227C33.9537 56.1276 34.1441 56.2169 34.3966 56.349ZM39.6068 56.3646C39.8477 56.2519 39.9487 56.2169 40.0381 56.1625C44.9064 53.3534 49.7708 50.5327 54.6508 47.743C55.0976 47.4866 55.1287 47.1796 55.1287 46.76C55.121 41.2157 55.1248 35.6674 55.121 30.123C55.121 29.8938 55.1015 29.6685 55.0899 29.3537C54.8606 29.4664 54.7169 29.5286 54.5848 29.6063C49.7631 32.3882 44.9453 35.1817 40.1119 37.9442C39.6379 38.2162 39.6029 38.5464 39.6029 38.9933C39.6107 44.5376 39.6068 50.0859 39.6068 55.6302C39.6068 55.84 39.6068 56.046 39.6068 56.3646ZM52.2575 24.9478C52.0982 24.8351 51.9971 24.7457 51.8845 24.6836C47.0861 21.9095 42.2838 19.147 37.501 16.3573C37.0503 16.097 36.7667 16.2524 36.4092 16.4583C32.2869 18.84 28.1607 21.2179 24.0383 23.5957C23.2962 24.0231 22.5619 24.4621 21.7537 24.9322C22.0646 25.1187 22.286 25.2586 22.5153 25.3907C27.1272 28.056 31.7429 30.7097 36.3393 33.3945C36.8483 33.6937 37.2096 33.682 37.7147 33.3906C42.2683 30.7369 46.8413 28.1104 51.4027 25.4723C51.6824 25.313 51.9428 25.142 52.2575 24.9478Z" fill="white"></path>
    <path id="Vector_2" d="M0 19.6831C0 13.113 0 6.58175 0 0C6.57398 0 13.1052 0 19.7025 0C19.7025 1.67846 19.7025 3.35693 19.7025 5.11698C14.8575 5.11698 10.0475 5.11698 5.15195 5.11698C5.15195 10.0086 5.15195 14.8148 5.15195 19.687C3.41132 19.6831 1.75617 19.6831 0 19.6831Z" fill="white"></path>
    <path id="Vector_3" d="M68.9253 19.6948C68.9253 14.842 68.9253 10.0553 68.9253 5.15199C64.0415 5.15199 59.212 5.15199 54.332 5.15199C54.332 3.38416 54.332 1.72901 54.332 0.0078125C60.871 0.0078125 67.4023 0.0078125 74.0073 0.0078125C74.0073 6.53517 74.0073 13.0858 74.0073 19.6909C72.3522 19.6948 70.6932 19.6948 68.9253 19.6948Z" fill="white"></path>
    <path id="Vector_4" d="M5.10547 68.8907C10.0554 68.8907 14.8615 68.8907 19.7182 68.8907C19.7182 70.6313 19.7182 72.2865 19.7182 73.9999C13.1559 73.9999 6.62463 73.9999 0.0273438 73.9999C0.0273438 67.4492 0.0273438 60.8986 0.0273438 54.3013C1.70969 54.3013 3.36485 54.3013 5.10547 54.3013C5.10547 59.1307 5.10547 63.9408 5.10547 68.8907Z" fill="white"></path>
    <path id="Vector_5" d="M54.3281 68.8985C59.1848 68.8985 63.9754 68.8985 68.8787 68.8985C68.8787 64.0146 68.8787 59.1891 68.8787 54.3091C70.6465 54.3091 72.3055 54.3091 74.019 54.3091C74.019 60.852 74.019 67.3832 74.019 73.9844C67.4838 73.9844 60.9332 73.9844 54.3281 73.9844C54.3281 72.3215 54.3281 70.6624 54.3281 68.8985Z" fill="white"></path>
    <path id="Vector_6" d="M34.397 56.349C34.1406 56.2169 33.9541 56.1275 33.7754 56.0226C29.0236 53.2795 24.2718 50.5365 19.5162 47.7973C19.1588 47.5914 18.8984 47.4166 18.8984 46.8959C18.9256 41.1884 18.914 35.4808 18.9179 29.7733C18.9179 29.6684 18.9373 29.5674 18.9528 29.3848C19.1743 29.4819 19.3686 29.5479 19.5434 29.649C24.3223 32.4037 29.0935 35.1661 33.8764 37.9092C34.261 38.1306 34.4475 38.3599 34.4475 38.8417C34.4281 44.4948 34.4359 50.148 34.432 55.805C34.432 55.9565 34.4126 56.1081 34.397 56.349Z" fill="#1F1F1F"></path>
    <path id="Vector_7" d="M39.6074 56.3646C39.6074 56.0499 39.6074 55.84 39.6074 55.6302C39.6074 50.0859 39.6113 44.5376 39.6035 38.9933C39.6035 38.5426 39.6385 38.2123 40.1125 37.9442C44.9458 35.1818 49.7637 32.3882 54.5853 29.6063C54.7174 29.5286 54.8612 29.4664 55.0904 29.3538C55.106 29.6685 55.1215 29.8938 55.1215 30.1231C55.1215 35.6674 55.1215 41.2157 55.1293 46.76C55.1293 47.1797 55.0982 47.4866 54.6514 47.743C49.7714 50.5327 44.907 53.3534 40.0387 56.1625C39.9493 56.213 39.8483 56.2519 39.6074 56.3646Z" fill="#1F1F1F"></path>
    <path id="Vector_8" d="M52.2577 24.9477C51.9429 25.1419 51.6787 25.3129 51.4068 25.4722C46.8415 28.1064 42.2724 30.7329 37.7188 33.3905C37.2137 33.6858 36.8523 33.6935 36.3433 33.3944C31.747 30.7096 27.1273 28.0559 22.5193 25.3906C22.2901 25.2585 22.0686 25.1186 21.7578 24.9321C22.566 24.4581 23.3003 24.0229 24.0424 23.5956C28.1647 21.2177 32.291 18.8399 36.4133 16.4582C36.7707 16.2523 37.0544 16.0969 37.5051 16.3572C42.2918 19.1469 47.094 21.9093 51.8885 24.6835C52.0012 24.7456 52.1022 24.8311 52.2577 24.9477Z" fill="#1F1F1F"></path>
  </g>
</svg>
