<?xml version="1.0" encoding="UTF-8"?>
<svg xmlns="http://www.w3.org/2000/svg" width="74" height="74" viewBox="0 0 74 74" fill="none">
  <g id="Group">
    <path id="Vector" d="M10.5132 36.9851C3.98511 33.0235 0.168135 27.466 0.0141491 19.7667C-0.102507 14.1299 2.01129 9.39371 5.96825 5.40875C12.9069 -1.56725 28.2168 -3.5504 37.0127 10.3923C41.9822 2.43637 49.0469 -1.36194 58.3606 0.443889C66.2886 1.97908 71.4867 7.0746 73.3299 14.8812C75.495 24.0363 71.9207 31.1803 64.2774 36.4718C70.9688 44.7684 71.3188 53.2982 65.304 62.374C67.6278 64.6605 70.0262 67.0309 72.4386 69.392C73.6052 70.5306 74.7811 71.7812 73.2086 73.3023C71.6267 74.8282 70.4135 73.545 69.2983 72.4018C66.9745 70.0266 64.66 67.6422 62.3689 65.2904C52.8685 72.0658 42.8641 70.0686 36.504 64.2685C30.7739 72.3551 23.168 75.9294 13.4296 72.9197C6.01025 70.6239 1.43268 65.2531 0.266125 57.5865C-1.09175 48.618 2.64123 41.8053 10.5132 36.9851ZM65.192 50.0412C65.192 41.628 58.5333 34.8433 50.1248 34.7033C41.8749 34.5633 34.6702 41.7073 34.6702 50.0272C34.6702 58.4451 41.5762 65.2484 50.1061 65.2344C58.5613 65.2204 65.192 58.5384 65.192 50.0412ZM4.33041 19.5801C4.34441 27.9793 11.0498 34.778 19.435 34.8853C27.7082 34.9926 34.8522 27.8766 34.8522 19.5288C34.8522 11.1249 27.9368 4.34485 19.3837 4.35885C10.9518 4.37285 4.31641 11.0782 4.33041 19.5801ZM19.5516 39.2062C12.1603 39.1922 5.81427 44.3297 4.4424 51.4504C3.02386 58.8137 7.13481 66.107 14.1761 68.7201C20.9888 71.2492 28.8374 68.4961 32.4584 62.1874C32.9064 61.4081 33.1117 60.0549 32.7384 59.313C30.6106 55.0621 30.018 50.6851 30.8486 46.0283C30.9792 45.291 30.6573 44.1944 30.1346 43.6671C27.2509 40.7321 23.6906 39.2389 19.5516 39.2062ZM39.1265 19.4074C39.1405 23.4577 40.587 26.9247 43.3027 29.9064C44.138 30.821 44.9079 31.241 46.2984 30.9283C50.666 29.9391 54.931 30.4897 58.8646 32.6782C60.1478 33.3921 61.0811 33.2335 62.2383 32.5289C68.463 28.7492 71.2208 20.9799 68.7057 14.1579C66.0832 7.04193 58.7993 2.98232 51.24 4.41951C44.3013 5.74472 39.1311 12.1421 39.1265 19.4074ZM37.1993 29.0245C34.4182 31.7869 31.6792 34.5167 28.9727 37.2091C30.1626 38.0723 30.7413 38.175 32.1505 39.2016C31.8705 38.8983 32.4304 39.5049 32.1505 39.2016C34.4976 36.8171 36.8447 34.4327 39.1871 32.0482C38.8978 31.7496 39.4764 32.3469 39.1871 32.0482C38.1932 30.6764 38.0626 30.2097 37.1993 29.0245Z" fill="white"></path>
    <path id="Vector_2" d="M65.191 50.0413C65.191 58.5432 58.5602 65.2206 50.1097 65.2346C41.5752 65.2439 34.6738 58.4452 34.6738 50.0273C34.6738 41.7074 41.8785 34.5635 50.1284 34.7034C58.5322 34.8434 65.191 41.6235 65.191 50.0413ZM59.7128 51.6652C60.5201 50.9839 60.8887 49.9107 60.744 48.8654C59.9741 43.3873 55.2379 39.0244 50.427 39.267C50.2357 39.2763 50.049 39.3417 49.8624 39.4397C48.5419 40.1489 48.2805 42.0107 49.3724 43.042C49.5404 43.196 49.7131 43.3033 49.8951 43.3266C53.9173 43.8726 56.1525 45.9537 56.5958 49.9947C56.7497 51.4225 57.6037 52.4678 59.0362 52.0478C59.2788 51.9778 59.5028 51.8378 59.7128 51.6652Z" fill="#1F1F1F"></path>
    <path id="Vector_3" d="M4.3301 19.5801C4.3161 11.0783 10.9515 4.37291 19.3833 4.35891C27.9365 4.34491 34.8472 11.1249 34.8519 19.5288C34.8519 27.8767 27.7079 34.9974 19.4347 34.8854C11.0495 34.778 4.33943 27.9793 4.3301 19.5801ZM17.7175 29.2439C18.8747 29.6918 20.1626 29.6918 21.3245 29.2439C23.275 28.4926 25.1181 27.7927 26.91 26.9714C28.2398 26.3648 28.5385 25.063 27.7872 23.8451C26.9893 22.5432 25.7527 22.6365 24.5629 23.4018C21.1565 25.5996 17.7688 25.4922 14.3812 23.3598C13.1679 22.5945 11.8101 22.5479 11.2828 23.9384C10.9888 24.7223 11.4134 26.4488 12.0387 26.7801C13.8259 27.7507 15.739 28.474 17.7175 29.2439ZM28.1092 14.2653C28.2025 12.6135 28.1745 10.8963 26.0094 10.9196C24.0776 10.9383 23.8909 12.5155 23.8723 14.0833C23.8489 15.6745 24.1102 17.2144 25.9907 17.2844C27.9365 17.359 28.2632 15.8518 28.1092 14.2653ZM15.0531 14.186C15.1697 12.5855 15.0811 10.887 12.93 10.9243C11.0168 10.957 10.8208 12.5061 10.7975 14.0927C10.7742 15.7118 11.0728 17.2237 12.9253 17.289C14.8431 17.359 15.2257 15.8658 15.0531 14.186Z" fill="#1F1F1F"></path>
    <path id="Vector_4" d="M19.5516 39.2061C23.6906 39.2434 27.2509 40.7319 30.1346 43.6717C30.6573 44.1989 30.9792 45.2955 30.8486 46.0328C30.018 50.6897 30.6106 55.0713 32.7384 59.3175C33.1117 60.0595 32.9064 61.4127 32.4584 62.1919C28.8374 68.5007 20.9888 71.2491 14.1761 68.7246C7.13015 66.1115 3.0192 58.8182 4.4424 51.4549C5.81427 44.3296 12.1603 39.1921 19.5516 39.2061ZM19.4723 63.0132C20.9422 63.0132 22.468 63.2465 23.8632 62.9245C24.6752 62.7332 25.837 61.6413 25.8277 60.9694C25.8184 60.2274 24.6938 58.9302 23.9706 58.8696C21.0495 58.6223 18.0864 58.6036 15.1701 58.8602C14.9181 58.8836 14.6754 59.0562 14.4421 59.3082C13.4715 60.3488 13.6629 62.0846 14.9087 62.7752C15.0394 62.8452 15.1747 62.9012 15.31 62.9338C16.6353 63.2418 18.0818 63.0132 19.4723 63.0132ZM15.0721 49.2805C15.0674 49.1871 15.0627 49.0985 15.0721 49.0052C15.1607 47.456 15.1187 45.8088 13.0283 45.7761C11.1384 45.7435 10.7978 47.2273 10.8025 48.8558C10.8118 50.5217 10.9938 52.1269 13.0703 52.1222C14.8434 52.1175 15.1701 50.769 15.0721 49.2805ZM28.1095 49.0285C28.1002 48.8978 28.1048 48.7718 28.1188 48.6412C28.2542 47.2647 28.0162 45.8368 26.145 45.7715C24.2319 45.7015 23.8726 47.1807 23.8772 48.7998C23.8772 50.433 23.9939 52.1035 26.0844 52.1175C28.0022 52.1315 28.2122 50.6617 28.1095 49.0285Z" fill="#1F1F1F"></path>
    <path id="Vector_5" d="M39.127 19.4075C39.1363 12.1422 44.3065 5.74477 51.2451 4.41956C58.7998 2.9777 66.0837 7.04198 68.7108 14.158C71.2259 20.98 68.4635 28.7539 62.2434 32.5289C61.0862 33.2335 60.1483 33.3922 58.8698 32.6782C54.9361 30.4898 50.6712 29.9392 46.3036 30.9284C44.9131 31.241 44.1431 30.8211 43.3079 29.9065C40.5875 26.9248 39.1363 23.4578 39.127 19.4075ZM57.5772 21.2786C55.4727 20.4994 53.1583 20.5087 51.0585 21.302C49.7146 21.8106 48.4127 22.3192 47.1482 22.9071C45.8417 23.5138 45.1417 24.7036 46.117 26.1362C46.9755 27.4054 48.1234 27.3681 49.3367 26.5795C52.6403 24.4237 55.986 24.391 59.3037 26.5095C60.6149 27.3494 61.8655 27.4707 62.6867 26.0615C63.494 24.6803 62.8454 23.4204 61.4828 22.8232C60.2136 22.2679 58.9164 21.7733 57.5772 21.2786ZM62.9994 14.3586C62.9947 14.1766 62.9947 13.9947 62.9994 13.808C63.0507 12.4315 62.8454 10.9896 61.0116 10.9289C58.9584 10.859 58.6971 12.4875 58.6784 14.1486C58.6598 15.7632 59.0377 17.2517 60.8856 17.2797C62.7381 17.317 63.0507 15.9171 62.9994 14.3586ZM49.9293 14.2046C50.0133 12.6228 49.9339 10.9896 47.9555 10.9243C45.8743 10.859 45.669 12.4828 45.6457 14.1486C45.627 15.7678 45.963 17.2703 47.8248 17.2843C49.738 17.303 50.0599 15.7725 49.9293 14.2046Z" fill="#1F1F1F"></path>
    <path id="Vector_6" d="M60.7452 48.8653C60.8899 49.9105 60.5213 50.9837 59.714 51.665C59.5087 51.8376 59.28 51.9823 59.0327 52.0523C57.6002 52.4676 56.751 51.4223 56.5923 49.9991C56.149 45.9582 53.9186 43.8724 49.8916 43.3311C49.7096 43.3078 49.537 43.2005 49.369 43.0465C48.2771 42.0199 48.5384 40.1581 49.8589 39.4441C50.0456 39.3415 50.2322 39.2808 50.4236 39.2715C55.2391 39.0242 59.9753 43.3871 60.7452 48.8653Z" fill="white"></path>
    <path id="Vector_7" d="M21.9656 29.0011C20.393 29.6077 18.6479 29.6077 17.08 28.9965C15.3302 28.3152 13.6363 27.6479 12.0498 26.7893C11.4292 26.4534 10.9999 24.7269 11.2939 23.9476C11.8165 22.5571 13.1744 22.6037 14.3923 23.369C17.7799 25.4968 21.1676 25.6088 24.574 23.411C25.7592 22.6457 26.9957 22.5524 27.7983 23.8543C28.5449 25.0722 28.251 26.3694 26.9211 26.9807C25.3206 27.7039 23.6827 28.3385 21.9656 29.0011Z" fill="white"></path>
    <path id="Vector_8" d="M28.1094 14.2653C28.268 15.8518 27.9367 17.3543 25.9909 17.2843C24.1104 17.2143 23.8491 15.6745 23.8724 14.0833C23.8958 12.5201 24.0824 10.9429 26.0096 10.9196C28.17 10.9009 28.2027 12.6181 28.1094 14.2653Z" fill="white"></path>
    <path id="Vector_9" d="M15.0537 14.1861C15.2263 15.8613 14.8437 17.3545 12.9259 17.2892C11.0734 17.2238 10.7748 15.7166 10.7981 14.0928C10.8214 12.5063 11.0221 10.9524 12.9306 10.9244C15.0817 10.8871 15.1703 12.5903 15.0537 14.1861Z" fill="white"></path>
    <path id="Vector_10" d="M19.4717 63.0132C18.0765 63.0132 16.63 63.2419 15.3141 62.9292C15.1741 62.8966 15.0388 62.8406 14.9128 62.7706C13.6669 62.08 13.4756 60.3441 14.4462 59.3036C14.6795 59.0516 14.9222 58.8789 15.1741 58.8556C18.0905 58.599 21.0582 58.6176 23.9746 58.8649C24.6979 58.9256 25.8178 60.2228 25.8318 60.9647C25.8411 61.6367 24.6792 62.7332 23.8673 62.9199C22.4674 63.2465 20.9416 63.0132 19.4717 63.0132Z" fill="white"></path>
    <path id="Vector_11" d="M15.0591 49.1454C15.1851 50.6853 14.8958 52.1225 13.0667 52.1225C10.9902 52.1271 10.8035 50.5266 10.7989 48.8561C10.7942 47.2276 11.1348 45.7437 13.0247 45.7764C15.1758 45.8137 15.1571 47.5542 15.0591 49.1454Z" fill="white"></path>
    <path id="Vector_12" d="M28.0999 48.8373C28.2259 50.5452 28.0812 52.1317 26.0841 52.1177C23.9936 52.1037 23.877 50.4332 23.877 48.8C23.877 47.1855 24.2316 45.7063 26.1447 45.7716C28.1046 45.8416 28.2772 47.4001 28.0999 48.8373Z" fill="white"></path>
    <path id="Vector_13" d="M51.0386 21.3066C53.1478 20.5087 55.4762 20.4993 57.59 21.2833C58.9199 21.7779 60.2124 22.2725 61.4816 22.8278C62.8442 23.425 63.4928 24.6849 62.6855 26.0661C61.8643 27.4707 60.6137 27.3493 59.3025 26.5141C55.9848 24.391 52.6391 24.4283 49.3355 26.5841C48.1222 27.3773 46.9743 27.41 46.1158 26.1408C45.1452 24.7036 45.8451 23.5137 47.147 22.9118C48.4069 22.3238 49.7041 21.8152 51.0386 21.3066Z" fill="white"></path>
    <path id="Vector_14" d="M62.9846 14.0833C63.0825 15.7491 62.8446 17.317 60.8894 17.2843C59.0369 17.2517 58.6636 15.7678 58.6823 14.1533C58.701 12.4874 58.9623 10.8636 61.0154 10.9336C62.9659 10.9942 63.0686 12.6274 62.9846 14.0833Z" fill="white"></path>
    <path id="Vector_15" d="M49.9288 14.2044C50.0642 15.7722 49.7375 17.3028 47.8244 17.2841C45.9626 17.2701 45.6266 15.7629 45.6452 14.1484C45.6639 12.4872 45.8692 10.8587 47.955 10.924C49.9288 10.9893 50.0082 12.6225 49.9288 14.2044Z" fill="white"></path>
  </g>
</svg>
