<?xml version="1.0" encoding="UTF-8"?>
<svg xmlns="http://www.w3.org/2000/svg" width="113" height="93" viewBox="0 0 113 93" fill="none">
  <g id="Group 90278">
    <path id="Path 164446" d="M0.609375 92.9986V88.3559H7.9196V86.8245C7.9196 75.4013 7.91341 63.9781 7.90099 52.5549C7.8627 52.1972 7.93059 51.8361 8.0962 51.5168C8.26181 51.1974 8.5178 50.9338 8.83223 50.759C11.4779 49.0879 14.0686 47.3297 16.71 45.6498C17.1708 45.3701 17.697 45.2163 18.2359 45.2037C20.8815 45.1604 23.5295 45.1832 26.2687 45.1832V31.5094L22.3403 33.6289L20.0439 29.5072C21.1213 28.8954 22.1284 28.3134 23.1421 27.7472C31.6576 22.9929 40.1777 18.2476 48.7023 13.5113C49.3797 13.1686 50.1256 12.9824 50.8846 12.9666C52.7872 12.8916 54.6948 12.9414 56.7123 12.9414V0C59.0162 0.666301 61.1823 1.35961 63.3833 1.90904C65.0446 2.32251 66.6659 1.95886 68.2145 1.24693C68.6227 1.09584 69.0407 0.972932 69.4656 0.879089V5.33274C67.7834 5.64191 66.0201 6.08379 64.2339 6.24443C63.3753 6.32265 62.4674 5.8789 61.5859 5.65494C60.4857 5.37557 59.3976 5.03101 58.2857 4.83033C58.0296 4.78377 57.4303 5.20282 57.4252 5.42166C57.3633 7.8806 57.3861 10.3419 57.3861 12.9433C59.2709 12.9433 61.0645 12.9139 62.8557 12.9619C63.3991 12.9698 63.9334 13.1035 64.4165 13.3526C73.9077 18.6224 83.39 23.9078 92.8635 29.2088C92.9892 29.2781 93.1024 29.3694 93.3487 29.5347L91.0671 33.6377L87.1354 31.4903V45.1837C88.1337 45.1837 89.1115 45.1795 90.0893 45.1837C92.0775 45.1967 94.1868 44.8084 96.0213 45.3485C97.813 45.877 99.3272 47.3539 100.961 48.4188C102.133 49.1829 103.269 50.0084 104.482 50.7004C105.304 51.1692 105.51 51.7606 105.506 52.6667C105.475 64.0526 105.468 75.4395 105.486 86.8273V88.2782H112.759V93L0.609375 92.9986ZM51.0634 66.9393V88.0142H62.3607V66.9393H51.0634ZM56.6653 26.2111C54.449 26.227 52.3284 27.1163 50.7638 28.6861C49.1991 30.2558 48.3167 32.3792 48.3079 34.5955C48.3271 36.8117 49.2154 38.9319 50.7817 40.4999C52.348 42.0679 54.4672 42.9584 56.6834 42.9799C58.9188 42.9681 61.0587 42.0718 62.6351 40.4869C64.2115 38.9019 65.0964 36.7574 65.0963 34.5219C65.0683 32.3056 64.1673 30.1898 62.5888 28.6338C61.0103 27.0778 58.8818 26.2073 56.6653 26.2111ZM19.2146 66.8597V56.0955H14.5784V66.8597H19.2146ZM23.8508 56.0703V66.8261H28.507V56.0703H23.8508ZM33.1478 56.0759V66.8187H37.7961V56.0759H33.1478ZM47.0959 56.1304H42.415V66.8285H47.0954L47.0959 56.1304ZM71.0208 56.115H66.3474V66.8033H71.0203L71.0208 56.115ZM75.5969 56.0815V66.8327H80.2699V56.0815H75.5969ZM89.5585 66.8643V56.1085H84.8921V66.8643H89.5585ZM98.8164 66.8504V56.1271H94.1602V66.8504H98.8164ZM33.1338 70.9674V81.7185H37.79V70.9674H33.1338ZM75.6179 70.9674V81.7381H80.2713V70.9674H75.6179ZM19.2584 70.9022C17.9681 70.9022 16.7906 70.9487 15.6237 70.8868C14.7763 70.8402 14.4597 71.0777 14.4853 71.9829C14.5458 74.3738 14.5058 76.7676 14.5049 79.1595V81.7204H19.2584V70.9022ZM28.5922 81.7381C28.5922 78.2329 28.601 74.8837 28.5726 71.5359C28.5726 71.3287 28.2905 70.9511 28.1298 70.9464C26.7083 70.8998 25.2854 70.9194 23.8615 70.9194V81.7381H28.5922ZM84.812 81.7274H89.5501V70.9078C88.2143 70.9078 86.9664 70.9445 85.7213 70.8938C84.967 70.8621 84.7901 71.1662 84.7989 71.8651C84.8325 74.371 84.812 76.8765 84.812 79.3825V81.7274ZM98.8918 81.7362C98.8918 78.2557 98.8993 74.845 98.8681 71.4321C98.8296 71.3102 98.7604 71.2003 98.6674 71.1128C98.5743 71.0252 98.4603 70.963 98.3363 70.932C96.9525 70.8887 95.5678 70.9082 94.1844 70.9082V81.7367L98.8918 81.7362ZM47.1452 81.7907C47.1452 78.252 47.155 74.8455 47.1169 71.4367C47.1169 71.2588 46.7057 70.945 46.4743 70.9352C45.3366 70.8739 44.1964 70.8761 43.059 70.9418C42.8975 70.988 42.7504 71.0747 42.6317 71.1935C42.513 71.3124 42.4266 71.4595 42.3805 71.6211C42.334 74.7822 42.34 77.9447 42.374 81.1071C42.374 81.3362 42.6823 81.753 42.8592 81.759C44.2426 81.8163 45.6306 81.7902 47.1434 81.7902L47.1452 81.7907ZM71.0506 81.7939C71.0506 78.252 71.0604 74.8432 71.0222 71.4353C71.0222 71.2584 70.6129 70.9436 70.3838 70.9329C69.2458 70.8727 68.1053 70.8759 66.9676 70.9427C66.8055 70.9883 66.6577 71.0747 66.5384 71.1937C66.419 71.3126 66.3321 71.46 66.2859 71.622C66.2393 74.7831 66.2468 77.9456 66.2803 81.1067C66.2803 81.3395 66.5876 81.7586 66.7646 81.7632C68.1484 81.8163 69.5345 81.7935 71.0487 81.7935L71.0506 81.7939ZM35.2245 42.9264V33.5414C34.2434 33.5414 33.3331 33.5707 32.4247 33.5316C31.7463 33.5032 31.5326 33.7788 31.54 34.4377C31.5693 36.5302 31.5498 38.6231 31.5498 40.7156V42.9264H35.2245ZM78.2058 33.5521V42.924H81.8348C81.8348 39.9138 81.8423 36.9543 81.8129 33.9939C81.8129 33.8454 81.487 33.5795 81.304 33.5716C80.2871 33.5316 79.2683 33.5525 78.2058 33.5525V33.5521ZM37.2443 33.5986V42.9077H40.8203V33.5986H37.2443ZM76.1491 42.9175V33.628H72.5941V42.9175H76.1491Z" fill="white"></path>
    <path id="Path 164447" d="M51.0645 66.9392H62.3604V88.0141H51.0645V66.9392Z" fill="#252525"></path>
    <path id="Path 164448" d="M56.6645 26.2111C58.8809 26.2072 61.0094 27.0778 62.5878 28.6337C64.1663 30.1895 65.0674 32.3053 65.0955 34.5215C65.0956 36.7569 64.2108 38.9015 62.6343 40.4864C61.0579 42.0713 58.9181 42.9676 56.6827 42.9795C54.4665 42.9581 52.3472 42.0676 50.7808 40.4997C49.2144 38.9318 48.3259 36.8117 48.3066 34.5955C48.3154 32.3791 49.198 30.2556 50.7627 28.6859C52.3275 27.1162 54.4482 26.2269 56.6645 26.2111ZM60.0635 39.5385L60.2805 39.2326C60.0915 38.9383 59.9224 38.6306 59.7097 38.3558C58.9707 37.3976 58.1545 36.4934 57.4928 35.4844C57.1317 34.9185 56.9131 34.2735 56.8559 33.6047C56.7572 32.3284 56.8461 31.0382 56.7995 29.7554C56.7898 29.497 56.5202 29.2474 56.373 28.9936C56.2366 29.2521 55.9866 29.5058 55.98 29.7694C55.94 31.3464 55.94 32.9239 55.9679 34.5019C55.9816 34.8264 56.0915 35.1396 56.2836 35.4015C57.2368 36.6587 58.2113 37.8986 59.217 39.1106C59.4037 39.3336 59.7767 39.3998 60.0635 39.5385Z" fill="#252525"></path>
    <path id="Path 164449" d="M19.2143 66.8578H14.5781V56.0936H19.2143V66.8578Z" fill="#252525"></path>
    <path id="Path 164450" d="M23.8516 56.0685H28.5078V66.8243H23.8516V56.0685Z" fill="#252525"></path>
    <path id="Path 164451" d="M33.1465 56.0741H37.7947V66.8168H33.1465V56.0741Z" fill="#252525"></path>
    <path id="Path 164452" d="M47.0945 56.1262V66.8243H42.4141V56.1262H47.0945Z" fill="#252525"></path>
    <path id="Path 164453" d="M71.0206 56.1131V66.8014H66.3477V56.1131H71.0206Z" fill="#252525"></path>
    <path id="Path 164454" d="M75.5977 56.0792H80.2706V66.8303H75.5977V56.0792Z" fill="#252525"></path>
    <path id="Path 164455" d="M89.559 66.8625H84.8926V56.1067H89.559V66.8625Z" fill="#252525"></path>
    <path id="Path 164456" d="M98.8163 66.8481H94.1602V56.1244H98.8163V66.8481Z" fill="#252525"></path>
    <path id="Path 164457" d="M33.1328 70.9674H37.789V81.7185H33.1328V70.9674Z" fill="#252525"></path>
    <path id="Path 164458" d="M75.6172 70.9683H80.2706V81.739H75.6172V70.9683Z" fill="#252525"></path>
    <path id="Path 164459" d="M19.2563 70.9021V81.7194H14.5032V79.1585C14.5032 76.7666 14.5442 74.3729 14.4837 71.9819C14.4599 71.0767 14.7747 70.8393 15.6221 70.8858C16.7903 70.9501 17.966 70.9021 19.2563 70.9021Z" fill="#252525"></path>
    <path id="Path 164460" d="M28.5916 81.7385H23.8613V70.9198C25.2852 70.9198 26.7081 70.9003 28.1297 70.9469C28.2903 70.951 28.5715 71.3287 28.5725 71.5363C28.6004 74.8841 28.5916 78.2329 28.5916 81.7385Z" fill="#252525"></path>
    <path id="Path 164461" d="M84.8103 81.7273V79.382C84.8103 76.8761 84.8308 74.3706 84.7973 71.8646C84.7875 71.1662 84.9653 70.8617 85.7197 70.8933C86.9647 70.9445 88.2126 70.9073 89.5484 70.9073V81.7269L84.8103 81.7273Z" fill="#252525"></path>
    <path id="Path 164462" d="M98.8895 81.7362H94.1816V70.9078C95.565 70.9078 96.9497 70.8882 98.3336 70.9315C98.4575 70.9625 98.5715 71.0248 98.6645 71.1123C98.7576 71.1999 98.8267 71.3098 98.8653 71.4316C98.8969 74.8427 98.8895 78.2562 98.8895 81.7362Z" fill="#252525"></path>
    <path id="Path 164463" d="M47.1444 81.7902C45.6316 81.7902 44.2436 81.814 42.8607 81.76C42.6838 81.7525 42.3778 81.3358 42.3755 81.1081C42.342 77.9456 42.3378 74.7836 42.382 71.622C42.4281 71.4605 42.5145 71.3134 42.6332 71.1945C42.7519 71.0756 42.899 70.989 43.0605 70.9427C44.1979 70.8771 45.3381 70.8749 46.4758 70.9362C46.7086 70.946 47.116 71.2598 47.1183 71.4377C47.1542 74.8451 47.1444 78.2539 47.1444 81.7902Z" fill="#252525"></path>
    <path id="Path 164464" d="M71.0487 81.7935C69.535 81.7935 68.1479 81.8186 66.765 81.7632C66.5881 81.7567 66.2831 81.3377 66.2808 81.1067C66.2473 77.9456 66.2407 74.7831 66.2864 71.622C66.3326 71.4601 66.4195 71.3126 66.5388 71.1937C66.6581 71.0748 66.8059 70.9884 66.968 70.9427C68.1057 70.876 69.2463 70.8727 70.3843 70.9329C70.6134 70.9436 71.0203 71.2589 71.0227 71.4353C71.0585 74.8446 71.0487 78.2515 71.0487 81.7935Z" fill="#252525"></path>
    <path id="Path 164465" d="M35.2243 42.9264H31.5511V40.7156C31.5511 38.6231 31.5706 36.5302 31.5413 34.4377C31.5324 33.7788 31.7462 33.5032 32.426 33.5316C33.3344 33.5707 34.2447 33.5414 35.2257 33.5414L35.2243 42.9264Z" fill="#252525"></path>
    <path id="Path 164466" d="M78.207 33.5525C79.2696 33.5525 80.2883 33.5306 81.3053 33.5721C81.4873 33.5795 81.8123 33.8454 81.8142 33.9944C81.8435 36.9548 81.836 39.9143 81.836 42.9245H78.207V33.5525Z" fill="#252525"></path>
    <path id="Path 164467" d="M37.2441 33.5981H40.8201V42.9073H37.2441V33.5981Z" fill="#252525"></path>
    <path id="Path 164468" d="M76.1488 42.917H72.5938V33.6275H76.1488V42.917Z" fill="#252525"></path>
    <path id="Path 164469" d="M60.0644 39.5385C59.7781 39.3988 59.4047 39.3337 59.2203 39.1111C58.2122 37.9005 57.2377 36.6573 56.2869 35.402C56.0948 35.14 55.9849 34.8269 55.9712 34.5024C55.9428 32.9244 55.9428 31.3464 55.9833 29.7698C55.9898 29.5081 56.2394 29.2521 56.3762 28.9941C56.5252 29.2479 56.7953 29.4974 56.8028 29.7559C56.8493 31.0386 56.7604 32.3289 56.8591 33.6051C56.9163 34.274 57.1349 34.919 57.4961 35.4848C58.1582 36.4929 58.9739 37.3981 59.7129 38.3563C59.9257 38.631 60.0947 38.9393 60.2837 39.2331L60.0644 39.5385Z" fill="white"></path>
  </g>
</svg>
