<?xml version="1.0" encoding="UTF-8"?>
<svg xmlns="http://www.w3.org/2000/svg" width="94" height="103" viewBox="0 0 94 103" fill="none">
  <g id="Group">
    <path id="Vector" d="M0.502636 90.1758C0.502636 89.7248 0.502636 89.5329 0.502636 89.344C0.502636 78.8902 0.493777 68.4334 0.508541 57.9796C0.514447 53.0102 3.41702 49.0858 7.92589 47.8762C8.77924 47.6477 9.6503 47.5533 10.5332 47.5533C22.0962 47.5563 33.6622 47.5472 45.2252 47.5594C50.9949 47.5654 55.182 51.8828 55.2528 57.8486C55.2558 57.9827 55.2735 58.1228 55.2499 58.2508C55.0727 59.2319 55.5392 59.4177 56.3867 59.3873C58.0461 59.3263 59.7085 59.369 61.371 59.369C68.6997 59.369 76.0285 59.3568 83.3602 59.3751C88.3179 59.3873 92.0709 62.3701 93.2195 67.1689C93.4085 67.952 93.5 68.7533 93.5 69.5638C93.5 80.5568 93.5 91.5499 93.5 102.543C93.5 102.671 93.4852 102.799 93.4705 103C93.0541 102.915 92.8622 102.589 92.626 102.348C89.6673 99.3651 86.7057 96.3853 83.7736 93.3719C83.3159 92.9027 82.8582 92.7382 82.2293 92.7382C71.0236 92.7534 59.8178 92.7687 48.6121 92.7382C43.6868 92.726 39.8069 89.347 38.8856 84.3959C38.7262 83.5306 38.7351 82.6531 38.7646 81.7817C38.7852 81.1875 38.6317 80.959 38.0087 80.959C28.7577 80.9773 19.5066 80.9773 10.2556 80.959C9.73594 80.959 9.41704 81.1936 9.08042 81.5318C6.29006 84.3563 3.49083 87.1685 0.502636 90.1758Z" fill="#575757"></path>
    <path id="Vector_2" d="M57.1598 15.2047C57.2661 15.7653 57.0623 15.9603 56.5397 15.9329C55.8251 15.8963 55.1076 15.9451 54.3931 15.9177C53.5131 15.8872 53.835 16.5636 53.8202 16.9841C53.8054 17.3862 53.5663 17.9926 54.3753 17.956C55.1224 17.9225 55.8753 17.9804 56.6194 17.9408C57.2484 17.9103 57.1716 18.3247 57.1805 18.7299C57.1893 19.1351 57.1805 19.4612 56.6371 19.4368C55.8901 19.4063 55.1401 19.4581 54.3901 19.4246C53.5988 19.388 53.7907 19.973 53.8143 20.3874C53.8379 20.8079 53.5043 21.4843 54.3783 21.466C55.1253 21.4508 55.8783 21.4904 56.6253 21.4538C57.1598 21.4294 57.1952 21.725 57.1805 22.1424C57.1687 22.5537 57.2336 22.959 56.6106 22.9193C55.896 22.8767 55.1785 22.9376 54.4639 22.9011C53.959 22.8736 53.7877 23.0443 53.7877 23.5775C53.7877 24.2691 54.1007 25.1618 53.6342 25.6036C53.1795 26.0363 52.3261 25.7316 51.6499 25.7285C51.1745 25.7285 51.0269 25.9053 51.0446 26.3745C51.0741 27.0448 51.0269 27.7181 51.0594 28.3885C51.0859 28.943 51.0062 29.2477 50.3419 29.2446C49.6982 29.2416 49.5712 28.9765 49.6096 28.4037C49.645 27.8674 49.6184 27.3281 49.6155 26.7919C49.6125 25.8626 48.6854 25.3325 47.8586 25.7712C47.581 25.9205 47.6548 26.1642 47.6519 26.3806C47.6401 27.0509 47.6224 27.7242 47.6548 28.3945C47.6814 28.946 47.6046 29.2446 46.9373 29.2446C46.2493 29.2446 46.2109 28.9034 46.2405 28.3763C46.2641 27.9071 46.2464 27.4348 46.2464 26.9656C46.2464 25.8078 45.6381 25.3812 44.5692 25.7438C44.1971 25.8717 44.2946 26.149 44.2916 26.3897C44.2769 27.1301 44.2503 27.8705 44.2975 28.6048C44.3359 29.2142 44.0111 29.2172 43.5771 29.2294C43.1076 29.2416 42.8123 29.1502 42.895 28.5804C42.9127 28.4494 42.9009 28.3123 42.8979 28.1782C42.8802 27.4104 43.1223 26.4567 42.771 25.9266C42.4225 25.3995 41.4422 25.7651 40.7424 25.7529C40.2523 25.7438 40.1637 25.5488 40.143 25.0948C40.1076 24.3757 40.4944 23.3947 39.9511 23.0077C39.458 22.6604 38.5633 22.9468 37.8546 22.8858C37.4826 22.8523 36.9747 23.1875 36.7562 22.5781C36.5022 21.8743 36.7975 21.4599 37.5534 21.4508C38.1706 21.4416 38.7965 21.3959 39.4078 21.4599C40.3586 21.5604 40.1223 20.8962 40.1637 20.363C40.2109 19.7476 40.1489 19.321 39.3664 19.4063C38.7227 19.4764 38.0643 19.385 37.4146 19.4307C36.8182 19.4703 36.7119 19.1748 36.7178 18.6446C36.7237 18.148 36.8448 17.8951 37.3822 17.9316C37.9668 17.9712 38.5544 17.9408 39.1391 17.9408C40.0367 17.9377 40.5505 16.9871 40.1312 16.1309C39.9895 15.8445 39.7503 15.9238 39.5406 15.9207C38.7906 15.9085 38.0436 15.8902 37.2936 15.9238C36.7739 15.9451 36.7119 15.6617 36.7237 15.2352C36.7355 14.8086 36.7119 14.4308 37.3172 14.4674C38.0643 14.51 38.8143 14.4521 39.5613 14.4856C40.0397 14.507 40.1548 14.3181 40.1696 13.8488C40.1902 13.1267 39.833 12.167 40.3497 11.7496C40.7808 11.4053 41.6607 11.6307 42.3428 11.649C42.7592 11.6612 42.9245 11.5302 42.9068 11.0792C42.8773 10.3419 42.9334 9.59847 42.8891 8.86418C42.8536 8.27309 43.0721 8.14208 43.6095 8.13293C44.2001 8.12379 44.33 8.36754 44.2946 8.90379C44.2592 9.44004 44.3418 9.98542 44.2739 10.5156C44.1529 11.4449 44.4924 11.6886 45.3812 11.6764C46.1548 11.6642 46.329 11.4053 46.2611 10.6923C46.208 10.1256 46.2788 9.54972 46.2434 8.97996C46.208 8.41629 46.3143 8.13598 46.9668 8.12684C47.6696 8.1177 47.6755 8.49551 47.6548 9.00738C47.6371 9.51011 47.708 10.022 47.6401 10.5186C47.5101 11.4662 47.8792 11.713 48.7592 11.6703C49.4176 11.6399 49.7041 11.5089 49.6332 10.7776C49.5741 10.1804 49.6509 9.56801 49.6125 8.96473C49.5771 8.37973 49.7277 8.13598 50.3596 8.12989C51.0417 8.12379 51.1066 8.47418 51.0594 9.00738C51.0535 9.07441 51.0564 9.14144 51.0594 9.20848C51.0771 9.97628 50.835 10.936 51.1893 11.4601C51.5377 11.975 52.524 11.6185 53.2267 11.6277C53.7228 11.6338 53.7936 11.8531 53.8202 12.2949C53.8616 13.011 53.4629 13.989 54.024 14.3759C54.523 14.7202 55.4118 14.4399 56.1234 14.4856C56.5929 14.5222 57.3812 14.1566 57.1598 15.2047Z" fill="#575757"></path>
    <path id="Vector_3" d="M30.9749 27.4714C30.78 28.096 30.5881 28.5896 30.4788 29.1014C30.3548 29.6651 30.1835 29.8753 29.5575 29.6621C28.9788 29.4671 28.9581 29.2172 29.1146 28.7145C29.5014 27.4714 29.8587 26.2161 30.2071 24.9577C30.3341 24.4946 30.4818 24.3026 31.0162 24.4763C32.2859 24.8876 33.5763 25.235 34.8725 25.5519C35.4454 25.692 35.4778 25.9205 35.3509 26.4659C35.2091 27.0722 34.9522 27.1088 34.4709 26.9626C33.7327 26.734 32.9827 26.5482 32.0615 26.2983C33.4316 29.1776 35.2918 31.3622 37.7013 33.038C46.344 39.0464 58.0488 35.6065 62.3244 25.8017C62.5872 25.2015 62.7791 24.8511 63.4996 25.238C63.9543 25.4848 63.9366 25.689 63.7624 26.079C60.9189 32.456 56.1885 36.4017 49.4119 37.2274C41.4897 38.1902 35.4247 34.9057 31.2613 27.8888C31.1963 27.7822 31.1225 27.6877 30.9749 27.4714Z" fill="#575757"></path>
    <path id="Vector_4" d="M63.382 10.3663C63.5946 9.70209 63.822 9.111 63.9696 8.49858C64.0907 7.98671 64.3387 7.94101 64.7491 8.10249C65.1094 8.24569 65.5375 8.27921 65.3397 8.89163C64.9411 10.1317 64.5602 11.3809 64.197 12.6301C64.0848 13.0201 63.9017 13.0719 63.5503 12.9653C62.2718 12.5814 60.9903 12.2005 59.6999 11.8684C59.1271 11.7222 59.2983 11.3626 59.381 11.0214C59.4666 10.6679 59.5346 10.2779 60.069 10.4516C60.6802 10.6497 61.3062 10.8051 62.0651 11.0183C60.2462 7.34687 57.6359 4.72353 54.1723 3.0508C45.5946 -1.09598 35.4902 2.88932 31.7254 11.8715C31.5039 12.3986 31.3445 12.6911 30.686 12.4168C30.0128 12.1396 30.1929 11.7922 30.3967 11.3443C33.2549 4.98555 37.9912 1.06729 44.7442 0.171518C52.5897 -0.867461 59.2983 2.86189 63.1753 10.0525C63.2167 10.1378 63.2787 10.214 63.382 10.3663Z" fill="#575757"></path>
    <path id="Vector_5" d="M24.3253 18.7726C24.4523 19.3972 24.092 19.4399 23.5989 19.4612C22.9907 19.4917 22.9464 19.187 22.9168 18.6782C22.8785 18.0018 23.1796 17.9347 23.723 17.9225C24.3903 17.9012 24.3637 18.2973 24.3253 18.7726Z" fill="white"></path>
    <path id="Vector_6" d="M73.2442 19.4154C72.5651 19.5434 72.5533 19.1381 72.5297 18.6445C72.5001 18.026 72.7866 17.9529 73.2885 17.9316C73.9116 17.9042 73.9381 18.2332 73.9588 18.7329C73.9824 19.3423 73.7314 19.519 73.2442 19.4154Z" fill="white"></path>
    <path id="Vector_7" d="M76.7938 18.4648C76.6343 18.9341 76.9089 19.5343 76.1028 19.5008C75.4355 19.4734 75.2879 19.2083 75.3203 18.5928C75.344 18.151 75.4148 17.8463 75.9138 17.9652C76.2564 18.0444 76.8233 17.8341 76.7938 18.4648Z" fill="white"></path>
    <path id="Vector_8" d="M11.2033 26.0394C11.2476 26.5726 11.0468 26.862 10.4326 26.7706C10.0517 26.7127 9.56156 26.798 9.77712 26.1643C9.88932 25.8383 9.54975 25.1284 10.2732 25.2533C10.6305 25.3142 11.3775 25.1284 11.2033 26.0394Z" fill="white"></path>
    <path id="Vector_9" d="M83.5672 38.3944C82.9589 38.5102 82.8999 38.1415 82.8881 37.6357C82.8733 37.0812 83.0446 36.8923 83.5997 36.877C84.2404 36.8588 84.3261 37.1482 84.332 37.7088C84.3408 38.3243 84.078 38.4705 83.5672 38.3944Z" fill="white"></path>
    <path id="Vector_10" d="M83.6347 55.7493C83.0884 55.8529 82.8817 55.6305 82.8935 55.0455C82.9054 54.5306 82.9762 54.2381 83.5815 54.2564C84.1042 54.2716 84.3463 54.3904 84.3227 54.9907C84.302 55.4995 84.2518 55.8651 83.6347 55.7493Z" fill="white"></path>
    <path id="Vector_11" d="M83.5575 47.0626C82.9256 47.1815 82.9138 46.7762 82.8901 46.2887C82.8577 45.6702 83.15 45.5971 83.652 45.5788C84.2632 45.5605 84.3045 45.8774 84.3252 46.3801C84.3488 47.0017 84.0653 47.1358 83.5575 47.0626Z" fill="white"></path>
    <path id="Vector_12" d="M10.3559 32.5383C9.73582 32.6511 9.70039 32.2733 9.67676 31.7705C9.65019 31.152 9.93366 31.0758 10.4356 31.0576C11.0468 31.0332 11.0941 31.3501 11.1118 31.8528C11.1354 32.4591 10.8785 32.6267 10.3559 32.5383Z" fill="white"></path>
    <path id="Vector_13" d="M15.1922 20.3631C14.7404 20.0431 14.4452 19.5617 14.4747 19.1992C14.5131 18.6995 15.1597 18.5776 15.5436 18.5685C16.078 18.5563 16.0367 19.2235 16.078 19.5739C16.146 20.1681 15.4196 19.9365 15.1922 20.3631Z" fill="white"></path>
    <path id="Vector_14" d="M12.2277 23.1357C11.8763 23.4312 11.9885 24.1228 11.4718 24.0863C11.1263 24.0619 10.521 23.9675 10.4974 23.4982C10.4767 23.0839 10.71 22.4501 11.1411 22.3953C11.4954 22.3496 11.9295 22.7274 12.2277 23.1357Z" fill="white"></path>
    <path id="Vector_15" d="M83.49 26.7919C82.8463 26.9534 82.8168 26.4659 82.7843 25.9693C82.7312 25.1741 83.3778 25.3508 83.741 25.3234C84.4851 25.2685 84.1692 25.9754 84.2519 26.3349C84.3434 26.7554 84.2371 26.7919 83.49 26.7919Z" fill="white"></path>
    <path id="Vector_16" d="M18.7063 18.7878C18.8185 19.4885 18.3519 19.4398 17.9208 19.4702C17.1443 19.5281 17.3273 18.8944 17.3037 18.4983C17.2594 17.7792 17.8736 18.026 18.2191 17.9742C18.8923 17.8798 18.6531 18.4526 18.7063 18.7878Z" fill="white"></path>
    <path id="Vector_17" d="M13.0516 21.9079C12.6323 21.7068 12.1481 21.396 12.1274 21.0578C12.0949 20.5642 12.6323 20.1285 13.0516 20.0798C13.4118 20.0371 13.7632 20.6221 13.8134 20.9847C13.8695 21.4051 13.3262 21.5971 13.0516 21.9079Z" fill="white"></path>
    <path id="Vector_18" d="M82.7989 22.3405C83.2832 22.6055 83.4721 23.0717 83.5253 23.48C83.5932 24.0193 82.9997 24.001 82.6867 24.0985C82.0519 24.2996 82.0223 23.5988 81.9456 23.285C81.7891 22.6482 82.5834 22.7944 82.7989 22.3405Z" fill="white"></path>
    <path id="Vector_19" d="M79.6582 19.2571C79.3098 19.5526 79.4073 20.293 78.8403 20.2168C78.545 20.1772 77.8748 20.1681 77.9692 19.5587C78.0254 19.2022 78.0254 18.5654 78.5303 18.5807C78.9112 18.5898 79.3984 18.7696 79.6582 19.2571Z" fill="white"></path>
    <path id="Vector_20" d="M80.9891 21.9353C80.7086 21.6275 80.1741 21.4356 80.2539 20.9877C80.3159 20.6282 80.6289 20.0675 81.057 20.1468C81.4438 20.2168 81.9517 20.6251 81.9074 21.0791C81.872 21.4356 81.4084 21.7281 80.9891 21.9353Z" fill="white"></path>
    <path id="Vector_21" d="M11.0883 37.6174C11.2183 38.2572 10.8639 38.306 10.3649 38.3273C9.76845 38.3517 9.69168 38.0744 9.67396 37.5504C9.65329 36.9288 9.92199 36.8618 10.4269 36.8465C11.0234 36.8252 11.1828 37.075 11.0883 37.6174Z" fill="white"></path>
    <path id="Vector_22" d="M11.0854 28.9217C11.2183 29.5707 10.8669 29.6195 10.3679 29.6408C9.77435 29.6652 9.69168 29.4001 9.67396 28.8699C9.65329 28.2453 9.92199 28.1783 10.4269 28.1661C11.0057 28.1539 11.2035 28.3733 11.0854 28.9217Z" fill="white"></path>
    <path id="Vector_23" d="M84.2853 43.4034C84.4359 44.1133 84.0609 44.1377 83.5736 44.1651C82.9713 44.1986 82.9093 43.9122 82.8886 43.3912C82.865 42.7635 83.1425 42.6965 83.6416 42.6935C84.2026 42.6904 84.4506 42.8671 84.2853 43.4034Z" fill="white"></path>
    <path id="Vector_24" d="M10.3972 42.7118C11.0646 42.5503 11.0911 42.9312 11.1148 43.437C11.1472 44.0585 10.8638 44.1195 10.3648 44.1377C9.77126 44.1621 9.68563 43.897 9.67677 43.3699C9.66791 42.7727 9.88642 42.5717 10.3972 42.7118Z" fill="white"></path>
    <path id="Vector_25" d="M84.3014 40.6155C84.4343 41.2828 84.0298 41.2706 83.5603 41.301C82.9343 41.3437 82.9136 41.0055 82.89 40.5119C82.8575 39.8721 83.1676 39.8355 83.6577 39.8172C84.2631 39.7959 84.3871 40.0914 84.3014 40.6155Z" fill="white"></path>
    <path id="Vector_26" d="M84.2994 52.09C84.4116 52.6658 84.1842 52.8547 83.6232 52.8517C83.0888 52.8517 82.8791 52.7115 82.888 52.1204C82.8968 51.569 83.0238 51.3496 83.5966 51.3679C84.1104 51.3831 84.4293 51.4715 84.2994 52.09Z" fill="white"></path>
    <path id="Vector_27" d="M84.297 34.7077C84.3974 35.2531 84.2321 35.4999 83.6445 35.4816C83.1514 35.4663 82.8649 35.4145 82.8886 34.7869C82.9063 34.2659 82.9712 33.9825 83.5707 34.0191C84.046 34.0495 84.4388 34.0465 84.297 34.7077Z" fill="white"></path>
    <path id="Vector_28" d="M84.29 49.2321C84.4347 49.9542 84.0301 49.942 83.5636 49.9756C82.9465 50.0182 82.914 49.6922 82.8904 49.1925C82.8549 48.5496 83.1738 48.5161 83.6581 48.507C84.2309 48.4948 84.4347 48.7233 84.29 49.2321Z" fill="white"></path>
    <path id="Vector_29" d="M11.0825 34.598C11.1652 35.1769 11.0648 35.4877 10.4477 35.4542C9.97524 35.4267 9.64158 35.4237 9.67406 34.7717C9.69768 34.2689 9.73016 33.9307 10.3473 33.9886C10.7813 34.0313 11.2804 33.9216 11.0825 34.598Z" fill="white"></path>
    <path id="Vector_30" d="M84.2903 31.8589C84.4291 32.5627 84.06 32.5962 83.5728 32.6206C82.9615 32.6541 82.9084 32.3464 82.8877 31.8375C82.8611 31.216 83.1417 31.1337 83.6466 31.1307C84.2135 31.1276 84.4379 31.3379 84.2903 31.8589Z" fill="white"></path>
    <path id="Vector_31" d="M83.6616 29.6591C83.0592 29.7748 82.888 29.5281 82.8909 28.9613C82.8939 28.4159 83.0297 28.1966 83.5966 28.2027C84.137 28.2088 84.3407 28.3611 84.32 28.937C84.3023 29.458 84.2315 29.8145 83.6616 29.6591Z" fill="white"></path>
    <path id="Vector_32" d="M11.0345 39.8874C11.0345 40.2896 11.0345 40.6918 11.0345 41.097C10.5384 41.1305 9.85338 41.615 9.77366 40.5912C9.7087 39.7534 9.84748 39.6863 11.0345 39.8874Z" fill="white"></path>
    <path id="Vector_33" d="M71.0527 18.09C71.0468 18.4953 71.0409 18.9005 71.0379 19.3057C69.8362 19.5221 69.6413 19.4154 69.7889 18.5075C69.9336 17.5873 70.5862 18.0931 71.0527 18.09Z" fill="white"></path>
    <path id="Vector_34" d="M1.96965 86.6718C1.92831 86.3763 1.90469 86.2849 1.90469 86.1904C1.90469 76.7147 1.86335 67.239 1.92241 57.7663C1.95194 52.7055 5.5986 49.0127 10.4972 49.0005C22.1193 48.97 33.7444 48.9639 45.3665 49.0035C50.5574 49.0218 54.3576 53.4611 53.8734 58.7504C53.8202 59.3171 53.5456 59.2806 53.1736 59.2928C51.1598 59.3537 49.1431 59.1922 47.1263 59.436C42.8182 59.957 39.0564 63.9941 38.7788 68.4425C38.5692 71.8001 38.705 75.1608 38.6962 78.5185C38.6932 79.3198 38.4718 79.5209 37.7099 79.5178C28.5298 79.4904 19.3467 79.5117 10.1665 79.4843C9.38405 79.4813 8.84074 79.722 8.29153 80.2887C6.25412 82.4032 4.16356 84.4659 1.96965 86.6718Z" fill="white"></path>
    <path id="Vector_35" d="M92.1004 99.7947C90.3494 98.0214 88.8021 96.4462 87.249 94.8801C86.0856 93.707 85.0876 92.1013 83.688 91.5072C82.2913 90.9131 80.4901 91.3244 78.8631 91.3213C68.8001 91.3152 58.7371 91.3305 48.6741 91.3122C44.3601 91.3031 41.0175 88.3842 40.2528 84.0089C40.1435 83.3873 40.1524 82.7383 40.1524 82.1015C40.1494 78.0005 40.1996 73.9024 40.1494 69.8014C40.0845 64.3901 44.3394 60.7918 48.804 60.8223C60.2666 60.9015 71.7292 60.8192 83.1919 60.8223C88.5984 60.8223 92.0915 64.4541 92.0974 70.0512C92.1063 79.597 92.1004 89.1398 92.1004 98.6856C92.1004 98.9476 92.1004 99.2097 92.1004 99.7947Z" fill="white"></path>
    <path id="Vector_36" d="M41.5321 18.605C41.5321 17.0267 41.5557 15.4454 41.5203 13.8671C41.5055 13.2486 41.7004 13.0597 42.2998 13.0628C45.3589 13.0871 48.4209 13.0963 51.48 13.0567C52.1768 13.0475 52.419 13.3309 52.4219 13.9768C52.4249 17.2004 52.4219 20.427 52.4337 23.6506C52.4367 24.196 52.1562 24.324 51.6926 24.324C48.5361 24.3148 45.3766 24.3057 42.2201 24.3301C41.6266 24.3331 41.5203 24.0711 41.5262 23.5409C41.5469 21.8987 41.5321 20.2534 41.5321 18.605Z" fill="white"></path>
    <path id="Vector_37" d="M20.2061 19.3294C20.3628 18.9327 19.9398 18.3405 20.5551 18.1177C20.7799 18.0353 21.0875 18.0048 21.2916 18.2154C21.4928 18.426 21.4218 18.722 21.3922 18.9784C21.3478 19.36 21.0402 19.2928 20.7917 19.3081C20.5965 19.3203 20.4042 19.3233 20.2061 19.3294Z" fill="white"></path>
    <path id="Vector_38" d="M3.58589 82.449C3.58589 82.2204 3.58589 81.9919 3.58589 81.7604C3.58589 73.7593 3.57703 65.7583 3.59179 57.7572C3.5977 54.3661 5.579 51.7488 8.70303 50.8896C9.24929 50.7403 9.80146 50.7464 10.3507 50.7464C22.0466 50.7403 33.7395 50.7342 45.4354 50.7494C49.0171 50.7525 51.651 53.1808 52.2032 56.8523C52.3036 57.5287 52.0762 57.6536 51.4945 57.6597C49.6136 57.678 47.7268 57.5135 45.8636 58.001C40.7228 59.3416 37.1352 63.9637 37.0732 69.4297C37.0437 71.8489 37.0171 74.2712 37.0909 76.6904C37.1204 77.6593 36.7956 77.836 35.9364 77.833C27.1076 77.8025 18.2788 77.8238 9.45303 77.7964C8.70598 77.7933 8.16858 78.0036 7.66956 78.5703C6.44712 79.9597 5.17743 81.3064 3.92546 82.6683C3.8103 82.5952 3.69809 82.5221 3.58589 82.449Z" fill="#575757"></path>
    <path id="Vector_39" d="M90.3678 95.6174C88.5017 93.7588 86.7773 92.077 85.0971 90.3494C84.6188 89.8588 84.1375 89.6699 83.4672 89.6699C72.0725 89.6882 60.6778 89.6882 49.283 89.6791C47.3874 89.6791 45.6305 89.2556 44.1334 87.921C42.5507 86.5073 41.783 84.7096 41.7564 82.6165C41.7003 78.2168 41.7151 73.8141 41.7476 69.4114C41.7771 65.551 44.8155 62.4828 48.5744 62.4798C60.2614 62.4706 71.9485 62.4889 83.6385 62.4706C87.3855 62.4645 90.4534 65.7917 90.4269 69.4236C90.3619 77.8908 90.4092 86.358 90.4062 94.8222C90.4092 95.0202 90.3885 95.2091 90.3678 95.6174Z" fill="#575757"></path>
    <path id="Vector_40" d="M16.3645 61.0508C16.3645 62.364 16.3498 63.4365 16.3704 64.509C16.3822 65.0239 16.2966 65.2981 15.6913 65.3103C15.0358 65.3225 14.9383 65.0331 14.959 64.4663C14.9915 63.5614 14.9501 62.6535 14.9738 61.7486C14.9856 61.2641 14.8793 61.0051 14.336 61.0173C13.0368 61.0478 11.7346 61.0417 10.4354 61.0204C9.96883 61.0143 9.80643 61.2032 9.81529 61.6724C9.833 62.6443 9.78871 63.6193 9.83005 64.5913C9.85663 65.2098 9.57611 65.292 9.07119 65.3042C8.51902 65.3164 8.33595 65.1306 8.34186 64.5578C8.36843 62.4768 8.30938 60.3957 8.36843 58.3178C8.43044 56.1576 9.96292 54.3965 11.8232 54.2045C13.9167 53.9882 15.7622 55.1856 16.2287 57.1752C16.5505 58.5219 16.3025 59.9174 16.3645 61.0508Z" fill="white"></path>
    <path id="Vector_41" d="M30.0919 62.8637C27.7503 62.8637 25.4088 62.8607 23.0643 62.8668C22.5564 62.8698 22.1194 62.9307 22.1342 62.1264C22.1489 61.3982 22.518 61.4256 23.0052 61.4256C27.7887 61.4317 32.5692 61.4347 37.3527 61.4225C37.8872 61.4225 38.1854 61.4926 38.1913 62.1721C38.1972 62.9094 37.7986 62.8698 37.3143 62.8698C34.9078 62.8576 32.4984 62.8637 30.0919 62.8637Z" fill="white"></path>
    <path id="Vector_42" d="M29.3341 73.5369C27.2199 73.5369 25.1028 73.5277 22.9886 73.5429C22.4718 73.546 22.1382 73.5125 22.1411 72.8117C22.1411 72.1018 22.4955 72.0896 23.0004 72.0926C27.1992 72.1018 31.3981 72.0987 35.5969 72.0957C36.0605 72.0957 36.4798 72.0195 36.4975 72.7721C36.5122 73.546 36.1254 73.546 35.588 73.5429C33.5004 73.5277 31.4158 73.5369 29.3341 73.5369Z" fill="white"></path>
    <path id="Vector_43" d="M29.2096 68.1591C27.1308 68.1591 25.0491 68.147 22.9704 68.1683C22.4418 68.1744 22.1407 68.1134 22.1377 67.4279C22.1348 66.718 22.4802 66.7088 22.9852 66.7119C27.2106 66.7241 31.433 66.7241 35.6584 66.7119C36.1811 66.7088 36.4941 66.7545 36.4941 67.4431C36.4941 68.147 36.1545 68.1713 35.6437 68.1652C33.5 68.15 31.3533 68.1591 29.2096 68.1591Z" fill="white"></path>
    <path id="Vector_44" d="M34.0456 57.4708C33.3576 57.5896 33.3517 57.1752 33.3251 56.6908C33.2867 56.0174 33.6765 56.0509 34.1283 56.0296C34.6952 56.0022 34.7395 56.3221 34.7513 56.7822C34.7631 57.3611 34.5476 57.5987 34.0456 57.4708Z" fill="white"></path>
    <path id="Vector_45" d="M24.9399 56.7457C24.8247 56.1211 25.1555 56.0327 25.6663 56.0266C26.1771 56.0236 26.3395 56.2125 26.3425 56.7274C26.3484 57.2697 26.2066 57.5104 25.6338 57.5043C25.0846 57.5013 24.8395 57.3215 24.9399 56.7457Z" fill="white"></path>
    <path id="Vector_46" d="M28.5007 57.4769C27.9427 57.5774 27.7832 57.3063 27.7714 56.7517C27.7596 56.1576 28.0076 56.0296 28.5244 56.0296C29.0234 56.0296 29.2064 56.1972 29.1976 56.7213C29.1887 57.2423 29.0972 57.5835 28.5007 57.4769Z" fill="white"></path>
    <path id="Vector_47" d="M43.1345 56.6542C43.2201 57.2453 43.0577 57.5103 42.4701 57.5073C41.9327 57.5042 41.7142 57.3427 41.7319 56.7608C41.7467 56.2824 41.8235 55.993 42.3727 56.0326C42.8186 56.0631 43.291 55.996 43.1345 56.6542Z" fill="white"></path>
    <path id="Vector_48" d="M45.3645 57.4708C44.7326 57.5835 44.6056 57.2788 44.5938 56.7395C44.5791 56.1271 44.8566 56.0357 45.3615 56.0266C45.8871 56.0205 46.0318 56.2276 46.023 56.7365C46.0082 57.2544 45.9373 57.6262 45.3645 57.4708Z" fill="white"></path>
    <path id="Vector_49" d="M31.9411 56.7334C32.0386 57.2879 31.8378 57.5042 31.2679 57.5073C30.7039 57.5103 30.5445 57.2971 30.5563 56.7456C30.5651 56.252 30.6744 56.0174 31.2088 56.0326C31.7049 56.0418 32.0651 56.0936 31.9411 56.7334Z" fill="white"></path>
    <path id="Vector_50" d="M23.5338 56.773C23.6519 57.3855 23.3389 57.486 22.8192 57.5043C22.205 57.5226 22.1548 57.2087 22.143 56.703C22.1312 56.1515 22.3586 56.0387 22.8399 56.0296C23.3861 56.0174 23.646 56.185 23.5338 56.773Z" fill="white"></path>
    <path id="Vector_51" d="M37.5816 56.7273C37.7026 57.4098 37.3572 57.486 36.8552 57.5043C36.2351 57.5287 36.1967 57.1844 36.1849 56.6908C36.1702 56.1271 36.4329 56.0327 36.8995 56.0296C37.431 56.0235 37.7322 56.1667 37.5816 56.7273Z" fill="white"></path>
    <path id="Vector_52" d="M40.3528 56.8096C40.471 57.4677 40.0723 57.4707 39.6028 57.4981C38.9414 57.5378 39.0005 57.1173 38.9739 56.6633C38.9385 56.0722 39.2544 56.0509 39.6944 56.0265C40.2908 55.996 40.4385 56.2794 40.3528 56.8096Z" fill="white"></path>
    <path id="Vector_53" d="M47.0292 71.5564C47.0292 69.9781 47.0469 68.3968 47.0203 66.8185C47.0115 66.2457 47.2004 66.0507 47.7526 66.0659C49.0223 66.0995 50.292 66.069 51.5646 66.0812C52.7989 66.0934 53.6758 66.7271 54.1896 67.8484C54.6857 68.93 54.6119 70.039 53.8914 70.9836C53.5312 71.4558 53.5518 71.6813 53.9003 72.1444C54.6148 73.095 54.6827 74.195 54.1719 75.2796C53.6581 76.3704 52.7575 76.9432 51.5971 76.9859C50.2949 77.0346 48.9898 76.9798 47.6876 77.0072C47.165 77.0194 47.0144 76.8153 47.0203 76.3003C47.0439 74.716 47.0321 73.1347 47.0292 71.5564Z" fill="white"></path>
    <path id="Vector_54" d="M71.617 74.5819C67.8433 74.5819 64.0697 74.5819 60.2961 74.5819C59.8089 74.5819 59.3364 74.6946 59.3364 73.8689C59.3364 73.0463 59.8118 73.156 60.299 73.156C67.8788 73.156 75.4556 73.156 83.0353 73.156C83.5255 73.156 83.9861 73.0554 83.9861 73.872C83.9861 74.6977 83.5137 74.5819 83.0324 74.5819C79.2292 74.5819 75.4231 74.5819 71.617 74.5819Z" fill="white"></path>
    <path id="Vector_55" d="M71.6263 85.2703C67.8527 85.2703 64.0761 85.2703 60.3025 85.2703C59.8182 85.2703 59.3369 85.3922 59.3399 84.5635C59.3399 83.7621 59.7828 83.8292 60.2906 83.8292C67.8734 83.8322 75.4531 83.8322 83.0358 83.8322C83.523 83.8322 83.9895 83.7286 83.9925 84.5482C83.9955 85.3587 83.5466 85.2734 83.0506 85.2734C79.2415 85.2703 75.4324 85.2703 71.6263 85.2703Z" fill="white"></path>
    <path id="Vector_56" d="M71.7238 78.4453C75.5004 78.4453 79.2769 78.4484 83.0535 78.4423C83.5703 78.4423 84.0043 78.3935 83.9895 79.1888C83.9777 79.9231 83.5791 79.8834 83.1008 79.8834C75.4826 79.8804 67.8645 79.8804 60.2493 79.8834C59.7769 79.8834 59.3517 79.9383 59.3458 79.1979C59.3399 78.421 59.7769 78.4392 60.2995 78.4423C64.1086 78.4514 67.9147 78.4453 71.7238 78.4453Z" fill="white"></path>
    <path id="Vector_57" d="M79.7635 69.2773C79.0725 69.4022 79.0548 68.997 79.0312 68.5034C79.0046 67.9215 79.2261 67.763 79.7664 67.7539C80.3865 67.7417 80.4308 68.0647 80.4367 68.5674C80.4485 69.125 80.3068 69.4296 79.7635 69.2773Z" fill="white"></path>
    <path id="Vector_58" d="M71.2981 69.2926C70.681 69.4023 70.6456 69.0184 70.619 68.5248C70.5835 67.8819 70.8611 67.757 71.4162 67.7509C72.0688 67.7448 72.0068 68.15 72.0334 68.5948C72.0688 69.1829 71.8267 69.384 71.2981 69.2926Z" fill="white"></path>
    <path id="Vector_59" d="M66.3842 68.4943C66.4432 69.0031 66.3487 69.3169 65.7375 69.3261C65.1352 69.3352 64.955 69.1219 64.9668 68.5156C64.9757 67.9763 65.0997 67.7295 65.6755 67.7417C66.21 67.7539 66.4787 67.9184 66.3842 68.4943Z" fill="white"></path>
    <path id="Vector_60" d="M63.6035 68.4181C63.6596 68.9665 63.6212 69.3139 62.9922 69.3139C62.4194 69.3139 62.1891 69.1524 62.2098 68.5278C62.2245 68.0037 62.3338 67.7326 62.9066 67.7569C63.4086 67.7783 63.7511 67.8605 63.6035 68.4181Z" fill="white"></path>
    <path id="Vector_61" d="M74.7859 68.5126C74.8626 69.0458 74.7032 69.3139 74.1185 69.3109C73.5811 69.3078 73.3715 69.1494 73.3892 68.5705C73.404 68.0525 73.5044 67.7631 74.0831 67.7631C74.6235 67.76 74.8833 67.9367 74.7859 68.5126Z" fill="white"></path>
    <path id="Vector_62" d="M82.4984 67.7783C83.3665 67.7631 83.1745 68.2963 83.2041 68.6924C83.2543 69.384 82.7789 69.2896 82.3655 69.2896C81.7011 69.2896 81.831 68.7868 81.8133 68.3725C81.7838 67.69 82.2651 67.7905 82.4984 67.7783Z" fill="white"></path>
    <path id="Vector_63" d="M60.8722 68.54C60.9755 69.1585 60.7068 69.3596 60.1163 69.3566C59.5641 69.3505 59.2954 69.2256 59.2954 68.5766C59.2954 67.9276 59.4873 67.696 60.1281 67.7082C60.7334 67.7143 60.9667 67.9367 60.8722 68.54Z" fill="white"></path>
    <path id="Vector_64" d="M68.5164 67.7357C69.1187 67.6291 69.3077 67.9124 69.3048 68.5187C69.3018 69.0946 69.1689 69.3597 68.5459 69.3597C67.917 69.3597 67.6955 69.1586 67.7044 68.4974C67.7132 67.8698 67.9376 67.6382 68.5164 67.7357Z" fill="white"></path>
    <path id="Vector_65" d="M76.3087 67.9123C76.8195 67.757 77.4278 67.3152 77.6699 68.2079C77.7585 68.5339 77.8943 69.058 77.4544 69.2712C77.1148 69.4358 76.6069 69.4876 76.3471 69.2499C75.9662 68.9026 76.037 68.3724 76.3087 67.9123C76.6364 68.1104 76.4858 68.8812 76.9465 68.7319C77.4425 68.5735 77.0498 68.3115 76.7959 68.1927C76.6246 68.1104 76.4356 68.0708 76.3087 67.9123Z" fill="white"></path>
    <path id="Vector_66" d="M12.3431 59.5913C11.9533 59.5913 11.5665 59.5913 11.1767 59.5913C9.72397 59.5913 9.72397 59.5913 9.83322 58.1045C9.93952 56.6724 11.0261 55.6213 12.3992 55.6213C13.7634 55.6243 14.8647 56.6968 14.9592 58.1136C15.0567 59.5913 15.0567 59.5913 13.6098 59.5913C13.1876 59.5913 12.7653 59.5913 12.3431 59.5913Z" fill="#575757"></path>
    <path id="Vector_67" d="M50.3803 70.7672C48.4226 70.7672 48.4226 70.7672 48.4226 68.7776C48.4226 67.501 48.4226 67.501 49.7012 67.501C50.3183 67.501 50.9413 67.4766 51.5555 67.5193C52.5063 67.5863 53.1146 68.3145 53.0614 69.259C53.0112 70.1731 52.4088 70.7367 51.4521 70.7611C51.0978 70.7764 50.7376 70.7672 50.3803 70.7672Z" fill="#575757"></path>
    <path id="Vector_68" d="M50.3538 72.3577C50.7436 72.3577 51.1333 72.3638 51.5231 72.3577C52.4266 72.3394 52.9227 72.8482 53.0467 73.7135C53.1737 74.6032 52.7544 75.2339 51.9217 75.4502C50.906 75.7123 49.7426 75.8281 48.8508 75.4685C47.8587 75.0694 48.6058 73.811 48.4375 72.9488C48.3193 72.3424 48.7741 72.3485 49.1845 72.3546C49.5743 72.3607 49.964 72.3546 50.3538 72.3577Z" fill="#575757"></path>
    <path id="Vector_69" d="M60.1051 69.1301C59.6348 69.182 59.5106 68.944 59.5076 68.5289C59.5047 68.1046 59.6585 67.9276 60.0815 67.9215C60.5607 67.9123 60.7056 68.126 60.6967 68.5899C60.6819 69.0416 60.469 69.1851 60.1051 69.1301Z" fill="white"></path>
    <path id="Vector_70" d="M67.9284 68.5869C67.884 68.126 68.0379 67.9276 68.4727 67.9184C68.9371 67.9093 69.1116 68.0955 69.1027 68.5716C69.0939 69.0234 68.8838 69.1424 68.4904 69.1393C68.0822 69.1393 67.8604 68.9959 67.9284 68.5869Z" fill="white"></path>
    <path id="Vector_71" d="M76.3093 67.9124C76.6968 68.0467 77.2529 67.6469 77.4748 68.2634C77.5576 68.4923 77.5813 68.8037 77.3801 69.0112C77.179 69.2188 76.898 69.1486 76.6525 69.118C76.2945 69.0723 76.3389 68.764 76.3271 68.5076C76.3182 68.3092 76.3152 68.1108 76.3093 67.9124Z" fill="white"></path>
  </g>
</svg>
