<?xml version="1.0" encoding="UTF-8"?>
<svg xmlns="http://www.w3.org/2000/svg" width="126" height="122" viewBox="0 0 126 122" fill="none">
  <g id="Group 88680 2" clip-path="url(#clip0_355_1023)">
    <g id="Group 88680">
      <path id="Rectangle 38463" d="M105.498 28.1743L42.7435 7.72464C35.4288 5.34101 27.5723 9.35573 25.1956 16.6918L4.80532 79.629C2.4286 86.965 6.43167 94.8444 13.7464 97.228L76.501 117.678C83.8157 120.061 91.6722 116.047 94.0489 108.711L114.439 45.7733C116.816 38.4373 112.813 30.5579 105.498 28.1743Z" fill="#989898" fill-opacity="0.22"></path>
      <g id="Group 88677">
        <path id="Rectangle 38462" d="M112.371 26.1281L49.9464 4.5534C42.6701 2.03863 34.7388 5.91577 32.2313 13.2132L10.7192 75.8195C8.21175 83.117 12.0776 91.0714 19.3539 93.5862L81.7785 115.161C89.0548 117.676 96.9861 113.798 99.4936 106.501L121.006 43.8947C123.513 36.5973 119.647 28.6429 112.371 26.1281Z" fill="#7A7A7A"></path>
        <g id="Group 88681">
          <g id="Group 87151">
            <path id="Path 139589" fill-rule="evenodd" clip-rule="evenodd" d="M58.4761 30.4091C57.5425 30.1103 56.5402 30.0939 55.5959 30.3622C54.6515 30.6304 53.8074 31.1711 53.1703 31.9161C52.5331 32.661 52.1314 33.5768 52.016 34.5477C51.9006 35.5185 52.0766 36.5009 52.5218 37.3708C52.9669 38.2407 53.6613 38.9589 54.5172 39.4349C55.3731 39.9108 56.3521 40.1232 57.3305 40.045C58.3089 39.9668 59.2428 39.6017 60.0143 38.9957C60.7858 38.3897 61.3602 37.57 61.665 36.6402C61.8685 36.0215 61.9473 35.3693 61.8971 34.7208C61.8468 34.0724 61.6684 33.4405 61.3721 32.8616C61.0758 32.2826 60.6674 31.7679 60.1704 31.3471C59.6735 30.9262 59.0977 30.6074 58.4761 30.4091ZM86.9722 63.6324C88.0239 58.3368 86.7217 54.412 79.806 52.1819C75.7359 50.8694 72.5193 51.4794 70.6614 53.2516L70.5472 53.2148L71.7373 49.58L64.208 47.152L55.3867 74.0937L63.2654 76.6343L67.6397 63.2743C68.7909 59.7585 70.5928 56.5775 74.9331 57.9771C79.2734 59.3767 78.3086 63.4945 77.2779 66.6425L72.9805 79.7672L81.0893 82.382L85.9374 67.5754C86.367 66.2844 86.7127 64.9673 86.9722 63.6324ZM47.0011 49.5136L40.5224 69.3004L49.9734 72.3481L58.7948 45.4064L49.3438 42.3588L47.0011 49.5136Z" fill="white"></path>
          </g>
        </g>
      </g>
    </g>
  </g>
  <defs>
    <clipPath id="clip0_355_1023">
      <rect width="125" height="122" fill="white" transform="translate(0.5)"></rect>
    </clipPath>
  </defs>
</svg>
