<?xml version="1.0" encoding="UTF-8"?>
<svg xmlns="http://www.w3.org/2000/svg" width="69" height="74" viewBox="0 0 69 74" fill="none">
  <path d="M35.7388 3.76829C38.6706 4.42558 41.4564 4.8704 44.1195 5.71026C46.2322 6.3775 48.2121 7.48625 50.2053 8.48878C51.1538 8.96348 51.3429 9.80002 50.8089 10.444C50.2252 11.1478 49.5752 10.9984 48.882 10.5801C46.1028 8.88381 43.0351 7.70203 39.8346 7.10118C38.5379 6.85553 37.2179 6.74266 35.752 6.55012C35.7056 7.69207 35.7222 8.83401 35.8051 9.97264C35.8383 10.2382 36.4916 10.5868 36.8896 10.6299C40.352 10.9652 43.6984 12.0706 46.6799 13.8665C47.8141 14.5736 48.9019 15.3504 49.9367 16.1903C50.454 16.6019 50.7724 16.572 51.2069 16.1172C52.3842 14.8923 53.6246 13.7271 54.7688 12.4756C55.0275 12.1271 55.127 11.6889 55.0507 11.2606C54.792 10.0258 54.4206 8.81078 54.079 7.59248C53.8203 6.85885 54.0392 6.04222 54.6295 5.53432C56.039 4.18656 57.3623 2.74585 58.795 1.42465C59.1598 1.08937 59.8961 0.803884 60.2941 0.953266C60.7484 1.12257 61.1763 1.74997 61.3354 2.26451C61.6538 3.4131 61.9092 4.57828 62.1049 5.75342C62.2375 6.42066 62.5028 6.81569 63.269 6.93188C64.516 7.11778 65.7431 7.44642 66.9668 7.75182C68.4394 8.1203 68.8042 9.21577 67.7562 10.288C66.2671 11.8084 64.7315 13.2889 63.1396 14.7031C62.7085 14.9952 62.1745 15.1014 61.6638 14.9952C60.4599 14.7562 59.2726 14.4375 58.1118 14.0392C57.4717 13.767 56.7288 13.9562 56.2944 14.5006C51.6181 19.231 46.9253 23.9416 42.2093 28.6288C41.6289 29.2031 41.7317 29.5816 42.0766 30.1957C43.7581 33.1833 43.7813 36.2341 42.0136 39.162C40.3023 42.0035 37.6988 43.4542 34.3425 43.4277C30.7773 43.3745 27.5935 41.1604 26.31 37.8275C24.9768 34.4249 25.8822 30.5542 28.5884 28.0977C31.2549 25.6644 35.1418 25.1134 38.3787 26.7134C39.8778 27.457 39.8811 27.4603 41.0883 26.2487C43.4131 23.9216 45.7314 21.5913 48.0496 19.2543C48.2718 19.0285 48.4741 18.7829 48.7427 18.4841C46.9784 16.7944 44.8923 15.4732 42.6139 14.5969C29.401 9.38507 15.16 17.6874 13.1336 31.7592C11.4588 43.3812 19.9092 54.5517 31.5766 55.999C40.1066 57.0546 47.0779 54.0471 52.0227 47.0792C56.9477 40.1313 57.3092 32.5958 53.7274 24.871C53.5616 24.5158 53.293 24.0777 53.3825 23.7689C53.5185 23.3175 53.9264 22.6237 54.2315 22.617C54.7257 22.6071 55.5216 22.9556 55.6808 23.354C56.5796 25.6279 57.3391 27.9583 58.1218 30.2754C58.2478 30.6472 58.2312 31.0621 58.3241 31.4505C58.4733 32.0879 58.5529 33.1999 58.8448 33.263C59.8795 33.4854 60.9905 33.3759 62.0684 33.3062C62.1811 33.2995 62.3536 32.712 62.3337 32.4066C62.0485 28.2072 60.7882 24.1274 58.659 20.4991C58.5861 20.373 58.5065 20.2535 58.4335 20.1273C57.8266 19.0783 57.8797 18.358 58.6292 17.9663C59.5877 17.465 60.1083 18.0725 60.5461 18.8028C62.9937 22.7963 64.4463 27.3176 64.7912 31.9883C64.8708 33.1037 65.2157 33.5684 66.3433 33.4091C66.811 33.3692 67.2819 33.3692 67.7495 33.4091C68.5256 33.4356 68.9899 33.8572 68.9999 34.6207C69.0098 35.3942 68.5123 35.7992 67.7562 35.8457C67.2156 35.8955 66.6717 35.8988 66.1311 35.8589C65.2058 35.756 64.8775 36.1013 64.8078 37.0474C64.38 43.1886 62.0618 49.0477 58.1715 53.818C55.1071 57.692 51.114 60.7294 46.5638 62.6482C45.728 63.0034 45.602 63.4051 45.874 64.1852C46.2653 65.3105 46.6036 66.4558 46.922 67.6044C47.6748 70.2567 46.1393 73.0153 43.4894 73.7689C43.0815 73.8851 42.6603 73.9481 42.2358 73.9581C37.0687 74.0145 31.9049 74.0145 26.7378 73.9548C23.9885 73.885 21.8162 71.5978 21.8858 68.8459C21.8958 68.4542 21.9521 68.0658 22.0516 67.684C22.3733 66.4624 22.7381 65.2474 23.156 64.0557C23.418 63.3121 23.2058 62.9967 22.4994 62.6847C14.6127 59.1925 9.02115 53.4329 6.05289 45.3298C5.08447 42.6841 4.71966 39.806 4.19234 37.0108C4.03646 36.1809 3.84411 35.7494 2.94202 35.8556C2.4744 35.8822 2.00346 35.8855 1.53583 35.8623C0.66691 35.8689 -0.0162869 35.5635 0.000295572 34.5942C0.016878 33.6979 0.65696 33.3825 1.4894 33.3958C1.95702 33.3726 2.42797 33.3759 2.89559 33.4058C3.85406 33.5253 4.08289 33.0871 4.18571 32.1841C5.60516 19.3904 12.3211 10.5702 24.2903 5.92272C26.8406 4.93348 29.6796 4.66791 32.4024 4.15337C33.0325 4.03386 33.2945 3.88116 33.2547 3.23384C33.2216 2.58319 33.2216 1.93255 33.2614 1.28191C33.3012 0.541635 33.6792 0.0204561 34.4553 0.000538428C35.2911 -0.0193792 35.699 0.515078 35.7288 1.30846C35.7653 2.17156 35.7388 3.03798 35.7388 3.76829ZM34.4918 71.4717C36.9493 71.4717 39.4068 71.4883 41.861 71.4651C43.9139 71.4485 45.0316 69.9214 44.4412 67.9463C43.5226 64.8657 42.5575 61.795 41.6554 58.7078C41.4365 57.9576 41.1314 57.7783 40.3454 57.9841C36.5546 58.9933 32.5682 59.0066 28.7708 58.014C27.8953 57.7883 27.557 57.9476 27.3116 58.8008C26.4427 61.8216 25.5008 64.8225 24.5987 67.8334C23.9453 70.0144 25.0332 71.4551 27.3348 71.4651C29.7194 71.4817 32.1072 71.4717 34.4918 71.4717ZM33.2448 6.4273C31.0891 6.82565 29.129 7.09454 27.2187 7.56261C16.6988 10.1253 7.93997 20.1705 6.7792 30.9326C6.51388 33.3958 6.51388 33.3958 9.02115 33.3958C9.09411 33.3892 9.16707 33.3892 9.23672 33.3958C10.1819 33.5419 10.5202 33.18 10.623 32.1808C11.157 26.325 13.8699 20.8809 18.2211 16.9272C22.0417 13.3321 26.9501 11.1179 32.1702 10.6332C32.6412 10.5834 33.2514 10.7063 33.2448 9.91289C33.2348 8.87385 33.2448 7.83481 33.2448 6.4273ZM24.1477 60.6398C24.3466 59.8497 24.5954 59.073 24.8905 58.3161C25.3781 57.2605 25.0564 56.7924 24.0349 56.2745C16.6557 52.5333 12.205 46.568 10.7922 38.3852C10.3544 35.8423 10.3875 35.8689 7.74098 35.849C6.85216 35.8423 6.55368 36.0581 6.64654 37.0175C7.42591 45.0576 10.9746 51.5972 17.2228 56.6696C19.2956 58.3692 21.6371 59.7103 24.1477 60.6398ZM44.826 60.6166C45.1642 60.5236 45.4959 60.4108 45.8242 60.2813C55.0441 55.8994 60.5428 48.6527 62.1447 38.581C62.6587 35.351 62.9108 35.9419 59.7966 35.8656C59.7236 35.8689 59.6507 35.8689 59.581 35.8656C58.7585 35.7527 58.4667 36.098 58.3937 36.9378C58.1185 40.2242 57.1368 43.4111 55.5183 46.2858C53.0542 50.7441 49.2502 54.316 44.6502 56.4969C44.3152 56.6596 43.8542 57.1609 43.904 57.4165C44.1593 58.4987 44.4645 59.5676 44.826 60.6166ZM37.8779 29.4488C35.4635 27.5135 31.7059 28.1077 29.6232 30.6206C27.4608 33.2663 27.7892 37.1503 30.3661 39.3943C32.9728 41.6716 36.9261 41.4193 39.2211 38.83C41.2442 36.6059 41.274 32.7817 39.4068 31.1019C39.2012 31.4771 38.9624 31.8356 38.6905 32.1675C37.6391 33.2597 36.5613 34.3253 35.4768 35.3842C34.9063 35.9419 34.2497 36.0482 33.6527 35.4672C33.0425 34.8763 33.1751 34.2224 33.7257 33.6514C34.578 32.7684 35.4536 31.9053 36.3159 31.0356C36.8299 30.5111 37.3473 29.9866 37.8779 29.4488ZM57.3523 9.74691C59.7535 8.04395 60.241 6.51693 58.9807 4.82393C56.0722 7.629 56.3441 6.54349 57.3523 9.74691ZM63.909 10.0324C61.4548 9.05311 61.2094 9.24565 59.392 11.6557C61.488 12.8441 62.6753 12.4159 63.909 10.0324Z" fill="white"></path>
</svg>
