<?xml version="1.0" encoding="UTF-8"?>
<svg xmlns="http://www.w3.org/2000/svg" width="60" height="60" viewBox="0 0 60 60" fill="none">
  <g id="Group 90185">
    <path id="Vector" d="M11.4587 27.9973C11.2213 27.9973 11.0081 27.9973 10.7926 27.9973C8.29275 27.9949 5.79294 27.9925 3.29312 27.9901C1.81309 27.9901 0.740014 27.2392 0.233753 25.8463C0.0787259 25.4224 0.00121063 24.984 0.00121063 24.5335C0.00121063 17.5088 -0.00363293 10.4841 0.00605627 3.45943C0.00847857 2.26766 0.456604 1.26483 1.42552 0.53329C1.90272 0.172367 2.44774 0.000388505 3.04847 0.000388505C20.9759 0.000388505 38.9058 -0.00203646 56.8332 0.00523045C58.1413 0.00523045 58.9891 0.739186 59.539 1.86556C59.7933 2.38393 59.8926 2.94348 59.8926 3.51999C59.8926 10.5035 59.895 17.4894 59.8926 24.4729C59.8926 25.5145 59.5656 26.435 58.8123 27.1762C58.26 27.7212 57.5938 27.9998 56.809 27.9998C44.2736 27.9973 31.7406 27.9998 19.2052 27.9949C18.9921 27.9949 18.8467 28.0506 18.699 28.2129C16.8338 30.2719 14.9589 32.3212 13.0865 34.3753C13.0429 34.4213 13.0017 34.4722 12.9533 34.5133C12.7352 34.6999 12.4882 34.7774 12.212 34.6708C11.9286 34.5618 11.7857 34.3389 11.7688 34.041C11.684 32.4253 11.6016 30.8096 11.5193 29.1915C11.5023 28.804 11.4805 28.4164 11.4587 27.9973ZM13.0453 32.3357C13.1325 32.2436 13.1882 32.1879 13.2415 32.1298C14.8136 30.4075 16.3905 28.6901 17.9577 26.963C18.1733 26.7256 18.4131 26.6239 18.7353 26.6239C31.3918 26.6287 44.0483 26.6263 56.7049 26.6312C57.3589 26.6312 57.8215 26.3429 58.1534 25.8027C58.415 25.374 58.4949 24.8992 58.4949 24.4026C58.4949 17.4652 58.4949 10.5277 58.4925 3.58782C58.4925 3.37465 58.4756 3.15664 58.4344 2.94832C58.2382 1.92369 57.589 1.39079 56.5571 1.39079C41.0011 1.39079 25.4451 1.39079 9.88662 1.39079C7.61935 1.39079 5.34965 1.39321 3.08238 1.38837C2.61003 1.38837 2.22488 1.56761 1.91967 1.91885C1.52242 2.37424 1.36497 2.91684 1.36497 3.50788C1.36255 6.01981 1.36497 8.53173 1.36497 11.0437C1.36497 15.5104 1.36497 19.9771 1.36497 24.4438C1.36497 24.9356 1.4667 25.4006 1.73558 25.8173C2.06259 26.3235 2.51072 26.5997 3.13809 26.5972C5.1268 26.5876 7.11793 26.5973 9.10664 26.5997C10.0635 26.6021 11.0203 26.6021 11.9771 26.6069C12.5148 26.6094 12.7595 26.8322 12.7885 27.3627C12.8588 28.678 12.9242 29.9933 12.9896 31.3086C13.0065 31.6356 13.0235 31.9626 13.0453 32.3357Z" fill="white"></path>
    <path id="Vector_2" d="M45.2958 45.7505C47.1998 47.0295 46.9696 49.8345 44.9809 50.8301C46.4028 52.6734 45.2498 55.3477 42.9874 55.5778C43.0915 55.8951 43.232 56.21 43.2999 56.5394C43.668 58.3368 42.3285 59.9888 40.4948 59.9936C37.7043 60.0009 34.9138 60.0033 32.1258 59.9936C30.498 59.9864 28.9283 59.6569 27.3999 59.0998C25.7382 58.4942 24.0571 57.9492 22.3397 57.518C21.7608 57.3727 21.1746 57.4502 20.5763 57.4236C20.5714 57.4865 20.5641 57.535 20.5617 57.5834C20.5593 57.8087 20.5666 58.0364 20.5593 58.2617C20.5496 58.6565 20.2638 58.9569 19.881 58.9593C17.902 58.9617 15.9254 58.9617 13.9464 58.9593C13.5734 58.9593 13.29 58.6783 13.2682 58.3029C13.2609 58.1939 13.2657 58.0824 13.2657 57.9734C13.2657 52.5547 13.2657 47.1361 13.2657 41.7198C13.2657 41.6495 13.2633 41.5793 13.2682 41.5115C13.2875 41.1239 13.5782 40.8356 13.9682 40.8356C15.9279 40.8332 17.8899 40.8332 19.8496 40.8356C20.2638 40.8356 20.5496 41.1191 20.5593 41.5333C20.5641 41.7585 20.5593 41.9838 20.5593 42.2309C20.6489 42.2164 20.7216 42.2067 20.7918 42.1921C21.9376 41.9499 23.0833 41.7077 24.2267 41.4606C24.3042 41.4437 24.3817 41.4146 24.4519 41.3758C26.5787 40.2131 28.3882 38.6774 29.8609 36.7541C30.0232 36.5409 30.1274 36.2817 30.2485 36.0371C31.0479 34.448 31.8448 32.8566 32.6441 31.2651C32.6659 31.224 32.6926 31.1852 32.7096 31.1416C32.976 30.4173 33.5792 30.1848 34.2671 30.1145C36.498 29.882 38.1161 32.0233 37.3047 34.1162C36.8783 35.2135 36.4641 36.3156 36.0499 37.4154C35.6454 38.4909 35.2481 39.5664 34.8484 40.6419C34.8291 40.6952 34.8121 40.7509 34.7855 40.8332C34.8775 40.8332 34.9478 40.8332 35.0204 40.8332C37.7286 40.8332 40.4391 40.8308 43.1472 40.8332C44.5958 40.8332 45.79 41.8385 46.0225 43.2676C46.1582 44.1033 45.9644 44.8688 45.4484 45.547C45.4 45.6124 45.3467 45.673 45.2983 45.7384C45.2983 45.7384 45.2983 45.7457 45.2958 45.7505ZM20.5617 56.0598C20.6925 56.0598 20.8064 56.055 20.9226 56.0598C21.3901 56.0816 21.8722 56.0453 22.3252 56.1373C24.2097 56.5249 26.024 57.1547 27.8286 57.8087C29.19 58.3029 30.5755 58.6226 32.0216 58.6371C33.6518 58.6541 35.282 58.6444 36.9122 58.6444C38.0895 58.6444 39.2667 58.6493 40.444 58.642C41.2651 58.6371 41.924 58.0219 41.9797 57.2274C42.0378 56.4038 41.4855 55.7183 40.662 55.602C40.4972 55.5778 40.3253 55.5778 40.1581 55.5778C38.2372 55.5754 36.3188 55.5778 34.3979 55.5754C34.3059 55.5754 34.2114 55.5729 34.1218 55.556C33.8044 55.4978 33.5695 55.2265 33.5574 54.9165C33.5452 54.5919 33.7584 54.2988 34.0782 54.2213C34.1775 54.1971 34.284 54.1946 34.3882 54.1946C37.1545 54.1922 39.9207 54.1946 42.6894 54.1922C43.513 54.1922 44.1501 53.5818 44.2276 52.7413C44.293 52.0049 43.7189 51.2879 42.951 51.1571C42.7573 51.1232 42.5586 51.1183 42.3624 51.1183C39.7052 51.1159 37.0503 51.1159 34.393 51.1159C34.3058 51.1159 34.2187 51.1135 34.1339 51.0989C33.865 51.0529 33.647 50.8398 33.5889 50.5757C33.492 50.1252 33.8262 49.74 34.318 49.74C36.997 49.74 39.6785 49.74 42.3576 49.74C42.8154 49.74 43.2732 49.7497 43.731 49.7376C44.5522 49.7158 45.1844 49.0933 45.2328 48.2697C45.2789 47.5091 44.6854 46.8066 43.8933 46.7025C43.6777 46.6734 43.4549 46.6734 43.2369 46.671C40.2502 46.6685 37.2635 46.671 34.2744 46.671C34.0733 46.671 33.8989 46.6056 33.756 46.4602C33.5574 46.2592 33.4968 45.9612 33.6131 45.7045C33.7439 45.4162 33.9716 45.2781 34.2889 45.2806C36.0862 45.283 37.886 45.2806 39.6834 45.2806C40.8388 45.2806 41.9918 45.2878 43.1472 45.2781C44.0241 45.2709 44.6951 44.5878 44.6903 43.7279C44.6854 42.8946 44.0169 42.2236 43.1594 42.2236C40.0394 42.2212 36.9195 42.2261 33.7972 42.2333C33.2739 42.2333 32.9276 41.7149 33.1431 41.2353C33.1892 41.136 33.2352 41.0343 33.2739 40.9325C34.1993 38.4739 35.1246 36.0177 36.0451 33.5591C36.2558 32.9971 36.1759 32.469 35.781 32.0112C35.3886 31.5582 34.8872 31.3911 34.2937 31.4953C34.1314 31.5243 34.0321 31.5994 33.957 31.752C33.1262 33.4186 32.2929 35.0803 31.4524 36.742C31.3119 37.0205 31.1787 37.3112 30.9921 37.5559C29.4055 39.6293 27.458 41.2886 25.1762 42.5555C24.9727 42.6693 24.745 42.759 24.5173 42.8098C23.2674 43.0884 22.0127 43.3524 20.7579 43.614C20.6053 43.6455 20.5544 43.6964 20.5544 43.8587C20.5593 47.8506 20.5593 51.8402 20.5593 55.8321C20.5617 55.8999 20.5617 55.9678 20.5617 56.0598ZM19.1737 42.2357C17.6525 42.2357 16.1483 42.2357 14.644 42.2357C14.644 47.3541 14.644 52.4603 14.644 57.5665C16.1604 57.5665 17.6646 57.5665 19.1737 57.5665C19.1737 52.4506 19.1737 47.3516 19.1737 42.2357Z" fill="white"></path>
    <path id="Vector_3" d="M13.0451 32.3357C13.0257 31.9627 13.0063 31.6357 12.9894 31.3087C12.9215 29.9934 12.8586 28.6781 12.7883 27.3628C12.7593 26.8323 12.5146 26.6094 11.9768 26.607C11.02 26.6046 10.0632 26.6022 9.10642 26.5997C7.11771 26.5973 5.12658 26.5876 3.13787 26.5973C2.5105 26.5997 2.06237 26.3236 1.73536 25.8173C1.46648 25.4007 1.36475 24.9356 1.36475 24.4439C1.36475 19.9772 1.36475 15.5104 1.36475 11.0437C1.36475 8.53179 1.36475 6.01987 1.36475 3.50794C1.36475 2.91448 1.52462 2.37188 1.91945 1.9189C2.22466 1.56767 2.60981 1.38843 3.08216 1.38843C5.34943 1.39327 7.61913 1.39085 9.8864 1.39085C25.4424 1.39085 40.9984 1.39085 56.5569 1.39085C57.5888 1.39085 58.2355 1.92375 58.4342 2.94838C58.4753 3.1567 58.4923 3.37471 58.4923 3.58787C58.4947 10.5253 58.4947 17.4628 58.4947 24.4027C58.4947 24.8993 58.4148 25.374 58.1532 25.8028C57.8237 26.343 57.3587 26.6312 56.7046 26.6312C44.0481 26.6264 31.3916 26.6288 18.7351 26.624C18.4129 26.624 18.1731 26.7257 17.9575 26.9631C16.3903 28.6902 14.8134 30.4076 13.2413 32.1298C13.1856 32.188 13.1323 32.2437 13.0451 32.3357ZM26.4767 18.1822C26.4792 18.4729 26.5591 18.657 26.7384 18.7951C27.0121 19.0034 27.3027 18.984 27.5886 18.8338C28.3274 18.4463 29.0662 18.0563 29.8001 17.659C29.9067 17.6009 29.9842 17.6057 30.086 17.6614C30.8272 18.0587 31.5708 18.4511 32.3121 18.8484C32.5834 18.9937 32.8498 19.001 33.0993 18.8193C33.3488 18.6376 33.4142 18.376 33.3609 18.0781C33.2132 17.24 33.0702 16.3994 32.9201 15.5589C32.9007 15.4475 32.9249 15.3772 33.0048 15.3021C33.6128 14.7208 34.2136 14.1346 34.8216 13.5532C35.0396 13.3425 35.1462 13.1003 35.0565 12.8023C34.9645 12.5044 34.7416 12.359 34.4413 12.3154C33.6032 12.1943 32.7675 12.0684 31.9293 11.9545C31.8034 11.9375 31.7404 11.8843 31.6871 11.7728C31.3165 11.0122 30.9435 10.2516 30.5607 9.49829C30.4953 9.3699 30.3888 9.24395 30.2676 9.16886C29.9237 8.95327 29.4974 9.09619 29.3036 9.48375C28.9184 10.2516 28.543 11.0219 28.1578 11.7874C28.1239 11.8528 28.044 11.9279 27.9786 11.9375C27.3318 12.0393 26.6826 12.1289 26.0359 12.2234C25.8179 12.2549 25.5999 12.2888 25.3819 12.3203C25.096 12.359 24.8974 12.5141 24.8078 12.7854C24.7206 13.0566 24.7811 13.3013 24.9895 13.5023C25.6096 14.1031 26.2297 14.7062 26.8546 15.3021C26.937 15.3796 26.9612 15.4523 26.9418 15.5613C26.8522 16.0506 26.7674 16.5423 26.6826 17.0341C26.6051 17.4386 26.5349 17.8431 26.4767 18.1822ZM37.3117 18.1943C37.3117 18.5601 37.4934 18.8145 37.7889 18.9089C38.0045 18.9792 38.2128 18.9428 38.409 18.8363C39.1454 18.4463 39.8842 18.0563 40.6206 17.6614C40.7247 17.6057 40.8022 17.6033 40.9064 17.659C41.6428 18.0539 42.384 18.4366 43.118 18.8338C43.3917 18.9816 43.663 19.0107 43.9197 18.8266C44.1838 18.6376 44.2467 18.3639 44.191 18.0514C44.0457 17.2303 43.9052 16.4067 43.755 15.5855C43.7308 15.4547 43.7623 15.3724 43.8568 15.2827C44.4623 14.7062 45.0582 14.1225 45.6614 13.546C45.8818 13.3352 45.9787 13.0857 45.8866 12.7902C45.797 12.5019 45.5766 12.3566 45.2811 12.313C44.4381 12.1919 43.5951 12.0659 42.7522 11.9472C42.6408 11.9327 42.5802 11.8915 42.5293 11.7922C42.1611 11.0364 41.7833 10.2855 41.4151 9.52978C41.2794 9.24879 41.0784 9.07196 40.7562 9.07438C40.4437 9.07438 40.2427 9.24879 40.1095 9.52009C39.7388 10.2734 39.3634 11.0268 38.9952 11.7825C38.9443 11.8867 38.8813 11.9351 38.7627 11.9497C37.9076 12.0683 37.0525 12.1943 36.1974 12.3203C35.8002 12.3784 35.5313 12.7175 35.6112 13.1002C35.6451 13.2577 35.7445 13.4248 35.8607 13.5411C36.4494 14.1321 37.0525 14.7111 37.6557 15.29C37.7453 15.3748 37.7743 15.4596 37.7525 15.5807C37.6605 16.0894 37.5757 16.5981 37.4885 17.1067C37.428 17.4846 37.365 17.8673 37.3117 18.1943ZM24.2531 13.0252C24.2482 12.6473 24.006 12.3736 23.6378 12.3178C22.79 12.1895 21.9398 12.0659 21.0895 11.9497C20.9612 11.9327 20.9006 11.877 20.8473 11.768C20.4743 11.0025 20.094 10.2395 19.7161 9.47649C19.5611 9.16643 19.2607 9.01383 18.941 9.0865C18.7036 9.13979 18.5486 9.29482 18.442 9.5104C18.0714 10.2637 17.6959 11.0171 17.3277 11.7728C17.2744 11.8843 17.2066 11.9327 17.0831 11.9497C16.2328 12.0659 15.385 12.1943 14.5348 12.3154C14.3192 12.3469 14.1521 12.4438 14.0358 12.6255C13.8469 12.9162 13.8977 13.2601 14.169 13.5241C14.7794 14.1176 15.3923 14.7111 16.0076 15.2997C16.0802 15.3699 16.119 15.4305 16.0996 15.5395C15.9882 16.1499 15.8816 16.7603 15.775 17.3708C15.7338 17.6106 15.6951 17.8504 15.6515 18.0902C15.5982 18.3857 15.6781 18.6328 15.9228 18.8096C16.1698 18.9889 16.4315 18.9767 16.6931 18.8387C17.4416 18.4438 18.19 18.0514 18.9361 17.6493C19.05 17.5888 19.1372 17.5839 19.2534 17.6469C19.9922 18.0466 20.7383 18.4366 21.4795 18.8338C21.746 18.9768 22.0076 18.9768 22.2498 18.8023C22.4896 18.6304 22.5696 18.3857 22.5187 18.0975C22.3734 17.2448 22.2329 16.3946 22.0851 15.5419C22.0657 15.4378 22.0924 15.3724 22.1675 15.3021C22.7779 14.7159 23.3835 14.1225 23.9915 13.5338C24.1562 13.3861 24.2506 13.2068 24.2531 13.0252ZM10.9982 18.9622C11.473 18.9453 11.771 18.5601 11.6862 18.0587C11.5457 17.2303 11.41 16.4018 11.2623 15.5734C11.2405 15.4475 11.272 15.3724 11.3592 15.2876C11.9623 14.7087 12.5582 14.1249 13.1589 13.546C13.3769 13.3352 13.4763 13.0833 13.3842 12.7902C13.2922 12.5019 13.0741 12.3566 12.7786 12.313C11.9405 12.1919 11.1048 12.0659 10.2667 11.9521C10.1311 11.9327 10.0705 11.8746 10.0148 11.7607C9.64417 11.0001 9.26387 10.2444 8.89084 9.48375C8.79637 9.28997 8.65345 9.15674 8.44756 9.09618C8.11812 9.00171 7.79596 9.15432 7.62882 9.49102C7.25094 10.2492 6.8779 11.0074 6.50487 11.768C6.45158 11.8746 6.39344 11.9351 6.26506 11.9521C5.42694 12.0659 4.59125 12.1943 3.75314 12.3106C3.44793 12.3542 3.22992 12.4971 3.13545 12.795C3.04098 13.093 3.14272 13.3376 3.36314 13.5484C3.97356 14.1346 4.57914 14.7256 5.19198 15.3094C5.26707 15.3821 5.2913 15.4475 5.27192 15.5516C5.12174 16.3849 4.98367 17.2182 4.83348 18.0514C4.77777 18.3566 4.83348 18.6207 5.09267 18.8096C5.35912 19.0034 5.63042 18.9743 5.90898 18.8241C6.63325 18.4342 7.36479 18.0539 8.08663 17.6614C8.21501 17.5912 8.30948 17.596 8.43544 17.6639C9.1694 18.0587 9.9082 18.4487 10.6494 18.8338C10.756 18.8896 10.8795 18.9186 10.9982 18.9622ZM48.8515 18.9695C48.992 18.9186 49.1374 18.8799 49.2682 18.812C49.9973 18.4317 50.724 18.0442 51.4482 17.6542C51.5621 17.5912 51.6493 17.5888 51.7656 17.6518C52.4995 18.0514 53.2359 18.439 53.9723 18.8338C54.2436 18.9792 54.51 18.9792 54.7571 18.7975C55.0018 18.6183 55.0647 18.3615 55.0139 18.0684C54.871 17.2351 54.7329 16.3994 54.5875 15.5662C54.5682 15.4499 54.59 15.3748 54.6747 15.2924C55.2852 14.7062 55.8907 14.1152 56.4963 13.5241C56.7095 13.3158 56.7991 13.0688 56.7046 12.7805C56.6126 12.4995 56.4019 12.3518 56.1136 12.3106C55.2755 12.187 54.4398 12.0611 53.6017 11.9472C53.466 11.9279 53.403 11.8697 53.3473 11.7559C52.984 11.0122 52.611 10.271 52.2476 9.52494C52.112 9.24395 51.9085 9.06712 51.5912 9.06712C51.2714 9.06712 51.0704 9.25121 50.9347 9.52978C50.5689 10.2807 50.1959 11.0268 49.8277 11.7752C49.7769 11.8794 49.7163 11.9279 49.5952 11.9448C48.7401 12.0635 47.885 12.187 47.0324 12.3178C46.9161 12.3348 46.795 12.3833 46.7005 12.4535C46.3541 12.7078 46.3348 13.1875 46.6545 13.5023C47.2407 14.0789 47.8293 14.6578 48.4276 15.2222C48.573 15.3578 48.6069 15.4838 48.5705 15.6752C48.4204 16.4963 48.2823 17.3199 48.1515 18.1435C48.0885 18.5819 48.4083 18.9453 48.8515 18.9695Z" fill="#252525"></path>
    <path id="Vector_4" d="M20.562 56.06C20.562 55.9679 20.562 55.9001 20.562 55.8323C20.562 51.8403 20.562 47.8508 20.5571 43.8589C20.5571 43.6966 20.608 43.6457 20.7606 43.6142C22.0154 43.3526 23.2677 43.0886 24.52 42.81C24.7477 42.7591 24.9754 42.6695 25.1789 42.5557C27.4607 41.2888 29.4082 39.6295 30.9948 37.556C31.1813 37.3114 31.3146 37.0207 31.4551 36.7421C32.2932 35.0804 33.1289 33.4163 33.9597 31.7522C34.0348 31.602 34.1341 31.5245 34.2964 31.4954C34.8899 31.3913 35.3913 31.556 35.7837 32.0114C36.1786 32.4692 36.2561 32.9973 36.0477 33.5592C35.1273 36.0179 34.202 38.4765 33.2766 40.9327C33.2379 41.0345 33.1919 41.1362 33.1458 41.2355C32.9302 41.7151 33.2766 42.2335 33.7999 42.2335C36.9198 42.2287 40.0397 42.2238 43.162 42.2238C44.0195 42.2238 44.6881 42.8948 44.6929 43.7281C44.6978 44.588 44.0268 45.2711 43.1499 45.2783C41.9969 45.288 40.8415 45.2808 39.686 45.2808C37.8887 45.2808 36.0889 45.2808 34.2916 45.2808C33.9743 45.2808 33.7441 45.4164 33.6158 45.7047C33.4995 45.9614 33.56 46.2594 33.7587 46.4604C33.9016 46.6033 34.076 46.6712 34.277 46.6712C37.2637 46.6712 40.2504 46.6712 43.2396 46.6712C43.46 46.6712 43.6804 46.6736 43.896 46.7026C44.6857 46.8068 45.2816 47.5117 45.2355 48.2699C45.1847 49.0935 44.5549 49.716 43.7337 49.7378C43.2759 49.7499 42.8181 49.7402 42.3603 49.7402C39.6812 49.7402 36.9997 49.7402 34.3206 49.7402C33.8289 49.7402 33.4922 50.1278 33.5915 50.5759C33.6497 50.8399 33.8653 51.0531 34.1365 51.0991C34.2213 51.1137 34.3085 51.1161 34.3957 51.1161C37.053 51.1161 39.7078 51.1161 42.3651 51.1185C42.5613 51.1185 42.7599 51.1258 42.9537 51.1573C43.724 51.2881 44.2957 52.0051 44.2303 52.7414C44.1552 53.5844 43.5157 54.1924 42.6921 54.1924C39.9258 54.1948 37.1596 54.1924 34.3909 54.1948C34.2867 54.1948 34.1802 54.1972 34.0808 54.2215C33.7635 54.299 33.5479 54.5921 33.56 54.9167C33.5722 55.2291 33.8071 55.498 34.1244 55.5562C34.2141 55.5731 34.3085 55.5755 34.4006 55.5755C36.3215 55.5755 38.2399 55.5755 40.1608 55.578C40.3279 55.578 40.4975 55.578 40.6647 55.6022C41.4882 55.7185 42.0405 56.4064 41.9824 57.2275C41.9267 58.0221 41.2678 58.6373 40.4466 58.6422C39.2694 58.6494 38.0922 58.6446 36.9149 58.6446C35.2847 58.6446 33.6545 58.6543 32.0243 58.6373C30.5782 58.6228 29.1926 58.3006 27.8313 57.8089C26.0291 57.1549 24.2124 56.5251 22.3278 56.1375C21.8749 56.0455 21.3928 56.0794 20.9253 56.06C20.8066 56.0551 20.6928 56.06 20.562 56.06Z" fill="#252525"></path>
    <path id="Vector_5" d="M19.1737 42.2358C19.1737 47.3517 19.1737 52.4531 19.1737 57.5666C17.6622 57.5666 16.1604 57.5666 14.644 57.5666C14.644 52.4604 14.644 47.3542 14.644 42.2358C16.1507 42.2358 17.6525 42.2358 19.1737 42.2358Z" fill="#252525"></path>
    <path id="Vector_6" d="M26.4773 18.1823C26.5355 17.8432 26.6057 17.4362 26.676 17.0317C26.7607 16.54 26.8455 16.0483 26.9351 15.5589C26.9545 15.4499 26.9303 15.3773 26.8479 15.2998C26.223 14.7039 25.6029 14.1007 24.9828 13.5C24.7769 13.2989 24.7139 13.0519 24.8011 12.783C24.8883 12.5117 25.0869 12.3567 25.3752 12.3179C25.5932 12.2888 25.8112 12.2525 26.0292 12.221C26.6784 12.1265 27.3251 12.0369 27.9719 11.9352C28.0397 11.9255 28.1196 11.8504 28.1511 11.785C28.5363 11.0196 28.9117 10.2468 29.2969 9.48139C29.4907 9.09382 29.917 8.95091 30.261 9.16649C30.3821 9.24158 30.4887 9.36754 30.5541 9.49592C30.9392 10.2493 31.3098 11.0099 31.6804 11.7705C31.7337 11.8795 31.7967 11.9328 31.9227 11.9521C32.7608 12.066 33.5989 12.1944 34.4346 12.3131C34.7374 12.3567 34.9602 12.502 35.0498 12.7999C35.1395 13.0979 35.0353 13.3425 34.8149 13.5509C34.2069 14.1322 33.6062 14.7208 32.9982 15.2998C32.9182 15.3773 32.894 15.4475 32.9134 15.5565C33.0636 16.3946 33.2065 17.2352 33.3542 18.0757C33.4075 18.3761 33.3421 18.6353 33.0926 18.8169C32.8431 18.9986 32.5767 18.9913 32.3054 18.846C31.5642 18.4487 30.8205 18.0588 30.0793 17.6591C29.9775 17.6034 29.8976 17.5985 29.7935 17.6567C29.0595 18.0539 28.3231 18.4463 27.5819 18.8315C27.2961 18.9817 27.0054 19.001 26.7317 18.7927C26.5597 18.6595 26.4797 18.473 26.4773 18.1823ZM29.9267 11.3102C29.7232 11.7244 29.5052 12.0854 29.3623 12.4754C29.1564 13.0349 28.7809 13.2796 28.1972 13.3062C27.7902 13.3256 27.3881 13.4152 26.9545 13.4782C27.0102 13.5387 27.0417 13.5775 27.0781 13.6114C27.4244 13.9457 27.766 14.2848 28.1172 14.6142C28.328 14.8153 28.4152 15.0503 28.3667 15.3361C28.3376 15.5081 28.3086 15.6801 28.2771 15.8496C28.2141 16.2178 28.1487 16.5884 28.0809 16.9833C28.1608 16.9445 28.2117 16.9203 28.2626 16.8936C28.6743 16.678 29.0886 16.4697 29.4931 16.2445C29.7789 16.0846 30.0454 16.0773 30.3312 16.2396C30.7454 16.4722 31.1717 16.6853 31.5908 16.9057C31.6344 16.9275 31.6804 16.9445 31.7434 16.9736C31.7386 16.9179 31.7386 16.8839 31.7313 16.85C31.6465 16.3704 31.5714 15.8884 31.477 15.4112C31.4116 15.0842 31.4915 14.8201 31.7361 14.5949C32.0268 14.3284 32.3054 14.0474 32.5888 13.7761C32.6833 13.6865 32.785 13.6017 32.8819 13.5169C32.3248 13.3982 31.7967 13.3159 31.2686 13.2456C30.9707 13.2069 30.7745 13.0543 30.6461 12.783C30.4232 12.3034 30.181 11.8286 29.9267 11.3102Z" fill="white"></path>
    <path id="Vector_7" d="M37.312 18.1944C37.3653 17.8674 37.4283 17.4847 37.4937 17.1019C37.5809 16.5932 37.6657 16.0846 37.7577 15.5759C37.7795 15.4548 37.7504 15.3724 37.6608 15.2852C37.0577 14.7063 36.4569 14.1298 35.8659 13.5363C35.7496 13.42 35.6503 13.2529 35.6164 13.0954C35.5364 12.7127 35.8053 12.376 36.2026 12.3155C37.0577 12.1895 37.9103 12.0635 38.7678 11.9449C38.8865 11.9279 38.9495 11.8819 39.0003 11.7777C39.3685 11.022 39.744 10.271 40.1146 9.51528C40.2478 9.24398 40.4489 9.06958 40.7614 9.06958C41.0811 9.06958 41.2821 9.24641 41.4202 9.52497C41.7884 10.2807 42.1639 11.0316 42.5345 11.7874C42.5829 11.8891 42.6459 11.9279 42.7573 11.9424C43.6003 12.0587 44.4432 12.1847 45.2862 12.3082C45.5817 12.3518 45.8022 12.4971 45.8918 12.7854C45.9838 13.0785 45.8869 13.328 45.6665 13.5411C45.0634 14.1177 44.4675 14.7014 43.8619 15.2779C43.7674 15.3676 43.7384 15.4523 43.7602 15.5807C43.9103 16.4019 44.0508 17.2255 44.1962 18.0466C44.2519 18.3567 44.1889 18.6328 43.9249 18.8218C43.6681 19.0059 43.3968 18.9768 43.1231 18.829C42.3891 18.4342 41.6479 18.0491 40.9115 17.6542C40.8074 17.5985 40.7274 17.5985 40.6257 17.6566C39.8917 18.0515 39.1529 18.4415 38.4141 18.8315C38.2155 18.9356 38.0096 18.9744 37.794 18.9041C37.4937 18.8145 37.312 18.5602 37.312 18.1944ZM38.918 16.9929C39.4315 16.7216 39.9039 16.477 40.3689 16.2202C40.6378 16.0724 40.8922 16.07 41.161 16.2178C41.5777 16.4455 42.0016 16.6635 42.4206 16.8839C42.4715 16.9106 42.5272 16.9324 42.6023 16.9687C42.5127 16.4552 42.4521 15.9707 42.3431 15.4984C42.2486 15.089 42.3625 14.7911 42.6629 14.5052C43.0141 14.1709 43.3266 13.7955 43.6536 13.437C43.6681 13.4636 43.6318 13.4491 43.5954 13.4443C43.1086 13.374 42.6217 13.2965 42.1324 13.2359C41.8344 13.1996 41.631 13.0518 41.5026 12.783C41.2943 12.3445 41.0763 11.9085 40.8607 11.4725C40.8364 11.4241 40.8098 11.378 40.771 11.3078C40.5143 11.831 40.2696 12.3227 40.0298 12.8169C39.9135 13.0543 39.7222 13.1899 39.4654 13.2287C39.1457 13.2795 38.8235 13.3231 38.5038 13.3716C38.2736 13.4055 38.0435 13.4418 37.8982 13.4661C38.2058 13.8076 38.5159 14.1855 38.8647 14.5222C39.1505 14.7959 39.2571 15.0793 39.1747 15.4693C39.0706 15.9562 39.0052 16.4552 38.918 16.9929Z" fill="white"></path>
    <path id="Vector_8" d="M24.2533 13.0251C24.2509 13.2092 24.1564 13.386 23.9989 13.5386C23.3909 14.1272 22.7854 14.7207 22.1749 15.3069C22.0998 15.3796 22.0756 15.4426 22.0926 15.5467C22.2403 16.3969 22.3808 17.2496 22.5262 18.1023C22.5746 18.3929 22.4947 18.6376 22.2573 18.8071C22.0127 18.9815 21.751 18.9815 21.487 18.8386C20.7458 18.4414 20.0021 18.0514 19.2609 17.6517C19.1446 17.5887 19.0574 17.5911 18.9436 17.6541C18.1975 18.0538 17.449 18.4486 16.7005 18.8435C16.4389 18.9815 16.1773 18.9937 15.9302 18.8144C15.6856 18.6351 15.6057 18.3881 15.659 18.095C15.7026 17.8552 15.7413 17.6154 15.7825 17.3756C15.8891 16.7651 15.9932 16.1523 16.1071 15.5443C16.1265 15.4353 16.0877 15.3747 16.015 15.3045C15.3998 14.7134 14.7869 14.1224 14.1765 13.5289C13.9052 13.2649 13.8543 12.9209 14.0433 12.6303C14.1596 12.4486 14.3291 12.3517 14.5423 12.3202C15.3925 12.1991 16.2403 12.0707 17.0905 11.9544C17.2165 11.9375 17.2819 11.889 17.3352 11.7776C17.7034 11.0219 18.0788 10.2685 18.4494 9.51519C18.556 9.2996 18.7086 9.14458 18.9484 9.09129C19.2682 9.01862 19.5685 9.1688 19.7236 9.48127C20.1039 10.2443 20.4818 11.0073 20.8548 11.7728C20.9081 11.8818 20.9686 11.9375 21.097 11.9544C21.9472 12.0707 22.7951 12.1943 23.6453 12.3226C24.0062 12.3735 24.2484 12.6448 24.2533 13.0251ZM19.1035 11.3222C18.8491 11.8406 18.6069 12.3226 18.3743 12.8071C18.2435 13.0784 18.0352 13.2213 17.7421 13.2601C17.4708 13.2964 17.202 13.3352 16.9331 13.3739C16.6787 13.4102 16.4244 13.449 16.1192 13.495C16.2088 13.5725 16.2621 13.6161 16.313 13.6646C16.6521 13.9916 16.9888 14.3186 17.3279 14.6432C17.5387 14.8442 17.6113 15.0841 17.558 15.3699C17.4708 15.8495 17.3885 16.3291 17.3061 16.8087C17.2964 16.862 17.2964 16.9153 17.2892 16.9953C17.7882 16.7336 18.2653 16.4987 18.7256 16.2322C18.9969 16.0748 19.2367 16.0893 19.4959 16.2298C19.9149 16.4551 20.334 16.6779 20.7555 16.9008C20.8088 16.9299 20.8621 16.9565 20.942 16.9953C20.925 16.8814 20.9153 16.8015 20.9008 16.7215C20.8257 16.2637 20.7531 15.8059 20.6731 15.3481C20.6198 15.0526 20.7095 14.8128 20.925 14.6093C21.068 14.4736 21.2133 14.3404 21.3514 14.1975C21.5791 13.9601 21.7995 13.7179 22.0223 13.4805C22.0175 13.4781 21.9836 13.4684 21.9521 13.4635C21.4822 13.3957 21.0122 13.3109 20.5399 13.2649C20.1669 13.2286 19.9392 13.0493 19.789 12.7126C19.5782 12.2645 19.3457 11.8164 19.1035 11.3222Z" fill="white"></path>
    <path id="Vector_9" d="M10.9986 18.9622C10.8799 18.9186 10.7563 18.8895 10.6449 18.8338C9.90369 18.4487 9.16489 18.0587 8.43093 17.6638C8.30497 17.596 8.2105 17.5912 8.08212 17.6614C7.35785 18.0538 6.62874 18.4341 5.90447 18.8241C5.62591 18.9743 5.35219 19.0034 5.08815 18.8096C4.82897 18.6206 4.77326 18.3566 4.82897 18.0514C4.97915 17.2181 5.11722 16.3849 5.26741 15.5516C5.28678 15.4474 5.26256 15.382 5.18747 15.3094C4.57463 14.7256 3.96905 14.1321 3.35863 13.5483C3.1382 13.3376 3.03889 13.093 3.13093 12.795C3.2254 12.4995 3.44341 12.3542 3.74862 12.3105C4.58674 12.1943 5.42244 12.0659 6.26055 11.952C6.38893 11.9351 6.44949 11.877 6.50036 11.7679C6.87097 11.0073 7.24643 10.2492 7.6243 9.49099C7.79144 9.15429 8.11361 9.00168 8.44304 9.09615C8.64894 9.15671 8.79185 9.28994 8.88632 9.48372C9.25936 10.2443 9.63966 11.0001 10.0103 11.7607C10.066 11.8745 10.129 11.9351 10.2622 11.952C11.1003 12.0659 11.9384 12.1943 12.7741 12.313C13.0696 12.3566 13.2901 12.5019 13.3797 12.7902C13.4717 13.0833 13.3748 13.3352 13.1544 13.5459C12.5537 14.1248 11.9578 14.711 11.3546 15.2876C11.2674 15.3723 11.2335 15.4474 11.2578 15.5734C11.4055 16.4018 11.5436 17.2302 11.6817 18.0587C11.7713 18.5577 11.4733 18.9428 10.9986 18.9622ZM8.26864 11.3295C8.22261 11.4143 8.19112 11.4749 8.15963 11.5378C7.94889 11.9642 7.73815 12.3905 7.53226 12.8192C7.40872 13.0784 7.20767 13.2189 6.92911 13.2601C6.74501 13.2867 6.56092 13.311 6.37682 13.3376C6.03043 13.3885 5.68162 13.4393 5.30616 13.4951C5.3643 13.5556 5.39579 13.5919 5.43212 13.6283C5.78093 13.9674 6.13217 14.3065 6.4834 14.6432C6.6893 14.8394 6.77166 15.072 6.72079 15.3505C6.6893 15.5322 6.65781 15.7163 6.62632 15.898C6.56576 16.2565 6.50278 16.6126 6.43496 17.0074C6.95333 16.7337 7.44506 16.4866 7.92225 16.2177C8.14995 16.0893 8.36069 16.0918 8.58354 16.2008C8.76521 16.2904 8.94204 16.3897 9.12129 16.4842C9.43861 16.6513 9.75351 16.8184 10.0926 16.9977C10.0854 16.9202 10.0854 16.8693 10.0781 16.8209C9.99816 16.334 9.92307 15.8471 9.83345 15.3626C9.78015 15.0744 9.85767 14.837 10.0636 14.636C10.4051 14.3041 10.7467 13.9747 11.0882 13.6452C11.1318 13.6041 11.1706 13.558 11.2311 13.4926C10.6958 13.4151 10.1992 13.3279 9.70022 13.277C9.32961 13.2383 9.09706 13.0639 8.94688 12.7272C8.74099 12.2621 8.50602 11.8116 8.26864 11.3295Z" fill="white"></path>
    <path id="Vector_10" d="M48.8519 18.9695C48.4087 18.9453 48.0889 18.582 48.1567 18.1459C48.2875 17.3224 48.4256 16.4988 48.5758 15.6776C48.6097 15.4863 48.5758 15.3627 48.4329 15.2246C47.8346 14.6603 47.246 14.0813 46.6598 13.5048C46.34 13.1899 46.3594 12.7103 46.7058 12.456C46.8003 12.3881 46.9214 12.3397 47.0376 12.3203C47.8903 12.1895 48.7454 12.066 49.6004 11.9473C49.7215 11.9303 49.7821 11.8819 49.833 11.7777C50.1987 11.0268 50.5718 10.2807 50.94 9.53224C51.0756 9.25368 51.2742 9.06958 51.5964 9.06958C51.9162 9.06958 52.1172 9.24398 52.2529 9.52739C52.6138 10.2735 52.9892 11.0123 53.3526 11.7583C53.4083 11.8722 53.4713 11.9303 53.6069 11.9497C54.445 12.0635 55.2807 12.1919 56.1188 12.313C56.4071 12.3542 56.6178 12.502 56.7099 12.783C56.8044 13.0712 56.7147 13.3183 56.5016 13.5266C55.8936 14.1177 55.2904 14.7087 54.68 15.2949C54.5952 15.3772 54.571 15.4523 54.5928 15.5686C54.7406 16.4019 54.8786 17.2376 55.0191 18.0709C55.0676 18.3615 55.007 18.6183 54.7624 18.8C54.5153 18.9816 54.2488 18.9816 53.9775 18.8363C53.2436 18.4415 52.5048 18.0515 51.7708 17.6542C51.6545 17.5912 51.5673 17.5937 51.4535 17.6566C50.7292 18.049 50.0025 18.4342 49.2734 18.8145C49.1378 18.8823 48.9924 18.9187 48.8519 18.9695ZM51.6376 11.2957C51.3857 11.8092 51.1483 12.2791 50.923 12.7563C50.7898 13.0397 50.5815 13.1972 50.2714 13.2359C50.0292 13.265 49.7894 13.3038 49.5496 13.3401C49.2492 13.3861 48.9513 13.4321 48.5976 13.4854C48.6848 13.5629 48.7381 13.6065 48.7865 13.6526C49.1208 13.9747 49.4502 14.2993 49.7894 14.6166C50.0122 14.8274 50.0873 15.0769 50.034 15.3724C49.9928 15.6074 49.9541 15.8399 49.9153 16.0749C49.8669 16.368 49.8209 16.6635 49.7676 16.9832C49.8475 16.9445 49.8984 16.9203 49.9492 16.8936C50.3804 16.6659 50.8116 16.4406 51.2379 16.2081C51.4874 16.0725 51.7296 16.0676 51.9816 16.2033C52.4152 16.4382 52.8536 16.6635 53.2896 16.8936C53.3332 16.9154 53.3768 16.9324 53.4446 16.9639C53.4301 16.8573 53.4204 16.7773 53.4059 16.6974C53.3308 16.2517 53.263 15.8036 53.1806 15.3603C53.1249 15.0527 53.2048 14.8007 53.4374 14.5924C53.4882 14.5464 53.5415 14.5004 53.5875 14.4495C53.8976 14.1152 54.2077 13.7785 54.5177 13.4418C54.5201 13.4612 54.479 13.4467 54.4354 13.4394C53.9412 13.3667 53.4495 13.2965 52.9553 13.2287C52.6937 13.1923 52.5023 13.0615 52.3861 12.8241C52.3497 12.7515 52.3134 12.6788 52.2795 12.6061C52.0736 12.1798 51.8653 11.7559 51.6376 11.2957Z" fill="white"></path>
    <path id="Vector_11" d="M29.9261 11.3101C30.1804 11.8284 30.4226 12.3032 30.6503 12.7828C30.7787 13.0541 30.9749 13.2067 31.2729 13.2455C31.8009 13.3157 32.3266 13.3957 32.8861 13.5168C32.7892 13.604 32.6875 13.6863 32.593 13.776C32.3072 14.0473 32.0286 14.3282 31.7404 14.5947C31.4957 14.82 31.4158 15.084 31.4812 15.411C31.5781 15.8882 31.6532 16.3702 31.7355 16.8499C31.7404 16.8838 31.7428 16.9177 31.7476 16.9734C31.6847 16.9468 31.6386 16.9298 31.595 16.9056C31.1735 16.6851 30.7496 16.4696 30.3354 16.2394C30.0472 16.0796 29.7831 16.0844 29.4973 16.2443C29.0928 16.472 28.6786 16.6779 28.2668 16.8935C28.2159 16.9201 28.1651 16.9443 28.0851 16.9831C28.1529 16.5858 28.2183 16.2176 28.2813 15.8494C28.3104 15.6775 28.3419 15.5079 28.3709 15.3359C28.4194 15.0501 28.3322 14.8127 28.1214 14.6141C27.7702 14.2846 27.4287 13.9455 27.0823 13.6112C27.0459 13.5773 27.0145 13.5386 26.9587 13.478C27.3923 13.415 27.7944 13.3254 28.2014 13.306C28.7852 13.2794 29.1606 13.0347 29.3665 12.4752C29.5046 12.0852 29.7226 11.7243 29.9261 11.3101Z" fill="#252525"></path>
    <path id="Vector_12" d="M38.9182 16.993C39.0079 16.4552 39.0708 15.9562 39.175 15.4645C39.2574 15.0745 39.1483 14.7911 38.8649 14.5174C38.5137 14.1831 38.2061 13.8028 37.8984 13.4612C38.0462 13.4394 38.2739 13.4031 38.504 13.3668C38.8238 13.3183 39.1459 13.2723 39.4657 13.2239C39.7224 13.1827 39.9138 13.0495 40.0301 12.8121C40.2723 12.3179 40.5145 11.8262 40.7713 11.303C40.81 11.3732 40.8367 11.4192 40.8609 11.4677C41.0765 11.9037 41.2945 12.3397 41.5028 12.7782C41.6312 13.047 41.8347 13.1948 42.1326 13.2311C42.6219 13.2917 43.1088 13.3692 43.5957 13.4395C43.632 13.4443 43.6684 13.4588 43.6538 13.4322C43.3244 13.7907 43.0143 14.1661 42.6631 14.5004C42.3627 14.7862 42.2489 15.0818 42.3434 15.4936C42.4524 15.9659 42.5153 16.4504 42.6025 16.9639C42.525 16.93 42.4717 16.9082 42.4209 16.8791C41.9994 16.6587 41.5779 16.4407 41.1613 16.213C40.8924 16.0652 40.6381 16.0676 40.3692 16.2154C39.9017 16.4746 39.4293 16.7192 38.9182 16.993Z" fill="#252525"></path>
    <path id="Vector_13" d="M19.1034 11.322C19.3456 11.8162 19.5782 12.2619 19.7865 12.7221C19.9367 13.0564 20.1668 13.2356 20.5374 13.2744C21.0097 13.3204 21.4797 13.4052 21.9496 13.473C21.9811 13.4779 22.0126 13.4876 22.0198 13.49C21.797 13.7274 21.5766 13.9696 21.3489 14.207C21.2132 14.3499 21.0679 14.4831 20.9225 14.6188C20.7094 14.8198 20.6198 15.0621 20.6706 15.3576C20.7506 15.8154 20.8232 16.2732 20.8983 16.731C20.9104 16.811 20.9225 16.8885 20.9395 17.0047C20.8596 16.9636 20.8063 16.9369 20.753 16.9103C20.3339 16.6874 19.9124 16.4646 19.4934 16.2393C19.2342 16.0988 18.9944 16.0843 18.7231 16.2417C18.2629 16.5082 17.7832 16.7431 17.2867 17.0047C17.2939 16.9248 17.2964 16.8715 17.3036 16.8182C17.386 16.3386 17.4683 15.859 17.5555 15.3794C17.6064 15.0935 17.5337 14.8537 17.3254 14.6527C16.9863 14.3281 16.6496 13.9987 16.3105 13.6741C16.262 13.6256 16.2063 13.582 16.1167 13.5045C16.4219 13.4585 16.6762 13.4197 16.9306 13.3834C17.1995 13.3446 17.4708 13.3059 17.7396 13.2696C18.0327 13.2308 18.2435 13.0879 18.3719 12.8166C18.6068 12.3224 18.8491 11.8428 19.1034 11.322Z" fill="#252525"></path>
    <path id="Vector_14" d="M8.2684 11.3296C8.50579 11.8116 8.74075 12.2622 8.94907 12.7273C9.10167 13.064 9.33421 13.2384 9.7024 13.2771C10.2014 13.3304 10.698 13.4152 11.2333 13.4927C11.1727 13.5581 11.134 13.6041 11.0904 13.6453C10.7488 13.9772 10.4073 14.3066 10.0657 14.636C9.85985 14.8371 9.78234 15.0745 9.83563 15.3627C9.92526 15.8472 10.0003 16.3341 10.0803 16.821C10.0875 16.8694 10.09 16.9203 10.0948 16.9978C9.75569 16.8185 9.43837 16.6514 9.12347 16.4842C8.94422 16.3898 8.7674 16.2905 8.58572 16.2008C8.36529 16.0918 8.15213 16.0894 7.92444 16.2178C7.44482 16.4867 6.95552 16.7337 6.43714 17.0075C6.50497 16.6151 6.56552 16.2566 6.6285 15.8981C6.65999 15.7164 6.69148 15.5323 6.72297 15.3506C6.77384 15.0696 6.68906 14.8371 6.48559 14.6433C6.13435 14.3066 5.78554 13.9675 5.43431 13.6284C5.39798 13.5944 5.36648 13.5557 5.30835 13.4951C5.68381 13.4394 6.03262 13.3885 6.37901 13.3377C6.5631 13.311 6.7472 13.2868 6.93129 13.2602C7.20986 13.219 7.41091 13.0785 7.53445 12.8193C7.74034 12.3906 7.95108 11.9642 8.16182 11.5379C8.19089 11.4749 8.2248 11.4144 8.2684 11.3296Z" fill="#252525"></path>
    <path id="Vector_15" d="M51.6374 11.2954C51.8627 11.7556 52.0734 12.1796 52.2817 12.6059C52.3181 12.6785 52.352 12.7512 52.3883 12.8239C52.5046 13.0613 52.696 13.1921 52.9576 13.2284C53.4517 13.2962 53.9434 13.3689 54.4376 13.4391C54.4812 13.4464 54.5224 13.4609 54.52 13.4416C54.2099 13.7783 53.8998 14.1125 53.5898 14.4492C53.5438 14.5001 53.4905 14.5461 53.4396 14.5922C53.2071 14.8005 53.1271 15.0524 53.1828 15.36C53.2628 15.8057 53.333 16.2514 53.4081 16.6971C53.4202 16.7771 53.4299 16.8546 53.4469 16.9636C53.3815 16.9345 53.3355 16.9176 53.2918 16.8933C52.8558 16.6656 52.4174 16.438 51.9838 16.203C51.7319 16.0673 51.4897 16.0722 51.2402 16.2078C50.8114 16.4404 50.3802 16.6656 49.9515 16.8933C49.9006 16.92 49.8498 16.9442 49.7698 16.983C49.8207 16.6632 49.8691 16.3677 49.9176 16.0746C49.9563 15.8396 49.9951 15.6047 50.0363 15.3721C50.0896 15.0742 50.0145 14.8247 49.7916 14.6164C49.4549 14.2991 49.1231 13.972 48.7888 13.6523C48.7403 13.6039 48.6871 13.5627 48.5999 13.4852C48.9511 13.4319 49.2515 13.3859 49.5518 13.3398C49.7916 13.3035 50.0338 13.2647 50.2737 13.2357C50.5837 13.1993 50.792 13.0395 50.9253 12.7561C51.1481 12.2789 51.3855 11.8065 51.6374 11.2954Z" fill="#252525"></path>
  </g>
</svg>
