<?xml version="1.0" encoding="UTF-8"?>
<svg xmlns="http://www.w3.org/2000/svg" width="50" height="51" viewBox="0 0 50 51" fill="none">
  <g id="consumer-behavior 1">
    <g id="/ OUTLINE">
      <path id="Vector" d="M37.5 27.3499H33.5938V28.9124H37.5C39.3542 28.9124 41.1668 29.4622 42.7085 30.4923C44.2502 31.5225 45.4518 32.9866 46.1614 34.6997C46.8709 36.4128 47.0566 38.2978 46.6949 40.1163C46.3331 41.9349 45.4402 43.6054 44.1291 44.9165C42.818 46.2276 41.1475 47.1205 39.329 47.4822C37.5104 47.844 35.6254 47.6583 33.9123 46.9487C32.1993 46.2392 30.7351 45.0375 29.705 43.4958C28.6748 41.9541 28.125 40.1416 28.125 38.2874V35.9436H26.5625V38.2874C26.5625 40.4506 27.204 42.5652 28.4058 44.3639C29.6076 46.1626 31.3158 47.5645 33.3144 48.3923C35.313 49.2201 37.5121 49.4367 39.6338 49.0147C41.7555 48.5927 43.7043 47.551 45.234 46.0213C46.7636 44.4917 47.8053 42.5428 48.2273 40.4212C48.6494 38.2995 48.4328 36.1003 47.6049 34.1018C46.7771 32.1032 45.3752 30.395 43.5765 29.1932C41.7779 27.9913 39.6632 27.3499 37.5 27.3499Z" fill="white"></path>
      <path id="Vector_2" d="M21.875 38.2874C21.875 40.1416 21.3252 41.9541 20.295 43.4958C19.2649 45.0375 17.8007 46.2392 16.0877 46.9487C14.3746 47.6583 12.4896 47.844 10.671 47.4822C8.85246 47.1205 7.182 46.2276 5.87088 44.9165C4.55976 43.6054 3.66688 41.9349 3.30514 40.1163C2.94341 38.2978 3.12906 36.4128 3.83863 34.6997C4.54821 32.9866 5.74982 31.5225 7.29153 30.4923C8.83324 29.4622 10.6458 28.9124 12.5 28.9124H15.625V27.3499H12.5C10.3368 27.3499 8.22212 27.9913 6.42346 29.1932C4.62479 30.395 3.22291 32.1032 2.39507 34.1018C1.56724 36.1003 1.35064 38.2995 1.77267 40.4212C2.19469 42.5428 3.23639 44.4917 4.76602 46.0213C6.29566 47.551 8.24454 48.5927 10.3662 49.0147C12.4879 49.4367 14.687 49.2201 16.6856 48.3923C18.6842 47.5645 20.3924 46.1626 21.5942 44.3639C22.796 42.5652 23.4375 40.4506 23.4375 38.2874V35.9436H21.875V38.2874Z" fill="white"></path>
      <path id="Vector_3" d="M12.5 24.2249H17.1875V22.6624H12.5C10.6458 22.6624 8.83324 22.1125 7.29153 21.0824C5.74982 20.0522 4.54821 18.5881 3.83863 16.875C3.12906 15.162 2.94341 13.277 3.30514 11.4584C3.66688 9.63982 4.55976 7.96935 5.87088 6.65823C7.182 5.34711 8.85246 4.45423 10.671 4.0925C12.4896 3.73076 14.3746 3.91642 16.0877 4.62599C17.8007 5.33556 19.2649 6.53718 20.295 8.07889C21.3252 9.6206 21.875 11.4332 21.875 13.2874V15.6311H23.4375V13.2874C23.4375 11.1241 22.796 9.00947 21.5942 7.21081C20.3924 5.41215 18.6842 4.01026 16.6856 3.18243C14.687 2.35459 12.4879 2.13799 10.3662 2.56002C8.24454 2.98205 6.29566 4.02374 4.76602 5.55338C3.23639 7.08301 2.19469 9.03189 1.77267 11.1536C1.35064 13.2752 1.56724 15.4744 2.39507 17.473C3.22291 19.4715 4.62479 21.1797 6.42346 22.3816C8.22212 23.5834 10.3368 24.2249 12.5 24.2249Z" fill="white"></path>
      <path id="Vector_4" d="M28.125 13.2874C28.125 11.4332 28.6748 9.6206 29.705 8.07889C30.7351 6.53718 32.1993 5.33556 33.9123 4.62599C35.6254 3.91642 37.5104 3.73076 39.329 4.0925C41.1475 4.45423 42.818 5.34711 44.1291 6.65823C45.4402 7.96935 46.3331 9.63982 46.6949 11.4584C47.0566 13.277 46.8709 15.162 46.1614 16.875C45.4518 18.5881 44.2502 20.0522 42.7085 21.0824C41.1668 22.1125 39.3542 22.6624 37.5 22.6624H34.375V24.2249H37.5C39.6632 24.2249 41.7779 23.5834 43.5765 22.3816C45.3752 21.1797 46.7771 19.4715 47.6049 17.473C48.4328 15.4744 48.6494 13.2752 48.2273 11.1536C47.8053 9.03189 46.7636 7.08301 45.234 5.55338C43.7043 4.02374 41.7555 2.98205 39.6338 2.56002C37.5121 2.13799 35.313 2.35459 33.3144 3.18243C31.3158 4.01026 29.6076 5.41215 28.4058 7.21081C27.204 9.00947 26.5625 11.1241 26.5625 13.2874V15.6311H28.125V13.2874Z" fill="white"></path>
      <path id="Vector_5" d="M31.2501 24.2249V24.761C31.252 25.4795 31.1115 26.1912 30.8365 26.855C30.5616 27.5187 30.1577 28.1214 29.6483 28.628L28.1251 30.1513V34.3811H29.6876V30.7985L30.7532 29.7329C31.4082 29.0814 31.9274 28.3066 32.2809 27.4532C32.6344 26.5998 32.8151 25.6847 32.8126 24.761V24.2249C32.8126 22.3793 32.0869 20.6077 30.7923 19.2924C29.4976 17.9772 27.7377 17.2236 25.8924 17.1945C24.0471 17.1653 22.2642 17.8629 20.9287 19.1366C19.5931 20.4103 18.8118 22.1581 18.7535 24.0027L17.2275 26.546C17.0853 26.7831 17.0085 27.0537 17.005 27.3302C17.0015 27.6067 17.0715 27.8791 17.2077 28.1197C17.344 28.3603 17.5416 28.5605 17.7805 28.6997C18.0194 28.839 18.2909 28.9124 18.5675 28.9124H18.7501V29.6936C18.7508 30.315 18.998 30.9107 19.4373 31.3501C19.8767 31.7895 20.4725 32.0366 21.0938 32.0374V34.3811H22.6563V30.4749H21.0938C20.8867 30.4746 20.6881 30.3922 20.5417 30.2458C20.3952 30.0993 20.3128 29.9007 20.3126 29.6936V27.3499H18.5675L20.3126 24.4412V24.2249C20.3126 22.7745 20.8888 21.3835 21.9143 20.3579C22.9399 19.3323 24.3309 18.7561 25.7813 18.7561C27.2317 18.7561 28.6227 19.3323 29.6483 20.3579C30.6739 21.3835 31.2501 22.7745 31.2501 24.2249Z" fill="white"></path>
      <path id="Vector_6" d="M9.375 7.03735V8.59985H8.59375C7.97237 8.60056 7.37664 8.84772 6.93725 9.28711C6.49787 9.72649 6.25071 10.3222 6.25 10.9436V17.1936C6.25071 17.815 6.49787 18.4107 6.93725 18.8501C7.37664 19.2895 7.97237 19.5366 8.59375 19.5374H16.4062C17.0276 19.5366 17.6234 19.2895 18.0627 18.8501C18.5021 18.4107 18.7493 17.815 18.75 17.1936V10.9436C18.7493 10.3222 18.5021 9.72649 18.0627 9.28711C17.6234 8.84772 17.0276 8.60056 16.4062 8.59985H15.625V7.03735H14.0625V8.59985H10.9375V7.03735H9.375ZM17.1875 17.1936C17.1873 17.4007 17.1049 17.5993 16.9584 17.7458C16.812 17.8922 16.6134 17.9746 16.4062 17.9749H8.59375C8.38662 17.9746 8.18805 17.8922 8.04158 17.7458C7.89512 17.5993 7.81274 17.4007 7.8125 17.1936V13.2874H17.1875V17.1936ZM16.4062 10.1624C16.6134 10.1626 16.812 10.245 16.9584 10.3914C17.1049 10.5379 17.1873 10.7365 17.1875 10.9436V11.7249H7.8125V10.9436C7.81274 10.7365 7.89512 10.5379 8.04158 10.3914C8.18805 10.245 8.38662 10.1626 8.59375 10.1624H16.4062Z" fill="white"></path>
      <path id="Vector_7" d="M11.7188 14.8499H10.1562V16.4124H11.7188V14.8499Z" fill="white"></path>
      <path id="Vector_8" d="M14.8438 14.8499H13.2812V16.4124H14.8438V14.8499Z" fill="white"></path>
      <path id="Vector_9" d="M18.75 39.0686V36.6287L17.7975 32.8186H7.20253L6.25 36.6287V39.0686H7.03125V42.1936H6.25V43.7561H18.75V42.1936H17.9688V39.0686H18.75ZM10.9375 36.821L11.5474 34.3811H13.4526L14.0625 36.821V37.5061H10.9375V36.821ZM7.8125 36.821L8.42247 34.3811H9.9369L9.375 36.6287V37.5061H7.8125V36.821ZM11.7188 42.1936H8.59375V39.0686H11.7188V42.1936ZM16.4062 42.1936H13.2812V39.0686H16.4062V42.1936ZM17.1875 37.5061H15.625V36.6287L15.0631 34.3811H16.5775L17.1875 36.821V37.5061Z" fill="white"></path>
      <path id="Vector_10" d="M31.4789 39.621L37.5001 45.6422L43.5213 39.621C44.2895 38.8529 44.721 37.8111 44.721 36.7248C44.721 35.6385 44.2894 34.5968 43.5213 33.8286C42.7532 33.0605 41.7114 32.629 40.6251 32.629C39.5388 32.629 38.497 33.0606 37.7289 33.8287L37.5001 34.0575L37.2713 33.8287C36.5032 33.0606 35.4614 32.629 34.3752 32.629C33.2889 32.629 32.2471 33.0605 31.479 33.8286C30.7108 34.5968 30.2793 35.6385 30.2793 36.7248C30.2793 37.8111 30.7108 38.8529 31.4789 39.621ZM32.5838 34.9335C32.8191 34.6983 33.0983 34.5117 33.4057 34.3844C33.713 34.257 34.0425 34.1915 34.3751 34.1915C34.7078 34.1915 35.0372 34.257 35.3446 34.3844C35.6519 34.5117 35.9312 34.6983 36.1664 34.9335L37.5001 36.2672L38.8338 34.9335C39.0691 34.6983 39.3484 34.5117 39.6557 34.3844C39.9631 34.2571 40.2925 34.1916 40.6252 34.1916C40.9578 34.1916 41.2873 34.2571 41.5946 34.3844C41.902 34.5117 42.1812 34.6983 42.4165 34.9336C42.6517 35.1688 42.8383 35.4481 42.9656 35.7554C43.0929 36.0628 43.1584 36.3922 43.1584 36.7249C43.1584 37.0576 43.0929 37.387 42.9656 37.6943C42.8383 38.0017 42.6517 38.281 42.4164 38.5162L37.5001 43.4325L32.5838 38.5162C32.3486 38.281 32.162 38.0017 32.0346 37.6943C31.9073 37.387 31.8418 37.0575 31.8418 36.7249C31.8418 36.3922 31.9073 36.0627 32.0346 35.7554C32.162 35.448 32.3486 35.1688 32.5838 34.9335Z" fill="white"></path>
      <path id="Vector_11" d="M36.8137 19.7662L41.5012 15.0787C41.7195 14.8616 41.8926 14.6033 42.0105 14.3188C42.1283 14.0344 42.1885 13.7294 42.1877 13.4214V9.70478L43.5214 8.37107L42.4165 7.26624L41.0828 8.5999H37.3661C37.0582 8.59907 36.7532 8.65931 36.4687 8.77715C36.1842 8.89499 35.9259 9.06808 35.7088 9.2864L31.0213 13.9739C30.5824 14.4138 30.3359 15.0098 30.3359 15.6312C30.3359 16.2525 30.5824 16.8485 31.0213 17.2884L33.4991 19.7662C33.939 20.2051 34.535 20.4516 35.1564 20.4516C35.7778 20.4516 36.3738 20.2051 36.8137 19.7662ZM32.1262 16.1836C31.9799 16.0369 31.8978 15.8383 31.8978 15.6312C31.8978 15.424 31.9799 15.2254 32.1262 15.0787L36.8137 10.3912C36.8861 10.3185 36.9722 10.2608 37.067 10.2215C37.1618 10.1822 37.2635 10.1621 37.3661 10.1624H39.5203L37.729 11.9537L38.8339 13.0586L40.6252 11.2673V13.4214C40.6255 13.5241 40.6054 13.6258 40.5661 13.7206C40.5268 13.8154 40.4691 13.9015 40.3963 13.9739L35.7088 18.6614C35.5622 18.8077 35.3635 18.8899 35.1564 18.8899C34.9493 18.8899 34.7507 18.8077 34.6041 18.6614L32.1262 16.1836Z" fill="white"></path>
    </g>
  </g>
</svg>
