<?xml version="1.0" encoding="UTF-8"?>
<svg xmlns="http://www.w3.org/2000/svg" width="32" height="32" viewBox="0 0 32 32" fill="none">
  <g id="phone-call" clip-path="url(#clip0_145_958)">
    <g id="Group">
      <g id="Group_2">
        <path id="Vector" d="M25.2903 19.8227C24.6351 19.1406 23.8449 18.7759 23.0075 18.7759C22.1767 18.7759 21.3798 19.1339 20.6977 19.816L18.5634 21.9434C18.3878 21.8489 18.2122 21.7611 18.0434 21.6733C17.8003 21.5517 17.5706 21.4369 17.3748 21.3153C15.3756 20.0456 13.5589 18.3909 11.8164 16.25C10.9722 15.1829 10.4048 14.2846 9.99285 13.3728C10.5467 12.8663 11.06 12.3395 11.5597 11.833C11.7488 11.6439 11.938 11.448 12.1271 11.2589C13.5454 9.8406 13.5454 8.00356 12.1271 6.58526L10.2833 4.74147C10.0739 4.5321 9.85777 4.31597 9.65516 4.09985C9.24993 3.68112 8.82444 3.24887 8.38544 2.84364C7.73032 2.19527 6.94688 1.85083 6.12291 1.85083C5.29895 1.85083 4.502 2.19527 3.82661 2.84364C3.81986 2.8504 3.81986 2.8504 3.81311 2.85715L1.51681 5.17371C0.652318 6.0382 0.15929 7.09179 0.0512285 8.31424C-0.110863 10.2864 0.469965 12.1234 0.915717 13.3256C2.00984 16.277 3.64426 19.0123 6.08239 21.9434C9.04056 25.4757 12.5998 28.265 16.6656 30.2304C18.219 30.9665 20.2924 31.8378 22.609 31.9864C22.7508 31.9931 22.8994 31.9999 23.0345 31.9999C24.5946 31.9999 25.9049 31.4393 26.9314 30.3249C26.9382 30.3114 26.9517 30.3047 26.9584 30.2912C27.3096 29.8657 27.7149 29.4807 28.1404 29.0687C28.4308 28.7918 28.7279 28.5014 29.0184 28.1975C29.687 27.5018 30.0382 26.6914 30.0382 25.8607C30.0382 25.0232 29.6802 24.2195 28.9981 23.5441L25.2903 19.8227ZM27.7081 26.9345C27.7014 26.9345 27.7014 26.9413 27.7081 26.9345C27.4447 27.2182 27.1746 27.4748 26.8842 27.7585C26.4452 28.1772 25.9994 28.6162 25.5807 29.1092C24.8985 29.8387 24.0948 30.1831 23.0412 30.1831C22.9399 30.1831 22.8319 30.1831 22.7306 30.1763C20.7247 30.048 18.8606 29.2646 17.4626 28.596C13.6399 26.7454 10.2833 24.1182 7.49394 20.7885C5.19089 18.0127 3.65101 15.4463 2.63119 12.6907C2.00308 11.009 1.77345 9.69877 1.87476 8.46282C1.9423 7.67262 2.24622 7.0175 2.80679 6.45694L5.10984 4.15388C5.44078 3.84321 5.79198 3.67436 6.13642 3.67436C6.56191 3.67436 6.90636 3.93101 7.12248 4.14713C7.12923 4.15388 7.13598 4.16064 7.14274 4.16739C7.55472 4.55236 7.94644 4.95083 8.35843 5.37632C8.56779 5.59245 8.78392 5.80857 9.00004 6.03144L10.8438 7.87524C11.5597 8.59114 11.5597 9.25302 10.8438 9.96892C10.648 10.1648 10.4589 10.3606 10.263 10.5497C9.69568 11.1306 9.15538 11.6709 8.56779 12.1977C8.55429 12.2112 8.54078 12.2179 8.53403 12.2315C7.9532 12.8123 8.06126 13.3796 8.18283 13.7646C8.18958 13.7848 8.19633 13.8051 8.20309 13.8254C8.68261 14.987 9.35799 16.0811 10.3846 17.3846L10.3913 17.3914C12.2554 19.6877 14.2207 21.4774 16.3887 22.8485C16.6656 23.0241 16.9493 23.1659 17.2194 23.301C17.4626 23.4225 17.6922 23.5373 17.8881 23.6589C17.9151 23.6724 17.9421 23.6927 17.9691 23.7062C18.1987 23.821 18.4149 23.875 18.6377 23.875C19.1983 23.875 19.5495 23.5238 19.6643 23.409L21.9741 21.0992C22.2038 20.8696 22.5685 20.5927 22.994 20.5927C23.4127 20.5927 23.7571 20.8561 23.9665 21.0857C23.9733 21.0925 23.9733 21.0925 23.98 21.0992L27.7014 24.8206C28.397 25.5095 28.397 26.2186 27.7081 26.9345Z" fill="#F5F5F5"></path>
        <path id="Vector_2" d="M17.2935 7.61195C19.063 7.90911 20.6704 8.74659 21.9536 10.0298C23.2368 11.313 24.0675 12.9204 24.3715 14.6899C24.4458 15.1357 24.8307 15.4464 25.2697 15.4464C25.3238 15.4464 25.371 15.4396 25.4251 15.4329C25.9248 15.3518 26.2558 14.8791 26.1747 14.3793C25.81 12.2383 24.797 10.2865 23.2503 8.73983C21.7037 7.19321 19.7519 6.18014 17.6109 5.81543C17.1111 5.73438 16.6451 6.06532 16.5573 6.55835C16.4695 7.05138 16.7937 7.5309 17.2935 7.61195Z" fill="#F5F5F5"></path>
        <path id="Vector_3" d="M31.9628 14.1159C31.3617 10.5904 29.7002 7.38232 27.1473 4.82937C24.5944 2.27643 21.3863 0.61499 17.8608 0.0139004C17.3678 -0.0738993 16.9018 0.263792 16.814 0.756821C16.7329 1.2566 17.0638 1.72262 17.5636 1.81042C20.7109 2.34397 23.5813 3.83656 25.8641 6.1126C28.1469 8.39539 29.6327 11.2658 30.1663 14.413C30.2406 14.8588 30.6255 15.1695 31.0645 15.1695C31.1185 15.1695 31.1658 15.1627 31.2199 15.156C31.7129 15.0817 32.0506 14.6089 31.9628 14.1159Z" fill="#F5F5F5"></path>
      </g>
    </g>
  </g>
  <defs>
    <clipPath id="clip0_145_958">
      <rect width="32" height="32" fill="white"></rect>
    </clipPath>
  </defs>
</svg>
