<?xml version="1.0" encoding="UTF-8"?>
<svg xmlns="http://www.w3.org/2000/svg" width="40" height="61" viewBox="0 0 40 61" fill="none">
  <g id="Group 90186">
    <path id="Vector" d="M14.5175 5.10064C14.5175 4.72727 14.494 4.38418 14.5209 4.04782C14.6588 2.24826 16.159 0.717797 17.9619 0.529433C18.1402 0.509251 18.3185 0.502523 18.4967 0.502523C19.4217 0.499159 20.3467 0.499159 21.2751 0.502523C23.2025 0.50925 24.8978 2.02626 25.1097 3.94018C25.1433 4.24963 25.1366 4.56245 25.1467 4.87527C25.15 4.94254 25.1467 5.01318 25.1467 5.104C25.2308 5.104 25.298 5.104 25.3653 5.104C26.6435 5.104 27.9217 5.104 29.1999 5.104C30.246 5.10064 31.0162 5.56819 31.5242 6.46964C31.5813 6.57392 31.652 6.58065 31.7495 6.58065C33.6231 6.58065 35.5 6.58065 37.3735 6.58065C38.7257 6.58065 39.6608 7.5191 39.6608 8.87465C39.6608 24.9361 39.6608 40.9975 39.6608 57.0623C39.6608 57.4626 39.6608 57.8595 39.6608 58.2598C39.6541 59.5447 38.7022 60.4933 37.4173 60.4933C25.7118 60.4933 14.0096 60.4865 2.3041 60.5C1.02255 60.5 0 59.5077 0 58.1892C0.0134546 49.6959 0.00672746 41.2027 0.00672746 32.7061C0.00672746 24.7612 0.00672746 16.8162 0.00672746 8.87465C0.00672746 7.84538 0.551639 7.02128 1.45983 6.71183C1.70201 6.6311 1.96774 6.58401 2.22337 6.58401C4.11375 6.57392 6.00748 6.57728 7.89786 6.58065C8.0324 6.58065 8.09631 6.54028 8.16358 6.42255C8.65804 5.57155 9.39805 5.11073 10.3937 5.104C11.6853 5.09727 12.9736 5.10064 14.2653 5.104C14.3359 5.10064 14.4032 5.10064 14.5175 5.10064ZM35.7254 10.7247C35.6884 10.7179 35.6648 10.7112 35.6413 10.7112C34.3294 10.7112 33.0142 10.7078 31.7024 10.7146C31.6452 10.7146 31.5645 10.7684 31.5342 10.8222C30.9994 11.7169 30.2157 12.1677 29.1696 12.1677C22.9569 12.1643 16.7409 12.1677 10.5282 12.1677C10.4576 12.1677 10.3903 12.1677 10.3197 12.1643C9.36104 12.1139 8.63786 11.6732 8.15013 10.8491C8.08622 10.7415 8.02231 10.7112 7.90795 10.7112C6.63985 10.7146 5.37512 10.7179 4.10702 10.7112C3.94556 10.7112 3.9052 10.7549 3.9052 10.913C3.90856 25.999 3.90856 41.0816 3.90856 56.1676C3.90856 56.2282 3.90856 56.2921 3.90856 56.3627C14.5276 56.3627 25.1231 56.3627 35.7287 56.3627C35.7254 41.1455 35.7254 25.9418 35.7254 10.7247ZM7.82386 7.73438C7.75995 7.73101 7.72295 7.72765 7.68258 7.72765C5.87294 7.72765 4.05993 7.72428 2.25028 7.72765C1.57755 7.72765 1.16046 8.16493 1.16046 8.85111C1.16046 25.3027 1.16046 41.751 1.16046 58.2026C1.16046 58.9123 1.58764 59.3362 2.29737 59.3362C13.9861 59.3362 25.6714 59.3362 37.3601 59.3362C38.0866 59.3362 38.5105 58.909 38.5105 58.1791C38.5105 41.7476 38.5105 25.3128 38.5105 8.88138C38.5105 8.15483 38.0866 7.72765 37.3567 7.72765C35.5908 7.72765 33.8283 7.72765 32.0623 7.72765C31.9951 7.72765 31.9278 7.72765 31.8471 7.72765C31.8471 8.34656 31.8471 8.94193 31.8471 9.55748C31.9312 9.55748 32.0052 9.55748 32.0792 9.55748C33.4683 9.55748 34.8575 9.55748 36.2434 9.55748C36.6604 9.55748 36.8858 9.78284 36.8858 10.1999C36.8858 25.7535 36.8858 41.307 36.8858 56.8605C36.8858 57.3113 36.6672 57.5299 36.2164 57.5299C25.2947 57.5299 14.3695 57.5299 3.44774 57.5299C2.9802 57.5299 2.75819 57.3146 2.75819 56.8605C2.75819 41.3137 2.75819 25.7636 2.75819 10.2168C2.75819 9.77948 2.9802 9.55748 3.42084 9.55748C4.81675 9.55748 6.2093 9.55748 7.60522 9.55748C7.67922 9.55748 7.74986 9.55748 7.83058 9.55748C7.82386 8.93856 7.82386 8.34656 7.82386 7.73438ZM19.8186 11.0139C22.9435 11.0139 26.0649 11.0139 29.1898 11.0139C30.0744 11.0139 30.6698 10.4219 30.6765 9.53393C30.6799 8.93857 30.6664 8.3432 30.6799 7.74783C30.7001 6.93047 30.0408 6.23083 29.1696 6.24428C27.6593 6.27119 26.149 6.251 24.6388 6.251C24.225 6.251 23.9963 6.02228 23.9963 5.60518C23.9963 5.21836 23.9997 4.83155 23.9963 4.44136C23.9795 2.88735 22.7719 1.66635 21.2213 1.64617C20.2828 1.63608 19.3477 1.63271 18.4093 1.64617C16.9259 1.66635 15.7419 2.7999 15.6612 4.2799C15.6376 4.70036 15.6511 5.12418 15.6511 5.548C15.6511 6.03237 15.4392 6.251 14.9582 6.251C13.4647 6.251 11.9746 6.251 10.4811 6.251C9.59314 6.251 8.99777 6.83964 8.99104 7.72429C8.98768 8.32638 8.98768 8.92847 8.99104 9.53057C8.99441 10.4388 9.57632 11.0139 10.4811 11.0139C13.5959 11.0139 16.7073 11.0139 19.8186 11.0139Z" fill="url(#paint0_linear_186_618)"></path>
    <path id="Vector_2" d="M35.7255 10.7247C35.7255 25.9419 35.7255 41.1456 35.7255 56.3628C25.1199 56.3628 14.5244 56.3628 3.90534 56.3628C3.90534 56.2888 3.90534 56.2282 3.90534 56.1677C3.90534 41.0817 3.90534 25.9991 3.90198 10.9131C3.90198 10.755 3.9457 10.7113 4.1038 10.7113C5.37189 10.718 6.63663 10.7147 7.90472 10.7113C8.02245 10.7113 8.08636 10.7416 8.14691 10.8492C8.63127 11.6733 9.35782 12.1139 10.3165 12.1644C10.3871 12.1677 10.4544 12.1678 10.525 12.1678C16.7377 12.1678 22.9537 12.1678 29.1664 12.1678C30.2125 12.1678 30.9962 11.7204 31.531 10.8223C31.5613 10.7685 31.642 10.7147 31.6992 10.7147C33.011 10.7079 34.3262 10.7113 35.638 10.7113C35.665 10.7147 35.6885 10.718 35.7255 10.7247ZM22.1431 24.6099C25.5336 24.6099 28.9242 24.6099 32.3114 24.6099C32.4022 24.6099 32.4964 24.6099 32.5872 24.5964C32.8563 24.5561 33.0514 24.3307 33.0615 24.0583C33.0749 23.6849 32.8126 23.4528 32.3787 23.4528C25.5538 23.4528 18.7256 23.4528 11.9007 23.4528C11.8301 23.4528 11.7595 23.4528 11.6922 23.4629C11.3962 23.5133 11.191 23.7589 11.1944 24.0414C11.2011 24.3374 11.4197 24.5729 11.7258 24.6032C11.7998 24.6099 11.8772 24.6099 11.9512 24.6099C15.3519 24.6099 18.7458 24.6099 22.1431 24.6099ZM22.1363 31.798C25.5504 31.798 28.9612 31.798 32.3753 31.798C32.4493 31.798 32.5267 31.7947 32.6007 31.7812C32.8731 31.7308 33.0581 31.5054 33.0615 31.2329C33.0648 30.9537 32.8933 30.7217 32.6242 30.6645C32.5233 30.6443 32.419 30.6409 32.3148 30.6409C25.5134 30.6409 18.7088 30.6409 11.9075 30.6409C11.8167 30.6409 11.7225 30.6443 11.6317 30.6645C11.376 30.725 11.1944 30.9605 11.1977 31.2228C11.2011 31.4953 11.3895 31.7274 11.6552 31.7778C11.746 31.7947 11.8402 31.7947 11.931 31.7947C15.335 31.798 18.7357 31.798 22.1363 31.798ZM22.1229 49.8037C18.7222 49.8037 15.3182 49.8037 11.9176 49.8037C11.82 49.8037 11.7191 49.807 11.6249 49.8306C11.3827 49.8877 11.2112 50.1064 11.1977 50.3587C11.1843 50.6008 11.3457 50.8498 11.5778 50.9238C11.6821 50.954 11.7931 50.9641 11.9041 50.9641C18.729 50.9675 25.5572 50.9675 32.382 50.9641C32.4628 50.9641 32.5435 50.9574 32.6242 50.9406C32.8866 50.8834 33.0615 50.6614 33.0648 50.3923C33.0682 50.1232 32.8967 49.8911 32.641 49.8306C32.5468 49.807 32.4459 49.8037 32.3484 49.8037C28.9376 49.8037 25.5303 49.8037 22.1229 49.8037ZM22.1262 42.6155C18.7256 42.6155 15.3216 42.6155 11.9209 42.6155C11.857 42.6155 11.7931 42.6122 11.7292 42.6189C11.4467 42.6492 11.2381 42.8544 11.2011 43.1335C11.1675 43.3858 11.3256 43.6549 11.5778 43.7323C11.6922 43.7693 11.8167 43.776 11.9377 43.776C18.7458 43.7794 25.5538 43.7794 32.3652 43.776C32.456 43.776 32.5502 43.7693 32.641 43.7491C32.8765 43.6986 33.0514 43.48 33.0648 43.2378C33.085 42.8577 32.826 42.6122 32.4022 42.6122C28.9746 42.6155 25.5504 42.6155 22.1262 42.6155ZM22.1262 37.8324C18.7256 37.8324 15.3216 37.8324 11.9209 37.8324C11.8335 37.8324 11.746 37.8324 11.6619 37.8459C11.3491 37.9031 11.1473 38.2058 11.2112 38.5186C11.2751 38.8314 11.5005 38.9895 11.8806 38.9895C18.7121 38.9895 25.5437 38.9895 32.3753 38.9895C32.4392 38.9895 32.5031 38.9895 32.567 38.9794C32.8698 38.9323 33.0682 38.6902 33.0615 38.3841C33.0514 38.0376 32.7958 37.8324 32.382 37.8324C28.9646 37.8324 25.5437 37.8324 22.1262 37.8324ZM22.1229 26.988C25.5303 26.988 28.9376 26.988 32.345 26.988C32.4089 26.988 32.4728 26.9914 32.5368 26.9846C32.8159 26.9645 33.0413 26.7425 33.0615 26.4734C33.085 26.174 32.9068 25.9116 32.6242 25.8511C32.5334 25.8309 32.4392 25.8376 32.3484 25.8376C25.5404 25.8376 18.7323 25.8376 11.9209 25.8376C11.857 25.8376 11.7931 25.8343 11.7292 25.841C11.3794 25.8645 11.1372 26.2009 11.2146 26.5406C11.2852 26.84 11.5005 26.988 11.8637 26.988C15.2879 26.988 18.7054 26.988 22.1229 26.988ZM22.1262 47.4323C18.7189 47.4323 15.3115 47.4323 11.9041 47.4323C11.8537 47.4323 11.7998 47.4323 11.7494 47.4323C11.5005 47.4424 11.2953 47.6072 11.228 47.8426C11.1136 48.2463 11.3962 48.5793 11.8537 48.5793C18.7088 48.5793 25.5639 48.5793 32.419 48.5793C32.4527 48.5793 32.4897 48.5793 32.5233 48.5793C32.8294 48.5625 33.0648 48.3203 33.0648 48.0142C33.0682 47.6644 32.8193 47.4323 32.4358 47.4323C28.9982 47.4323 25.5605 47.4323 22.1262 47.4323ZM22.1431 36.5845C25.5504 36.5845 28.9578 36.5845 32.3652 36.5845C32.4392 36.5845 32.5166 36.5845 32.5906 36.571C32.8496 36.534 33.0514 36.312 33.0648 36.0497C33.085 35.6629 32.826 35.4274 32.382 35.4274C25.5504 35.4274 18.7189 35.4274 11.8873 35.4274C11.8368 35.4274 11.783 35.424 11.7326 35.4308C11.4231 35.4644 11.1977 35.7167 11.2011 36.016C11.2078 36.3188 11.4332 36.5542 11.7494 36.5811C11.8234 36.5879 11.9007 36.5845 11.9747 36.5845C15.3619 36.5811 18.7525 36.5811 22.1431 36.5845ZM22.1397 40.2408C18.7391 40.2408 15.3384 40.2408 11.9344 40.2408C11.8604 40.2408 11.783 40.2374 11.709 40.2442C11.376 40.2744 11.1406 40.5973 11.2112 40.927C11.2785 41.2398 11.5005 41.3912 11.8839 41.3912C18.7054 41.3912 25.5235 41.3912 32.345 41.3912C32.4157 41.3912 32.4829 41.3945 32.5536 41.3844C32.8193 41.3542 33.0312 41.1423 33.0581 40.8866C33.0884 40.6007 32.9337 40.3451 32.6679 40.2643C32.5704 40.2341 32.4628 40.2341 32.3585 40.2341C28.9545 40.2408 25.5471 40.2408 22.1397 40.2408ZM22.1229 29.3896C25.4664 29.3896 28.8098 29.3896 32.1533 29.3896C32.2744 29.3896 32.3955 29.393 32.5166 29.3863C32.7991 29.3728 33.0278 29.1609 33.0581 28.8918C33.0918 28.5958 32.9303 28.3402 32.6545 28.2662C32.5468 28.2359 32.4258 28.2359 32.3114 28.2359C25.5202 28.2359 18.729 28.2359 11.9377 28.2359C11.8671 28.2359 11.7998 28.2326 11.7292 28.2393C11.4601 28.2662 11.2616 28.4512 11.2078 28.7203C11.1641 28.9557 11.2751 29.2147 11.4971 29.3156C11.6115 29.3695 11.7527 29.3863 11.8806 29.3863C15.298 29.3897 18.7121 29.3896 22.1229 29.3896ZM22.1431 34.203C25.5504 34.203 28.9578 34.203 32.3652 34.203C32.4224 34.203 32.4829 34.2064 32.5401 34.1997C32.8597 34.166 33.0749 33.9171 33.0648 33.5976C33.0548 33.2545 32.7991 33.0493 32.382 33.0493C25.5572 33.0493 18.729 33.0493 11.9041 33.0493C11.8335 33.0493 11.7662 33.0493 11.6956 33.056C11.3693 33.0964 11.1439 33.4159 11.2146 33.7355C11.2818 34.0416 11.5072 34.203 11.8705 34.203C15.2947 34.203 18.7189 34.203 22.1431 34.203ZM22.1431 46.181C25.5504 46.181 28.9578 46.181 32.3652 46.181C32.4224 46.181 32.4829 46.1844 32.5401 46.1776C32.8597 46.144 33.0749 45.8917 33.0648 45.5756C33.0548 45.2358 32.7991 45.0239 32.3988 45.0239C25.5538 45.0239 18.7121 45.0239 11.8671 45.0239C11.7965 45.0239 11.7292 45.0273 11.6586 45.0407C11.3491 45.0979 11.1473 45.404 11.2112 45.7135C11.2751 46.0195 11.5005 46.181 11.8671 46.181C15.2947 46.181 18.7189 46.181 22.1431 46.181ZM22.1431 52.2188C18.729 52.2188 15.3182 52.2188 11.9041 52.2188C11.8335 52.2188 11.7662 52.2154 11.6956 52.2255C11.3726 52.2625 11.1439 52.5854 11.2146 52.9049C11.2818 53.2178 11.5038 53.3725 11.8873 53.3725C18.7189 53.3725 25.5504 53.3725 32.382 53.3725C32.4392 53.3725 32.4998 53.3725 32.5569 53.3658C32.8058 53.3355 33.0043 53.1572 33.0548 52.9218C33.1355 52.5249 32.8328 52.212 32.419 52.212C28.9915 52.2221 25.5673 52.2188 22.1431 52.2188ZM22.7115 15.3195C22.4256 15.3195 22.1565 15.3262 21.8874 15.3161C21.7697 15.3128 21.7159 15.3531 21.6722 15.4608C21.3661 16.2344 21.0499 17.0047 20.7371 17.775C20.7135 17.8355 20.6866 17.8927 20.6496 17.9734C20.6227 17.9263 20.6126 17.9061 20.6025 17.886C20.2729 17.072 19.9432 16.258 19.6069 15.4473C19.5867 15.3969 19.5295 15.3296 19.4891 15.3262C19.1898 15.3161 18.8904 15.3195 18.591 15.3195C18.591 16.9408 18.591 18.5385 18.591 20.1329C18.9106 20.1329 19.2133 20.1329 19.5463 20.1329C19.5228 19.1641 19.4992 18.2089 19.4791 17.2536C19.5261 17.2973 19.543 17.3478 19.5598 17.3982C19.7448 17.9196 19.9331 18.441 20.1181 18.9657C20.1551 19.0666 20.2056 19.1103 20.3166 19.107C20.542 19.0969 20.7673 19.0969 20.9927 19.107C21.1071 19.1103 21.1508 19.0666 21.1878 18.9657C21.3223 18.5587 21.4636 18.1584 21.6049 17.7514C21.6621 17.5866 21.7226 17.4218 21.7798 17.257C21.7899 17.2603 21.8 17.2637 21.8101 17.2637C21.7865 18.219 21.763 19.1742 21.7361 20.1295C22.0825 20.1295 22.392 20.1295 22.7082 20.1295C22.7115 18.5284 22.7115 16.9408 22.7115 15.3195ZM17.7098 20.1396C17.7098 18.525 17.7098 16.9273 17.7098 15.3195C17.407 15.3195 17.1178 15.3161 16.8319 15.3229C16.7881 15.3229 16.7276 15.3834 16.7074 15.4305C16.6199 15.6189 16.5493 15.814 16.4719 16.009C16.2096 16.6549 15.9506 17.3007 15.6781 17.9768C15.6445 17.8994 15.6209 17.8422 15.5974 17.7851C15.2846 17.008 14.9684 16.231 14.6522 15.4574C14.632 15.4069 14.5782 15.3296 14.5378 15.3296C14.2351 15.3195 13.929 15.3229 13.6229 15.3229C13.6229 16.9408 13.6229 18.5351 13.6229 20.1362C13.9358 20.1362 14.2385 20.1362 14.5681 20.1362C14.5412 19.1574 14.5177 18.1887 14.4908 17.2233C14.5042 17.22 14.5177 17.2166 14.5311 17.2132C14.7498 17.8422 14.9684 18.4712 15.187 19.107C15.4393 19.107 15.6815 19.0969 15.9237 19.1103C16.0952 19.1204 16.1793 19.0733 16.2331 18.9018C16.3946 18.3939 16.5729 17.8961 16.7478 17.3915C16.7679 17.331 16.7915 17.2704 16.815 17.2099C16.8251 17.2132 16.8386 17.2166 16.8487 17.22C16.8251 18.1921 16.7982 19.1608 16.7747 20.1396C17.1077 20.1396 17.4003 20.1396 17.7098 20.1396ZM29.1966 18.3232C29.4489 18.155 29.6272 17.933 29.7315 17.6505C29.8761 17.2603 29.8997 16.86 29.8122 16.4564C29.6676 15.787 29.2572 15.3868 28.5811 15.3329C28.053 15.2926 27.5182 15.3229 26.9867 15.3262C26.9766 15.3262 26.9699 15.3397 26.9632 15.3464C26.9632 16.9408 26.9632 18.5351 26.9632 20.1329C27.2827 20.1329 27.5922 20.1329 27.9218 20.1329C27.9218 19.5947 27.9218 19.0666 27.9218 18.5419C28.2447 18.4948 28.2447 18.4948 28.3658 18.7504C28.5676 19.1709 28.7695 19.5947 28.9746 20.0151C28.9982 20.0656 29.052 20.1362 29.0957 20.1362C29.4153 20.1463 29.7382 20.143 30.0847 20.143C29.7819 19.5241 29.4926 18.9287 29.1966 18.3232ZM9.80519 15.3262C9.80182 15.3632 9.7951 15.3901 9.7951 15.417C9.7951 16.5338 9.78164 17.6505 9.80519 18.7639C9.82201 19.6283 10.3299 20.1396 11.1843 20.2338C11.857 20.3044 12.4726 19.9849 12.6946 19.3996C12.7921 19.1406 12.8459 18.8513 12.8493 18.5721C12.8661 17.5429 12.856 16.5136 12.856 15.4843C12.856 15.4339 12.8493 15.3834 12.8459 15.3296C12.5028 15.3296 12.1698 15.3296 11.82 15.3296C11.82 15.4036 11.82 15.4641 11.82 15.528C11.82 16.5405 11.82 17.553 11.82 18.5654C11.82 18.6731 11.8133 18.7874 11.7897 18.8917C11.7292 19.1473 11.5711 19.2684 11.3222 19.2718C11.08 19.2751 10.9017 19.1507 10.8412 18.9051C10.8076 18.7672 10.7975 18.6192 10.7975 18.478C10.7941 17.4958 10.7941 16.5102 10.7941 15.528C10.7941 15.4608 10.7874 15.3969 10.784 15.3296C10.4443 15.3262 10.1281 15.3262 9.80519 15.3262ZM9.193 16.6246C9.24682 16.0158 8.89027 15.3161 8.05273 15.2186C7.88118 15.1984 7.70627 15.2018 7.53472 15.2186C6.86199 15.2892 6.41126 15.7904 6.40117 16.4665C6.39444 16.9643 6.59963 17.368 6.98308 17.6673C7.25554 17.8792 7.55827 18.0541 7.83409 18.2627C7.97536 18.367 8.11327 18.4948 8.20745 18.6394C8.34873 18.8581 8.27473 19.1137 8.06954 19.2247C7.71972 19.4164 7.34636 19.2281 7.2959 18.8379C7.29254 18.811 7.28581 18.7841 7.27909 18.7471C6.94945 18.7471 6.62317 18.7471 6.30026 18.7471C6.23299 19.5005 6.72408 20.1228 7.46072 20.2069C7.6659 20.2304 7.87782 20.2304 8.083 20.2069C8.81964 20.1228 9.29055 19.5745 9.28046 18.8379C9.27373 18.3333 9.05509 17.9331 8.65818 17.6337C8.42273 17.4554 8.16373 17.3141 7.92154 17.146C7.76681 17.0383 7.61209 16.924 7.48427 16.786C7.34972 16.6414 7.34636 16.4396 7.44054 16.3017C7.55154 16.1402 7.71972 16.1268 7.89127 16.1537C8.07627 16.1806 8.16373 16.3118 8.19736 16.4867C8.20745 16.5304 8.21418 16.5741 8.22091 16.6212C8.55055 16.6246 8.87346 16.6246 9.193 16.6246ZM24.1579 20.1362C24.2117 19.8705 24.2655 19.6149 24.3227 19.3391C24.6187 19.3391 24.9046 19.3458 25.1939 19.3357C25.3083 19.3323 25.3419 19.3794 25.3587 19.4803C25.3856 19.662 25.4226 19.8436 25.4664 20.0219C25.4764 20.069 25.537 20.1329 25.5774 20.1362C25.8767 20.1463 26.1761 20.143 26.4923 20.143C26.1088 18.5251 25.7287 16.924 25.3486 15.3161C25.0459 15.3161 24.7566 15.3229 24.4707 15.3128C24.3328 15.306 24.2824 15.3531 24.2521 15.4843C23.9258 16.8802 23.5962 18.2728 23.2665 19.6653C23.2295 19.8201 23.1925 19.9748 23.1555 20.1362C23.5053 20.1362 23.8249 20.1362 24.1579 20.1362ZM31.1442 15.3262C30.8011 15.3262 30.4782 15.3262 30.1452 15.3262C30.1654 15.3935 30.1788 15.4473 30.1957 15.5011C30.5051 16.4396 30.8078 17.378 31.1274 18.3131C31.2182 18.5789 31.2687 18.8446 31.2586 19.1271C31.2485 19.4601 31.2552 19.7931 31.2552 20.1329C31.5916 20.1329 31.9078 20.1329 32.2374 20.1329C32.2374 19.7225 32.2307 19.3256 32.2408 18.9287C32.2441 18.7941 32.2609 18.6529 32.3047 18.5217C32.5939 17.6303 32.8899 16.7457 33.1826 15.8543C33.2398 15.6828 33.2936 15.5079 33.3541 15.3128C33.0312 15.3128 32.7386 15.3094 32.4459 15.3161C32.4056 15.3161 32.3417 15.38 32.3282 15.4238C32.2643 15.6222 32.2138 15.824 32.1567 16.0225C32.0255 16.4699 31.8943 16.9206 31.7497 17.4083C31.5378 16.6919 31.3427 16.0124 31.1442 15.3262ZM8.06954 24.6099C8.35209 24.6099 8.638 24.6099 8.92055 24.6099C8.92727 24.6099 8.93064 24.6099 8.93737 24.6099C9.30737 24.6032 9.55964 24.3677 9.55964 24.0314C9.55964 23.695 9.304 23.4562 8.934 23.4528C8.35545 23.4494 7.77691 23.4494 7.19836 23.4528C6.83172 23.4562 6.57272 23.7017 6.57272 24.0347C6.57272 24.3677 6.83172 24.6065 7.19836 24.6099C7.49099 24.6133 7.78027 24.6099 8.06954 24.6099ZM8.083 42.6155C7.79372 42.6155 7.50445 42.6122 7.21518 42.6155C6.83845 42.6189 6.57272 42.8611 6.57608 43.1974C6.57944 43.5304 6.83508 43.7726 7.20508 43.7726C7.78363 43.776 8.36218 43.7794 8.94073 43.7726C9.31073 43.7693 9.563 43.5237 9.55964 43.1907C9.55964 42.8543 9.304 42.6189 8.934 42.6155C8.65145 42.6155 8.36554 42.6155 8.083 42.6155ZM8.04936 31.798C8.34536 31.798 8.638 31.8014 8.934 31.798C9.304 31.7947 9.55964 31.5592 9.55964 31.2228C9.55964 30.8865 9.30737 30.6443 8.93737 30.6409C8.35882 30.6376 7.78027 30.6376 7.20172 30.6409C6.83508 30.6443 6.57608 30.8865 6.57272 31.2161C6.57272 31.5491 6.83172 31.7913 7.19499 31.7947C7.48427 31.8014 7.76681 31.798 8.04936 31.798ZM8.05945 50.9675C8.342 50.9675 8.62791 50.9675 8.91046 50.9675C8.91718 50.9675 8.92055 50.9675 8.92727 50.9675C9.30064 50.9608 9.55628 50.7287 9.55964 50.3957C9.563 50.0526 9.30737 49.807 8.92727 49.807C8.35545 49.8037 7.78363 49.8037 7.20845 49.807C6.82835 49.8104 6.56935 50.0559 6.57272 50.3957C6.57608 50.7253 6.83508 50.9608 7.20508 50.9675C7.49436 50.9708 7.77691 50.9675 8.05945 50.9675ZM8.04936 38.9895C8.34873 38.9895 8.65145 38.9929 8.95082 38.9895C9.30737 38.9861 9.55964 38.744 9.55964 38.4143C9.563 38.0813 9.31409 37.8358 8.95755 37.8358C8.36891 37.8324 7.77691 37.8324 7.18827 37.8358C6.83172 37.8391 6.57944 38.0813 6.57608 38.4076C6.57272 38.7406 6.83508 38.9861 7.19836 38.9895C7.4809 38.9929 7.76345 38.9895 8.04936 38.9895ZM8.06282 26.988C8.35209 26.988 8.64136 26.988 8.93064 26.988C8.94073 26.988 8.95418 26.988 8.96427 26.988C9.31073 26.9813 9.55628 26.7458 9.55964 26.4195C9.563 26.0832 9.3141 25.841 8.96091 25.8376C8.36555 25.8343 7.77018 25.8343 7.17481 25.8376C6.83172 25.841 6.57944 26.0832 6.57608 26.4061C6.57272 26.7357 6.82499 26.9846 7.17817 26.988C7.47081 26.9914 7.76681 26.988 8.06282 26.988ZM8.08636 47.4323C7.787 47.4323 7.48427 47.4323 7.1849 47.4323C7.17817 47.4323 7.17481 47.4323 7.16808 47.4323C6.82836 47.439 6.57608 47.6812 6.57608 48.0041C6.57608 48.3237 6.83172 48.5759 7.16808 48.5793C7.77018 48.5827 8.37227 48.5827 8.97437 48.5793C9.31409 48.5793 9.563 48.3337 9.563 48.0041C9.563 47.6778 9.31746 47.4323 8.97437 47.4289C8.67836 47.4289 8.38236 47.4323 8.08636 47.4323ZM8.05609 29.3896C8.35545 29.3896 8.65818 29.393 8.95755 29.3896C9.30737 29.3863 9.55291 29.1542 9.55964 28.8313C9.56637 28.4983 9.31746 28.2426 8.96764 28.2393C8.36554 28.2326 7.76345 28.2326 7.16472 28.2393C6.82836 28.2426 6.57608 28.4983 6.57608 28.8212C6.57608 29.1441 6.82499 29.3863 7.17145 29.3896C7.46409 29.393 7.76009 29.3896 8.05609 29.3896ZM8.07963 52.2188C7.92827 52.2188 7.78027 52.2188 7.6289 52.2188C7.47754 52.2188 7.32954 52.2154 7.17817 52.2188C6.82499 52.2255 6.57272 52.4677 6.57608 52.7973C6.57944 53.1169 6.83172 53.3658 7.17145 53.3691C7.77354 53.3759 8.37564 53.3759 8.97773 53.3691C9.31746 53.3658 9.563 53.1135 9.55964 52.7872C9.55628 52.4609 9.31073 52.2221 8.96764 52.2188C8.67164 52.2154 8.37564 52.2188 8.07963 52.2188ZM8.06618 40.2408C7.77018 40.2408 7.47754 40.2374 7.18154 40.2408C6.82499 40.2442 6.57272 40.4863 6.57608 40.816C6.57944 41.1389 6.82835 41.3878 7.17145 41.3912C7.77354 41.3945 8.37564 41.3979 8.97773 41.3912C9.32082 41.3878 9.563 41.1389 9.563 40.8126C9.563 40.4863 9.31746 40.2475 8.971 40.2408C8.66827 40.2374 8.36554 40.2408 8.06618 40.2408ZM8.083 33.0493C7.79372 33.0493 7.50445 33.0459 7.21518 33.0493C7.13108 33.0493 7.04027 33.056 6.95954 33.0829C6.7039 33.167 6.54244 33.4361 6.57944 33.6951C6.61981 33.9844 6.8519 34.1963 7.15127 34.1997C7.74663 34.2064 8.342 34.203 8.93737 34.1997C9.304 34.1997 9.55964 33.9541 9.55628 33.6178C9.55291 33.2848 9.31073 33.0527 8.94746 33.0459C8.66155 33.0459 8.37227 33.0493 8.083 33.0493ZM8.07963 46.181C8.36218 46.181 8.64809 46.181 8.93064 46.181C8.93737 46.181 8.94073 46.181 8.94746 46.181C9.304 46.1743 9.55628 45.9388 9.563 45.6092C9.56637 45.2762 9.32419 45.0306 8.96427 45.0239C8.36891 45.0172 7.77354 45.0172 7.17817 45.0239C6.81826 45.0306 6.57272 45.2795 6.57944 45.6058C6.58281 45.9287 6.84181 46.1709 7.19836 46.1743C7.48763 46.1844 7.78363 46.181 8.07963 46.181ZM8.06954 36.5811C8.34873 36.5811 8.62455 36.5811 8.90373 36.5811C8.91382 36.5811 8.92727 36.5811 8.93737 36.5811C9.31073 36.5744 9.55964 36.3423 9.55964 36.006C9.55964 35.6696 9.304 35.4274 8.93737 35.4274C8.35882 35.424 7.78027 35.424 7.20172 35.4274C6.83508 35.4308 6.57608 35.673 6.57608 36.006C6.57608 36.339 6.82835 36.5778 7.20172 36.5811C7.49099 36.5845 7.78027 36.5811 8.06954 36.5811Z" fill="white"></path>
    <path id="Vector_3" d="M7.82393 7.7343C7.82393 8.34648 7.82393 8.93848 7.82393 9.5574C7.74657 9.5574 7.67257 9.5574 7.59857 9.5574C6.20265 9.5574 4.8101 9.5574 3.41418 9.5574C2.97354 9.5574 2.75154 9.7794 2.75154 10.2167C2.75154 25.7635 2.75154 41.3136 2.75154 56.8604C2.75154 57.3145 2.97354 57.5298 3.44109 57.5298C14.3629 57.5298 25.288 57.5298 36.2098 57.5298C36.6605 57.5298 36.8792 57.3112 36.8792 56.8604C36.8792 41.3069 36.8792 25.7534 36.8792 10.1999C36.8792 9.7794 36.6538 9.5574 36.2367 9.5574C34.8475 9.5574 33.4583 9.5574 32.0725 9.5574C31.9985 9.5574 31.9245 9.5574 31.8404 9.5574C31.8404 8.94185 31.8404 8.34648 31.8404 7.72757C31.9178 7.72757 31.985 7.72757 32.0557 7.72757C33.8216 7.72757 35.5842 7.72757 37.3501 7.72757C38.08 7.72757 38.5038 8.15139 38.5038 8.8813C38.5038 25.3127 38.5038 41.7476 38.5038 58.179C38.5038 58.9089 38.08 59.3361 37.3534 59.3361C25.6647 59.3361 13.9794 59.3361 2.29072 59.3361C1.58099 59.3361 1.15381 58.9123 1.15381 58.2025C1.15381 41.7509 1.15381 25.3027 1.15381 8.85103C1.15381 8.16485 1.5709 7.72757 2.24363 7.72757C4.05328 7.72421 5.86629 7.72757 7.67593 7.72757C7.72302 7.72757 7.76339 7.73093 7.82393 7.7343Z" fill="white"></path>
    <path id="Vector_4" d="M19.8188 11.0139C16.7074 11.0139 13.596 11.0139 10.4813 11.0139C9.57645 11.0139 8.99453 10.4387 8.99117 9.53048C8.98781 8.92838 8.98781 8.32629 8.99117 7.7242C8.9979 6.83619 9.59326 6.25092 10.4813 6.25092C11.9747 6.25092 13.4648 6.25092 14.9583 6.25092C15.4393 6.25092 15.6512 6.03564 15.6512 5.54791C15.6512 5.12409 15.6377 4.70364 15.6613 4.27982C15.7454 2.79981 16.926 1.66626 18.4094 1.64608C19.3479 1.63263 20.283 1.63599 21.2214 1.64608C22.7721 1.66626 23.9796 2.88727 23.9964 4.44128C23.9998 4.8281 23.9964 5.21491 23.9964 5.6051C23.9964 6.02219 24.2218 6.25092 24.6389 6.25092C26.1492 6.25092 27.6594 6.2711 29.1697 6.24419C30.0409 6.22738 30.7036 6.92702 30.68 7.74775C30.6632 8.34311 30.68 8.93848 30.6766 9.53385C30.6733 10.4185 30.0745 11.0139 29.1899 11.0139C26.0684 11.0139 22.9436 11.0139 19.8188 11.0139ZM19.812 5.60173C20.293 5.60173 20.7707 5.6051 21.2517 5.60173C22.0859 5.59837 22.7485 4.93237 22.7485 4.10154C22.7485 3.26063 22.0825 2.58118 21.2483 2.58118C20.2998 2.57781 19.3512 2.57781 18.406 2.58118C17.5685 2.58454 16.9092 3.25054 16.8991 4.09818C16.889 4.929 17.5618 5.60173 18.4094 5.6051C18.8736 5.60173 19.3411 5.60173 19.812 5.60173Z" fill="white"></path>
    <path id="Vector_5" d="M22.1431 24.61C18.7458 24.61 15.3519 24.61 11.9546 24.61C11.8806 24.61 11.8032 24.61 11.7292 24.6033C11.4232 24.5696 11.2045 24.3375 11.1978 24.0415C11.1911 23.7556 11.3996 23.5101 11.6956 23.463C11.7629 23.4529 11.8335 23.4529 11.9042 23.4529C18.729 23.4529 25.5572 23.4529 32.3821 23.4529C32.816 23.4529 33.075 23.685 33.0649 24.0583C33.0548 24.3308 32.8597 24.5562 32.5906 24.5965C32.4998 24.61 32.4056 24.61 32.3148 24.61C28.9209 24.61 25.5337 24.61 22.1431 24.61Z" fill="#575757"></path>
    <path id="Vector_6" d="M22.1366 31.7983C18.736 31.7983 15.3353 31.7983 11.9313 31.7983C11.8405 31.7983 11.7463 31.7983 11.6555 31.7814C11.3898 31.731 11.198 31.4955 11.198 31.2264C11.1947 30.9641 11.3763 30.7286 11.632 30.6681C11.7194 30.6479 11.8136 30.6445 11.9078 30.6445C18.7091 30.6445 25.5137 30.6445 32.3151 30.6445C32.4193 30.6445 32.5236 30.6445 32.6245 30.6681C32.8936 30.7253 33.0651 30.9574 33.0618 31.2365C33.0584 31.5124 32.8701 31.7344 32.601 31.7848C32.527 31.7983 32.453 31.8016 32.3756 31.8016C28.9649 31.7983 25.5507 31.7983 22.1366 31.7983Z" fill="#575757"></path>
    <path id="Vector_7" d="M21.941 49.8035C25.3484 49.8035 28.7558 49.8035 32.1631 49.8035C32.2607 49.8035 32.3616 49.8068 32.4558 49.8304C32.7114 49.8909 32.883 50.123 32.8796 50.3921C32.8762 50.6612 32.7013 50.8866 32.439 50.9404C32.3616 50.9572 32.2775 50.9639 32.1968 50.9639C25.3719 50.9639 18.5437 50.9639 11.7189 50.9639C11.6112 50.9639 11.4969 50.9572 11.3926 50.9236C11.1605 50.8529 10.999 50.6007 11.0125 50.3585C11.026 50.1062 11.1975 49.8876 11.4397 49.8304C11.5339 49.8068 11.6348 49.8035 11.7323 49.8035C15.1397 49.8035 18.5404 49.8035 21.941 49.8035Z" fill="#575757"></path>
    <path id="Vector_8" d="M22.1258 42.6155C25.55 42.6155 28.9742 42.6155 32.3984 42.6155C32.8222 42.6155 33.0812 42.861 33.061 43.2411C33.0476 43.4799 32.8693 43.6986 32.6372 43.7524C32.5464 43.7726 32.4522 43.7793 32.3614 43.7793C25.5534 43.7793 18.7453 43.7793 11.9339 43.7793C11.8128 43.7793 11.6884 43.7726 11.574 43.7356C11.3251 43.6582 11.1637 43.3891 11.1973 43.1369C11.2343 42.8577 11.4428 42.6525 11.7254 42.6222C11.7893 42.6155 11.8532 42.6188 11.9171 42.6188C15.3211 42.6155 18.7251 42.6155 22.1258 42.6155Z" fill="#575757"></path>
    <path id="Vector_9" d="M22.1262 37.8323C25.5437 37.8323 28.9645 37.8323 32.382 37.8323C32.7957 37.8323 33.0513 38.0409 33.0614 38.3839C33.0715 38.69 32.8731 38.9289 32.567 38.9793C32.5031 38.9894 32.4392 38.9894 32.3753 38.9894C25.5437 38.9894 18.7121 38.9894 11.8805 38.9894C11.4971 38.9894 11.2751 38.8313 11.2112 38.5185C11.1472 38.209 11.3491 37.9029 11.6619 37.8458C11.746 37.8289 11.8334 37.8323 11.9209 37.8323C15.3249 37.8323 18.7256 37.8323 22.1262 37.8323Z" fill="#575757"></path>
    <path id="Vector_10" d="M22.1228 26.9878C18.7053 26.9878 15.2845 26.9878 11.867 26.9878C11.5037 26.9878 11.2885 26.8364 11.2178 26.5404C11.1371 26.1973 11.3826 25.8643 11.7325 25.8408C11.7964 25.8374 11.8603 25.8374 11.9242 25.8374C18.7322 25.8374 25.5403 25.8374 32.3517 25.8374C32.4425 25.8374 32.54 25.8341 32.6275 25.8509C32.91 25.9114 33.0883 26.1738 33.0647 26.4732C33.0446 26.7423 32.8158 26.9643 32.54 26.9844C32.4761 26.9878 32.4122 26.9878 32.3483 26.9878C28.9375 26.9878 25.5302 26.9878 22.1228 26.9878Z" fill="#575757"></path>
    <path id="Vector_11" d="M22.1258 47.4324C25.5635 47.4324 28.9977 47.4324 32.4354 47.4324C32.8189 47.4324 33.0678 47.6645 33.0644 48.0143C33.061 48.3204 32.8289 48.566 32.5229 48.5794C32.4892 48.5828 32.4522 48.5794 32.4186 48.5794C25.5635 48.5794 18.7083 48.5794 11.8532 48.5794C11.3958 48.5794 11.1098 48.243 11.2276 47.8428C11.2948 47.6073 11.5034 47.4425 11.7489 47.4324C11.7994 47.429 11.8532 47.4324 11.9037 47.4324C15.311 47.4324 18.7184 47.4324 22.1258 47.4324Z" fill="#575757"></path>
    <path id="Vector_12" d="M22.1432 36.581C18.7526 36.581 15.362 36.581 11.9748 36.581C11.9008 36.581 11.8235 36.5844 11.7495 36.5777C11.4333 36.5541 11.2046 36.3187 11.2012 36.0126C11.1945 35.7132 11.4232 35.4643 11.7327 35.4273C11.7831 35.4206 11.8369 35.4239 11.8874 35.4239C18.719 35.4239 25.5505 35.4239 32.3821 35.4239C32.8261 35.4239 33.0851 35.6594 33.0649 36.0462C33.0515 36.3086 32.8497 36.5306 32.5907 36.5676C32.5167 36.5777 32.4393 36.581 32.3653 36.581C28.9579 36.5844 25.5505 36.5844 22.1432 36.581Z" fill="#575757"></path>
    <path id="Vector_13" d="M22.1392 40.2407C25.5466 40.2407 28.954 40.2407 32.3614 40.2407C32.4657 40.2407 32.5733 40.2407 32.6708 40.271C32.9366 40.3484 33.0913 40.6074 33.061 40.8933C33.0341 41.1489 32.8222 41.3575 32.5565 41.3911C32.4892 41.3978 32.4186 41.3978 32.3479 41.3978C25.5264 41.3978 18.7083 41.3978 11.8868 41.3978C11.5034 41.3978 11.2814 41.2431 11.2141 40.9336C11.1435 40.6074 11.3789 40.2811 11.7119 40.2508C11.7859 40.2441 11.8633 40.2474 11.9373 40.2474C15.3379 40.2407 18.7386 40.2407 22.1392 40.2407Z" fill="#575757"></path>
    <path id="Vector_14" d="M22.1228 29.3899C18.7087 29.3899 15.298 29.3899 11.8839 29.3866C11.7561 29.3866 11.6148 29.3697 11.5004 29.3159C11.2784 29.215 11.1641 28.956 11.2112 28.7206C11.2616 28.4515 11.4634 28.2665 11.7325 28.2396C11.7998 28.2328 11.8704 28.2362 11.9411 28.2362C18.7323 28.2362 25.5235 28.2362 32.3147 28.2362C32.4291 28.2362 32.5502 28.2362 32.6578 28.2665C32.937 28.3405 33.0951 28.5961 33.0614 28.8921C33.0312 29.1612 32.8024 29.3731 32.5199 29.3866C32.3988 29.3933 32.2777 29.3899 32.1566 29.3899C28.8132 29.3899 25.4663 29.3899 22.1228 29.3899Z" fill="#575757"></path>
    <path id="Vector_15" d="M22.1426 34.2031C18.7184 34.2031 15.2942 34.2031 11.87 34.2031C11.5033 34.2031 11.278 34.0416 11.214 33.7356C11.1434 33.416 11.3688 33.0965 11.695 33.0561C11.7623 33.046 11.833 33.0494 11.9036 33.0494C18.7284 33.0494 25.5567 33.0494 32.3815 33.0494C32.7986 33.0494 33.0542 33.2545 33.0643 33.5976C33.0744 33.9172 32.8591 34.1661 32.5396 34.1997C32.4824 34.2065 32.4252 34.2031 32.3647 34.2031C28.9573 34.2031 25.5499 34.2031 22.1426 34.2031Z" fill="#575757"></path>
    <path id="Vector_16" d="M21.9612 46.181C18.537 46.181 15.1128 46.181 11.6886 46.181C11.322 46.181 11.1 46.0196 11.0327 45.7135C10.9654 45.404 11.1706 45.0946 11.4801 45.0407C11.5473 45.0273 11.618 45.0239 11.6886 45.0239C18.5336 45.0239 25.3753 45.0239 32.2203 45.0239C32.6206 45.0239 32.8762 45.2358 32.8863 45.5756C32.8964 45.8918 32.6778 46.144 32.3616 46.1777C32.3044 46.1844 32.2472 46.181 32.1867 46.181C28.776 46.181 25.3686 46.181 21.9612 46.181Z" fill="#575757"></path>
    <path id="Vector_17" d="M21.9612 52.2189C25.3854 52.2189 28.8096 52.2222 32.2338 52.2122C32.6475 52.2122 32.9536 52.525 32.8695 52.9219C32.8224 53.1574 32.6206 53.3356 32.3717 53.3659C32.3145 53.3726 32.2574 53.3726 32.1968 53.3726C25.3652 53.3726 18.5336 53.3726 11.7021 53.3726C11.3186 53.3726 11.0966 53.2179 11.0293 52.9051C10.9587 52.5855 11.1874 52.2626 11.5103 52.2256C11.5776 52.2189 11.6483 52.2189 11.7189 52.2189C15.133 52.2189 18.5471 52.2189 21.9612 52.2189Z" fill="#575757"></path>
    <path id="Vector_18" d="M22.7113 15.3193C22.7113 16.9406 22.7113 18.5316 22.7113 20.1327C22.3985 20.1327 22.0891 20.1327 21.7393 20.1327C21.7628 19.1774 21.7863 18.2221 21.8133 17.2668C21.8032 17.2635 21.7931 17.2601 21.783 17.2601C21.7258 17.4249 21.6653 17.5897 21.6081 17.7546C21.4668 18.1582 21.3255 18.5618 21.191 18.9688C21.1573 19.0731 21.1102 19.1168 20.9959 19.1101C20.7705 19.1 20.5452 19.1 20.3198 19.1101C20.2054 19.1135 20.155 19.0731 20.1213 18.9688C19.9397 18.4441 19.7513 17.9227 19.563 17.4014C19.5462 17.3509 19.526 17.3005 19.4822 17.2567C19.5058 18.212 19.526 19.1673 19.5495 20.136C19.2165 20.136 18.9104 20.136 18.5942 20.136C18.5942 18.5383 18.5942 16.9406 18.5942 15.3226C18.8936 15.3226 19.193 15.3193 19.4923 15.3294C19.5327 15.3294 19.5899 15.4 19.6101 15.4505C19.9431 16.2611 20.2727 17.0751 20.6057 17.8891C20.6158 17.9093 20.6259 17.9295 20.6528 17.9766C20.6864 17.8958 20.7133 17.8386 20.7402 17.7781C21.0531 17.0078 21.3659 16.2375 21.6753 15.4639C21.7191 15.3563 21.7729 15.3125 21.8906 15.3193C22.1563 15.3226 22.4254 15.3193 22.7113 15.3193Z" fill="#575757"></path>
    <path id="Vector_19" d="M17.7098 20.1397C17.4003 20.1397 17.1077 20.1397 16.7747 20.1397C16.7982 19.1609 16.8251 18.1888 16.8487 17.22C16.8386 17.2167 16.8251 17.2133 16.815 17.21C16.7915 17.2705 16.7679 17.331 16.7478 17.3916C16.5762 17.8928 16.3946 18.394 16.2331 18.9019C16.1793 19.0734 16.0918 19.1205 15.9237 19.1104C15.6815 19.0936 15.4393 19.1071 15.187 19.1071C14.965 18.4713 14.7464 17.8423 14.5311 17.2133C14.5177 17.2167 14.5042 17.22 14.4907 17.2234C14.5177 18.1888 14.5412 19.1575 14.5681 20.1363C14.2385 20.1363 13.9357 20.1363 13.6229 20.1363C13.6229 18.5352 13.6229 16.9409 13.6229 15.3229C13.929 15.3229 14.2351 15.3196 14.5378 15.3297C14.5782 15.3297 14.6287 15.407 14.6522 15.4575C14.9684 16.2311 15.2812 17.0115 15.5974 17.7851C15.6209 17.8423 15.6445 17.8995 15.6781 17.9769C15.9506 17.3041 16.2096 16.655 16.4719 16.0091C16.5493 15.8174 16.6233 15.6223 16.7074 15.4306C16.7276 15.3835 16.7881 15.3263 16.8318 15.3229C17.1211 15.3129 17.407 15.3196 17.7098 15.3196C17.7098 16.9274 17.7098 18.5251 17.7098 20.1397Z" fill="#575757"></path>
    <path id="Vector_20" d="M29.1965 18.3232C29.4925 18.9287 29.7818 19.524 30.0845 20.1463C29.7347 20.1463 29.4151 20.1497 29.0956 20.1396C29.0518 20.1396 28.998 20.0689 28.9745 20.0185C28.7693 19.598 28.5675 19.1742 28.3657 18.7537C28.2446 18.4981 28.2412 18.4981 27.9217 18.5452C27.9217 19.0699 27.9217 19.598 27.9217 20.1362C27.592 20.1362 27.2826 20.1362 26.963 20.1362C26.963 18.5385 26.963 16.9441 26.963 15.3497C26.9697 15.343 26.9798 15.3295 26.9866 15.3295C27.518 15.3295 28.0528 15.2959 28.5809 15.3363C29.257 15.3867 29.6674 15.787 29.812 16.4597C29.8995 16.8634 29.8759 17.2636 29.7313 17.6538C29.627 17.9296 29.4488 18.155 29.1965 18.3232ZM27.925 17.5832C28.2345 17.5563 28.5641 17.6807 28.7592 17.3444C28.9038 17.0955 28.887 16.6178 28.7188 16.416C28.5002 16.1536 28.2042 16.2579 27.925 16.2377C27.925 16.6952 27.925 17.1257 27.925 17.5832Z" fill="#575757"></path>
    <path id="Vector_21" d="M9.80503 15.3264C10.1279 15.3264 10.4441 15.3264 10.7839 15.3264C10.7872 15.3903 10.7939 15.4576 10.7939 15.5249C10.7939 16.5071 10.7939 17.4926 10.7973 18.4748C10.7973 18.6194 10.8074 18.7641 10.841 18.902C10.9016 19.1475 11.0799 19.2686 11.322 19.2686C11.571 19.2653 11.729 19.1442 11.7896 18.8885C11.8131 18.7842 11.8199 18.6699 11.8199 18.5622C11.8232 17.5498 11.8199 16.5373 11.8199 15.5249C11.8199 15.461 11.8199 15.4004 11.8199 15.3264C12.1697 15.3264 12.4993 15.3264 12.8458 15.3264C12.8491 15.3802 12.8559 15.4307 12.8559 15.4811C12.8559 16.5104 12.866 17.5397 12.8491 18.569C12.8458 18.8448 12.792 19.1374 12.6944 19.3964C12.4724 19.9817 11.8569 20.3046 11.1841 20.2306C10.3298 20.1398 9.82185 19.6252 9.80503 18.7607C9.78149 17.644 9.79831 16.5272 9.79494 15.4139C9.79158 15.3903 9.79831 15.3634 9.80503 15.3264Z" fill="#575757"></path>
    <path id="Vector_22" d="M9.19284 16.6246C8.87329 16.6246 8.55038 16.6246 8.22074 16.6246C8.21401 16.5775 8.20729 16.5337 8.19719 16.49C8.16356 16.3151 8.07947 16.1839 7.8911 16.157C7.71956 16.1301 7.55137 16.1436 7.44037 16.305C7.34619 16.4396 7.34955 16.6447 7.4841 16.7894C7.61192 16.9273 7.76665 17.0417 7.92138 17.1493C8.16356 17.3175 8.42256 17.4587 8.65802 17.637C9.05493 17.9364 9.2702 18.3367 9.28029 18.8412C9.29374 19.5812 8.81947 20.1295 8.08283 20.2102C7.87765 20.2338 7.66574 20.2338 7.46055 20.2102C6.72391 20.1261 6.23282 19.5038 6.30009 18.7504C6.62301 18.7504 6.94928 18.7504 7.27892 18.7504C7.28565 18.784 7.29237 18.8109 7.29574 18.8412C7.34619 19.2314 7.71956 19.4198 8.06938 19.228C8.27456 19.117 8.34856 18.8614 8.20729 18.6428C8.1131 18.4981 7.97519 18.3703 7.83392 18.266C7.5581 18.0575 7.25537 17.8826 6.98292 17.6707C6.5961 17.3679 6.39091 16.9676 6.401 16.4698C6.41109 15.7937 6.85846 15.2925 7.53455 15.2219C7.7061 15.2051 7.88101 15.2017 8.05256 15.2219C8.89011 15.3161 9.24665 16.0157 9.19284 16.6246Z" fill="#575757"></path>
    <path id="Vector_23" d="M24.1579 20.1364C23.8249 20.1364 23.5053 20.1364 23.1555 20.1364C23.1925 19.9749 23.2295 19.8202 23.2665 19.6655C23.5962 18.2729 23.9258 16.8804 24.2521 15.4845C24.2823 15.3533 24.3328 15.3096 24.4707 15.3129C24.76 15.3264 25.0459 15.3163 25.3486 15.3163C25.7287 16.9275 26.1088 18.5252 26.4923 20.1431C26.1761 20.1431 25.8734 20.1465 25.5773 20.1364C25.537 20.1364 25.4798 20.0691 25.4663 20.022C25.4193 19.8438 25.3856 19.6621 25.3587 19.4805C25.3419 19.3762 25.3083 19.3325 25.1939 19.3359C24.9046 19.3426 24.6187 19.3392 24.3227 19.3392C24.2655 19.615 24.2117 19.874 24.1579 20.1364ZM25.1233 18.4041C25.0291 17.7953 24.9349 17.2033 24.8441 16.6113C24.8373 16.6113 24.8306 16.6147 24.8273 16.6147C24.7263 17.2067 24.6221 17.802 24.5178 18.4041C24.7297 18.4041 24.9248 18.4041 25.1233 18.4041Z" fill="#575757"></path>
    <path id="Vector_24" d="M31.1441 15.3263C31.3426 16.0125 31.5377 16.6919 31.7496 17.4151C31.8942 16.924 32.0254 16.4767 32.1566 16.0293C32.2138 15.8309 32.2642 15.6257 32.3282 15.4306C32.3416 15.3835 32.4055 15.3229 32.4459 15.3229C32.7385 15.3129 33.0345 15.3196 33.3541 15.3196C33.2935 15.5113 33.2397 15.6862 33.1825 15.8611C32.8899 16.7491 32.5939 17.6371 32.3046 18.5285C32.2642 18.6563 32.2441 18.7976 32.2407 18.9355C32.234 19.3324 32.2373 19.7327 32.2373 20.1397C31.9077 20.1397 31.5915 20.1397 31.2551 20.1397C31.2551 19.8 31.2451 19.467 31.2585 19.134C31.2686 18.8514 31.2181 18.5891 31.1273 18.32C30.8078 17.3849 30.5051 16.4464 30.1956 15.5079C30.1788 15.4541 30.1653 15.4003 30.1451 15.333C30.4781 15.3263 30.8011 15.3263 31.1441 15.3263Z" fill="#575757"></path>
    <path id="Vector_25" d="M8.06951 24.6098C7.78024 24.6098 7.49096 24.6132 7.20169 24.6098C6.83169 24.6065 6.57605 24.3676 6.57605 24.0346C6.57605 23.7016 6.83505 23.4561 7.20169 23.4527C7.78024 23.4494 8.35879 23.4494 8.93733 23.4527C9.30733 23.4561 9.56297 23.6949 9.56297 24.0313C9.56297 24.3676 9.3107 24.6031 8.9407 24.6098C8.93397 24.6098 8.93061 24.6098 8.92388 24.6098C8.63797 24.6098 8.35206 24.6098 8.06951 24.6098Z" fill="#575757"></path>
    <path id="Vector_26" d="M8.083 42.6153C8.36554 42.6153 8.65145 42.6119 8.934 42.6153C9.304 42.6186 9.55964 42.8541 9.55964 43.1904C9.55964 43.5268 9.30737 43.769 8.94073 43.7724C8.36218 43.7791 7.78363 43.7791 7.20508 43.7724C6.83508 43.769 6.57945 43.5268 6.57608 43.1972C6.57272 42.8608 6.83845 42.6186 7.21518 42.6153C7.50445 42.6153 7.79372 42.6153 8.083 42.6153Z" fill="#575757"></path>
    <path id="Vector_27" d="M8.04936 31.7979C7.76681 31.7979 7.4809 31.8012 7.19836 31.7979C6.83172 31.7945 6.57272 31.5523 6.57608 31.2193C6.57608 30.8863 6.83508 30.6441 7.20509 30.6441C7.78363 30.6408 8.36218 30.6408 8.94073 30.6441C9.30737 30.6475 9.56301 30.8897 9.56301 31.226C9.56301 31.5624 9.30737 31.7979 8.93737 31.8012C8.638 31.8012 8.34536 31.7979 8.04936 31.7979Z" fill="#575757"></path>
    <path id="Vector_28" d="M7.87769 50.9677C7.59514 50.9677 7.30923 50.971 7.02669 50.9677C6.65668 50.9643 6.39432 50.7255 6.39432 50.3958C6.39096 50.0561 6.64996 49.8106 7.03005 49.8072C7.60187 49.8038 8.17369 49.8038 8.74888 49.8072C9.12897 49.8106 9.38461 50.0528 9.38124 50.3958C9.37788 50.7289 9.12224 50.9609 8.74888 50.9677C8.74215 50.9677 8.73879 50.9677 8.73206 50.9677C8.44615 50.9677 8.16024 50.9677 7.87769 50.9677Z" fill="#575757"></path>
    <path id="Vector_29" d="M8.04936 38.9895C7.76681 38.9895 7.4809 38.9929 7.19836 38.9895C6.83508 38.9861 6.57272 38.7372 6.57608 38.4076C6.57945 38.0813 6.83172 37.8358 7.18827 37.8358C7.77691 37.8324 8.36891 37.8324 8.95755 37.8358C9.31409 37.8391 9.56301 38.0813 9.55964 38.4143C9.55628 38.744 9.304 38.9861 8.95082 38.9895C8.64809 38.9929 8.34873 38.9895 8.04936 38.9895Z" fill="#575757"></path>
    <path id="Vector_30" d="M8.06282 26.9876C7.76682 26.9876 7.47418 26.991 7.17818 26.9876C6.82836 26.9842 6.57272 26.7353 6.57608 26.4057C6.57945 26.0828 6.83172 25.8406 7.17481 25.8372C7.77018 25.8339 8.36555 25.8339 8.96091 25.8372C9.3141 25.8406 9.56301 26.0828 9.55964 26.4192C9.55628 26.7454 9.30737 26.9809 8.96428 26.9876C8.95419 26.9876 8.94073 26.9876 8.93064 26.9876C8.64137 26.9876 8.35209 26.9876 8.06282 26.9876Z" fill="#575757"></path>
    <path id="Vector_31" d="M7.90463 47.4324C8.20064 47.4324 8.49327 47.429 8.78928 47.4324C9.129 47.4358 9.37791 47.6813 9.37791 48.0076C9.37791 48.3339 9.129 48.5794 8.78928 48.5828C8.18718 48.5861 7.58509 48.5861 6.98299 48.5828C6.64663 48.5794 6.39099 48.3271 6.39099 48.0076C6.39099 47.6847 6.64327 47.4391 6.98299 47.4358C6.98972 47.4358 6.99309 47.4358 6.99981 47.4358C7.30254 47.4324 7.60527 47.4324 7.90463 47.4324Z" fill="#575757"></path>
    <path id="Vector_32" d="M8.05606 29.3898C7.76006 29.3898 7.46742 29.3931 7.17142 29.3898C6.82832 29.3864 6.57941 29.1442 6.57605 28.8213C6.57605 28.5018 6.82832 28.2428 7.16469 28.2394C7.76678 28.2327 8.36888 28.2327 8.96761 28.2394C9.31743 28.2428 9.56634 28.4984 9.55961 28.8314C9.55288 29.1543 9.30734 29.3864 8.95752 29.3898C8.65479 29.3931 8.35542 29.3898 8.05606 29.3898Z" fill="#575757"></path>
    <path id="Vector_33" d="M7.89794 52.2188C8.19394 52.2188 8.48658 52.2154 8.78258 52.2188C9.12904 52.2221 9.37458 52.461 9.37458 52.7872C9.37795 53.1135 9.1324 53.3658 8.79267 53.3691C8.19058 53.3759 7.58848 53.3759 6.98639 53.3691C6.6433 53.3658 6.39439 53.1169 6.39102 52.7973C6.38766 52.4677 6.63994 52.2255 6.99312 52.2188C7.14448 52.2154 7.29248 52.2188 7.44385 52.2188C7.59858 52.2188 7.74994 52.2188 7.89794 52.2188Z" fill="#575757"></path>
    <path id="Vector_34" d="M8.06613 40.2408C8.36549 40.2408 8.66822 40.2374 8.96759 40.2408C9.31404 40.2441 9.55959 40.4863 9.55959 40.8126C9.55959 41.1389 9.31741 41.3878 8.97431 41.3911C8.37222 41.3979 7.77013 41.3979 7.16803 41.3911C6.8283 41.3878 6.57603 41.1388 6.57267 40.8159C6.5693 40.4863 6.82158 40.2441 7.17812 40.2408C7.47749 40.2374 7.77012 40.2408 8.06613 40.2408Z" fill="#575757"></path>
    <path id="Vector_35" d="M8.08297 33.0493C8.37224 33.0493 8.66151 33.046 8.95079 33.0493C9.31406 33.0561 9.55961 33.2882 9.55961 33.6212C9.56297 33.9575 9.30733 34.2031 8.9407 34.2031C8.34533 34.2064 7.74996 34.2064 7.1546 34.2031C6.85187 34.1997 6.62314 33.9878 6.58278 33.6985C6.54578 33.4395 6.70723 33.1704 6.96287 33.0864C7.0436 33.0594 7.13442 33.0527 7.21851 33.0527C7.50442 33.046 7.79369 33.0493 8.08297 33.0493Z" fill="#575757"></path>
    <path id="Vector_36" d="M8.07964 46.1809C7.78364 46.1809 7.491 46.1843 7.195 46.1809C6.84181 46.1775 6.58281 45.9353 6.57608 45.6124C6.57272 45.2828 6.8149 45.0339 7.17481 45.0305C7.77018 45.0204 8.36555 45.0204 8.96091 45.0305C9.32083 45.0339 9.56301 45.2828 9.55964 45.6158C9.55628 45.9454 9.30401 46.1809 8.9441 46.1876C8.93737 46.1876 8.934 46.1876 8.92728 46.1876C8.64473 46.1809 8.36218 46.1809 8.07964 46.1809Z" fill="#575757"></path>
    <path id="Vector_37" d="M8.06951 36.5811C7.78024 36.5811 7.49096 36.5844 7.20169 36.5811C6.82832 36.5743 6.57605 36.3389 6.57605 36.0059C6.57605 35.6729 6.83841 35.4307 7.20169 35.4273C7.78024 35.424 8.35879 35.424 8.93733 35.4273C9.30397 35.4307 9.55961 35.6695 9.55961 36.0059C9.55961 36.3456 9.3107 36.5743 8.93733 36.5811C8.92724 36.5811 8.91379 36.5811 8.9037 36.5811C8.62451 36.5811 8.34533 36.5811 8.06951 36.5811Z" fill="#575757"></path>
    <path id="Vector_38" d="M19.812 5.60164C19.3445 5.60164 18.8769 5.60164 18.406 5.60164C17.5617 5.59828 16.8857 4.92555 16.8957 4.09473C16.9058 3.24709 17.5651 2.58108 18.4027 2.57772C19.3512 2.57435 20.2998 2.57435 21.2449 2.57772C22.0791 2.58108 22.7418 3.25718 22.7451 4.09809C22.7451 4.92891 22.0825 5.59492 21.2483 5.59828C20.7707 5.60165 20.2897 5.60164 19.812 5.60164ZM19.812 4.45127C20.2695 4.45127 20.7236 4.45127 21.181 4.45127C21.4299 4.45127 21.588 4.31336 21.5914 4.10145C21.5948 3.87945 21.4367 3.72809 21.1844 3.72809C20.2762 3.72472 19.3714 3.72809 18.4632 3.72809C18.2076 3.72809 18.0562 3.86936 18.0562 4.09809C18.0562 4.31336 18.2076 4.44791 18.4598 4.44791C18.9106 4.45127 19.3613 4.45127 19.812 4.45127Z" fill="url(#paint1_linear_186_618)"></path>
    <path id="Vector_39" d="M27.9249 17.583C27.9249 17.1255 27.9249 16.695 27.9249 16.2375C28.2041 16.2577 28.5001 16.1534 28.7187 16.4158C28.8869 16.6176 28.9038 17.0919 28.7591 17.3441C28.5607 17.6771 28.2344 17.5527 27.9249 17.583Z" fill="white"></path>
    <path id="Vector_40" d="M25.1234 18.4037C24.9216 18.4037 24.7265 18.4037 24.5179 18.4037C24.6222 17.8016 24.7231 17.2096 24.8274 16.6142C24.8341 16.6142 24.8409 16.6108 24.8442 16.6108C24.9384 17.2028 25.0292 17.7948 25.1234 18.4037Z" fill="white"></path>
    <path id="Vector_41" d="M19.8121 4.45154C19.3614 4.45154 18.9106 4.45154 18.4599 4.45154C18.2076 4.45154 18.0563 4.31699 18.0563 4.10172C18.0563 3.87299 18.2076 3.73172 18.4633 3.73172C19.3715 3.73172 20.2763 3.72836 21.1845 3.73172C21.4367 3.73172 21.5948 3.88308 21.5915 4.10509C21.5881 4.317 21.43 4.45154 21.1811 4.4549C20.7237 4.45154 20.2696 4.45154 19.8121 4.45154Z" fill="white"></path>
  </g>
  <defs>
    <linearGradient id="paint0_linear_186_618" x1="19.8304" y1="0.5" x2="19.8455" y2="102.25" gradientUnits="userSpaceOnUse">
      <stop stop-color="#3C3C3C"></stop>
      <stop offset="1" stop-color="#575757" stop-opacity="0"></stop>
    </linearGradient>
    <linearGradient id="paint1_linear_186_618" x1="19.8204" y1="2.5752" x2="19.8457" y2="9.91807" gradientUnits="userSpaceOnUse">
      <stop stop-color="#3C3C3C"></stop>
      <stop offset="1" stop-color="#575757" stop-opacity="0"></stop>
    </linearGradient>
  </defs>
</svg>
