<?xml version="1.0" encoding="UTF-8"?>
<svg xmlns="http://www.w3.org/2000/svg" width="67" height="93" viewBox="0 0 67 93" fill="none">
  <g id="Group 90275">
    <path id="Path 164503" d="M5.60899 0H63.3659C63.8246 0.252831 63.8787 0.414396 63.5871 0.882343C63.3302 1.29535 63.0414 1.68834 62.754 2.08132C61.9924 3.06769 61.5785 4.28078 61.5774 5.5297C61.5959 27.8086 61.6003 50.0876 61.5907 72.3665C61.5907 77.0504 61.5879 81.734 61.582 86.4175C61.582 86.8287 61.6819 86.9647 62.1068 86.9567C63.4904 86.9302 64.8749 86.947 66.2589 86.947H66.7578V93H0.460938V86.9334H7.30911V86.2634C7.30911 59.206 7.31052 32.1484 7.3133 5.09062C7.3238 4.33244 7.11316 3.58779 6.70741 2.94877C6.27046 2.26059 5.78673 1.6022 5.35349 0.911686C5.00633 0.360393 5.04892 0.269128 5.60899 0ZM27.4747 19.9239V6.47444H14.816V19.9239H27.4747ZM27.4825 26.5245H14.8086V39.9343H27.4825V26.5245ZM14.8049 79.5278H27.4705V66.1016H14.8049V79.5278ZM27.4918 46.5466H14.8165V59.4791H27.4918V46.5466ZM47.3625 12.5498V19.9145H54.1866V12.5498H47.3625ZM47.3537 32.5845V39.9413H54.1709V32.5845H47.3537ZM54.1926 52.7048H47.3662C47.348 52.7552 47.3352 52.8073 47.3278 52.8604C47.3255 55.1331 47.3315 57.4062 47.3181 59.6789C47.3181 60.0439 47.4893 60.0835 47.7809 60.0826C49.7917 60.0751 51.8028 60.0789 53.8135 60.077C53.9348 60.077 54.0556 60.0565 54.1917 60.0439L54.1926 52.7048ZM40.8837 19.9252V12.561H34.1308V19.9252H40.8837ZM34.1294 32.5873V39.9441H40.8822V32.5873H34.1294ZM34.1137 60.0444H40.892V52.7183H34.1137V60.0444Z" fill="white"></path>
  </g>
</svg>
