<?xml version="1.0" encoding="UTF-8"?>
<svg xmlns="http://www.w3.org/2000/svg" width="32" height="32" viewBox="0 0 32 32" fill="none">
  <g id="customer-service 1">
    <g id="XMLID_2_">
      <g id="Group">
        <g id="Group_2">
          <path id="Vector" d="M25.1999 21.6684C23.7864 23.2808 21.7106 24.303 19.399 24.303H16.1536C14.844 24.303 13.7121 23.5501 13.1638 22.4554C12.7929 22.3283 12.4286 22.176 12.0718 21.9986L25.1999 21.6684ZM25.1999 21.6684C27.7892 23.4114 29.4905 26.3677 29.4905 29.7207V30.374C29.4905 30.8578 29.0983 31.2501 28.6145 31.2501H3.3856C2.90177 31.2501 2.50952 30.8578 2.50952 30.374V29.7207C2.50952 25.2233 5.5713 21.4399 9.72464 20.3426C10.4284 21.0164 11.2144 21.5727 12.0717 21.9986L25.1999 21.6684Z" fill="#575757" stroke="#F5F5F5" stroke-width="1.5"></path>
          <g id="Vector_2">
            <path fill-rule="evenodd" clip-rule="evenodd" d="M9.85132 15.2042C9.53617 15.7758 8.92787 16.1632 8.229 16.1632C7.21053 16.1632 6.37744 15.3371 6.37744 14.3115V9.67725C6.37744 9.05913 6.68062 8.51209 7.14614 8.17578C7.50716 3.6072 11.3401 0 16 0C20.6599 0 24.4929 3.6072 24.8539 8.17585C25.3195 8.51216 25.6226 9.05913 25.6226 9.67731V10.9619V14.3117C25.6226 14.9174 25.3317 15.4551 24.882 15.793V16.5887C24.882 19.6121 22.4223 22.0717 19.399 22.0717H16.1537C15.5402 22.0717 15.0428 21.5744 15.0428 20.9608C15.0428 20.3473 15.5402 19.8499 16.1537 19.8499H19.399C21.1972 19.8499 22.6601 18.3869 22.6601 16.5887V15.793C22.4505 15.6354 22.2755 15.4344 22.1482 15.2033L22.1071 8.86483C22.2303 8.61296 22.4091 8.39347 22.6274 8.22172C22.2949 4.85811 19.4496 2.22192 16 2.22192C12.5505 2.22192 9.70527 4.85811 9.37251 8.22179C9.59082 8.39354 9.76966 8.61303 9.89288 8.8649L9.88404 15.2921L9.87652 15.2718C9.86803 15.2493 9.85961 15.2269 9.85132 15.2042Z" fill="#F5F5F5"></path>
            <path d="M21.6476 15.115L21.6077 8.96035C20.6018 6.42051 18.4411 4.7258 16 4.7258C13.5036 4.7258 11.3744 6.48233 10.3928 8.95891L10.3842 15.1992C11.043 16.8758 12.2437 18.2678 13.788 18.9704C14.3545 18.2976 15.2036 17.8685 16.1537 17.8685H19.3991C19.6268 17.8685 19.8449 17.8046 20.0442 17.6931L21.6476 15.115ZM21.6476 15.115C21.4371 15.6764 21.2038 16.1823 20.9113 16.656C20.8094 16.8209 20.6707 17.0409 20.5086 17.2471C20.34 17.4614 20.1786 17.6179 20.0442 17.6931L21.6476 15.115ZM9.39271 8.9901L9.38443 15.0129C9.14662 15.4038 8.71777 15.6632 8.229 15.6632C7.48546 15.6632 6.87744 15.0597 6.87744 14.3115V9.67725C6.87744 9.22669 7.09773 8.82758 7.43894 8.58108L7.62637 8.44567L7.64458 8.21517C7.98524 3.90437 11.6033 0.5 16 0.5C20.3967 0.5 24.0148 3.90437 24.3555 8.21524L24.3737 8.44574L24.5611 8.58115C24.9024 8.82766 25.1226 9.2267 25.1226 9.67731V10.9619V14.3117C25.1226 14.7534 24.9112 15.1457 24.5817 15.3932L24.382 15.5432V15.793V16.5887C24.382 19.3359 22.1462 21.5717 19.399 21.5717H16.1537C15.8163 21.5717 15.5428 21.2982 15.5428 20.9608C15.5428 20.6234 15.8163 20.3499 16.1537 20.3499H19.399C21.4734 20.3499 23.1601 18.663 23.1601 16.5887V15.793V15.5432L22.9605 15.3932C22.8384 15.3015 22.7324 15.1896 22.6473 15.0625L22.6079 8.98895C22.6933 8.84516 22.805 8.71822 22.9366 8.6147L23.152 8.44526L23.125 8.17253C22.7674 4.55586 19.7095 1.72192 16 1.72192C12.2906 1.72192 9.23273 4.55587 8.87494 8.17257L8.84795 8.44531L9.06336 8.61477C9.19528 8.71855 9.30721 8.84587 9.39271 8.9901Z" stroke="#F5F5F5"></path>
          </g>
        </g>
      </g>
    </g>
  </g>
</svg>
