<?xml version="1.0" encoding="UTF-8"?>
<svg xmlns="http://www.w3.org/2000/svg" width="50" height="50" viewBox="0 0 50 50" fill="none">
  <g id="customer-retention" clip-path="url(#clip0_217_281)">
    <path id="Vector" d="M24.9985 23.5015C26.7754 23.5015 28.5124 22.9746 29.9899 21.9874C31.4674 21.0002 32.6189 19.597 33.2989 17.9553C33.9789 16.3136 34.1569 14.5072 33.8102 12.7644C33.4635 11.0216 32.6079 9.42072 31.3514 8.16423C30.0949 6.90775 28.494 6.05207 26.7512 5.7054C25.0084 5.35874 23.202 5.53666 21.5603 6.21667C19.9186 6.89667 18.5154 8.04822 17.5282 9.5257C16.541 11.0032 16.0141 12.7402 16.0141 14.5171C16.0167 16.8992 16.9641 19.1829 18.6484 20.8672C20.3327 22.5515 22.6164 23.4989 24.9985 23.5015ZM20.6177 20.982C20.6038 20.8388 20.596 20.6945 20.596 20.5504C20.5933 19.9706 20.7051 19.3958 20.9252 18.8593C21.1452 18.3228 21.469 17.835 21.8781 17.424C22.2872 17.013 22.7734 16.6868 23.3089 16.4643C23.8444 16.2417 24.4186 16.1272 24.9985 16.1272C25.5784 16.1272 26.1526 16.2417 26.6881 16.4643C27.2236 16.6868 27.7098 17.013 28.1189 17.424C28.528 17.835 28.8518 18.3228 29.0718 18.8593C29.2919 19.3958 29.4037 19.9706 29.401 20.5504C29.401 20.6945 29.3932 20.8387 29.3793 20.982C28.087 21.8599 26.5608 22.3293 24.9985 22.3293C23.4362 22.3293 21.91 21.8599 20.6177 20.982ZM24.9985 14.9187C24.5465 14.9187 24.1047 14.7847 23.7289 14.5336C23.3531 14.2825 23.0602 13.9256 22.8872 13.508C22.7143 13.0905 22.669 12.631 22.7572 12.1877C22.8454 11.7445 23.063 11.3373 23.3826 11.0177C23.7022 10.6981 24.1094 10.4805 24.5526 10.3923C24.9959 10.3041 25.4554 10.3494 25.8729 10.5223C26.2905 10.6953 26.6474 10.9882 26.8985 11.364C27.1496 11.7398 27.2836 12.1816 27.2836 12.6336C27.2829 13.2394 27.0419 13.8203 26.6136 14.2488C26.1852 14.6772 25.6043 14.9183 24.9985 14.9191V14.9187ZM24.9985 6.70426C26.5405 6.70328 28.0483 7.15895 29.3318 8.01379C30.6152 8.86863 31.6168 10.0844 32.2102 11.5077C32.8036 12.931 32.9623 14.4982 32.6662 16.0115C32.3701 17.5249 31.6326 18.9167 30.5465 20.0115C30.4465 18.9985 30.0716 18.0321 29.4623 17.2167C28.8531 16.4013 28.0326 15.7678 27.0895 15.3848C27.6659 14.9471 28.0904 14.3395 28.3031 13.6476C28.5158 12.9558 28.506 12.2146 28.2751 11.5286C28.0442 10.8427 27.6037 10.2465 27.0159 9.82414C26.4281 9.40181 25.7226 9.17462 24.9987 9.17462C24.2749 9.17462 23.5694 9.40181 22.9816 9.82414C22.3938 10.2465 21.9533 10.8427 21.7224 11.5286C21.4915 12.2146 21.4817 12.9558 21.6944 13.6476C21.9071 14.3395 22.3316 14.9471 22.908 15.3848C21.965 15.7679 21.1445 16.4013 20.5352 17.2167C19.926 18.0322 19.5511 18.9985 19.451 20.0115C18.3651 18.9168 17.6276 17.525 17.3315 16.0118C17.0355 14.4985 17.1941 12.9314 17.7874 11.5082C18.3808 10.085 19.3822 8.86929 20.6655 8.01443C21.9488 7.15957 23.4565 6.70382 24.9985 6.70465V6.70426ZM39.7896 40.1954L48.111 31.874C48.4544 31.5402 48.7168 31.1322 48.8779 30.6813C49.0391 30.2303 49.0948 29.7484 49.0407 29.2726L47.913 17.9064C47.921 17.1473 47.6305 16.4155 47.104 15.8685C46.5776 15.3216 45.8574 15.0034 45.0985 14.9824C45.0729 14.9817 45.0474 14.9814 45.0218 14.9814C44.2696 14.9826 43.5475 15.2766 43.0083 15.801C42.4692 16.3254 42.1553 17.0391 42.1333 17.791L41.8913 25.6059C41.8109 25.5984 41.7297 25.5944 41.6479 25.5944C41.3134 25.5931 40.982 25.6581 40.6729 25.7858C40.3637 25.9134 40.083 26.1011 39.8469 26.338L34.5211 31.664C32.3782 32.2897 30.5001 33.6018 29.1756 35.3988C27.851 37.1958 27.1534 39.378 27.1899 41.6101C26.8118 41.6979 26.4745 41.9109 26.2328 42.2145C25.9911 42.5182 25.8591 42.8947 25.8584 43.2828V48.2818C25.859 48.7373 26.0402 49.1741 26.3623 49.4962C26.6845 49.8183 27.1212 49.9995 27.5768 50.0001H39.2735C39.7292 49.9997 40.1661 49.8185 40.4884 49.4962C40.8106 49.174 40.9918 48.737 40.9922 48.2813V43.2823C40.9917 42.8886 40.8562 42.507 40.6083 42.2011C40.3604 41.8953 40.0151 41.6837 39.6301 41.6016V40.5821C39.6278 40.51 39.6408 40.4383 39.6683 40.3716C39.6958 40.3049 39.7371 40.2449 39.7896 40.1954ZM34.9823 32.7511C35.0804 32.7243 35.1698 32.6723 35.2417 32.6003L40.6755 27.1666C40.934 26.9115 41.2829 26.7691 41.646 26.7704C42.0091 26.7716 42.357 26.9164 42.6137 27.1732C42.8705 27.4299 43.0153 27.7778 43.0165 28.1409C43.0177 28.504 42.8753 28.8529 42.6202 29.1114L38.4601 33.2715C38.3517 33.3817 38.2912 33.5303 38.2918 33.6849C38.2924 33.8394 38.3541 33.9875 38.4634 34.0968C38.5727 34.2061 38.7208 34.2678 38.8754 34.2684C39.0299 34.269 39.1785 34.2086 39.2887 34.1002L43.4488 29.94C43.9251 29.4616 44.1925 28.8141 44.1925 28.139C44.1925 27.464 43.9251 26.8164 43.4488 26.338C43.3276 26.2167 43.1944 26.108 43.0513 26.0133L43.3052 17.8251C43.318 17.3778 43.5045 16.9532 43.8251 16.6411C44.1457 16.329 44.5752 16.1541 45.0226 16.1533C45.0378 16.1533 45.053 16.1535 45.0683 16.1539C45.5234 16.1664 45.955 16.3589 46.2686 16.689C46.5821 17.0192 46.7521 17.4601 46.7412 17.9153C46.7406 17.9395 46.7415 17.9638 46.7439 17.9879L47.875 29.3882C47.9115 29.6914 47.8769 29.999 47.7742 30.2866C47.6714 30.5741 47.5033 30.8339 47.2829 31.0454L38.9615 39.3668C38.8004 39.5252 38.6729 39.7144 38.5864 39.9231C38.4999 40.1319 38.4563 40.3559 38.4582 40.5818V41.5642H28.361C28.3339 39.5697 28.9693 37.6225 30.1675 36.0277C31.3657 34.4329 33.0591 33.2807 34.9823 32.7514V32.7511ZM39.8198 43.2825V48.2815C39.8198 48.3533 39.8057 48.4244 39.7782 48.4908C39.7507 48.5571 39.7104 48.6174 39.6597 48.6682C39.6089 48.719 39.5486 48.7593 39.4822 48.7867C39.4159 48.8142 39.3448 48.8284 39.273 48.8284H27.5768C27.4317 48.8284 27.2926 48.7708 27.1901 48.6682C27.0875 48.5656 27.0299 48.4265 27.0299 48.2815V43.2829C27.0299 43.1378 27.0875 42.9987 27.1901 42.8962C27.2926 42.7936 27.4317 42.736 27.5768 42.736H39.2735C39.4184 42.7361 39.5574 42.7938 39.6598 42.8963C39.7623 42.9988 39.8198 43.1378 39.8198 43.2828V43.2825ZM37.269 45.0879C36.9356 45.0879 36.6125 45.2034 36.3547 45.4149C36.0969 45.6263 35.9205 45.9206 35.8554 46.2476C35.7903 46.5746 35.8406 46.914 35.9977 47.2081C36.1548 47.5021 36.409 47.7326 36.7171 47.8602C37.0251 47.9878 37.3678 48.0047 37.6868 47.908C38.0059 47.8112 38.2815 47.6068 38.4668 47.3296C38.652 47.0524 38.7354 46.7196 38.7027 46.3878C38.6701 46.056 38.5234 45.7458 38.2876 45.51C38.1542 45.3758 37.9955 45.2693 37.8206 45.1969C37.6457 45.1244 37.4582 45.0874 37.269 45.0879ZM37.4591 46.7188C37.4151 46.7628 37.3573 46.7902 37.2953 46.7963C37.2334 46.8024 37.1713 46.7868 37.1196 46.7523C37.0679 46.7177 37.0298 46.6663 37.0117 46.6068C36.9936 46.5473 36.9968 46.4833 37.0206 46.4259C37.0444 46.3684 37.0874 46.321 37.1422 46.2916C37.1971 46.2623 37.2604 46.2529 37.3214 46.2651C37.3824 46.2772 37.4373 46.3101 37.4768 46.3582C37.5163 46.4063 37.5378 46.4666 37.5378 46.5288C37.5379 46.5641 37.531 46.599 37.5174 46.6317C37.5039 46.6643 37.4841 46.6939 37.4591 46.7188ZM1.8883 31.8751L10.2097 40.1954C10.2622 40.2448 10.3036 40.3048 10.3312 40.3714C10.3587 40.438 10.3719 40.5097 10.3696 40.5818V41.6018C9.9846 41.6839 9.63934 41.8955 9.39146 42.2013C9.14358 42.5072 9.00807 42.8888 9.00754 43.2825V48.2815C9.00792 48.7372 9.18913 49.1742 9.51137 49.4964C9.83362 49.8187 10.2706 49.9999 10.7263 50.0003H22.4225C22.8781 49.9998 23.3149 49.8187 23.6371 49.4966C23.9593 49.1745 24.1406 48.7377 24.1412 48.2821V43.2827C24.1405 42.8946 24.0086 42.5181 23.7668 42.2145C23.5251 41.9108 23.1878 41.6978 22.8098 41.6101C22.8462 39.378 22.1485 37.1957 20.8239 35.3987C19.4993 33.6017 17.6211 32.2896 15.4781 31.664L10.1524 26.3379C9.91626 26.101 9.63552 25.9133 9.32637 25.7857C9.01723 25.658 8.68584 25.593 8.35138 25.5943C8.26955 25.5943 8.1884 25.5983 8.10793 25.6058L7.86603 17.7933C7.8427 17.0326 7.52027 16.3117 6.96872 15.7872C6.41718 15.2627 5.68104 14.9769 4.92007 14.9919C4.15911 15.0068 3.43474 15.3212 2.90419 15.867C2.37364 16.4127 2.07973 17.1456 2.08625 17.9067L0.958513 29.273C0.90445 29.7488 0.960146 30.2307 1.12132 30.6816C1.2825 31.1325 1.54488 31.5405 1.8883 31.8743V31.8751ZM22.969 48.2813C22.969 48.4263 22.9113 48.5654 22.8088 48.668C22.7062 48.7706 22.5671 48.8282 22.4221 48.8282H10.7258C10.5808 48.8281 10.4419 48.7704 10.3394 48.6678C10.237 48.5653 10.1794 48.4263 10.1794 48.2813V43.2823C10.1795 43.1374 10.2371 42.9985 10.3396 42.8961C10.442 42.7936 10.5809 42.736 10.7258 42.7359H22.4225C22.5674 42.7359 22.7065 42.7934 22.809 42.8959C22.9115 42.9984 22.9692 43.1373 22.9694 43.2823L22.969 48.2813ZM2.12472 29.3886L3.25588 17.9883C3.25822 17.9642 3.2591 17.9399 3.25851 17.9157C3.24762 17.4605 3.41753 17.0196 3.73105 16.6894C4.04457 16.3593 4.47614 16.1668 4.93127 16.1542C4.9466 16.1542 4.96174 16.1536 4.97697 16.1536C5.42472 16.1545 5.85451 16.3298 6.17517 16.6423C6.49583 16.9548 6.68213 17.3799 6.69455 17.8275L6.94797 26.0135C6.80489 26.1082 6.6717 26.2169 6.55041 26.3382C6.07414 26.8166 5.80676 27.4642 5.80676 28.1392C5.80676 28.8143 6.07414 29.4618 6.55041 29.9402L10.7106 34.1003C10.8208 34.2088 10.9693 34.2692 11.1239 34.2686C11.2785 34.268 11.4265 34.2063 11.5358 34.097C11.6451 33.9877 11.7068 33.8396 11.7074 33.6851C11.7081 33.5305 11.6476 33.3819 11.5392 33.2717L7.37902 29.1116C7.25133 28.9839 7.15004 28.8323 7.08093 28.6655C7.01182 28.4986 6.97625 28.3198 6.97625 28.1392C6.97625 27.9586 7.01182 27.7798 7.08093 27.613C7.15004 27.4461 7.25133 27.2945 7.37902 27.1669C7.50671 27.0392 7.65831 26.9379 7.82514 26.8688C7.99198 26.7997 8.1708 26.7641 8.35138 26.7641C8.53197 26.7641 8.71078 26.7997 8.87762 26.8688C9.04446 26.9379 9.19605 27.0392 9.32375 27.1669L14.7575 32.6006C14.8294 32.6726 14.9188 32.7246 15.0169 32.7514C16.9402 33.2807 18.6335 34.4331 19.8317 36.0279C21.0298 37.6227 21.6651 39.5699 21.638 41.5645H11.5415V40.5821C11.5434 40.3562 11.4998 40.1322 11.4133 39.9234C11.3269 39.7147 11.1993 39.5255 11.0382 39.3671L2.71681 31.0457C2.4965 30.8342 2.32833 30.5745 2.22558 30.2869C2.12283 29.9993 2.0883 29.6918 2.12472 29.3886ZM12.7303 45.0879C12.3969 45.0879 12.0738 45.2034 11.8161 45.4149C11.5584 45.6263 11.3819 45.9206 11.3168 46.2475C11.2517 46.5745 11.302 46.9139 11.4592 47.2079C11.6163 47.502 11.8705 47.7324 12.1785 47.86C12.4864 47.9876 12.8291 48.0045 13.1482 47.9078C13.4672 47.811 13.7428 47.6067 13.928 47.3295C14.1133 47.0523 14.1967 46.7195 14.164 46.3877C14.1314 46.0559 13.9847 45.7458 13.7489 45.51C13.6155 45.3758 13.4568 45.2693 13.2819 45.1969C13.1071 45.1244 12.9196 45.0874 12.7303 45.0879ZM12.9204 46.7188C12.8764 46.7629 12.8185 46.7904 12.7565 46.7965C12.6946 46.8027 12.6324 46.7872 12.5806 46.7526C12.5287 46.7181 12.4905 46.6666 12.4724 46.607C12.4543 46.5474 12.4574 46.4834 12.4812 46.4258C12.505 46.3683 12.548 46.3208 12.603 46.2914C12.6579 46.262 12.7213 46.2526 12.7824 46.2647C12.8435 46.2769 12.8984 46.3098 12.938 46.358C12.9775 46.4061 12.9991 46.4665 12.999 46.5288C12.9991 46.5641 12.9922 46.599 12.9787 46.6316C12.9652 46.6643 12.9454 46.6939 12.9204 46.7188ZM24.9986 28.1966C22.4574 28.2052 19.9651 27.4984 17.8068 26.1571L18.4986 28.3486C18.5218 28.422 18.5303 28.4992 18.5236 28.5759C18.5169 28.6525 18.4952 28.7271 18.4597 28.7954C18.4242 28.8637 18.3756 28.9243 18.3167 28.9737C18.2578 29.0232 18.1897 29.0606 18.1163 29.0838C18.0429 29.107 17.9657 29.1154 17.889 29.1088C17.8123 29.1021 17.7378 29.0804 17.6695 29.0449C17.6012 29.0094 17.5406 28.9608 17.4911 28.9018C17.4416 28.8429 17.4042 28.7748 17.3811 28.7014L16.1617 24.8383C16.1355 24.7554 16.1281 24.6677 16.1401 24.5815C16.152 24.4954 16.183 24.413 16.2307 24.3403C16.2784 24.2676 16.3417 24.2064 16.416 24.1613C16.4903 24.1161 16.5738 24.088 16.6603 24.0791L20.6894 23.6623C20.7665 23.6531 20.8447 23.6595 20.9193 23.6808C20.994 23.7022 21.0637 23.7382 21.1243 23.7867C21.1849 23.8352 21.2353 23.8953 21.2725 23.9635C21.3097 24.0317 21.333 24.1066 21.341 24.1838C21.349 24.2611 21.3415 24.3392 21.3191 24.4135C21.2966 24.4879 21.2596 24.557 21.2102 24.6169C21.1608 24.6768 21.1 24.7263 21.0313 24.7625C20.9626 24.7987 20.8873 24.8209 20.81 24.8278L18.31 25.0865C20.3081 26.3593 22.6295 27.0319 24.9986 27.0244C27.8797 27.0226 30.6723 26.028 32.906 24.2082C33.0264 24.1105 33.1806 24.0645 33.3349 24.0803C33.4891 24.0961 33.6308 24.1724 33.7289 24.2925C33.827 24.4126 33.8735 24.5666 33.8582 24.7209C33.8429 24.8752 33.7671 25.0172 33.6474 25.1157C31.2043 27.1063 28.1499 28.1942 24.9986 28.1962V28.1966ZM16.3497 3.9193C18.7927 1.92843 21.8471 0.840252 24.9986 0.838045C27.4842 0.831983 29.9236 1.50922 32.0504 2.79576L31.2898 0.793807C31.2357 0.648799 31.2412 0.48829 31.3051 0.347322C31.3689 0.206353 31.486 0.0963748 31.6306 0.0413954C31.7753 -0.0135839 31.9358 -0.00909866 32.0772 0.053872C32.2186 0.116843 32.3293 0.233184 32.3852 0.377498L33.824 4.16392C33.8549 4.2452 33.8673 4.33232 33.8604 4.41899C33.8534 4.50565 33.8272 4.58968 33.7838 4.66498C33.7403 4.74028 33.6806 4.80496 33.6091 4.85433C33.5375 4.90371 33.4559 4.93654 33.37 4.95045L29.3717 5.59801C29.2953 5.61123 29.2171 5.60918 29.1416 5.59197C29.066 5.57476 28.9946 5.54273 28.9316 5.49775C28.8685 5.45277 28.8149 5.39572 28.774 5.3299C28.7331 5.26408 28.7057 5.19081 28.6933 5.11432C28.6809 5.03783 28.6838 4.95964 28.7019 4.88429C28.7199 4.80893 28.7527 4.7379 28.7984 4.6753C28.844 4.6127 28.9017 4.55979 28.9679 4.51962C29.0342 4.47945 29.1078 4.45282 29.1844 4.44127L31.7956 4.01861C29.7738 2.70187 27.4116 2.00377 24.9987 2.00992C22.1175 2.01166 19.3248 3.00626 17.0911 4.82623C17.0316 4.87522 16.9629 4.91198 16.8892 4.93439C16.8154 4.9568 16.7379 4.96442 16.6611 4.95682C16.5844 4.94923 16.5099 4.92655 16.442 4.89011C16.374 4.85366 16.3139 4.80416 16.2651 4.74444C16.2163 4.68472 16.1798 4.61596 16.1576 4.5421C16.1355 4.46823 16.1281 4.39072 16.136 4.31401C16.1438 4.2373 16.1668 4.16289 16.2035 4.09506C16.2401 4.02722 16.2898 3.96729 16.3497 3.91871V3.9193ZM35.5889 21.1719C36.8484 19.1814 37.5134 16.8727 37.5058 14.5172C37.504 11.6361 36.5094 8.84352 34.6895 6.60992C34.6405 6.55037 34.6037 6.48173 34.5813 6.40794C34.5589 6.33416 34.5513 6.25667 34.5589 6.17993C34.5665 6.10319 34.5891 6.02871 34.6256 5.96075C34.662 5.89279 34.7115 5.83269 34.7713 5.7839C34.831 5.73511 34.8997 5.69859 34.9736 5.67644C35.0475 5.65428 35.125 5.64692 35.2017 5.65478C35.2784 5.66264 35.3528 5.68557 35.4206 5.72224C35.4885 5.75892 35.5484 5.80863 35.597 5.86851C37.5876 8.31152 38.6756 11.3659 38.6777 14.5172C38.6868 17.0723 37.9724 19.5778 36.6171 21.7438L38.857 21.0743C39.006 21.0298 39.1665 21.0463 39.3032 21.1201C39.44 21.194 39.5419 21.3191 39.5863 21.468C39.6308 21.617 39.6144 21.7775 39.5405 21.9142C39.4667 22.051 39.3415 22.1528 39.1926 22.1973L35.3114 23.3568C35.2281 23.3817 35.1403 23.3877 35.0544 23.3744C34.9685 23.3612 34.8866 23.329 34.8146 23.2801C34.7427 23.2313 34.6825 23.167 34.6385 23.0921C34.5945 23.0171 34.5677 22.9333 34.5601 22.8466L34.2056 18.8116C34.1979 18.7344 34.2055 18.6565 34.2281 18.5823C34.2507 18.5081 34.2879 18.4392 34.3373 18.3795C34.3868 18.3197 34.4476 18.2704 34.5162 18.2344C34.5849 18.1983 34.66 18.1763 34.7373 18.1695C34.8145 18.1627 34.8924 18.1713 34.9663 18.1948C35.0401 18.2183 35.1086 18.2563 35.1678 18.3065C35.2269 18.3566 35.2755 18.418 35.3107 18.4871C35.3459 18.5562 35.367 18.6316 35.3729 18.7089L35.5889 21.1719ZM14.4108 7.85777C13.15 9.84955 12.4841 12.1599 12.4913 14.5171C12.4931 17.3984 13.4877 20.1909 15.3076 22.4246C15.3566 22.4841 15.3934 22.5528 15.4158 22.6265C15.4382 22.7003 15.4458 22.7778 15.4382 22.8546C15.4306 22.9313 15.408 23.0058 15.3715 23.0737C15.3351 23.1417 15.2856 23.2018 15.2258 23.2506C15.1661 23.2994 15.0974 23.3359 15.0235 23.3581C14.9496 23.3802 14.8721 23.3876 14.7954 23.3797C14.7187 23.3718 14.6443 23.3489 14.5765 23.3122C14.5086 23.2756 14.4487 23.2259 14.4001 23.166C12.4094 20.723 11.3214 17.6685 11.3195 14.5171C11.3112 11.9638 12.025 9.46009 13.3785 7.29498L11.1437 7.96685C10.9948 8.01162 10.8343 7.99544 10.6974 7.92186C10.5606 7.84828 10.4585 7.72334 10.4137 7.57452C10.369 7.4257 10.3852 7.26519 10.4587 7.1283C10.5323 6.99141 10.6572 6.88936 10.8061 6.84459L14.6851 5.67789C14.7683 5.65292 14.8561 5.64677 14.942 5.65991C15.0279 5.67304 15.1098 5.70512 15.1818 5.75383C15.2538 5.80253 15.314 5.86664 15.3582 5.9415C15.4023 6.01637 15.4292 6.10012 15.437 6.18668L15.7989 10.2212C15.8128 10.3759 15.7647 10.5299 15.6651 10.6491C15.5655 10.7684 15.4226 10.8432 15.2678 10.8571C15.25 10.8587 15.2323 10.8594 15.2148 10.8594C15.0685 10.8593 14.9277 10.8044 14.8198 10.7057C14.712 10.607 14.6449 10.4715 14.6319 10.3258L14.4108 7.85777Z" fill="white" stroke="white"></path>
  </g>
  <defs>
    <clipPath id="clip0_217_281">
      <rect width="50" height="50" fill="white"></rect>
    </clipPath>
  </defs>
</svg>
