<?xml version="1.0" encoding="UTF-8"?>
<svg xmlns="http://www.w3.org/2000/svg" width="51" height="51" viewBox="0 0 51 51" fill="none">
  <g id="pattern-lock 1" clip-path="url(#clip0_328_572)">
    <g id="Group">
      <path id="Vector" d="M44.6177 12.5521C47.8612 12.5521 50.5001 9.91324 50.5001 6.66971C50.5001 3.42618 47.8612 0.787354 44.6177 0.787354C41.3742 0.787354 38.7354 3.42618 38.7354 6.66971C38.7354 9.91324 41.3742 12.5521 44.6177 12.5521ZM44.6177 3.72853C46.2395 3.72853 47.5589 5.04794 47.5589 6.66971C47.5589 8.29147 46.2395 9.61088 44.6177 9.61088C42.9959 9.61088 41.6765 8.29147 41.6765 6.66971C41.6765 5.04794 42.9959 3.72853 44.6177 3.72853Z" fill="white"></path>
      <path id="Vector_2" d="M6.38235 19.905C3.13882 19.905 0.5 22.5439 0.5 25.7874C0.5 29.0309 3.13882 31.6697 6.38235 31.6697C9.62588 31.6697 12.2647 29.0309 12.2647 25.7874C12.2647 22.5439 9.62588 19.905 6.38235 19.905ZM6.38235 28.7286C4.76059 28.7286 3.44118 27.4091 3.44118 25.7874C3.44118 24.1656 4.76059 22.8462 6.38235 22.8462C8.00412 22.8462 9.32353 24.1656 9.32353 25.7874C9.32353 27.4091 8.00412 28.7286 6.38235 28.7286Z" fill="white"></path>
      <path id="Vector_3" d="M44.6176 19.905C41.8818 19.905 39.5761 21.7824 38.9214 24.3167H31.1962C30.6629 22.2527 29.0346 20.6244 26.9705 20.0911V12.3659C29.5048 11.7112 31.3823 9.40557 31.3823 6.66958C31.3823 3.42606 28.7434 0.787231 25.4999 0.787231C22.764 0.787231 20.4583 2.66468 19.8037 5.199H12.0784C11.4239 2.66478 9.11824 0.787329 6.38235 0.787329C3.13882 0.787329 0.5 3.42615 0.5 6.66968C0.5 9.91321 3.13882 12.552 6.38235 12.552C9.11824 12.552 11.4239 10.6746 12.0785 8.14027H19.8038C20.3371 10.2043 21.9654 11.8327 24.0294 12.366V20.0912C21.4952 20.7459 19.6176 23.0515 19.6176 25.7874C19.6176 29.031 22.2565 31.6698 25.5 31.6698C28.2359 31.6698 30.5416 29.7923 31.1963 27.258H38.9215C39.0607 27.7968 39.2756 28.3054 39.5524 28.7731L28.4857 39.8396C27.6098 39.3214 26.5893 39.0226 25.5 39.0226C22.2565 39.0226 19.6176 41.6615 19.6176 44.905C19.6176 48.1485 22.2565 50.7873 25.5 50.7873C28.7435 50.7873 31.3824 48.1485 31.3824 44.905C31.3824 43.8157 31.0836 42.7952 30.5654 41.9193L41.632 30.8527C42.5078 31.371 43.5283 31.6697 44.6176 31.6697C47.8612 31.6697 50.5 29.0309 50.5 25.7873C50.5 22.5438 47.8612 19.905 44.6176 19.905ZM6.38235 9.61086C4.76059 9.61086 3.44118 8.29145 3.44118 6.66968C3.44118 5.04792 4.76059 3.72851 6.38235 3.72851C8.00412 3.72851 9.32353 5.04792 9.32353 6.66968C9.32353 8.29145 8.00412 9.61086 6.38235 9.61086ZM22.5588 6.66968C22.5588 5.04792 23.8782 3.72851 25.5 3.72851C27.1218 3.72851 28.4412 5.04792 28.4412 6.66968C28.4412 8.29145 27.1218 9.61086 25.5 9.61086C23.8782 9.61086 22.5588 8.29145 22.5588 6.66968ZM25.5 28.7285C23.8782 28.7285 22.5588 27.4091 22.5588 25.7873C22.5588 24.1656 23.8782 22.8462 25.5 22.8462C27.1218 22.8462 28.4412 24.1656 28.4412 25.7873C28.4412 27.4091 27.1218 28.7285 25.5 28.7285ZM25.5 47.8462C23.8782 47.8462 22.5588 46.5267 22.5588 44.905C22.5588 43.2832 23.8782 41.9638 25.5 41.9638C27.1218 41.9638 28.4412 43.2832 28.4412 44.905C28.4412 46.5267 27.1218 47.8462 25.5 47.8462ZM44.6176 28.7285C42.9959 28.7285 41.6765 27.4091 41.6765 25.7873C41.6765 24.1656 42.9959 22.8462 44.6176 22.8462C46.2394 22.8462 47.5588 24.1656 47.5588 25.7873C47.5588 27.4091 46.2394 28.7285 44.6176 28.7285Z" fill="white"></path>
      <path id="Vector_4" d="M6.38235 39.0226C3.13882 39.0226 0.5 41.6614 0.5 44.9049C0.5 48.1485 3.13882 50.7873 6.38235 50.7873C9.62588 50.7873 12.2647 48.1485 12.2647 44.9049C12.2647 41.6614 9.62588 39.0226 6.38235 39.0226ZM6.38235 47.8461C4.76059 47.8461 3.44118 46.5267 3.44118 44.9049C3.44118 43.2832 4.76059 41.9638 6.38235 41.9638C8.00412 41.9638 9.32353 43.2832 9.32353 44.9049C9.32353 46.5267 8.00412 47.8461 6.38235 47.8461Z" fill="white"></path>
      <path id="Vector_5" d="M44.6177 39.0226C41.3742 39.0226 38.7354 41.6614 38.7354 44.9049C38.7354 48.1485 41.3742 50.7873 44.6177 50.7873C47.8612 50.7873 50.5001 48.1485 50.5001 44.9049C50.5001 41.6614 47.8612 39.0226 44.6177 39.0226ZM44.6177 47.8461C42.9959 47.8461 41.6765 46.5267 41.6765 44.9049C41.6765 43.2832 42.9959 41.9638 44.6177 41.9638C46.2395 41.9638 47.5589 43.2832 47.5589 44.9049C47.5589 46.5267 46.2395 47.8461 44.6177 47.8461Z" fill="white"></path>
    </g>
  </g>
  <defs>
    <clipPath id="clip0_328_572">
      <rect width="50" height="50" fill="white" transform="translate(0.5 0.787354)"></rect>
    </clipPath>
  </defs>
</svg>
