<?xml version="1.0" encoding="UTF-8"?>
<svg xmlns="http://www.w3.org/2000/svg" width="94" height="92" viewBox="0 0 94 92" fill="none">
  <g id="Group 85709">
    <g id="Path 138456">
      <mask id="path-1-inside-1_642_1455" fill="white">
        <path d="M67.8897 0.00243333C69.419 0.586754 70.6087 1.49196 70.9546 3.20451C71.1472 4.02681 71.0674 4.8893 70.7273 5.66253C70.3872 6.43576 69.8051 7.07802 69.0683 7.49294C68.8311 7.60212 68.6355 7.78487 68.5108 8.01397C68.3861 8.24306 68.3388 8.50624 68.3761 8.76432C68.4 11.3081 68.4141 13.8533 68.3682 16.397C68.3203 16.6719 68.3832 16.9545 68.5431 17.1833C68.703 17.4122 68.9469 17.5686 69.2219 17.6187C71.3048 18.259 73.3633 18.9778 75.4549 19.5859C77.0091 20.0378 77.5618 20.6382 77.5647 22.2392C77.5705 26.1313 77.5857 30.0234 77.5437 33.9145C77.549 34.4683 77.359 35.0064 77.0071 35.4347C76.8123 35.5775 76.5847 35.669 76.3451 35.7008C76.1056 35.7327 75.8618 35.7038 75.6364 35.6168C75.4144 35.4627 75.2267 35.2645 75.0851 35.0345C74.9435 34.8046 74.851 34.5479 74.8135 34.2806C74.7028 32.9425 74.7735 31.5893 74.7725 30.2425C74.7725 27.8477 74.7594 25.4525 74.7823 23.0578C74.7872 22.5032 74.6677 22.2183 74.0584 22.0649C69.0992 20.7781 64.3612 18.7568 60.002 16.0683C55.523 13.2717 50.2614 11.9877 44.995 12.4061C41.4283 12.6704 37.9717 13.7577 34.8976 15.5824C30.1411 18.3939 25.2056 20.7867 19.8047 22.1019C19.1671 22.2573 19.2462 22.6833 19.2462 23.1294C19.2462 29.2355 19.2261 35.3431 19.2559 41.4502C19.27 44.3806 19.2418 47.3207 19.4754 50.2379C19.8455 54.4253 21.2679 58.4519 23.611 61.9448C23.7744 62.1956 23.9549 62.4366 24.1056 62.6947C24.214 62.8476 24.2902 63.021 24.3293 63.2042C24.3685 63.3875 24.3699 63.5767 24.3333 63.7605C24.2968 63.9443 24.2232 64.1188 24.117 64.2732C24.0107 64.4277 23.8741 64.5589 23.7154 64.659C23.5658 64.7642 23.3955 64.8361 23.2157 64.8699C23.036 64.9036 22.851 64.8985 22.6735 64.8548C22.4959 64.8111 22.3297 64.7298 22.1863 64.6164C22.0429 64.5031 21.9256 64.3604 21.8422 64.1978C20.6511 62.2348 19.5722 60.2061 18.6105 58.1214C16.8691 54.0462 16.3881 49.714 16.4511 45.3111C16.4618 44.6012 16.4511 43.8903 16.4511 43.0858C15.3438 43.0858 14.3297 43.0401 13.3253 43.1175C13.0741 43.1375 12.8043 43.5275 12.6292 43.7992C12.1595 44.5557 11.4558 45.1389 10.6246 45.4608C9.79342 45.7827 8.87982 45.8257 8.02195 45.5833C7.17158 45.3368 6.42482 44.8204 5.89478 44.1123C5.36474 43.4042 5.0803 42.543 5.08449 41.659C5.08868 40.7751 5.38128 39.9166 5.918 39.2136C6.45473 38.5105 7.20635 38.0012 8.05902 37.7627C8.91644 37.5144 9.83263 37.5613 10.6601 37.896C11.4875 38.2307 12.178 38.8336 12.6204 39.6077C12.7267 39.8473 12.9093 40.0453 13.1397 40.1709C13.3701 40.2965 13.6356 40.3428 13.895 40.3025C14.6979 40.2577 15.5048 40.2918 16.3828 40.2918V32.665C13.9609 32.665 11.5702 32.646 9.18047 32.6947C8.93657 32.6996 8.64388 33.0798 8.4712 33.3477C8.09242 34.0015 7.53375 34.5331 6.86144 34.8795C6.18913 35.226 5.43139 35.3727 4.67809 35.3022C3.875 35.2679 3.1024 34.9855 2.46704 34.494C1.83169 34.0025 1.36494 33.3261 1.13132 32.5583C0.80528 31.6145 0.841997 30.5835 1.23433 29.6651C1.62667 28.7468 2.34668 28.0067 3.25471 27.5882C4.13887 27.1544 5.15392 27.0675 6.09914 27.3448C7.04437 27.622 7.85096 28.2432 8.35949 29.0855C8.49051 29.3597 8.70555 29.5852 8.97346 29.7293C9.24137 29.8734 9.54828 29.9286 9.84973 29.887C12.0043 29.8529 14.1594 29.8739 16.4525 29.8739V28.1453C16.4525 26.1104 16.4374 24.074 16.4584 22.0391C16.4725 20.6888 17.016 19.9692 18.3267 19.6653C23.6002 18.4426 28.4074 16.1526 33.0796 13.4813C42.2945 8.21701 51.5671 8.21945 60.8318 13.3985C62.363 14.2535 63.8971 15.1071 65.5883 16.0488C65.5883 13.2938 65.5951 10.7578 65.5712 8.22187C65.5511 8.11373 65.5076 8.01124 65.4438 7.92153C65.3801 7.83182 65.2976 7.75702 65.202 7.70231C63.6371 6.83119 62.8001 5.50186 62.943 3.73283C63.0893 1.88687 64.1625 0.668072 65.9502 0.109559C66.0019 0.0934905 66.0429 0.037007 66.0888 0L67.8897 0.00243333ZM10.4761 41.684C10.4807 41.424 10.4077 41.1685 10.2664 40.95C10.1251 40.7316 9.92188 40.5601 9.68259 40.4573C9.4433 40.3546 9.17877 40.3253 8.92273 40.3731C8.66668 40.4209 8.43068 40.5437 8.2448 40.7259C8.05892 40.9081 7.93157 41.1414 7.87896 41.396C7.82634 41.6507 7.85085 41.9152 7.94937 42.156C8.04788 42.3967 8.21593 42.6027 8.43213 42.7477C8.64833 42.8928 8.90289 42.9703 9.16338 42.9704C9.33549 42.9766 9.50708 42.9477 9.66764 42.8856C9.82821 42.8234 9.97438 42.7292 10.0973 42.6088C10.2202 42.4884 10.3173 42.3442 10.3825 42.1851C10.4478 42.0261 10.48 41.8554 10.477 41.6835L10.4761 41.684ZM68.2799 4.01769C68.2655 3.76492 68.177 3.52196 68.0253 3.31907C67.8735 3.11619 67.6653 2.96234 67.4267 2.87669C67.188 2.79104 66.9293 2.77737 66.6829 2.83739C66.4365 2.89741 66.2133 3.02846 66.041 3.21422C65.8686 3.39998 65.7548 3.63225 65.7138 3.88209C65.6727 4.13193 65.7062 4.38831 65.8101 4.6193C65.9139 4.85029 66.0835 5.04569 66.2978 5.18115C66.5121 5.3166 66.7615 5.38614 67.0151 5.3811C67.3627 5.36356 67.6896 5.21102 67.9261 4.95608C68.1625 4.70114 68.2897 4.36401 68.2805 4.01671L68.2799 4.01769ZM4.96394 29.9713C4.71043 29.9828 4.46595 30.0687 4.26097 30.218C4.05599 30.3674 3.89959 30.5736 3.81125 30.8111C3.72292 31.0486 3.70655 31.3068 3.76421 31.5535C3.82187 31.8002 3.95101 32.0245 4.13551 32.1984C4.32001 32.3724 4.55171 32.4882 4.80173 32.5316C5.05176 32.575 5.30903 32.5439 5.5415 32.4423C5.77397 32.3407 5.97134 32.1731 6.109 31.9602C6.24666 31.7474 6.31854 31.4989 6.31565 31.2456C6.30034 30.8999 6.15082 30.5737 5.8988 30.3361C5.64678 30.0985 5.31204 29.9682 4.96542 29.9727L4.96394 29.9713Z"></path>
      </mask>
      <path d="M67.8897 0.00243333C69.419 0.586754 70.6087 1.49196 70.9546 3.20451C71.1472 4.02681 71.0674 4.8893 70.7273 5.66253C70.3872 6.43576 69.8051 7.07802 69.0683 7.49294C68.8311 7.60212 68.6355 7.78487 68.5108 8.01397C68.3861 8.24306 68.3388 8.50624 68.3761 8.76432C68.4 11.3081 68.4141 13.8533 68.3682 16.397C68.3203 16.6719 68.3832 16.9545 68.5431 17.1833C68.703 17.4122 68.9469 17.5686 69.2219 17.6187C71.3048 18.259 73.3633 18.9778 75.4549 19.5859C77.0091 20.0378 77.5618 20.6382 77.5647 22.2392C77.5705 26.1313 77.5857 30.0234 77.5437 33.9145C77.549 34.4683 77.359 35.0064 77.0071 35.4347C76.8123 35.5775 76.5847 35.669 76.3451 35.7008C76.1056 35.7327 75.8618 35.7038 75.6364 35.6168C75.4144 35.4627 75.2267 35.2645 75.0851 35.0345C74.9435 34.8046 74.851 34.5479 74.8135 34.2806C74.7028 32.9425 74.7735 31.5893 74.7725 30.2425C74.7725 27.8477 74.7594 25.4525 74.7823 23.0578C74.7872 22.5032 74.6677 22.2183 74.0584 22.0649C69.0992 20.7781 64.3612 18.7568 60.002 16.0683C55.523 13.2717 50.2614 11.9877 44.995 12.4061C41.4283 12.6704 37.9717 13.7577 34.8976 15.5824C30.1411 18.3939 25.2056 20.7867 19.8047 22.1019C19.1671 22.2573 19.2462 22.6833 19.2462 23.1294C19.2462 29.2355 19.2261 35.3431 19.2559 41.4502C19.27 44.3806 19.2418 47.3207 19.4754 50.2379C19.8455 54.4253 21.2679 58.4519 23.611 61.9448C23.7744 62.1956 23.9549 62.4366 24.1056 62.6947C24.214 62.8476 24.2902 63.021 24.3293 63.2042C24.3685 63.3875 24.3699 63.5767 24.3333 63.7605C24.2968 63.9443 24.2232 64.1188 24.117 64.2732C24.0107 64.4277 23.8741 64.5589 23.7154 64.659C23.5658 64.7642 23.3955 64.8361 23.2157 64.8699C23.036 64.9036 22.851 64.8985 22.6735 64.8548C22.4959 64.8111 22.3297 64.7298 22.1863 64.6164C22.0429 64.5031 21.9256 64.3604 21.8422 64.1978C20.6511 62.2348 19.5722 60.2061 18.6105 58.1214C16.8691 54.0462 16.3881 49.714 16.4511 45.3111C16.4618 44.6012 16.4511 43.8903 16.4511 43.0858C15.3438 43.0858 14.3297 43.0401 13.3253 43.1175C13.0741 43.1375 12.8043 43.5275 12.6292 43.7992C12.1595 44.5557 11.4558 45.1389 10.6246 45.4608C9.79342 45.7827 8.87982 45.8257 8.02195 45.5833C7.17158 45.3368 6.42482 44.8204 5.89478 44.1123C5.36474 43.4042 5.0803 42.543 5.08449 41.659C5.08868 40.7751 5.38128 39.9166 5.918 39.2136C6.45473 38.5105 7.20635 38.0012 8.05902 37.7627C8.91644 37.5144 9.83263 37.5613 10.6601 37.896C11.4875 38.2307 12.178 38.8336 12.6204 39.6077C12.7267 39.8473 12.9093 40.0453 13.1397 40.1709C13.3701 40.2965 13.6356 40.3428 13.895 40.3025C14.6979 40.2577 15.5048 40.2918 16.3828 40.2918V32.665C13.9609 32.665 11.5702 32.646 9.18047 32.6947C8.93657 32.6996 8.64388 33.0798 8.4712 33.3477C8.09242 34.0015 7.53375 34.5331 6.86144 34.8795C6.18913 35.226 5.43139 35.3727 4.67809 35.3022C3.875 35.2679 3.1024 34.9855 2.46704 34.494C1.83169 34.0025 1.36494 33.3261 1.13132 32.5583C0.80528 31.6145 0.841997 30.5835 1.23433 29.6651C1.62667 28.7468 2.34668 28.0067 3.25471 27.5882C4.13887 27.1544 5.15392 27.0675 6.09914 27.3448C7.04437 27.622 7.85096 28.2432 8.35949 29.0855C8.49051 29.3597 8.70555 29.5852 8.97346 29.7293C9.24137 29.8734 9.54828 29.9286 9.84973 29.887C12.0043 29.8529 14.1594 29.8739 16.4525 29.8739V28.1453C16.4525 26.1104 16.4374 24.074 16.4584 22.0391C16.4725 20.6888 17.016 19.9692 18.3267 19.6653C23.6002 18.4426 28.4074 16.1526 33.0796 13.4813C42.2945 8.21701 51.5671 8.21945 60.8318 13.3985C62.363 14.2535 63.8971 15.1071 65.5883 16.0488C65.5883 13.2938 65.5951 10.7578 65.5712 8.22187C65.5511 8.11373 65.5076 8.01124 65.4438 7.92153C65.3801 7.83182 65.2976 7.75702 65.202 7.70231C63.6371 6.83119 62.8001 5.50186 62.943 3.73283C63.0893 1.88687 64.1625 0.668072 65.9502 0.109559C66.0019 0.0934905 66.0429 0.037007 66.0888 0L67.8897 0.00243333ZM10.4761 41.684C10.4807 41.424 10.4077 41.1685 10.2664 40.95C10.1251 40.7316 9.92188 40.5601 9.68259 40.4573C9.4433 40.3546 9.17877 40.3253 8.92273 40.3731C8.66668 40.4209 8.43068 40.5437 8.2448 40.7259C8.05892 40.9081 7.93157 41.1414 7.87896 41.396C7.82634 41.6507 7.85085 41.9152 7.94937 42.156C8.04788 42.3967 8.21593 42.6027 8.43213 42.7477C8.64833 42.8928 8.90289 42.9703 9.16338 42.9704C9.33549 42.9766 9.50708 42.9477 9.66764 42.8856C9.82821 42.8234 9.97438 42.7292 10.0973 42.6088C10.2202 42.4884 10.3173 42.3442 10.3825 42.1851C10.4478 42.0261 10.48 41.8554 10.477 41.6835L10.4761 41.684ZM68.2799 4.01769C68.2655 3.76492 68.177 3.52196 68.0253 3.31907C67.8735 3.11619 67.6653 2.96234 67.4267 2.87669C67.188 2.79104 66.9293 2.77737 66.6829 2.83739C66.4365 2.89741 66.2133 3.02846 66.041 3.21422C65.8686 3.39998 65.7548 3.63225 65.7138 3.88209C65.6727 4.13193 65.7062 4.38831 65.8101 4.6193C65.9139 4.85029 66.0835 5.04569 66.2978 5.18115C66.5121 5.3166 66.7615 5.38614 67.0151 5.3811C67.3627 5.36356 67.6896 5.21102 67.9261 4.95608C68.1625 4.70114 68.2897 4.36401 68.2805 4.01671L68.2799 4.01769ZM4.96394 29.9713C4.71043 29.9828 4.46595 30.0687 4.26097 30.218C4.05599 30.3674 3.89959 30.5736 3.81125 30.8111C3.72292 31.0486 3.70655 31.3068 3.76421 31.5535C3.82187 31.8002 3.95101 32.0245 4.13551 32.1984C4.32001 32.3724 4.55171 32.4882 4.80173 32.5316C5.05176 32.575 5.30903 32.5439 5.5415 32.4423C5.77397 32.3407 5.97134 32.1731 6.109 31.9602C6.24666 31.7474 6.31854 31.4989 6.31565 31.2456C6.30034 30.8999 6.15082 30.5737 5.8988 30.3361C5.64678 30.0985 5.31204 29.9682 4.96542 29.9727L4.96394 29.9713Z" fill="url(#paint0_linear_642_1455)" stroke="#414141" stroke-opacity="0.13" stroke-width="2" mask="url(#path-1-inside-1_642_1455)"></path>
    </g>
    <g id="Path 138457">
      <path d="M93.0891 44.0173C92.5218 45.5147 91.6257 46.6867 89.9672 47.0621C89.1149 47.2643 88.2201 47.1859 87.4161 46.8389C86.6121 46.4918 85.942 45.8946 85.5058 45.1363C85.3521 44.8904 85.0732 44.552 84.8463 44.5491C82.4561 44.5062 80.0659 44.5233 77.6708 44.5233C77.5181 47.0753 77.3713 49.5426 77.2162 52.1418C78.3421 52.1418 79.5576 52.1759 80.7659 52.1102C80.9844 52.098 81.2108 51.6958 81.3791 51.4392C81.7641 50.7719 82.338 50.2331 83.0289 49.8905C83.7197 49.5478 84.4966 49.4166 85.2619 49.5134C86.079 49.5681 86.8577 49.8805 87.4853 50.4056C88.113 50.9308 88.5573 51.6414 88.7541 52.435C89.0284 53.3777 88.9488 54.388 88.5304 55.2764C88.1119 56.1649 87.3832 56.8704 86.4809 57.261C85.5965 57.6561 84.5982 57.7162 83.6726 57.4299C82.747 57.1437 81.9575 56.5307 81.4518 55.7057C81.3341 55.4408 81.1331 55.2215 80.8793 55.0809C80.6256 54.9403 80.3328 54.8862 80.0454 54.9266C79.0591 54.9836 78.0645 54.9047 77.0781 54.9665C76.923 54.9896 76.7757 55.0494 76.6484 55.1409C76.5211 55.2324 76.4176 55.3529 76.3464 55.4924C74.4236 62.4161 70.0051 67.5966 64.7144 72.1714C59.8182 76.3629 54.2567 79.7108 48.2582 82.0775C47.8621 82.2483 47.435 82.3356 47.0036 82.3341C46.5722 82.3326 46.1457 82.2423 45.7509 82.0688C41.9145 80.533 38.245 78.6107 34.7994 76.3317C34.653 76.2343 34.5013 76.1525 34.255 76.006C34.2272 76.2767 34.1901 76.4661 34.1901 76.656C34.1862 78.9003 34.1662 81.1455 34.2111 83.3898C34.2256 83.5774 34.2794 83.7599 34.369 83.9254C34.4587 84.0909 34.5822 84.2357 34.7316 84.3505C36.493 85.4598 37.2681 87.3393 36.6535 89.2024C36.3642 90.0846 35.7808 90.8412 35.0005 91.3463C34.2202 91.8514 33.2902 92.0743 32.3652 91.978C31.4403 91.8818 30.5763 91.4721 29.9172 90.8172C29.2581 90.1623 28.8436 89.3018 28.7429 88.3789C28.5185 86.8733 29.3604 85.3113 30.8043 84.3793C30.9584 84.271 31.088 84.1316 31.1849 83.9703C31.2817 83.8089 31.3437 83.6291 31.3667 83.4424C31.4097 80.4793 31.4097 77.5163 31.3667 74.5534C31.3251 74.1315 31.1313 73.739 30.8214 73.4491C29.1219 71.848 27.3741 70.2986 25.6507 68.72C25.4044 68.5433 25.2213 68.2925 25.1281 68.0044C25.035 67.7163 25.0368 67.406 25.1332 67.1189C25.4961 66.1032 26.6634 65.9201 27.538 66.7294C29.099 68.1722 30.6111 69.6763 32.2409 71.0358C36.5043 74.535 41.2903 77.3462 46.425 79.3673C46.7434 79.4989 47.0977 79.5162 47.4274 79.416C56.0214 75.9841 63.3901 70.8352 69.1983 63.6062C72.2714 59.7752 74.1307 55.1167 74.5387 50.2257C74.7753 47.701 74.7065 45.148 74.7669 42.6072C74.784 41.8894 74.7528 41.1702 74.7738 40.4525C74.8035 39.4509 75.3821 38.8057 76.1953 38.8256C76.9757 38.8446 77.5157 39.466 77.5611 40.4218C77.5781 40.808 77.564 41.1965 77.564 41.7302H79.6376C81.2874 41.7302 82.9371 41.7473 84.5858 41.7122C84.7354 41.707 84.8821 41.67 85.0162 41.6036C85.1502 41.5371 85.2684 41.4429 85.3629 41.327C86.2507 39.7688 87.578 38.9376 89.3487 39.0808C91.196 39.2303 92.4218 40.2923 92.9754 42.0837C92.9915 42.1353 93.0491 42.1743 93.0881 42.2201L93.0891 44.0173ZM86.1624 53.5588C86.1708 53.2993 86.1016 53.0432 85.9638 52.8231C85.8259 52.603 85.6256 52.4287 85.3883 52.3226C85.1509 52.2165 84.8873 52.1832 84.631 52.227C84.3746 52.2709 84.1372 52.3899 83.9488 52.5688C83.7604 52.7478 83.6296 52.9787 83.573 53.2321C83.5164 53.4855 83.5367 53.7499 83.6312 53.9918C83.7256 54.2337 83.89 54.4421 84.1034 54.5904C84.3169 54.7388 84.5697 54.8204 84.8297 54.8248C85.0017 54.8336 85.1737 54.8074 85.3351 54.7477C85.4966 54.688 85.6442 54.5961 85.7689 54.4776C85.8937 54.3591 85.9929 54.2164 86.0606 54.0584C86.1284 53.9004 86.1632 53.7302 86.1629 53.5583L86.1624 53.5588ZM90.3755 43.1053C90.382 42.8392 90.3087 42.5772 90.1651 42.3529C90.0214 42.1287 89.8139 41.9524 89.5692 41.8466C89.3245 41.7408 89.0537 41.7104 88.7916 41.7593C88.5294 41.8082 88.2879 41.9341 88.0979 42.121C87.908 42.3078 87.7783 42.547 87.7254 42.8079C87.6726 43.0688 87.699 43.3396 87.8013 43.5854C87.9036 43.8312 88.0772 44.0409 88.2997 44.1876C88.5222 44.3343 88.7835 44.4114 89.0501 44.4088C89.3974 44.406 89.7301 44.2684 89.9775 44.0251C90.225 43.7818 90.3674 43.4519 90.3755 43.1053ZM32.7667 89.2778C33.0331 89.291 33.2974 89.2244 33.5257 89.0866C33.7539 88.9489 33.9358 88.7462 34.0479 88.5046C34.16 88.2629 34.1972 87.9934 34.1549 87.7305C34.1125 87.4676 33.9924 87.2233 33.8101 87.029C33.6277 86.8347 33.3913 86.6992 33.1313 86.6398C32.8713 86.5805 32.5994 86.6 32.3505 86.6959C32.1017 86.7918 31.8872 86.9598 31.7346 87.1782C31.582 87.3966 31.4983 87.6555 31.494 87.9217C31.4887 88.2688 31.6188 88.6043 31.8569 88.8573C32.095 89.1103 32.4223 89.2609 32.7696 89.2773L32.7667 89.2778Z" fill="url(#paint1_linear_642_1455)"></path>
      <path d="M33.6901 76.6552C33.6902 76.4994 33.7128 76.3203 33.7338 76.1548C33.7426 76.0848 33.7512 76.0172 33.7576 75.9549L33.8376 75.1758L34.5106 75.5763C34.5819 75.6187 34.649 75.6577 34.7125 75.6947C34.8479 75.7734 34.9671 75.8428 35.0757 75.9151C38.4929 78.1751 42.132 80.0815 45.9367 81.6046L45.9444 81.6077L45.952 81.611C46.284 81.7569 46.6426 81.8328 47.0053 81.8341C47.3681 81.8354 47.7272 81.7619 48.0602 81.6184L48.0674 81.6153L48.0746 81.6124C54.0211 79.2662 59.5345 75.9474 64.3882 71.7924C69.6444 67.2473 73.9796 62.1461 75.8647 55.3586L75.8781 55.3101L75.901 55.2653C76.0084 55.0547 76.1646 54.8728 76.3566 54.7349C76.5485 54.5969 76.7707 54.5068 77.0045 54.472L77.0256 54.4688L77.0469 54.4675C77.5609 54.4353 78.0739 54.4399 78.5667 54.4448L78.5852 54.4449C79.0707 54.4497 79.5366 54.4543 79.998 54.4285C80.3857 54.3787 80.7794 54.454 81.1216 54.6436C81.4597 54.8308 81.7297 55.1199 81.8934 55.4692C82.3362 56.1781 83.02 56.7047 83.8203 56.9522C84.63 57.2026 85.5033 57.1501 86.277 56.8044L86.2823 56.8021L86.2823 56.8021C87.0731 56.4598 87.7115 55.8416 88.078 55.0634C88.4446 54.2852 88.5142 53.4003 88.274 52.5746L88.2712 52.565L88.2688 52.5553C88.0975 51.8648 87.7109 51.2463 87.1645 50.7891C86.6181 50.332 85.9401 50.0599 85.2285 50.0122L85.2138 50.0113L85.1992 50.0094C84.5315 49.925 83.8537 50.0395 83.251 50.3384C82.6484 50.6373 82.1479 51.1072 81.8121 51.6891L81.805 51.7014L81.7972 51.7134C81.7822 51.7362 81.7645 51.7639 81.7447 51.795C81.6754 51.9037 81.5801 52.053 81.4852 52.1744C81.4214 52.2558 81.3397 52.3494 81.2416 52.4275C81.1475 52.5024 80.9945 52.5982 80.7937 52.6094L80.7931 52.6094C79.8711 52.6596 78.9394 52.6526 78.0633 52.6461C77.7741 52.6439 77.491 52.6418 77.2162 52.6418H76.6855L76.7171 52.112C76.7727 51.1807 76.8272 50.2662 76.8813 49.3588C76.9782 47.7337 77.0737 46.131 77.1717 44.4934L77.1998 44.0233H77.6708C78.1997 44.0233 78.7289 44.0224 79.2584 44.0216C81.1222 44.0186 82.9893 44.0157 84.8553 44.0492C85.0305 44.052 85.1768 44.1169 85.2792 44.1778C85.3853 44.241 85.4782 44.3202 85.5546 44.3956C85.7073 44.5462 85.8389 44.7258 85.9298 44.8714L85.9347 44.8791L85.9392 44.887C86.3216 45.5517 86.9091 46.0754 87.6142 46.3798C88.3194 46.6842 89.1043 46.7529 89.8518 46.5756L89.8568 46.5744C91.2598 46.2569 92.0541 45.2925 92.5891 43.9246L92.5882 42.4121C92.5557 42.3664 92.521 42.3061 92.4981 42.2326L92.4977 42.2314C92.2435 41.4089 91.8451 40.7846 91.3261 40.3498C90.809 39.9166 90.1426 39.6467 89.3084 39.5792C88.5151 39.515 87.8436 39.6694 87.2753 39.9986C86.7034 40.3298 86.2073 40.8549 85.7973 41.5746L85.7767 41.6108L85.7503 41.6431C85.6107 41.8142 85.4361 41.9535 85.2382 42.0516C85.0403 42.1497 84.8237 42.2043 84.603 42.2119L84.5964 42.2121L84.5964 42.2121C83.3476 42.2386 82.0962 42.2354 80.8517 42.2323C80.4462 42.2312 80.0414 42.2302 79.6376 42.2302H77.564H77.064V41.7302C77.064 41.5387 77.0656 41.371 77.0671 41.2182C77.07 40.9263 77.0723 40.6891 77.0616 40.4452M33.6901 76.6552L77.5611 40.4218M33.6901 76.6552C33.6893 77.0994 33.6879 77.5442 33.6865 77.9895C33.6808 79.7887 33.6751 81.595 33.7112 83.3998L33.7115 83.4141L33.7126 83.4283C33.7325 83.6859 33.8063 83.9364 33.9294 84.1636L34.369 83.9254M33.6901 76.6552L31.1635 73.0845M77.0616 40.4452C77.0616 40.4447 77.0616 40.4443 77.0615 40.4439L77.5611 40.4218M77.0616 40.4452C77.0616 40.4453 77.0616 40.4454 77.0616 40.4455L77.5611 40.4218M77.0616 40.4452C77.0429 40.0533 76.9252 39.7735 76.7746 39.5983C76.6298 39.4298 76.4337 39.3316 76.1831 39.3255L76.183 39.3255C75.9221 39.3191 75.7169 39.415 75.5661 39.5863C75.4089 39.7648 75.2858 40.0564 75.2736 40.4671M77.5611 40.4218C77.5157 39.466 76.9757 38.8446 76.1953 38.8256C75.3821 38.8057 74.8035 39.4509 74.7738 40.4525M75.2736 40.4671L74.7738 40.4525M75.2736 40.4671C75.2634 40.8152 75.2658 41.1655 75.2689 41.5256L75.2693 41.5702C75.2722 41.9134 75.2752 42.2659 75.2668 42.6191C75.2492 43.3584 75.2427 44.1058 75.2362 44.8577C75.2206 46.6537 75.2048 48.4748 75.0368 50.2698L74.7738 40.4525M75.2736 40.4671C75.2736 40.4672 75.2736 40.4673 75.2736 40.4673L74.7738 40.4525M36.6535 89.2024C37.2681 87.3393 36.493 85.4598 34.7316 84.3505C34.5822 84.2357 34.4587 84.0909 34.369 83.9254M36.6535 89.2024L34.2111 83.3898C34.2256 83.5774 34.2794 83.7599 34.369 83.9254M36.6535 89.2024C36.3642 90.0846 35.7808 90.8412 35.0005 91.3463M36.6535 89.2024L35.0005 91.3463M34.369 83.9254L33.9294 84.1636C34.0525 84.3907 34.222 84.5895 34.4268 84.7469L34.4453 84.7612L34.4651 84.7736C36.0585 85.7771 36.712 87.4291 36.1787 89.0457L36.1784 89.0465C35.9247 89.82 35.4132 90.4836 34.7288 90.9266C34.0444 91.3696 33.2285 91.5652 32.417 91.4807C31.6055 91.3963 30.8476 91.0368 30.2696 90.4625C29.6916 89.8882 29.3282 89.1337 29.2399 88.3247L29.2388 88.3149L29.2374 88.3052C29.0482 87.036 29.7574 85.6501 31.0755 84.7994L31.0838 84.794L31.0919 84.7883C31.303 84.6399 31.4807 84.4489 31.6136 84.2276C31.7464 84.0064 31.8314 83.7598 31.863 83.5036L31.8663 83.4767L31.8667 83.4497C31.9097 80.4817 31.9097 77.5139 31.8667 74.5462L31.8664 74.5252L31.8643 74.5043C31.8108 73.9617 31.5616 73.4572 31.1635 73.0845M31.1635 73.0845C31.1633 73.0843 31.1631 73.0841 31.163 73.084L30.8214 73.4491M31.1635 73.0845C30.0555 72.0407 28.9235 71.0155 27.7952 69.9937C27.1904 69.446 26.5867 68.8993 25.9885 68.3513L25.9664 68.3311L25.9422 68.3137C25.7826 68.1992 25.6641 68.0369 25.6039 67.8506C25.5442 67.6658 25.5448 67.4669 25.6057 67.2825M30.8214 73.4491C29.7163 72.4081 28.5909 71.3889 27.4651 70.3693C26.8594 69.8208 26.2536 69.2722 25.6507 68.72C25.4044 68.5433 25.2213 68.2925 25.1281 68.0044C25.035 67.7163 25.0368 67.406 25.1332 67.1189M30.8214 73.4491C31.1313 73.739 31.3251 74.1315 31.3667 74.5534L30.8214 73.4491ZM25.1332 67.1189L25.604 67.2872C25.6046 67.2856 25.6051 67.2841 25.6057 67.2825M25.1332 67.1189C25.4961 66.1032 26.6634 65.9201 27.538 66.7294L25.6057 67.2825M25.1332 67.1189L25.6072 67.2781C25.6067 67.2796 25.6062 67.2811 25.6057 67.2825M90.5861 42.0832C90.7834 42.3913 90.8842 42.7513 90.8754 43.117C90.8754 43.1172 90.8753 43.1173 90.8753 43.1175L90.5861 42.0832ZM90.5861 42.0832C90.3887 41.775 90.1036 41.5328 89.7675 41.3876M90.5861 42.0832L89.7675 41.3876M89.7675 41.3876C89.4315 41.2424 89.0598 41.2007 88.6999 41.2678M89.7675 41.3876L88.6999 41.2678M88.6999 41.2678C88.3401 41.3349 88.0083 41.5078 87.7473 41.7645M88.6999 41.2678L87.7473 41.7645M87.7473 41.7645C87.4863 42.0212 87.308 42.3499 87.2354 42.7086M87.7473 41.7645L87.2354 42.7086M87.2354 42.7086C87.1627 43.0673 87.199 43.4396 87.3397 43.7775M87.2354 42.7086L87.3397 43.7775M87.3397 43.7775C87.4803 44.1155 87.7189 44.4036 88.0244 44.6051M87.3397 43.7775L88.0244 44.6051M88.0244 44.6051C88.3298 44.8064 88.6883 44.9122 89.0542 44.9088L88.0244 44.6051ZM35.0005 91.3463C34.2202 91.8514 33.2902 92.0743 32.3652 91.978M35.0005 91.3463L32.3652 91.978M32.3652 91.978C31.4403 91.8818 30.5763 91.4721 29.9172 90.8172M32.3652 91.978L29.9172 90.8172M29.9172 90.8172C29.2581 90.1623 28.8436 89.3018 28.7429 88.3789L29.9172 90.8172ZM77.5671 41.2302H77.564V41.7302C77.564 41.5526 77.5655 41.3911 77.567 41.2404C77.567 41.237 77.5671 41.2336 77.5671 41.2302ZM86.6629 53.5575L86.6629 53.5452C86.6632 53.5241 86.6632 53.503 86.6628 53.482L86.6608 52.343L86.4108 52.596C86.4032 52.5832 86.3955 52.5704 86.3875 52.5577C86.197 52.2535 85.9202 52.0128 85.5924 51.8662C85.2646 51.7196 84.9006 51.6737 84.5466 51.7342C84.1927 51.7948 83.8647 51.9591 83.6044 52.2063C83.3441 52.4536 83.1632 52.7727 83.085 53.1232C83.0068 53.4736 83.0349 53.8393 83.1654 54.1737C83.296 54.5081 83.5232 54.7961 83.8181 55.001C84.1106 55.2043 84.4566 55.3168 84.8127 55.3246C85.0495 55.3356 85.2862 55.2989 85.5085 55.2166C85.7336 55.1334 85.9394 55.0053 86.1133 54.84C86.2873 54.6748 86.4257 54.4759 86.5202 54.2553C86.6147 54.0349 86.6633 53.7974 86.6629 53.5575ZM31.4928 89.2C31.8189 89.5465 32.2668 89.7531 32.742 89.7766L32.742 89.7772C33.1078 89.7953 33.4706 89.7039 33.784 89.5147C34.0975 89.3255 34.3474 89.0471 34.5014 88.715C34.6555 88.3829 34.7067 88.0124 34.6485 87.6509C34.5902 87.2895 34.4252 86.9538 34.1747 86.6869L33.8101 87.029L34.1747 86.6869C33.9241 86.4199 33.5995 86.2338 33.2426 86.1523C32.8856 86.0709 32.5124 86.0977 32.1707 86.2294L32.3505 86.6959L32.1707 86.2294C31.8291 86.3611 31.5345 86.5917 31.3248 86.8918C31.1151 87.1919 30.9999 87.5478 30.9941 87.9138L30.9941 87.914C30.9868 88.3912 31.1657 88.8524 31.4928 89.2Z" stroke="#414141" stroke-opacity="0.13"></path>
    </g>
    <g id="Path 138458">
      <path d="M21.8533 36.8472C21.8533 33.3737 21.8533 29.9012 21.8533 26.4297C21.8533 24.8126 22.3021 24.2872 23.7894 23.7097C26.1562 22.7938 28.4912 21.7931 30.84 20.8285C31.66 20.492 32.3561 20.6625 32.7283 21.3052C32.9047 21.5714 32.9744 21.8941 32.9236 22.2093C32.8728 22.5244 32.7053 22.809 32.4541 23.0066C32.2473 23.1785 32.0125 23.3139 31.76 23.4068C29.6405 24.2989 27.5259 25.2085 25.3854 26.0475C25.1462 26.1015 24.9359 26.2432 24.7963 26.4445C24.6566 26.6459 24.5978 26.8922 24.6313 27.1348C24.6564 33.6922 24.6599 40.2486 24.642 46.804C24.6162 53.6532 27.383 59.214 32.2804 63.8842C36.3772 67.8453 41.1228 71.0774 46.3119 73.4402C46.6752 73.6159 47.0913 73.6489 47.4778 73.5327C54.4816 70.3896 60.539 65.978 65.2438 59.8791C67.8786 56.4551 69.3117 52.261 69.3223 47.9434C69.4252 40.97 69.3574 33.9932 69.3832 27.0189C69.4133 26.8017 69.358 26.5813 69.229 26.4039C69.1 26.2265 68.9072 26.1057 68.6911 26.0669C64.6477 24.6628 60.7616 22.8429 57.0952 20.6367C50.546 16.8103 43.9471 16.71 37.3086 20.4117C36.3331 20.9561 35.5594 20.8387 35.1272 20.0942C34.6824 19.3263 34.9497 18.5906 35.936 18.0413C43.1095 14.0406 50.3748 13.8395 57.5942 17.8022C61.7975 20.1093 66.0116 22.3433 70.5784 23.8587C71.7661 24.2531 72.1652 24.9392 72.1661 26.3596C72.17 31.5985 72.2013 36.8379 72.1554 42.0759C72.1305 44.8548 72.1334 47.6493 71.8364 50.4063C71.2778 55.5878 69.0506 60.05 65.5175 63.8885C60.7167 69.1027 54.8973 73.2803 48.4178 76.1641C47.993 76.378 47.5246 76.4913 47.0489 76.4951C46.5732 76.4989 46.103 76.3931 45.6749 76.1861C38.3906 72.9236 32.0839 68.3523 27.0493 62.1492C23.4006 57.6529 21.9177 52.3589 21.8606 46.636C21.8275 43.3735 21.8543 40.1111 21.8533 36.8472Z" fill="url(#paint2_linear_642_1455)"></path>
      <path d="M32.3031 21.5688L32.2956 21.5558C32.1721 21.3426 32.0129 21.2303 31.8306 21.1847C31.6377 21.1364 31.37 21.1515 31.0299 21.291C30.3328 21.5773 29.6349 21.8676 28.9358 22.1585C27.2891 22.8435 25.6356 23.5313 23.9698 24.176C23.2405 24.4592 22.8746 24.6927 22.6665 24.9759C22.4643 25.2511 22.3533 25.6541 22.3533 26.4297V26.45V26.4704V26.4907V26.5111V26.5314V26.5517V26.5721V26.5924V26.6128V26.6331V26.6535V26.6738V26.6941V26.7145V26.7348V26.7552V26.7755V26.7958V26.8162V26.8365V26.8569V26.8772V26.8975V26.9179V26.9382V26.9586V26.9789V26.9993V27.0196V27.0399V27.0603V27.0806V27.101V27.1213V27.1416V27.162V27.1823V27.2027V27.223V27.2434V27.2637V27.284V27.3044V27.3247V27.3451V27.3654V27.3857V27.4061V27.4264V27.4468V27.4671V27.4875V27.5078V27.5281V27.5485V27.5688V27.5892V27.6095V27.6299V27.6502V27.6705V27.6909V27.7112V27.7316V27.7519V27.7723V27.7926V27.8129V27.8333V27.8536V27.874V27.8943V27.9146V27.935V27.9553V27.9757V27.996V28.0164V28.0367V28.057V28.0774V28.0977V28.1181V28.1384V28.1588V28.1791V28.1994V28.2198V28.2401V28.2605V28.2808V28.3012V28.3215V28.3418V28.3622V28.3825V28.4029V28.4232V28.4436V28.4639V28.4842V28.5046V28.5249V28.5453V28.5656V28.586V28.6063V28.6266V28.647V28.6673V28.6877V28.708V28.7284V28.7487V28.7691V28.7894V28.8097V28.8301V28.8504V28.8708V28.8911V28.9115V28.9318V28.9521V28.9725V28.9928V29.0132V29.0335V29.0539V29.0742V29.0946V29.1149V29.1352V29.1556V29.1759V29.1963V29.2166V29.237V29.2573V29.2776V29.298V29.3183V29.3387V29.359V29.3794V29.3997V29.4201V29.4404V29.4607V29.4811V29.5014V29.5218V29.5421V29.5625V29.5828V29.6032V29.6235V29.6438V29.6642V29.6845V29.7049V29.7252V29.7456V29.7659V29.7863V29.8066V29.8269V29.8473V29.8676V29.888V29.9083V29.9287V29.949V29.9694V29.9897V30.01V30.0304V30.0507V30.0711V30.0914V30.1118V30.1321V30.1525V30.1728V30.1931V30.2135V30.2338V30.2542V30.2745V30.2949V30.3152V30.3356V30.3559V30.3763V30.3966V30.4169V30.4373V30.4576V30.478V30.4983V30.5187V30.539V30.5594V30.5797V30.6001V30.6204V30.6407V30.6611V30.6814V30.7018V30.7221V30.7425V30.7628V30.7832V30.8035V30.8239V30.8442V30.8645V30.8849V30.9052V30.9256V30.9459V30.9663V30.9866V31.007V31.0273V31.0477V31.068V31.0884V31.1087V31.129V31.1494V31.1697V31.1901V31.2104V31.2308V31.2511V31.2715V31.2918V31.3122V31.3325V31.3529V31.3732V31.3935V31.4139V31.4342V31.4546V31.4749V31.4953V31.5156V31.536V31.5563V31.5767V31.597V31.6174V31.6377V31.658V31.6784V31.6987V31.7191V31.7394V31.7598V31.7801V31.8005V31.8208V31.8412V31.8615V31.8819V31.9022V31.9226V31.9429V31.9633V31.9836V32.0039V32.0243V32.0446V32.065V32.0853V32.1057V32.126V32.1464V32.1667V32.1871V32.2074V32.2278V32.2481V32.2685V32.2888V32.3092V32.3295V32.3498V32.3702V32.3905V32.4109V32.4312V32.4516V32.4719V32.4923V32.5126V32.533V32.5533V32.5737V32.594V32.6144V32.6347V32.6551V32.6754V32.6958V32.7161V32.7365V32.7568V32.7771V32.7975V32.8178V32.8382V32.8585V32.8789V32.8992V32.9196V32.9399V32.9603V32.9806V33.001V33.0213V33.0417V33.062V33.0824V33.1027V33.1231V33.1434V33.1638V33.1841V33.2045V33.2248V33.2452V33.2655V33.2858V33.3062V33.3265V33.3469V33.3672V33.3876V33.4079V33.4283V33.4486V33.469V33.4893V33.5097V33.53V33.5504V33.5707V33.5911V33.6114V33.6318V33.6521V33.6725V33.6928V33.7132V33.7335V33.7539V33.7742V33.7946V33.8149V33.8353V33.8556V33.876V33.8963V33.9167V33.937V33.9574V33.9777V33.9981V34.0184V34.0388V34.0591V34.0795V34.0998V34.1202V34.1405V34.1609V34.1812V34.2015V34.2219V34.2422V34.2626V34.2829V34.3033V34.3236V34.344V34.3643V34.3847V34.405V34.4254V34.4457V34.4661V34.4864V34.5068V34.5271V34.5475V34.5678V34.5882V34.6085V34.6289V34.6492V34.6696V34.6899V34.7103V34.7306V34.751V34.7713V34.7917V34.812V34.8324V34.8527V34.8731V34.8934V34.9138V34.9341V34.9545V34.9748V34.9952V35.0155V35.0359V35.0562V35.0766V35.0969V35.1173V35.1376V35.158V35.1783V35.1987V35.219V35.2394V35.2598V35.2801V35.3005V35.3208V35.3412V35.3615V35.3819V35.4022V35.4226V35.4429V35.4633V35.4836V35.504V35.5243V35.5447V35.565V35.5854V35.6057V35.6261V35.6464V35.6668V35.6871V35.7075V35.7278V35.7482V35.7685V35.7889V35.8092V35.8296V35.8499V35.8703V35.8906V35.911V35.9313V35.9517V35.972V35.9924V36.0127V36.0331V36.0534V36.0738V36.0941V36.1145V36.1348V36.1552V36.1755V36.1959V36.2163V36.2366V36.257V36.2773V36.2977V36.318V36.3384V36.3587V36.3791V36.3994V36.4198V36.4401V36.4605V36.4808V36.5012V36.5215V36.5419V36.5622V36.5826V36.6029V36.6233V36.6436V36.664V36.6843V36.7047V36.725V36.7454V36.7658V36.7861V36.8065V36.8268L22.3533 36.847C22.3533 36.8471 22.3533 36.8471 22.3533 36.8472C22.3536 37.8836 22.3511 38.9185 22.3487 39.9526C22.3433 42.1807 22.338 44.4047 22.3606 46.6309L22.3606 46.631C22.4168 52.2673 23.8751 57.4441 27.4376 61.8342C32.4169 67.9692 38.6575 72.4953 45.8792 75.7297L45.8859 75.7327L45.8926 75.7359C46.2516 75.9096 46.6459 75.9983 47.0449 75.9951C47.4439 75.9919 47.8367 75.8969 48.1929 75.7176L48.2035 75.7122L48.2144 75.7073C54.6317 72.8512 60.3951 68.7138 65.1496 63.5499C68.6194 59.7802 70.7936 55.4151 71.3392 50.3528C71.6083 47.8562 71.6288 45.3269 71.6495 42.7777C71.6514 42.5424 71.6533 42.307 71.6554 42.0714C71.6893 38.2073 71.6811 34.3435 71.673 30.4765C71.6701 29.1048 71.6672 27.7326 71.6661 26.3599C71.6657 25.6849 71.5682 25.27 71.393 24.9889C71.227 24.7226 70.9477 24.5082 70.4209 24.3332C65.8063 22.802 61.5565 20.5474 57.3536 18.2405L57.5942 17.8022L57.3536 18.2405C50.2929 14.365 43.2107 14.5567 36.1795 18.478L36.1793 18.4781C35.7441 18.7205 35.5386 18.9656 35.4614 19.1658C35.3916 19.3466 35.3979 19.5639 35.5598 19.8435L32.3031 21.5688ZM32.3031 21.5688L32.3115 21.5814M32.3031 21.5688L32.3115 21.5814M32.3115 21.5814C32.4185 21.743 32.4608 21.9387 32.43 22.1297C32.3992 22.3208 32.2976 22.4935 32.145 22.6136L32.1449 22.6134M32.3115 21.5814L32.1449 22.6134M32.1449 22.6134L32.1345 22.6221M32.1449 22.6134L32.1345 22.6221M32.1345 22.6221C31.9715 22.7576 31.7864 22.8643 31.5873 22.9376L31.5765 22.9415M32.1345 22.6221L31.5765 22.9415M31.5765 22.9415L31.566 22.946M31.5765 22.9415L31.566 22.946M31.566 22.946C31.1538 23.1195 30.7422 23.2934 30.3311 23.4672C28.6338 24.1846 26.9428 24.8993 25.2346 25.5695C24.8903 25.6576 24.5885 25.8668 24.3854 26.1596L24.7963 26.4445L24.3854 26.1596C24.1814 26.4538 24.0914 26.8117 24.1314 27.1667L31.566 22.946ZM47.6528 74.0022L47.6217 74.0116C47.1173 74.1632 46.5744 74.1209 46.0997 73.893C40.8612 71.5069 36.0702 68.2438 31.934 64.2447C26.9533 59.4946 24.1157 53.8079 24.142 46.8023C24.142 46.8023 24.142 46.8022 24.142 46.8021L24.642 46.804L47.6528 74.0022ZM47.6528 74.0022L47.6825 73.9889M47.6528 74.0022L47.6825 73.9889M47.6825 73.9889C54.7491 70.8176 60.8769 66.3586 65.6397 60.1845L65.6401 60.184M47.6825 73.9889L65.6401 60.184M65.6401 60.184C68.3412 56.6738 69.8108 52.3741 69.8223 47.9477C69.8887 43.4421 69.884 38.931 69.8793 34.4246C69.8767 31.9645 69.8741 29.5059 69.8831 27.0503C69.9199 26.7171 69.8311 26.3817 69.6334 26.1099L69.229 26.4039L69.6334 26.1099C69.437 25.8398 69.1479 25.6526 68.8224 25.5832C64.8235 24.192 60.9798 22.3907 57.353 20.2082L57.353 20.2082M65.6401 60.184L57.353 20.2082M57.353 20.2082L57.3474 20.2049M57.353 20.2082L57.3474 20.2049M57.3474 20.2049C50.647 16.2903 43.8596 16.1863 37.0651 19.975L37.065 19.9751M57.3474 20.2049L37.065 19.9751M37.065 19.9751C36.6313 20.217 36.3077 20.2741 36.087 20.2416M37.065 19.9751L36.087 20.2416M36.087 20.2416C35.8894 20.2125 35.7108 20.1033 35.5599 19.8436L36.087 20.2416Z" stroke="#414141" stroke-opacity="0.13"></path>
    </g>
    <g id="Path 138459">
      <path d="M40.1435 40.4121C40.2103 39.3331 40.2152 38.2862 40.3508 37.2568C40.5788 35.6569 41.3771 34.1928 42.5994 33.1331C43.8216 32.0734 45.3857 31.4893 47.0046 31.488C48.6234 31.4867 50.1884 32.0683 51.4124 33.126C52.6363 34.1837 53.437 35.6466 53.6676 37.2461C53.8013 38.2764 53.8096 39.3228 53.875 40.3595C54.4296 40.4608 54.975 40.6074 55.5056 40.7978C56.0925 41.0427 56.5893 41.4627 56.928 42.0002C57.2667 42.5377 57.4308 43.1665 57.3978 43.8007C57.4227 47.3003 57.432 50.8013 57.3978 54.3C57.4197 54.7376 57.3503 55.175 57.1939 55.5844C57.0375 55.9938 56.7975 56.3663 56.4893 56.6782C56.181 56.9902 55.8111 57.2348 55.4032 57.3964C54.9952 57.5581 54.558 57.6334 54.1193 57.6174C49.3844 57.6632 44.6491 57.6632 39.9132 57.6174C37.9206 57.5984 36.6377 56.2263 36.6225 54.2191C36.5985 50.7781 36.5985 47.3381 36.6225 43.899C36.6347 41.9844 37.7167 40.7866 39.6249 40.4871C39.7923 40.4579 39.964 40.437 40.1435 40.4121ZM47.0326 43.2626C44.7536 43.2626 42.4747 43.2758 40.1952 43.2539C39.6245 43.248 39.3952 43.4233 39.3981 44.0193C39.417 47.3717 39.417 50.7241 39.3981 54.0765C39.3952 54.6671 39.6225 54.8555 40.1932 54.8531C44.7216 54.8392 49.2498 54.8392 53.7779 54.8531C54.3871 54.8531 54.6267 54.6681 54.6218 54.0307C54.5987 50.7082 54.5987 47.386 54.6218 44.0641C54.6257 43.4248 54.3905 43.2427 53.7779 43.2495C51.5311 43.2787 49.2818 43.2626 47.0326 43.2626ZM51.0004 40.4408C51.0004 39.5736 51.0272 38.8008 50.9955 38.0315C50.9693 37.4257 50.8036 36.834 50.5111 36.3025C50.2186 35.771 49.8073 35.314 49.3091 34.9669C48.8109 34.6199 48.2393 34.3922 47.6387 34.3016C47.038 34.2109 46.4245 34.2597 45.8458 34.4443C43.2385 35.2983 42.6083 37.5119 43.1717 40.4408H51.0004Z" fill="url(#paint3_linear_642_1455)"></path>
      <path d="M40.6172 40.8513L40.212 40.9074C40.1636 40.9141 40.1175 40.9203 40.0732 40.9263C39.9428 40.9438 39.8271 40.9594 39.711 40.9796L39.7025 40.9811L39.7025 40.9811C38.8347 41.1172 38.2033 41.449 37.787 41.919C37.3721 42.3872 37.128 43.0406 37.1225 43.9022L37.1225 43.9025C37.0985 47.3392 37.0985 50.7768 37.1225 54.2154L40.6172 40.8513ZM40.6172 40.8513L40.6425 40.443M40.6172 40.8513L40.6425 40.443M40.6425 40.443C40.6648 40.0828 40.6801 39.7355 40.6951 39.3964C40.7266 38.6835 40.7564 38.0071 40.8461 37.3248C41.0576 35.8452 41.7962 34.4912 42.9269 33.5109C44.0582 32.53 45.5062 31.9892 47.005 31.988C48.5037 31.9868 49.9525 32.5253 51.0855 33.5043C52.2175 34.4826 52.9582 35.8351 53.1722 37.3139C53.261 37.9995 53.2919 38.6788 53.3239 39.3808C53.339 39.7115 53.3543 40.0472 53.3759 40.391L53.4005 40.7811M40.6425 40.443L53.4005 40.7811M53.4005 40.7811L53.7851 40.8514M53.4005 40.7811L53.7851 40.8514M53.7851 40.8514C54.3086 40.947 54.8234 41.085 55.3244 41.264C55.8114 41.47 56.2234 41.82 56.505 42.2667C56.7887 42.717 56.9261 43.2437 56.8985 43.7747L56.8977 43.7895M53.7851 40.8514L56.8977 43.7895M56.8977 43.7895L56.8978 43.8042M56.8977 43.7895L56.8978 43.8042M56.8978 43.8042C56.9227 47.3025 56.9319 50.8004 56.8978 54.2951L56.8977 54.31M56.8978 43.8042L56.8977 54.31M56.8977 54.31L56.8984 54.325M56.8977 54.31L56.8984 54.325M56.8984 54.325C56.9169 54.6933 56.8585 55.0614 56.7268 55.406C56.5952 55.7506 56.3932 56.0641 56.1336 56.3268C55.8741 56.5894 55.5626 56.7954 55.219 56.9316C54.8753 57.0678 54.507 57.1312 54.1375 57.1178L54.126 57.1173M56.8984 54.325L54.126 57.1173M54.126 57.1173L54.1145 57.1175M54.126 57.1173L54.1145 57.1175M54.1145 57.1175C49.3828 57.1632 44.6507 57.1632 39.9181 57.1175H39.918M54.1145 57.1175H39.918M39.918 57.1175C39.0397 57.1091 38.3549 56.8056 37.8872 56.3178M39.918 57.1175L37.8872 56.3178M38.8981 44.0221L38.8981 44.0218C38.8964 43.6828 38.9554 43.3065 39.2437 43.0423C39.5211 42.788 39.8921 42.7507 40.2003 42.7539M38.8981 44.0221L54.6218 54.0307M38.8981 44.0221C38.917 47.3726 38.917 50.7231 38.8981 54.0736L38.8981 54.074C38.8964 54.4117 38.9556 54.7848 39.2373 55.0508C39.5117 55.3098 39.8808 55.3544 40.1953 55.3531M38.8981 44.0221L40.1932 54.8531M40.2003 42.7539L40.1952 43.2539L40.2 42.7539C40.2001 42.7539 40.2002 42.7539 40.2003 42.7539ZM40.2003 42.7539C41.8549 42.7698 43.508 42.7672 45.1643 42.7646C45.7865 42.7636 46.4092 42.7626 47.0326 42.7626C47.6239 42.7626 48.2144 42.7637 48.8042 42.7648C50.463 42.7679 52.1172 42.771 53.7714 42.7495L53.7723 42.7495C54.0976 42.7459 54.4843 42.7831 54.7703 43.0472C55.0663 43.3206 55.1239 43.7121 55.1218 44.0672L55.1218 44.0676C55.0987 47.3871 55.0987 50.707 55.1218 54.0272M55.1218 54.0272L54.6218 54.0307M55.1218 54.0272C55.1218 54.0271 55.1218 54.027 55.1218 54.0269L54.6218 54.0307M55.1218 54.0272C55.1245 54.3847 55.0647 54.7736 54.7706 55.0471C54.487 55.3108 54.1034 55.3531 53.7779 55.3531H53.7763C49.2495 55.3392 44.7225 55.3392 40.1953 55.3531M54.6218 54.0307C54.6267 54.6681 54.3871 54.8531 53.7779 54.8531C49.2498 54.8392 44.7216 54.8392 40.1932 54.8531M40.1953 55.3531L40.1932 54.8531M40.1953 55.3531C40.1952 55.3531 40.195 55.3531 40.1948 55.3531L40.1932 54.8531M37.8872 56.3178C37.4176 55.828 37.1293 55.1126 37.1225 54.2156L37.8872 56.3178ZM51.0004 40.9408H51.5004V40.4408C51.5004 40.1736 51.5031 39.9103 51.5057 39.6504C51.5115 39.09 51.5171 38.5454 51.4951 38.0109L51.495 38.0099C51.4655 37.3271 51.2787 36.6604 50.9491 36.0614C50.6196 35.4625 50.1561 34.9476 49.5949 34.5567C49.0337 34.1657 48.3898 33.9093 47.7133 33.8072C47.0368 33.7051 46.3457 33.7601 45.6939 33.9679L45.6939 33.9679L45.6902 33.9691C44.262 34.4369 43.33 35.2999 42.8559 36.4778C42.3922 37.6299 42.3901 39.0247 42.6807 40.5353L42.7587 40.9408H43.1717H51.0004Z" stroke="#414141" stroke-opacity="0.13"></path>
    </g>
    <g id="Path 138460">
      <path d="M47.028 43.66C47.903 43.6582 48.7551 43.9391 49.4568 44.4609C50.1585 44.9826 50.6722 45.717 50.9211 46.5543C51.1791 47.407 51.1422 48.3214 50.8165 49.1507C50.4909 49.9799 49.8953 50.6757 49.1256 51.1262C48.8678 51.2309 48.6543 51.4215 48.5215 51.6657C48.3887 51.9098 48.3448 52.1924 48.3973 52.4652C48.4243 52.7629 48.402 53.0629 48.3314 53.3534C48.2854 53.6693 48.1213 53.9561 47.8721 54.1561C47.6228 54.3561 47.307 54.4545 46.988 54.4315C46.251 54.4227 45.6612 53.9864 45.7022 53.3193C45.7842 51.9992 45.1627 51.2941 44.172 50.5326C42.8964 49.5519 42.6291 47.6772 43.2374 46.1838C43.5387 45.4293 44.0625 44.784 44.7395 44.3333C45.4164 43.8826 46.2144 43.6478 47.028 43.66ZM48.2997 47.6597C48.2828 47.4071 48.1918 47.165 48.038 46.9637C47.8843 46.7624 47.6746 46.6106 47.4351 46.5274C47.1956 46.4441 46.9369 46.433 46.6911 46.4954C46.4454 46.5579 46.2234 46.6911 46.0529 46.8785C45.8825 47.0659 45.771 47.2993 45.7324 47.5495C45.6938 47.7997 45.7297 48.0557 45.8358 48.2856C45.9419 48.5156 46.1134 48.7093 46.3289 48.8427C46.5445 48.9761 46.7945 49.0432 47.048 49.0357C47.3955 49.0151 47.7212 48.8596 47.9554 48.6025C48.1895 48.3453 48.3137 48.007 48.3012 47.6597H48.2997Z" fill="url(#paint4_linear_642_1455)"></path>
      <path d="M47.0205 44.1599L47.0205 44.16L47.0291 44.16C47.7963 44.1584 48.5433 44.4048 49.1585 44.8621C49.7736 45.3194 50.2238 45.9631 50.4419 46.6968L50.4419 46.6968L50.4426 46.6991C50.6679 47.4442 50.6358 48.2433 50.3512 48.9679C50.0704 49.6827 49.5601 50.2843 48.9003 50.6785C48.5522 50.8296 48.264 51.0927 48.0823 51.4268C47.8987 51.7644 47.835 52.1538 47.9012 52.5318C47.9203 52.7677 47.9015 53.0052 47.8456 53.2353L47.84 53.2581L47.8366 53.2813C47.8089 53.4719 47.7098 53.6452 47.5591 53.7661L47.8721 54.1561L47.5591 53.7661C47.4084 53.8871 47.2172 53.9467 47.024 53.9328L47.009 53.9317L46.994 53.9315C46.7171 53.9282 46.5022 53.8445 46.3717 53.7367C46.2517 53.6376 46.1914 53.5127 46.2013 53.3503C46.248 52.5968 46.0929 51.9863 45.765 51.4542C45.4469 50.9379 44.9842 50.5263 44.4767 50.1362C43.426 49.3284 43.1527 47.7172 43.7004 46.3724L43.7017 46.3692C43.9654 45.709 44.4239 45.1441 45.0166 44.7495C45.6092 44.3549 46.3081 44.1493 47.0205 44.1599ZM47.0627 49.5355L47.0702 49.5353L47.0777 49.5349C47.5552 49.5065 48.003 49.2928 48.325 48.9391C48.6471 48.5854 48.818 48.1198 48.8009 47.6417L48.7836 47.1597H48.7038C48.6418 46.981 48.5515 46.8123 48.4354 46.6603C48.2221 46.3809 47.9313 46.1705 47.5993 46.0551C47.2673 45.9397 46.9087 45.9243 46.568 46.0108C46.2274 46.0974 45.9196 46.2821 45.6831 46.5421C45.4465 46.8021 45.2918 47.1259 45.2382 47.4732L45.7324 47.5495L45.2382 47.4732C45.1846 47.8206 45.2346 48.1759 45.3818 48.4951C45.529 48.8142 45.7669 49.0829 46.0658 49.2679C46.3647 49.4528 46.7114 49.5459 47.0627 49.5355Z" stroke="#414141" stroke-opacity="0.13"></path>
    </g>
  </g>
  <defs>
    <linearGradient id="paint0_linear_642_1455" x1="35.9085" y1="2.29276" x2="33.5182" y2="68.8166" gradientUnits="userSpaceOnUse">
      <stop stop-color="#3C3C3C"></stop>
      <stop offset="1" stop-color="#575757" stop-opacity="0.58"></stop>
    </linearGradient>
    <linearGradient id="paint1_linear_642_1455" x1="56.1166" y1="40.704" x2="54.3076" y2="95.2264" gradientUnits="userSpaceOnUse">
      <stop stop-color="#3C3C3C"></stop>
      <stop offset="1" stop-color="#575757" stop-opacity="0.58"></stop>
    </linearGradient>
    <linearGradient id="paint2_linear_642_1455" x1="44.8236" y1="17.1083" x2="41.5519" y2="80.1302" gradientUnits="userSpaceOnUse">
      <stop stop-color="#3C3C3C"></stop>
      <stop offset="1" stop-color="#575757" stop-opacity="0.58"></stop>
    </linearGradient>
    <linearGradient id="paint3_linear_642_1455" x1="46.1073" y1="32.4125" x2="44.6785" y2="59.1926" gradientUnits="userSpaceOnUse">
      <stop stop-color="#3C3C3C"></stop>
      <stop offset="1" stop-color="#575757" stop-opacity="0.58"></stop>
    </linearGradient>
    <linearGradient id="paint4_linear_642_1455" x1="46.6533" y1="44.0403" x2="46.0357" y2="55.0661" gradientUnits="userSpaceOnUse">
      <stop stop-color="#3C3C3C"></stop>
      <stop offset="1" stop-color="#575757" stop-opacity="0.58"></stop>
    </linearGradient>
  </defs>
</svg>
