<?xml version="1.0" encoding="UTF-8"?>
<svg xmlns="http://www.w3.org/2000/svg" width="32" height="32" viewBox="0 0 32 32" fill="none">
  <g id="volume" clip-path="url(#clip0_145_940)">
    <g id="Group">
      <g id="Group_2">
        <path id="Vector" d="M18.5963 1.1717C18.2251 0.994631 17.7877 1.04156 17.4677 1.2997L7.0912 9.6005H2.13333C0.957867 9.6005 0 10.5584 0 11.7338V20.2672C0 21.4426 0.957867 22.4005 2.13333 22.4005H7.0912L17.4656 30.7013C17.6597 30.8549 17.8965 30.9338 18.1333 30.9338C18.2912 30.9338 18.4491 30.8997 18.5963 30.8293C18.9653 30.6501 19.2 30.2768 19.2 29.8672V2.13383C19.2 1.72423 18.9653 1.3509 18.5963 1.1717ZM6.4 20.2672H2.13333V11.7338H6.4V20.2672ZM17.0667 27.6464L8.53333 20.8197V11.1813L17.0667 4.35463V27.6464Z" fill="#F5F5F5"></path>
      </g>
    </g>
    <g id="Group_3">
      <g id="Group_4">
        <path id="Vector_2" d="M24.6018 8.45724C24.1815 8.04124 23.5074 8.04764 23.0935 8.46577C22.6797 8.88604 22.6839 9.56017 23.1021 9.97404C24.7127 11.5676 25.6002 13.7074 25.6002 16.0007C25.6002 18.294 24.7127 20.4338 23.1021 22.0274C22.6818 22.4412 22.6775 23.1154 23.0935 23.5356C23.3026 23.7468 23.5778 23.8514 23.8509 23.8514C24.1218 23.8514 24.3927 23.749 24.6018 23.542C26.6221 21.5474 27.7335 18.87 27.7335 16.0007C27.7335 13.1314 26.6221 10.454 24.6018 8.45724Z" fill="#F5F5F5"></path>
      </g>
    </g>
    <g id="Group_5">
      <g id="Group_6">
        <path id="Vector_3" d="M27.6096 5.45139C27.1914 5.03752 26.5152 5.03965 26.1013 5.45779C25.6874 5.87592 25.6896 6.55219 26.1077 6.96605C28.5312 9.37032 29.8666 12.5789 29.8666 16.0007C29.8666 19.4226 28.5312 22.6311 26.1077 25.0354C25.6896 25.4493 25.6874 26.1255 26.1013 26.5437C26.3104 26.7549 26.5834 26.8594 26.8586 26.8594C27.1296 26.8594 27.4005 26.757 27.6096 26.5501C30.4405 23.7426 32 19.9965 32 16.0007C32 12.005 30.4405 8.25885 27.6096 5.45139Z" fill="#F5F5F5"></path>
      </g>
    </g>
  </g>
  <defs>
    <clipPath id="clip0_145_940">
      <rect width="32" height="32" fill="white"></rect>
    </clipPath>
  </defs>
</svg>
