<?xml version="1.0" encoding="UTF-8"?>
<svg xmlns="http://www.w3.org/2000/svg" width="59" height="61" viewBox="0 0 59 61" fill="none">
  <g id="Group 90183">
    <path id="Vector" d="M24.5077 26.264C24.5077 25.485 24.526 24.7736 24.4894 24.0667C24.4848 23.9361 24.2787 23.7695 24.123 23.693C22.5978 22.9231 21.865 21.2481 22.3734 19.6677C22.8589 18.1638 24.2512 17.2273 25.8818 17.3083C27.3383 17.3804 28.6482 18.4925 28.9734 19.9288C29.3124 21.4282 28.6024 22.9591 27.1963 23.648C26.8436 23.8236 26.7429 24.0307 26.7566 24.3864C26.7795 24.9942 26.7612 25.6066 26.7612 26.264C26.9993 26.264 27.1688 26.264 27.3337 26.264C30.5261 26.264 33.7139 26.2595 36.9063 26.264C38.9216 26.2685 40.5659 27.3491 41.2896 29.1862C41.4453 29.5824 41.5232 30.0191 41.5552 30.4469C41.5781 30.7711 41.6926 30.9016 41.9995 30.9872C45.1644 31.8652 46.9324 35.1791 45.824 38.2228C45.169 40.0284 43.8728 41.2261 41.9812 41.7574C41.7247 41.8294 41.5735 41.9015 41.5598 42.2121C41.4224 44.648 39.4895 46.4581 36.9842 46.4626C29.4131 46.4761 21.8421 46.4761 14.271 46.4626C11.7656 46.4581 9.8511 44.6525 9.69538 42.2076C9.68164 41.9645 9.60835 41.8474 9.35186 41.7754C6.9839 41.127 5.3396 39.2044 5.13349 36.8721C4.9228 34.4902 6.219 32.3064 8.47246 31.2618C8.75185 31.1313 9.04957 31.0277 9.35186 30.9602C9.58545 30.9061 9.68621 30.8071 9.69079 30.5684C9.71827 28.3442 11.6557 26.237 14.4405 26.2595C17.6008 26.2865 20.7657 26.264 23.926 26.264C24.1092 26.264 24.2787 26.264 24.5077 26.264ZM25.639 28.5243C21.9108 28.5243 18.1779 28.5243 14.4496 28.5243C12.9107 28.5243 11.9671 29.4563 11.9626 30.9782C11.9626 34.5757 11.958 38.1733 11.9626 41.7709C11.9626 43.2792 12.9198 44.2248 14.4588 44.2248C21.9153 44.2248 29.3719 44.2248 36.8285 44.2248C38.3628 44.2248 39.3109 43.2747 39.3109 41.7619C39.3109 38.1643 39.3109 34.5667 39.3109 30.9692C39.3109 29.4518 38.3674 28.5288 36.8239 28.5243C33.1002 28.5243 29.3673 28.5243 25.639 28.5243ZM41.6056 39.4746C43.0667 39.1234 44.0789 37.4304 43.8362 35.8365C43.6484 34.6208 42.4667 33.279 41.6056 33.315C41.6056 35.3547 41.6056 37.3944 41.6056 39.4746ZM9.66331 33.252C8.18391 33.6887 7.24955 35.2376 7.44191 36.845C7.5839 38.0427 8.72895 39.3845 9.66331 39.4385C9.66331 37.3854 9.66331 35.3367 9.66331 33.252ZM26.7703 20.6583C26.7612 20.0414 26.2436 19.5461 25.6253 19.5551C25.0024 19.5686 24.5077 20.0774 24.5123 20.6943C24.5215 21.2976 25.0528 21.8109 25.6619 21.7974C26.2711 21.7839 26.7795 21.2616 26.7703 20.6583Z" fill="url(#paint0_linear_180_466)"></path>
    <path id="Vector_2" d="M0 35.2466C0.0045802 30.3118 1.33284 25.7462 4.06263 21.6173C7.27793 16.7545 11.6749 13.3235 17.2628 11.4009C19.617 10.5905 22.0491 10.1627 24.5407 10.0411C25.5667 9.99162 26.1758 10.739 25.8232 11.6125C25.6308 12.0808 25.246 12.2654 24.7514 12.2879C22.8506 12.3735 20.9773 12.6526 19.1452 13.1749C14.8765 14.3951 11.2673 16.6509 8.28557 19.8883C5.73899 22.6529 3.98476 25.8542 3.0275 29.4563C2.21681 32.5 2.04277 35.5933 2.56033 38.6956C3.80156 46.1564 7.82297 51.7531 14.5101 55.4362C18.8658 57.8361 23.5972 58.7186 28.5438 58.0297C37.2416 56.823 43.3928 52.1718 47.0798 44.3779C48.3348 41.7258 48.9073 38.8892 48.9852 35.958C49.0905 32.1128 48.2982 28.4657 46.5485 25.0212C46.0905 24.1207 46.6539 23.2337 47.6203 23.2968C48.0554 23.3238 48.3577 23.5579 48.5501 23.9316C50.0386 26.8223 50.918 29.884 51.1883 33.1124C51.486 36.6739 51.0738 40.1499 49.8829 43.5224C48.4539 47.5747 46.0951 51.0372 42.8752 53.9323C40.0263 56.4898 36.7515 58.3224 33.0599 59.412C29.3407 60.5061 25.5483 60.7988 21.7147 60.1819C14.0566 58.9437 8.139 55.0535 3.9298 48.6778C1.32367 44.7201 0.0045802 40.0194 0 35.2466Z" fill="url(#paint1_linear_180_466)"></path>
    <path id="Vector_3" d="M39.3161 18.4383C39.0779 18.4383 38.8993 18.4383 38.7161 18.4383C37.1726 18.4248 35.6153 18.5103 34.0855 18.3708C31.2046 18.1051 29.0702 15.6782 29.0656 12.8236C29.0656 10.5813 29.0611 8.3345 29.0656 6.09221C29.0702 2.98543 31.6077 0.5 34.7726 0.5C40.8551 0.5 46.9421 0.5 53.0246 0.5C56.13 0.5 58.6812 3.00794 58.6812 6.06069C58.6812 8.32099 58.6858 10.5768 58.6812 12.8371C58.6766 15.9484 56.1438 18.4338 52.9743 18.4383C51.0048 18.4428 49.0307 18.4428 47.0612 18.4338C46.7543 18.4338 46.5345 18.5193 46.3147 18.7355C44.6612 20.3744 42.9986 22.0088 41.336 23.6388C40.6947 24.2691 39.797 24.1521 39.4352 23.3911C39.3436 23.1975 39.3253 22.9589 39.3253 22.7428C39.3161 21.473 39.3207 20.2033 39.3207 18.9381C39.3161 18.7805 39.3161 18.6319 39.3161 18.4383ZM41.5787 20.1943C41.7711 20.0142 41.881 19.9151 41.9864 19.8116C42.9986 18.8165 44.0291 17.835 45.0139 16.8174C45.4582 16.3581 45.9391 16.16 46.5895 16.169C48.6872 16.196 50.7849 16.1825 52.8827 16.178C54.8934 16.1735 56.3911 14.7507 56.414 12.774C56.4369 10.5723 56.4369 8.37052 56.414 6.16875C56.3957 4.16961 54.898 2.73328 52.8643 2.73328C46.8551 2.72878 40.8413 2.72878 34.8321 2.73328C32.8306 2.73328 31.3466 4.20112 31.3466 6.17326C31.342 8.36151 31.342 10.5498 31.3466 12.738C31.3466 14.7147 32.826 16.1735 34.8321 16.1735C36.6047 16.178 38.3772 16.1735 40.1497 16.1735C41.2169 16.1735 41.5833 16.5337 41.5833 17.5738C41.5787 18.4158 41.5787 19.2443 41.5787 20.1943Z" fill="url(#paint2_linear_180_466)"></path>
    <path id="Vector_4" d="M25.64 28.5244C29.3683 28.5244 33.1012 28.5244 36.8295 28.5244C38.3776 28.5244 39.3165 29.4474 39.3165 30.9692C39.3165 34.5665 39.3165 38.1639 39.3165 41.7612C39.3165 43.274 38.3638 44.224 36.834 44.224C29.3775 44.2285 21.9209 44.2285 14.4644 44.224C12.9254 44.224 11.9682 43.2785 11.9682 41.7702C11.9636 38.1729 11.9636 34.5755 11.9682 30.9782C11.9682 29.4564 12.9163 28.5244 14.4552 28.5244C18.1835 28.5244 21.9118 28.5244 25.64 28.5244ZM32.4966 38.6186C34.3607 38.6141 35.9317 37.0563 35.9134 35.2238C35.8951 33.3824 34.3241 31.8696 32.4462 31.8741C30.6004 31.8786 29.0614 33.4184 29.066 35.2509C29.0706 37.1193 30.6004 38.6186 32.4966 38.6186ZM15.4033 35.2193C15.4033 37.1103 16.9056 38.6186 18.7926 38.6186C20.6934 38.6186 22.2553 37.0698 22.2369 35.2058C22.2186 33.3959 20.6522 31.8741 18.7972 31.8696C16.9331 31.8651 15.4079 33.3734 15.4033 35.2193Z" fill="white"></path>
    <path id="Vector_5" d="M41.6061 39.4737C41.6061 37.3982 41.6061 35.3586 41.6061 33.3191C42.4672 33.2831 43.6488 34.6202 43.8366 35.8404C44.0794 37.4297 43.0672 39.118 41.6061 39.4737Z" fill="white"></path>
    <path id="Vector_6" d="M9.66448 33.252C9.66448 35.341 9.66448 37.3851 9.66448 39.4336C8.73012 39.3796 7.58049 38.0424 7.44308 36.8403C7.25529 35.233 8.18508 33.6887 9.66448 33.252Z" fill="white"></path>
    <path id="Vector_7" d="M26.7705 20.6584C26.7797 21.2662 26.2713 21.7884 25.6621 21.802C25.0529 21.8155 24.5216 21.3022 24.5125 20.6989C24.5033 20.0821 25.0025 19.5733 25.6255 19.5598C26.2438 19.5418 26.7613 20.037 26.7705 20.6584Z" fill="white"></path>
    <path id="Vector_8" d="M41.5787 20.1936C41.5787 19.2436 41.5787 18.4107 41.5787 17.5822C41.5787 16.5377 41.2123 16.182 40.1451 16.182C38.3726 16.182 36.6001 16.182 34.8275 16.182C32.8214 16.1775 31.3466 14.7188 31.342 12.7468C31.342 10.5586 31.3374 8.37052 31.342 6.1824C31.3466 4.21039 32.826 2.74263 34.8275 2.74263C40.8368 2.73813 46.8506 2.73813 52.8598 2.74263C54.8934 2.74263 56.3911 4.17437 56.4094 6.17789C56.4323 8.37952 56.4323 10.5812 56.4094 12.7828C56.3865 14.7593 54.8888 16.182 52.8781 16.1865C50.7803 16.191 48.6826 16.2045 46.5849 16.1775C45.9391 16.1685 45.4536 16.3711 45.0093 16.8259C44.02 17.8434 42.994 18.8249 41.9818 19.8199C41.881 19.9144 41.7757 20.0135 41.5787 20.1936ZM43.9055 10.5857C40.9009 10.5857 37.8963 10.5857 34.8871 10.5857C34.1268 10.5857 33.6275 11.0269 33.6229 11.6977C33.6184 12.3596 34.1268 12.8278 34.8779 12.8278C40.8597 12.8323 46.846 12.8323 52.8277 12.8278C53.6063 12.8278 54.1376 12.3641 54.1422 11.7022C54.1422 11.0629 53.556 10.5631 52.8369 10.5721C49.8597 10.6037 46.8826 10.5857 43.9055 10.5857ZM45.6002 8.3435C48.0368 8.3435 50.4735 8.34801 52.9101 8.3435C53.6109 8.3435 54.1514 7.83925 54.1422 7.22693C54.1331 6.5696 53.6384 6.10136 52.9239 6.10136C48.0368 6.09685 43.1498 6.09685 38.2627 6.10586C38.0703 6.10586 37.8642 6.14188 37.6947 6.22292C37.2001 6.45254 36.9482 6.98381 37.0627 7.47006C37.1863 7.98332 37.6444 8.3435 38.2123 8.3435C40.6719 8.34801 43.136 8.3435 45.6002 8.3435ZM34.7542 8.3435C35.3817 8.3435 35.9268 7.80323 35.913 7.19542C35.9039 6.61462 35.3863 6.10586 34.7955 6.10136C34.1405 6.09685 33.6229 6.59211 33.6275 7.22243C33.6275 7.83925 34.1359 8.3435 34.7542 8.3435Z" fill="white"></path>
    <path id="Vector_9" d="M32.4965 38.6185C30.6003 38.623 29.0705 37.1192 29.0659 35.2508C29.0613 33.4183 30.6003 31.8785 32.4461 31.874C34.324 31.8695 35.895 33.3823 35.9133 35.2238C35.9362 37.0517 34.3652 38.614 32.4965 38.6185ZM33.6141 35.2283C33.6095 34.6249 33.0782 34.1162 32.4644 34.1252C31.8599 34.1387 31.356 34.6294 31.3469 35.2147C31.3377 35.8451 31.8553 36.3583 32.5011 36.3538C33.124 36.3538 33.6186 35.8496 33.6141 35.2283Z" fill="#575757"></path>
    <path id="Vector_10" d="M15.4032 35.2194C15.4032 33.3734 16.933 31.8651 18.7971 31.8696C20.6567 31.8741 22.2231 33.3914 22.2368 35.2058C22.2552 37.0698 20.6887 38.6186 18.7925 38.6186C16.9055 38.6186 15.4032 37.1148 15.4032 35.2194ZM18.7925 36.3584C19.4109 36.3629 19.9376 35.8587 19.9467 35.2554C19.9559 34.6521 19.4429 34.1388 18.82 34.1298C18.188 34.1163 17.6658 34.6431 17.6704 35.2734C17.675 35.8542 18.1971 36.3584 18.7925 36.3584Z" fill="#575757"></path>
    <path id="Vector_11" d="M43.9055 10.5852C46.8826 10.5852 49.8598 10.6032 52.8369 10.5717C53.556 10.5626 54.1422 11.0624 54.1422 11.7017C54.1422 12.3591 53.6063 12.8273 52.8277 12.8273C46.846 12.8318 40.8597 12.8318 34.8779 12.8273C34.1268 12.8273 33.6184 12.3591 33.623 11.6972C33.6275 11.0264 34.1268 10.5852 34.8871 10.5852C37.8917 10.5852 40.9009 10.5852 43.9055 10.5852Z" fill="#575757"></path>
    <path id="Vector_12" d="M45.6002 8.34273C43.1361 8.34273 40.6719 8.34724 38.2032 8.34273C37.6352 8.34273 37.1772 7.97805 37.0535 7.46929C36.9345 6.98304 37.191 6.45177 37.6856 6.22215C37.8551 6.14111 38.0658 6.10509 38.2536 6.10509C43.1406 6.10059 48.0277 6.10059 52.9148 6.10059C53.6293 6.10059 54.1239 6.56883 54.1331 7.22616C54.1423 7.83848 53.6018 8.34273 52.901 8.34273C50.4735 8.34724 48.0369 8.34273 45.6002 8.34273Z" fill="#575757"></path>
    <path id="Vector_13" d="M34.7543 8.34276C34.136 8.34276 33.6276 7.83851 33.6276 7.22169C33.623 6.59137 34.1406 6.09611 34.7955 6.10062C35.3864 6.10512 35.9039 6.61388 35.9131 7.19468C35.9223 7.80699 35.3818 8.34276 34.7543 8.34276Z" fill="#575757"></path>
    <path id="Vector_14" d="M33.6144 35.2285C33.6189 35.8498 33.1197 36.354 32.5014 36.3585C31.8601 36.363 31.338 35.8498 31.3472 35.2195C31.3563 34.6297 31.8556 34.1389 32.4647 34.1299C33.0785 34.1164 33.6144 34.6297 33.6144 35.2285Z" fill="white"></path>
    <path id="Vector_15" d="M18.7927 36.3585C18.1973 36.354 17.6751 35.8498 17.6706 35.2735C17.666 34.6387 18.1881 34.1164 18.8202 34.1299C19.4431 34.1389 19.9561 34.6567 19.9469 35.2555C19.9378 35.8588 19.4065 36.363 18.7927 36.3585Z" fill="white"></path>
  </g>
  <defs>
    <linearGradient id="paint0_linear_180_466" x1="25.6335" y1="17.3035" x2="24.3199" y2="66.014" gradientUnits="userSpaceOnUse">
      <stop stop-color="#3C3C3C"></stop>
      <stop offset="1" stop-color="#575757" stop-opacity="0"></stop>
    </linearGradient>
    <linearGradient id="paint1_linear_180_466" x1="25.6406" y1="10.0388" x2="25.6488" y2="114.416" gradientUnits="userSpaceOnUse">
      <stop stop-color="#3C3C3C"></stop>
      <stop offset="1" stop-color="#575757" stop-opacity="0"></stop>
    </linearGradient>
    <linearGradient id="paint2_linear_180_466" x1="43.8734" y1="0.5" x2="43.9664" y2="41.6987" gradientUnits="userSpaceOnUse">
      <stop stop-color="#3C3C3C"></stop>
      <stop offset="1" stop-color="#575757" stop-opacity="0"></stop>
    </linearGradient>
  </defs>
</svg>
