<?xml version="1.0" encoding="UTF-8"?>
<svg xmlns="http://www.w3.org/2000/svg" width="111" height="103" viewBox="0 0 111 103" fill="none">
  <g id="Group">
    <path id="Vector" d="M27.9636 30.5552C27.9636 27.6301 27.9636 24.8472 27.9636 22.0643C27.9636 17.8971 27.9344 13.7298 27.9685 9.56259C28.0123 4.26228 32.3058 0.0523745 37.7299 0.0428928C53.1589 0.0191884 68.5831 0.0903033 84.0122 0.000226597C88.9392 -0.0282187 93.0864 2.62194 94.4948 7.66624C97.6235 7.66624 100.777 7.66624 103.93 7.66624C105.382 7.66624 106.834 7.64253 108.286 7.68046C109.427 7.7089 110.236 8.36314 110.255 9.40613C110.285 11.274 110.382 13.1704 110.09 15.0004C109.334 19.6701 105.353 22.8892 100.489 22.9129C94.027 22.9461 87.5649 22.9176 81.1077 22.9176C80.4254 22.9176 79.7432 22.9176 78.9975 22.9176C78.9975 25.4682 78.9975 27.924 78.9975 30.5457C80.1428 30.5457 81.2929 30.5362 82.4381 30.5457C84.1194 30.56 84.8212 31.2474 84.8212 32.8688C84.8212 35.0211 84.7481 37.1782 84.8358 39.3306C84.8943 40.7291 84.29 41.5303 83.0619 42.1656C75.5033 46.0816 67.9789 50.0544 60.4251 53.9752C59.6162 54.3924 59.2799 54.8333 59.314 55.753C59.3968 58.0096 59.4066 60.2758 59.2994 62.5324C59.2653 63.2341 58.929 64.0732 58.4368 64.5758C56.0927 66.9841 53.6463 69.3024 51.2339 71.6492C50.5517 72.3129 49.7914 72.7443 48.7973 72.3413C47.8177 71.9431 47.5643 71.1514 47.5692 70.189C47.5789 65.3153 47.5546 60.4417 47.5838 55.5681C47.5887 54.838 47.3694 54.4398 46.6968 54.0889C38.9823 50.0829 31.297 46.0294 23.5873 42.0187C22.5347 41.4687 22.0571 40.7291 22.0815 39.5676C22.1253 37.3062 22.0815 35.0496 22.0912 32.7882C22.0961 31.2379 22.8125 30.5552 24.4304 30.5457C25.5415 30.5505 26.6624 30.5552 27.9636 30.5552ZM76.9799 3.90672C76.5121 3.87828 76.2977 3.84982 76.0881 3.84982C63.354 3.84982 50.6199 3.84034 37.8858 3.85456C34.4647 3.85931 31.8916 6.34828 31.8818 9.68586C31.8623 16.3895 31.8769 23.0978 31.8867 29.8014C31.8867 30.0337 31.9452 30.266 31.9744 30.4936C46.3216 30.4936 60.6006 30.4936 75.0062 30.4936C75.0062 30.0242 75.0062 29.607 75.0062 29.1946C75.0062 23.4439 75.0452 17.6885 74.9916 11.9378C74.9624 9.15488 75.0111 6.42413 76.9799 3.90672ZM80.8786 34.4475C62.5207 34.4475 44.2943 34.4475 25.9948 34.4475C25.9948 35.481 26.0971 36.4434 25.9704 37.3773C25.7999 38.6052 26.3749 39.1741 27.4227 39.7146C34.9472 43.6069 42.4375 47.5655 49.9522 51.4767C51.0341 52.0409 51.5215 52.7947 51.5068 54.0083C51.4581 57.6067 51.4874 61.2097 51.4922 64.8081C51.4922 65.102 51.5263 65.4007 51.541 65.6946C51.6336 65.7468 51.7262 65.8036 51.8139 65.8558C52.925 64.7038 54.0605 63.5707 55.1326 62.3902C55.3373 62.1674 55.3763 61.7455 55.3812 61.4136C55.4055 59.6832 55.3763 57.9528 55.3958 56.2271C55.4445 51.7375 54.9085 52.5813 58.8705 50.4859C65.8833 46.7832 72.9204 43.1328 79.9332 39.4301C80.3182 39.2263 80.8007 38.7901 80.8348 38.4298C80.9469 37.1355 80.8786 35.8271 80.8786 34.4475ZM92.526 19.0586C92.3359 18.703 92.2044 18.4233 92.0435 18.1625C91.1322 16.636 90.6595 14.9956 90.6839 13.2178C90.6985 12.0895 90.6887 10.9612 90.679 9.83282C90.6497 6.43835 88.1399 3.88302 84.8261 3.86406C81.5024 3.84509 78.9585 6.38619 78.9342 9.77592C78.9147 12.5636 78.9195 15.3465 78.9244 18.1341C78.9244 18.4375 78.9683 18.7409 78.9927 19.0538C83.5249 19.0586 87.9694 19.0586 92.526 19.0586ZM94.7336 11.5395C94.2268 14.5879 95.1966 16.9441 97.4676 18.2858C99.4705 19.4663 102.083 19.3572 103.915 18.0156C105.967 16.508 106.854 14 106.186 11.5395C102.37 11.5395 98.5495 11.5395 94.7336 11.5395Z" fill="#575757"></path>
    <path id="Vector_2" d="M61.6481 88.7638C63.9435 86.9149 66.2291 85.0707 68.5098 83.2265C68.6755 83.089 68.8266 82.9325 69.0021 82.8093C70.542 81.7331 71.5216 80.7517 71.2146 78.4239C70.659 74.214 74.431 70.6679 78.7878 70.592C83.091 70.5162 86.6778 73.8632 86.7362 78.0684C86.746 78.7463 86.9848 79.064 87.5744 79.3437C90.1183 80.5526 92.6428 81.7852 95.1623 83.0463C95.7422 83.3355 96.0736 83.2928 96.5317 82.7855C98.9976 80.0358 102.921 79.3437 106.118 81.0267C109.397 82.7524 110.996 86.3839 109.997 89.8542C109.017 93.2676 105.66 95.5575 101.912 95.3678C98.3641 95.1877 95.1331 92.5897 94.8065 89.053C94.6311 87.1566 93.7246 86.5024 92.2383 85.8576C90.1866 84.9663 88.2129 83.9044 86.1758 82.9799C85.8542 82.8329 85.1768 82.8567 85.0013 83.07C82.3453 86.2511 77.3014 86.8153 74.0606 84.1699C73.9826 84.1035 73.8657 84.0845 73.6902 84.0087C71.6532 85.6538 69.5917 87.3178 67.5303 88.9866C66.3314 89.9585 65.1521 90.9541 63.9289 91.8928C63.3928 92.3052 63.2076 92.7461 63.2125 93.4193C63.2612 97.8094 59.5916 101.232 55.035 101.104C50.7611 100.986 47.3399 97.2974 47.5641 93.0496C47.569 92.9453 47.5738 92.8362 47.5836 92.7319C47.7883 90.9541 47.7883 90.9541 46.107 90.1386C43.7678 89.0056 41.4285 87.882 39.0942 86.7442C38.641 86.5261 38.3242 86.4076 37.8759 86.8722C34.2111 90.6554 29.5229 90.627 25.8192 86.8485C25.746 86.7774 25.6486 86.7252 25.4683 86.5925C24.4107 87.2752 23.3289 87.9673 22.2518 88.669C20.3805 89.8826 18.5237 91.12 16.628 92.2958C15.9896 92.694 15.7946 93.0733 15.9701 93.8365C16.8619 97.7904 14.3277 101.792 10.3901 102.759C6.23794 103.773 2.01761 101.498 0.828507 97.5961C-0.380088 93.6469 1.84704 89.4275 5.85295 88.1617C8.35786 87.3652 10.7361 87.6876 12.8755 89.2189C13.4067 89.5982 13.7624 89.5935 14.2985 89.2426C17.2713 87.2846 20.2635 85.3504 23.2704 83.4351C23.8552 83.0653 24.055 82.6575 24.055 81.9701C24.0599 77.8076 27.5541 74.4226 31.8036 74.4037C36.0776 74.3847 39.6303 77.7033 39.6887 81.8469C39.6985 82.5769 39.9812 82.9088 40.5952 83.2027C43.5241 84.606 46.4286 86.0567 49.3673 87.4411C49.7084 87.6023 50.3127 87.6212 50.6148 87.4316C54.494 85.0043 57.9395 85.3124 61.2388 88.4367C61.3411 88.5362 61.4629 88.6168 61.6481 88.7638ZM78.8706 82.027C81.0393 82.046 82.8375 80.3155 82.8327 78.2153C82.8278 76.1625 81.0685 74.4274 78.9681 74.4132C76.7946 74.3989 75.006 76.1199 75.0012 78.2296C75.006 80.2776 76.7653 82.008 78.8706 82.027ZM35.7998 82.0412C35.7998 79.9458 33.9966 78.2153 31.8329 78.2343C29.7081 78.258 27.9683 79.9742 27.9732 82.0365C27.978 84.1035 29.7129 85.815 31.828 85.8434C33.982 85.8719 35.7949 84.1367 35.7998 82.0412ZM59.3187 93.462C59.3138 91.4092 57.535 89.674 55.4443 89.6788C53.2611 89.6788 51.4872 91.395 51.492 93.4999C51.4969 95.548 53.2806 97.2926 55.3615 97.2926C57.5253 97.2926 59.3284 95.548 59.3187 93.462ZM12.276 95.401C12.2858 93.3245 10.4534 91.5609 8.31399 91.5751C6.22819 91.5894 4.43968 93.3435 4.43481 95.3726C4.42994 97.4064 6.19895 99.1653 8.28475 99.1985C10.4193 99.2317 12.2663 97.4728 12.276 95.401ZM102.463 91.5609C104.607 91.5514 106.4 89.7689 106.366 87.6876C106.332 85.6585 104.524 83.9423 102.433 83.9471C100.299 83.9565 98.4957 85.7439 98.5298 87.8251C98.559 89.8542 100.367 91.5704 102.463 91.5609Z" fill="#575757"></path>
    <path id="Vector_3" d="M23.9824 61.0154C22.6958 61.0154 21.4872 61.0154 20.1958 61.0154C20.1958 59.7875 20.1958 58.5834 20.1958 57.3128C21.4434 57.3128 22.6812 57.3128 23.9824 57.3128C23.9824 58.5312 23.9824 59.7117 23.9824 61.0154Z" fill="white"></path>
    <path id="Vector_4" d="M28.0159 57.2985C29.3268 57.2985 30.5451 57.2985 31.8171 57.2985C31.8171 58.5358 31.8171 59.7211 31.8171 60.9869C30.5646 60.9869 29.3219 60.9869 28.0159 60.9869C28.0159 59.7732 28.0159 58.588 28.0159 57.2985Z" fill="white"></path>
    <path id="Vector_5" d="M35.8682 57.2937C37.1499 57.2937 38.3682 57.2937 39.6548 57.2937C39.6548 58.5264 39.6548 59.7069 39.6548 60.9822C38.4218 60.9822 37.1791 60.9822 35.8682 60.9822C35.8682 59.7874 35.8682 58.6022 35.8682 57.2937Z" fill="white"></path>
    <path id="Vector_6" d="M71.0154 61.0154C69.7434 61.0154 68.5251 61.0154 67.2336 61.0154C67.2336 59.7923 67.2336 58.6118 67.2336 57.3365C68.4569 57.3365 69.6996 57.3365 71.0154 57.3365C71.0154 58.517 71.0154 59.7022 71.0154 61.0154Z" fill="white"></path>
    <path id="Vector_7" d="M78.8549 61.0107C77.583 61.0107 76.3647 61.0107 75.0732 61.0107C75.0732 59.797 75.0732 58.6118 75.0732 57.3365C76.2916 57.3365 77.5343 57.3365 78.8549 57.3365C78.8549 58.517 78.8549 59.6974 78.8549 61.0107Z" fill="white"></path>
    <path id="Vector_8" d="M82.9011 57.3034C84.2121 57.3034 85.4304 57.3034 86.7072 57.3034C86.7072 58.5455 86.7072 59.7307 86.7072 60.9918C85.445 60.9918 84.2023 60.9918 82.9011 60.9918C82.9011 59.7686 82.9011 58.5834 82.9011 57.3034Z" fill="white"></path>
    <path id="Vector_9" d="M76.9802 3.90667C75.0113 6.42408 74.9626 9.15482 74.9918 11.9377C75.0454 17.6884 75.0065 23.4438 75.0065 29.1945C75.0065 29.607 75.0065 30.0194 75.0065 30.4935C60.6008 30.4935 46.3218 30.4935 31.9746 30.4935C31.9454 30.266 31.8869 30.0337 31.8869 29.8014C31.882 23.0977 31.8625 16.3894 31.882 9.6858C31.8918 6.34822 34.4649 3.85925 37.886 3.85451C50.6201 3.84029 63.3542 3.84977 76.0883 3.84977C76.2979 3.85451 76.5123 3.87822 76.9802 3.90667ZM37.808 11.421C40.4494 11.421 42.9738 11.421 45.5177 11.421C45.5177 10.1457 45.5177 8.93674 45.5177 7.72782C42.9056 7.72782 40.3812 7.72782 37.808 7.72782C37.808 8.98415 37.808 10.1646 37.808 11.421ZM57.2723 11.4541C57.2723 10.1362 57.2723 8.92725 57.2723 7.73729C54.6553 7.73729 52.1309 7.73729 49.6113 7.73729C49.6113 9.02207 49.6113 10.231 49.6113 11.4541C52.1991 11.4541 54.6991 11.4541 57.2723 11.4541ZM61.3805 7.7041C61.3805 8.94147 61.3805 10.1741 61.3805 11.4304C63.9634 11.4304 66.4878 11.4304 69.0512 11.4304C69.0512 10.1599 69.0512 8.95095 69.0512 7.7041C66.4683 7.7041 63.9731 7.7041 61.3805 7.7041ZM37.7934 19.0253C40.4592 19.0253 43.0079 19.0253 45.5323 19.0253C45.5323 17.7453 45.5323 16.5601 45.5323 15.3843C42.9056 15.3843 40.3568 15.3843 37.7934 15.3843C37.7934 16.6359 37.7934 17.7974 37.7934 19.0253ZM49.5772 19.0538C52.1747 19.0538 54.7186 19.0538 57.2966 19.0538C57.2966 17.7832 57.2966 16.579 57.2966 15.3749C54.6796 15.3749 52.1357 15.3749 49.5772 15.3749C49.5772 16.6359 49.5772 17.8164 49.5772 19.0538ZM61.3367 19.0348C63.9732 19.0348 66.5122 19.0348 69.0366 19.0348C69.0366 17.7453 69.0366 16.5411 69.0366 15.3511C66.4293 15.3511 63.9098 15.3511 61.3367 15.3511C61.3367 16.5933 61.3367 17.7737 61.3367 19.0348ZM45.5518 22.9982C42.9153 22.9982 40.3763 22.9982 37.8519 22.9982C37.8519 24.283 37.8519 25.4871 37.8519 26.6866C40.464 26.6866 42.9787 26.6866 45.5518 26.6866C45.5518 25.4492 45.5518 24.264 45.5518 22.9982ZM49.5967 22.9792C49.5967 24.2498 49.5967 25.4587 49.5967 26.6866C52.204 26.6866 54.7284 26.6866 57.2869 26.6866C57.2869 25.4208 57.2869 24.2118 57.2869 22.9792C54.6796 22.9792 52.1552 22.9792 49.5967 22.9792ZM69.0951 23.0077C66.4342 23.0077 63.8854 23.0077 61.3464 23.0077C61.3464 24.283 61.3464 25.4682 61.3464 26.6581C63.9683 26.6581 66.517 26.6581 69.0951 26.6581C69.0951 25.416 69.0951 24.2545 69.0951 23.0077Z" fill="#575757"></path>
    <path id="Vector_10" d="M80.8788 34.4474C80.8788 35.827 80.9471 37.1355 80.835 38.4298C80.8057 38.7901 80.3233 39.2262 79.9334 39.4301C72.9206 43.128 65.8786 46.7785 58.8707 50.4858C54.9135 52.5766 55.4447 51.7327 55.396 56.227C55.3765 57.9575 55.4057 59.6879 55.3814 61.4136C55.3765 61.7454 55.3375 62.1674 55.1328 62.3902C54.0558 63.5707 52.9252 64.7037 51.8141 65.8558C51.7215 65.8036 51.6289 65.7467 51.5411 65.6946C51.5217 65.4006 51.4924 65.102 51.4924 64.808C51.4876 61.2097 51.4583 57.6066 51.507 54.0083C51.5217 52.7946 51.0392 52.0408 49.9524 51.4767C42.4377 47.5655 34.9473 43.6068 27.4229 39.7146C26.3751 39.1741 25.8 38.6052 25.9706 37.3773C26.1022 36.4433 25.995 35.4809 25.995 34.4474C44.2993 34.4474 62.5257 34.4474 80.8788 34.4474Z" fill="white"></path>
    <path id="Vector_11" d="M92.5254 19.0585C87.9639 19.0585 83.5243 19.0585 78.9921 19.0585C78.9677 18.7456 78.9238 18.4422 78.9238 18.1387C78.9238 15.3511 78.9141 12.5682 78.9336 9.78057C78.9579 6.39084 81.5018 3.84973 84.8255 3.86869C88.1345 3.88291 90.6443 6.44299 90.6784 9.83746C90.6881 10.9658 90.6979 12.0941 90.6833 13.2225C90.6638 14.9955 91.1316 16.6359 92.0429 18.1672C92.2038 18.4279 92.3402 18.7029 92.5254 19.0585Z" fill="white"></path>
    <path id="Vector_12" d="M94.7339 11.5396C98.5449 11.5396 102.37 11.5396 106.186 11.5396C106.854 14.0001 105.967 16.5128 103.915 18.0156C102.088 19.3573 99.4708 19.4664 97.4679 18.2859C95.1969 16.9489 94.2271 14.5927 94.7339 11.5396Z" fill="white"></path>
    <path id="Vector_13" d="M78.8699 82.027C76.7647 82.0081 75.0054 80.2776 75.0054 78.2296C75.0054 76.1199 76.7988 74.3942 78.9723 74.4132C81.0727 74.4274 82.832 76.1625 82.8369 78.2153C82.8369 80.3156 81.0386 82.046 78.8699 82.027Z" fill="white"></path>
    <path id="Vector_14" d="M35.7995 82.0411C35.7995 84.1366 33.9866 85.8765 31.8277 85.8481C29.7127 85.8196 27.9778 84.1082 27.9729 82.0411C27.968 79.9789 29.7078 78.2627 31.8326 78.2389C33.9964 78.2105 35.7995 79.9409 35.7995 82.0411Z" fill="white"></path>
    <path id="Vector_15" d="M59.3186 93.462C59.3235 95.548 57.5252 97.2927 55.3614 97.2927C53.2805 97.2927 51.4969 95.548 51.492 93.5C51.4822 91.395 53.261 89.6788 55.4443 89.6788C57.5398 89.6741 59.3137 91.4092 59.3186 93.462Z" fill="white"></path>
    <path id="Vector_16" d="M12.2753 95.4009C12.2656 97.4727 10.4186 99.2363 8.28892 99.1984C6.20312 99.1652 4.4341 97.4063 4.43897 95.3725C4.44385 93.3387 6.22748 91.5893 8.31816 91.575C10.4527 91.5561 12.2851 93.3244 12.2753 95.4009Z" fill="white"></path>
    <path id="Vector_17" d="M102.463 91.5609C100.367 91.5704 98.5639 89.8542 98.5298 87.8251C98.4957 85.7439 100.299 83.9566 102.433 83.9471C104.524 83.9424 106.332 85.6586 106.366 87.6877C106.395 89.7689 104.607 91.5515 102.463 91.5609Z" fill="white"></path>
    <path id="Vector_18" d="M37.8074 11.421C37.8074 10.1646 37.8074 8.97942 37.8074 7.72783C40.3805 7.72783 42.9049 7.72783 45.517 7.72783C45.517 8.93201 45.517 10.1409 45.517 11.421C42.9731 11.421 40.4487 11.421 37.8074 11.421Z" fill="white"></path>
    <path id="Vector_19" d="M57.271 11.4541C54.693 11.4541 52.1979 11.4541 49.6101 11.4541C49.6101 10.231 49.6101 9.02204 49.6101 7.73726C52.1296 7.73726 54.654 7.73726 57.271 7.73726C57.271 8.92248 57.271 10.1314 57.271 11.4541Z" fill="white"></path>
    <path id="Vector_20" d="M61.3792 7.70412C63.9718 7.70412 66.4669 7.70412 69.0498 7.70412C69.0498 8.95097 69.0498 10.1599 69.0498 11.4305C66.4864 11.4305 63.962 11.4305 61.3792 11.4305C61.3792 10.1741 61.3792 8.94149 61.3792 7.70412Z" fill="white"></path>
    <path id="Vector_21" d="M37.7922 19.0254C37.7922 17.7975 37.7922 16.6407 37.7922 15.3844C40.3556 15.3844 42.9093 15.3844 45.5311 15.3844C45.5311 16.5602 45.5311 17.7454 45.5311 19.0254C43.0067 19.0254 40.458 19.0254 37.7922 19.0254Z" fill="white"></path>
    <path id="Vector_22" d="M49.5771 19.0539C49.5771 17.8165 49.5771 16.636 49.5771 15.375C52.1357 15.375 54.6747 15.375 57.2965 15.375C57.2965 16.5791 57.2965 17.7833 57.2965 19.0539C54.7137 19.0539 52.1747 19.0539 49.5771 19.0539Z" fill="white"></path>
    <path id="Vector_23" d="M61.3364 19.0349C61.3364 17.7738 61.3364 16.5933 61.3364 15.3512C63.9096 15.3512 66.4291 15.3512 69.0363 15.3512C69.0363 16.5411 69.0363 17.7501 69.0363 19.0349C66.5119 19.0349 63.968 19.0349 61.3364 19.0349Z" fill="white"></path>
    <path id="Vector_24" d="M45.5515 22.9982C45.5515 24.2688 45.5515 25.4492 45.5515 26.6866C42.9783 26.6866 40.4637 26.6866 37.8516 26.6866C37.8516 25.4872 37.8516 24.283 37.8516 22.9982C40.3711 22.9982 42.915 22.9982 45.5515 22.9982Z" fill="white"></path>
    <path id="Vector_25" d="M49.5957 22.9794C52.1542 22.9794 54.6786 22.9794 57.2859 22.9794C57.2859 24.212 57.2859 25.4209 57.2859 26.6867C54.7274 26.6867 52.203 26.6867 49.5957 26.6867C49.5957 25.4541 49.5957 24.2452 49.5957 22.9794Z" fill="white"></path>
    <path id="Vector_26" d="M69.0949 23.0077C69.0949 24.2545 69.0949 25.4161 69.0949 26.6582C66.5168 26.6582 63.9681 26.6582 61.3462 26.6582C61.3462 25.4682 61.3462 24.283 61.3462 23.0077C63.8852 23.0077 66.434 23.0077 69.0949 23.0077Z" fill="white"></path>
  </g>
</svg>
