<?xml version="1.0" encoding="UTF-8"?>
<svg xmlns="http://www.w3.org/2000/svg" width="115" height="103" viewBox="0 0 115 103" fill="none">
  <g id="Group">
    <path id="Vector" d="M44.3335 0C59.6997 0 74.8847 0 90.1721 0C90.1721 8.66867 90.1721 17.3061 90.1721 26.1154C88.2956 26.1154 86.3719 26.1154 84.2826 26.1154C84.2826 29.117 84.2826 31.9545 84.2826 34.7919C84.1643 34.8623 84.046 34.9326 83.9278 35.003C80.5533 32.0092 77.1868 29.0154 73.8124 26.0216C73.6626 26.0998 73.5206 26.1858 73.3708 26.264C73.3708 28.8591 73.3708 31.4464 73.3708 34.1744C72.5745 34.1744 72.0148 34.1744 71.455 34.1744C64.375 34.1744 57.3029 34.2057 50.2229 34.1431C49.0324 34.1353 48.173 34.4871 47.3215 35.2766C44.7355 37.6919 42.0786 40.0291 39.1457 42.6633C39.1457 39.7868 39.1457 37.2463 39.1457 34.5574C37.1825 34.5574 35.4401 34.5574 33.5952 34.5574C33.5952 25.7715 33.5952 17.1419 33.5952 8.28565C37.1904 8.28565 40.7225 8.28565 44.3414 8.28565C44.3335 5.43257 44.3335 2.80618 44.3335 0ZM47.085 2.47006C47.085 9.56758 47.085 16.501 47.085 23.5828C47.7552 23.5828 48.315 23.5828 48.8748 23.5828C57.0901 23.5828 65.3053 23.5985 73.5206 23.5594C74.6402 23.5516 75.4838 23.8486 76.3038 24.6303C77.9595 26.2171 79.7176 27.6944 81.7439 29.4844C81.7439 27.2801 81.7439 25.4823 81.7439 23.575C83.4469 23.575 84.9606 23.5047 86.4744 23.5985C87.6334 23.6688 87.9093 23.2467 87.9014 22.1524C87.8541 16.032 87.8777 9.91151 87.8777 3.79108C87.8777 3.37679 87.8305 2.96251 87.7989 2.46225C74.1987 2.47006 60.6931 2.47006 47.085 2.47006ZM41.7238 36.9493C43.6002 35.3078 45.0745 33.9086 46.675 32.6814C47.3215 32.1812 48.2519 31.806 49.064 31.7981C55.663 31.7278 62.27 31.7591 68.869 31.7591C69.4209 31.7591 69.9728 31.7591 70.5483 31.7591C70.5483 29.8674 70.5483 28.2025 70.5483 26.3499C61.789 26.3499 53.1243 26.3499 44.3098 26.3499C44.3098 21.0581 44.3098 15.946 44.3098 10.787C41.5267 10.787 38.9012 10.787 36.1891 10.787C36.1891 17.7751 36.1891 24.6694 36.1891 31.7512C38.0182 31.7512 39.8001 31.7512 41.7238 31.7512C41.7238 33.4553 41.7238 34.9795 41.7238 36.9493Z" fill="#575757"></path>
    <path id="Vector_2" d="M17.5118 72.6246C19.9165 77.0098 22.2739 81.2464 24.5682 85.5221C25.0254 86.3741 25.5143 86.7571 26.5313 86.7415C27.509 86.7259 28.053 86.4366 28.5181 85.5612C30.8046 81.2777 33.1619 77.0332 35.6769 72.4605C39.414 74.0004 43.2536 75.2666 46.77 77.1348C49.6792 78.6747 51.0826 81.6685 51.4217 84.8811C52.013 90.4544 52.352 96.0511 52.7935 101.632C52.825 102.046 52.762 102.461 52.7383 102.969C35.3379 102.969 18.0243 102.969 0.529319 102.969C0.529319 101.992 0.458369 100.976 0.537211 99.9673C0.907767 95.2695 1.29406 90.5795 1.73557 85.8895C2.22439 80.7227 4.73155 77.0723 9.85626 75.3917C12.3713 74.5632 14.8391 73.5939 17.5118 72.6246ZM49.8054 100.194C49.8606 99.9907 49.9315 99.8578 49.9236 99.7328C49.5689 94.9021 49.3008 90.0558 48.8041 85.2329C48.4887 82.1844 46.8962 79.7925 43.9869 78.5418C41.6926 77.5569 39.2879 76.8143 36.828 75.9232C35.0226 79.2375 32.9727 82.3485 31.6087 85.7253C30.2842 89.0005 28.2264 90.0558 24.8993 89.5555C24.0951 89.4382 23.6378 89.2272 23.2594 88.5237C21.312 84.8655 19.3173 81.2229 17.3305 77.5804C17.0467 77.0567 16.7471 76.5329 16.4317 75.9623C14.2951 76.7049 12.3083 77.4866 10.2663 78.0885C6.57646 79.175 4.87349 81.8717 4.46352 85.3658C3.92739 89.9463 3.70661 94.5581 3.35182 99.1543C3.32028 99.553 3.34398 99.9595 3.34398 100.366C5.58308 100.366 7.64085 100.366 9.75381 100.366C9.94303 97.5441 10.1164 94.8395 10.3057 92.0099C11.2281 92.0568 12.0086 92.0959 12.9153 92.135C12.7498 94.949 12.6 97.6457 12.4423 100.35C21.9743 100.35 31.3407 100.35 40.7859 100.35C40.6282 97.5597 40.4784 94.9021 40.3207 92.1272C41.2589 92.1272 42.0395 92.1272 42.9225 92.1272C43.1117 94.8161 43.2931 97.4738 43.4823 100.202C45.6741 100.194 47.7398 100.194 49.8054 100.194Z" fill="#575757"></path>
    <path id="Vector_3" d="M114.488 103C97.0877 103 79.8608 103 62.3816 103C62.4999 100.804 62.5629 98.6618 62.7363 96.5278C63.0359 92.7758 63.2961 89.0082 63.7455 85.2718C64.2895 80.7851 66.4971 77.4005 70.9201 75.7277C73.4036 74.7897 75.9266 73.9455 78.4022 72.9841C79.2773 72.6401 79.64 72.8824 80.0421 73.6485C82.163 77.5959 84.3627 81.5042 86.4677 85.4594C86.9408 86.3505 87.4532 86.7414 88.5255 86.757C89.6529 86.7804 90.0866 86.2489 90.5438 85.3969C92.641 81.4886 94.8092 77.6193 96.8985 73.711C97.3322 72.9059 97.7264 72.6401 98.6567 73.0075C101.124 73.9846 103.663 74.7975 106.131 75.7668C110.388 77.4395 112.706 80.7225 113.203 85.092C113.81 90.4699 114.078 95.8868 114.48 101.28C114.52 101.804 114.488 102.32 114.488 103ZM71.5351 100.381C71.7243 97.544 71.9056 94.8316 72.0949 91.9942C72.9858 92.041 73.7663 92.0801 74.673 92.127C74.5232 94.9567 74.3892 97.6456 74.2473 100.35C83.795 100.35 93.122 100.35 102.559 100.35C102.41 97.5752 102.268 94.9098 102.118 92.1192C103.048 92.0801 103.821 92.0411 104.696 92.002C104.893 94.8316 105.082 97.5127 105.264 100.178C107.503 100.178 109.529 100.178 111.547 100.178C111.602 99.9593 111.666 99.8264 111.658 99.6936C111.271 94.6753 110.995 89.6413 110.436 84.6309C110.136 81.9732 108.606 79.8314 106.084 78.7137C103.679 77.6428 101.148 76.8377 98.6014 75.884C96.7644 79.2608 94.7461 82.3719 93.3349 85.7408C92.0103 88.8909 90.0708 90.0947 86.7437 89.5397C85.9079 89.399 85.4034 89.2271 84.9934 88.461C83.0066 84.709 80.9567 80.9961 78.9305 77.2676C78.6939 76.8298 78.418 76.3999 78.1578 75.9544C76.1473 76.6501 74.2946 77.4005 72.3787 77.932C68.3893 79.042 66.576 81.8716 66.1739 85.6783C65.7087 90.0791 65.4721 94.5033 65.1489 98.9119C65.1174 99.3653 65.1411 99.8264 65.1411 100.374C67.2934 100.381 69.3197 100.381 71.5351 100.381Z" fill="#575757"></path>
    <path id="Vector_4" d="M37.8452 59.3597C37.8689 65.6756 32.6495 70.8737 26.2791 70.8815C19.7905 70.8815 14.7209 65.8554 14.7209 59.4223C14.7209 53.1611 19.9008 47.9787 26.1845 47.9396C32.5707 47.9005 37.8215 53.0439 37.8452 59.3597ZM35.2277 59.4692C35.2592 54.5759 31.2067 50.5347 26.287 50.5347C21.4304 50.5347 17.3858 54.5056 17.3385 59.3363C17.2833 64.1826 21.391 68.2785 26.2949 68.2785C31.1516 68.2785 35.1962 64.2842 35.2277 59.4692Z" fill="#575757"></path>
    <path id="Vector_5" d="M88.1065 47.9395C94.3901 47.9629 99.6253 53.1688 99.6332 59.3987C99.641 65.6833 94.3429 70.9048 87.9803 70.8813C81.6809 70.8579 76.4852 65.6754 76.4773 59.4143C76.4773 53.0906 81.7282 47.916 88.1065 47.9395ZM79.1185 59.4299C79.1264 64.2606 83.1237 68.2471 87.9961 68.2784C92.9001 68.3097 97.0078 64.245 96.992 59.383C96.9683 54.5523 92.9553 50.5658 88.0907 50.5424C83.1552 50.5189 79.1028 54.5289 79.1185 59.4299Z" fill="#575757"></path>
    <path id="Vector_6" d="M47.0846 2.47009C60.6848 2.47009 74.1982 2.47009 87.7906 2.47009C87.8221 2.97036 87.8694 3.38464 87.8694 3.79893C87.8773 9.91937 87.8457 16.0398 87.8931 22.1602C87.9009 23.2546 87.6171 23.6767 86.466 23.6063C84.9601 23.5125 83.4385 23.5829 81.7355 23.5829C81.7355 25.4901 81.7355 27.288 81.7355 29.4923C79.7093 27.6944 77.959 26.2171 76.2954 24.6381C75.4755 23.8565 74.6319 23.5672 73.5123 23.5672C65.297 23.6063 57.0817 23.5907 48.8664 23.5907C48.3066 23.5907 47.7468 23.5907 47.0767 23.5907C47.0845 16.5088 47.0846 9.56761 47.0846 2.47009ZM71.7226 12.9366C71.7147 10.5213 69.8304 8.65307 67.3863 8.63744C64.887 8.6218 62.916 10.5447 62.9396 12.9913C62.9554 15.3754 64.887 17.2983 67.2996 17.3217C69.7673 17.3452 71.7305 15.3988 71.7226 12.9366ZM54.7401 8.63744C52.2881 8.6218 50.3801 10.4587 50.3328 12.8662C50.2855 15.3363 52.2093 17.2983 54.6849 17.3217C57.1448 17.3374 59.1473 15.3519 59.1158 12.9288C59.0843 10.5291 57.1684 8.64525 54.7401 8.63744ZM84.3373 12.9679C84.3373 10.5291 82.4924 8.6687 80.0483 8.63744C77.5254 8.60617 75.6016 10.4743 75.6016 12.96C75.6016 15.4223 77.5648 17.3608 80.0404 17.3217C82.4687 17.2748 84.3373 15.391 84.3373 12.9679Z" fill="white"></path>
    <path id="Vector_7" d="M41.7227 36.9494C41.7227 34.9796 41.7227 33.4475 41.7227 31.7435C39.799 31.7435 38.0171 31.7435 36.188 31.7435C36.188 24.6616 36.188 17.7673 36.188 10.7792C38.9001 10.7792 41.5335 10.7792 44.3087 10.7792C44.3087 15.946 44.3087 21.0581 44.3087 26.3422C53.1232 26.3422 61.7879 26.3422 70.5472 26.3422C70.5472 28.1947 70.5472 29.8596 70.5472 31.7513C69.9717 31.7513 69.4198 31.7513 68.8679 31.7513C62.2689 31.7513 55.6619 31.72 49.0629 31.7904C48.2587 31.7982 47.3283 32.1812 46.6739 32.6736C45.0734 33.9165 43.5991 35.3157 41.7227 36.9494Z" fill="white"></path>
    <path id="Vector_8" d="M49.8055 100.194C47.7398 100.194 45.6741 100.194 43.506 100.194C43.3168 97.4658 43.1354 94.8081 42.9462 92.1192C42.0553 92.1192 41.2827 92.1192 40.3444 92.1192C40.5021 94.8941 40.6519 97.5518 40.8096 100.342C31.3643 100.342 21.9979 100.342 12.466 100.342C12.6236 97.6299 12.7735 94.941 12.939 92.127C12.0324 92.0801 11.2518 92.0489 10.3294 92.002C10.1402 94.8316 9.95882 97.544 9.77748 100.358C7.66452 100.358 5.59886 100.358 3.36764 100.358C3.36764 99.9515 3.344 99.545 3.37553 99.1464C3.73032 94.5502 3.95106 89.9305 4.48718 85.3578C4.89716 81.8638 6.59229 79.167 10.29 78.0805C12.332 77.4786 14.3109 76.7048 16.4554 75.9544C16.7708 76.525 17.0703 77.0487 17.3542 77.5724C19.3331 81.215 21.3278 84.8575 23.2831 88.5157C23.6615 89.2192 24.1109 89.4303 24.923 89.5475C28.2422 90.0478 30.3 88.9925 31.6324 85.7174C33.0043 82.3406 35.0542 79.2374 36.8518 75.9153C39.3116 76.8064 41.7163 77.549 44.0106 78.5339C46.9119 79.7767 48.5125 82.1764 48.8278 85.2249C49.3245 90.0478 49.5926 94.8863 49.9474 99.7248C49.9316 99.8577 49.8606 99.9906 49.8055 100.194Z" fill="white"></path>
    <path id="Vector_9" d="M71.5348 100.382C69.3193 100.382 67.301 100.382 65.1565 100.382C65.1565 99.8343 65.1249 99.3732 65.1644 98.9198C65.4876 94.5034 65.7241 90.0792 66.1893 85.6862C66.5914 81.8795 68.4047 79.0499 72.3941 77.9399C74.31 77.4084 76.1628 76.658 78.1733 75.9623C78.4334 76.4078 78.7094 76.8299 78.9459 77.2755C80.98 81.004 83.022 84.7169 85.0088 88.4689C85.4188 89.235 85.9234 89.4069 86.7591 89.5476C90.0863 90.1104 92.0258 88.9067 93.3503 85.7487C94.7616 82.3798 96.7799 79.2687 98.6169 75.8919C101.171 76.8456 103.694 77.6507 106.099 78.7216C108.614 79.8393 110.151 81.9811 110.451 84.6388C111.011 89.6414 111.287 94.6753 111.673 99.7015C111.681 99.8343 111.618 99.9672 111.563 100.186C109.544 100.186 107.518 100.186 105.279 100.186C105.09 97.5284 104.908 94.8395 104.711 92.0099C103.836 92.049 103.064 92.088 102.133 92.1271C102.283 94.9255 102.425 97.5832 102.575 100.358C93.1374 100.358 83.8104 100.358 74.2627 100.358C74.4046 97.6535 74.5465 94.9568 74.6885 92.1349C73.7739 92.088 73.0012 92.049 72.1103 92.0021C71.9053 94.8317 71.724 97.5362 71.5348 100.382Z" fill="white"></path>
    <path id="Vector_10" d="M35.2281 59.4692C35.1966 64.2842 31.152 68.2707 26.2953 68.2785C21.3914 68.2785 17.2837 64.1826 17.3389 59.3363C17.3941 54.5056 21.4308 50.5347 26.2874 50.5347C31.2072 50.5347 35.2518 54.5837 35.2281 59.4692Z" fill="white"></path>
    <path id="Vector_11" d="M79.1189 59.4301C79.111 54.529 83.1635 50.5191 88.0911 50.5425C92.9556 50.566 96.9687 54.5603 96.9924 59.3832C97.016 64.2451 92.9083 68.3098 87.9965 68.2785C83.1241 68.2473 79.1268 64.2608 79.1189 59.4301Z" fill="white"></path>
    <path id="Vector_12" d="M71.7229 12.9366C71.7307 15.3989 69.7676 17.3452 67.292 17.314C64.8873 17.2905 62.9556 15.3676 62.932 12.9835C62.9162 10.5369 64.8794 8.61402 67.3787 8.62966C69.8306 8.65311 71.715 10.5213 71.7229 12.9366ZM69.0974 13.0382C69.0028 12.0612 68.5298 11.3811 67.4733 11.2561C66.4956 11.1388 65.5968 11.9595 65.6362 12.9444C65.6757 13.9841 66.2355 14.6094 67.2998 14.6563C68.3879 14.6954 68.9397 14.0857 69.0974 13.0382Z" fill="#575757"></path>
    <path id="Vector_13" d="M54.7411 8.63733C57.1695 8.65296 59.0853 10.529 59.1168 12.9209C59.1405 15.3518 57.1379 17.3373 54.6859 17.3138C52.2103 17.2982 50.2866 15.3284 50.3339 12.8583C50.3733 10.4508 52.2892 8.6217 54.7411 8.63733ZM54.6386 14.664C55.7345 14.6405 56.3731 14.1246 56.4047 13.0537C56.4362 12.0141 55.8686 11.3732 54.82 11.2559C53.8581 11.1465 52.912 12.0063 52.9672 12.9521C53.0303 13.9761 53.6137 14.5702 54.6386 14.664Z" fill="#575757"></path>
    <path id="Vector_14" d="M84.3387 12.9679C84.3387 15.3832 82.4701 17.2749 80.0418 17.3139C77.5741 17.353 75.603 15.4223 75.603 12.9523C75.603 10.4666 77.5347 8.59838 80.0497 8.62964C82.4938 8.66873 84.3387 10.5291 84.3387 12.9679ZM81.7212 13.0148C81.6265 11.9908 81.1062 11.3498 80.0576 11.256C79.0721 11.1622 78.2127 11.9986 78.26 12.9835C78.3152 14.0231 78.8907 14.6406 79.9551 14.6485C81.0195 14.6563 81.5714 14.0231 81.7212 13.0148Z" fill="#575757"></path>
    <path id="Vector_15" d="M69.0987 13.0382C68.941 14.0935 68.3891 14.7032 67.3011 14.6563C66.2289 14.6094 65.6691 13.984 65.6375 12.9444C65.606 11.9595 66.4969 11.1388 67.4746 11.256C68.531 11.3811 69.012 12.0611 69.0987 13.0382Z" fill="white"></path>
    <path id="Vector_16" d="M54.6393 14.6639C53.6065 14.5701 53.031 13.9682 52.9679 12.9521C52.9127 12.0062 53.8588 11.1464 54.8206 11.2558C55.8692 11.3731 56.4369 12.0141 56.4054 13.0537C56.3817 14.1246 55.7352 14.6405 54.6393 14.6639Z" fill="white"></path>
    <path id="Vector_17" d="M81.72 13.0147C81.5702 14.0231 81.0184 14.6562 79.9619 14.6406C78.8975 14.6328 78.3219 14.0153 78.2668 12.9756C78.2195 11.9907 79.0789 11.1622 80.0644 11.2482C81.1051 11.3498 81.6254 11.9907 81.72 13.0147Z" fill="white"></path>
  </g>
</svg>
