<?xml version="1.0" encoding="UTF-8"?>
<svg xmlns="http://www.w3.org/2000/svg" width="75" height="74" viewBox="0 0 75 74" fill="none">
  <g id="Group 90242">
    <path id="Path_164360_1_" d="M60.9786 13.7836C59.4766 11.7719 57.9746 10.7096 55.7366 10.7163C44.7978 10.7528 33.8557 10.7196 22.9169 10.7528C21.7761 10.8192 20.6588 10.4241 19.8259 9.65068C18.1232 8.09047 16.3134 6.64313 14.1691 4.82732C14.1691 6.16511 14.1725 7.11119 14.1691 8.0606C14.1625 10.3876 13.8179 10.7229 11.416 10.7295C10.7972 10.7329 10.1783 10.7262 9.55945 10.7362C5.96002 10.7959 3.34407 13.3055 3.26044 16.8841C3.19353 19.7621 3.2504 22.6402 3.24036 25.5216C3.23367 27.198 2.75866 27.9051 1.64136 27.8321C0.196229 27.7391 0.0992187 26.6901 0.0992187 25.5847C0.105909 22.7531 0.0791474 19.9215 0.105909 17.0866C0.159432 11.669 4.09674 7.69212 9.55276 7.62905C10.7303 7.61577 11.1585 7.29709 11.0849 6.112C10.9745 4.70117 10.9845 3.28039 11.1049 1.86957C11.1718 1.21893 11.5565 0.349194 12.0684 0.0769882C12.4932 -0.152063 13.46 0.166617 13.935 0.551689C16.4037 2.55008 18.7521 4.69453 21.2275 6.67965C21.9099 7.21742 22.7496 7.52614 23.6193 7.56266C34.0831 7.61909 44.5503 7.67552 55.0141 7.56266C59.0952 7.5195 61.9353 9.26561 63.8889 12.625C64.3873 13.4848 64.9293 13.7703 65.8927 13.8267C71.2852 14.1388 74.9582 17.9729 74.9749 23.3506C75.0084 34.5841 75.0084 45.8176 74.9749 57.0544C75.0485 62.1167 70.9741 66.2795 65.8726 66.3525C65.8057 66.3525 65.7388 66.3525 65.6752 66.3525C64.3706 66.3658 63.8989 66.7111 63.9993 68.0256C64.1164 69.4364 64.1097 70.8572 63.9826 72.2681C63.9224 72.8689 63.5076 73.6623 63.0158 73.9212C62.601 74.137 61.6945 73.8781 61.2596 73.5262C58.7574 71.4946 56.3655 69.3269 53.85 67.3119C53.1642 66.7775 52.3245 66.4687 51.4514 66.4322C40.9408 66.3758 30.4268 66.3194 19.9162 66.4289C15.8719 66.4721 13.1154 64.6596 11.1886 61.3732C10.6834 60.5134 10.1516 60.2379 9.19148 60.1748C3.71204 59.813 0.129325 55.9622 0.105909 50.4916C0.089183 46.7637 0.109254 43.0324 0.0992187 39.3046C0.0958734 38.395 0.256443 37.5817 1.27004 37.2796C2.39403 36.9443 3.22364 37.7178 3.23367 39.1884C3.26044 42.8233 3.24037 46.4583 3.24706 50.0932C3.25375 53.934 5.22742 56.5066 8.58266 57.0345C8.87369 57.0544 9.16807 57.0577 9.4591 57.0411V55.0991C9.4591 44.6192 9.46244 34.1426 9.46579 23.6627C9.47582 17.7173 13.4064 13.8035 19.381 13.7935C32.4607 13.7736 45.5438 13.7703 58.6236 13.7869L60.9786 13.7836ZM40.1145 16.8608C33.1231 16.8608 26.1349 16.8442 19.1468 16.8675C15.447 16.8807 12.6304 19.4468 12.617 22.9655C12.5668 33.8637 12.6002 44.7653 12.5869 55.6635C12.5869 56.7058 12.908 57.154 14.0755 57.1507C28.0551 57.1141 42.0347 57.1374 56.0143 57.1175C59.7342 57.1141 62.4705 54.4751 62.4839 50.8169C62.5207 40.0581 62.4873 29.3026 62.514 18.5439C62.5174 17.309 62.1661 16.811 60.8013 16.8243C53.9035 16.894 47.009 16.8575 40.1145 16.8608ZM60.9451 69.2041C60.9451 68.258 60.9451 67.7169 60.9451 67.1725C60.9351 63.2687 60.9351 63.2687 64.8724 63.262C69.3851 63.2554 71.8405 60.8321 71.8438 56.3539C71.8505 45.5421 71.8471 34.7302 71.8405 23.9183C71.8572 23.2577 71.817 22.5971 71.7167 21.9431C71.1614 18.9322 68.3615 16.6882 65.6585 17.1231C65.6451 17.3322 65.6117 17.5613 65.6117 17.787C65.615 28.5026 65.6217 39.2216 65.6284 49.9372C65.6318 56.4369 61.8149 60.2179 55.2449 60.2213C42.2086 60.2246 29.1724 60.2279 16.1361 60.2279H14.129C15.6176 62.2163 17.0761 63.2852 19.3141 63.2753C30.3031 63.2355 41.2954 63.272 52.2844 63.2388C53.3783 63.1923 54.4454 63.584 55.2449 64.3243C57.0011 65.8978 58.8176 67.3916 60.9451 69.2041Z" fill="white"></path>
    <path id="Path_164364_1_" d="M37.5267 34.6074C38.8514 33.1069 40.0055 31.6729 41.3135 30.3915C41.8487 29.867 42.7586 29.3425 43.4277 29.4189C44.5082 29.5384 44.5517 30.6272 44.5517 31.56C44.5416 35.2846 44.5617 39.0058 44.5383 42.7304C44.5316 44.0284 43.8191 44.8483 42.8489 44.7023C41.7618 44.5396 41.3971 43.7827 41.4038 42.7636C41.4172 40.327 41.4072 37.8938 41.4072 34.9858C40.5006 35.9917 39.8884 36.6689 39.2796 37.3494C37.8612 38.9295 37.1721 38.9229 35.727 37.3129C35.1282 36.5792 34.4224 35.9385 33.6329 35.4107C33.6329 36.8813 33.6329 38.3552 33.6329 39.8291C33.6329 40.9146 33.6597 42.0001 33.6128 43.0823C33.5694 44.0616 33.0341 44.7122 32.0105 44.6956C31.0504 44.679 30.5888 44.0184 30.5118 43.1155C30.4617 42.5545 30.4884 41.9835 30.4884 41.4192C30.4884 38.073 30.4349 34.7236 30.5386 31.3808C30.5587 30.7069 31.027 29.701 31.5555 29.4853C32.054 29.2795 33.0776 29.7342 33.5627 30.2089C34.9308 31.5534 36.1485 33.0505 37.5267 34.6074Z" fill="white"></path>
    <path id="Path_164365_1_" d="M50.9708 32.3434C50.4121 35.3576 50.4824 35.4472 53.2321 35.4472C53.9915 35.4472 54.8245 35.2713 55.4935 35.5203C56.0889 35.7427 56.8015 36.3734 56.9252 36.941C57.1159 37.8075 56.4569 38.4481 55.4935 38.4979C54.4498 38.5743 53.4027 38.5776 52.359 38.5112C51.118 38.4017 50.566 38.81 50.7634 40.0814C50.8336 40.5328 50.8202 40.9943 50.8537 41.6217C52.7471 41.6217 54.5401 41.615 56.3365 41.625C57.8184 41.6316 58.638 42.1959 58.541 43.2184C58.4172 44.4898 57.5106 44.7587 56.39 44.7454C54.1554 44.7222 51.9208 44.7554 49.6862 44.7288C48.2311 44.7122 47.6757 44.201 47.6657 42.7769C47.6323 38.9096 47.6323 35.0389 47.6657 31.1683C47.6791 29.7508 48.2344 29.2529 49.7096 29.2396C51.9911 29.2164 54.2758 29.2363 56.5573 29.2296C57.6378 29.2263 58.5142 29.5915 58.5242 30.7799C58.5343 31.9683 57.6913 32.3534 56.5907 32.3434C54.7408 32.3301 52.8909 32.3434 50.9708 32.3434Z" fill="white"></path>
    <path id="Path_164366_1_" d="M20.538 44.7321C19.7318 44.7321 18.9222 44.7587 18.1161 44.7255C17.1827 44.6857 16.5505 44.1877 16.5204 43.2549C16.4869 42.2557 17.0924 41.6715 18.1094 41.6449C19.5344 41.6084 20.9595 41.6217 22.3845 41.625C23.4416 41.6283 24.201 41.1868 24.2144 40.098C24.2277 38.9893 23.4282 38.5743 22.4013 38.5411C21.9262 38.5245 21.4512 38.5478 20.9762 38.5212C18.4807 38.4448 16.4903 36.4166 16.4869 33.9368C16.4468 31.4538 18.3937 29.389 20.8892 29.2629C22.4514 29.1766 24.0237 29.2264 25.5926 29.243C26.6497 29.2562 27.3689 29.7641 27.3354 30.8596C27.3053 31.8721 26.6095 32.3368 25.6093 32.3401C24.2779 32.3434 22.9465 32.3567 21.6185 32.3401C20.5313 32.3268 19.6816 32.6754 19.6649 33.8804C19.6448 35.1153 20.5547 35.3941 21.6051 35.4506C22.4548 35.4937 23.3413 35.4572 24.1408 35.6929C26.2683 36.3535 27.6198 38.4183 27.3589 40.6159C27.1013 42.8101 25.325 44.523 23.1071 44.7155C22.2574 44.7853 21.3977 44.7255 20.5413 44.7255L20.538 44.7321Z" fill="white"></path>
  </g>
</svg>
