<?xml version="1.0" encoding="UTF-8"?>
<svg xmlns="http://www.w3.org/2000/svg" width="88" height="92" viewBox="0 0 88 92" fill="none">
  <g id="Group 88668">
    <g id="Path 138439">
      <mask id="path-1-inside-1_130_160" fill="white">
        <path d="M2.70023 92C1.17583 91.2205 0.722518 89.9421 0.818374 88.3022C0.927923 86.4275 0.698995 84.5304 1.38075 82.7103C2.68947 79.2166 5.14654 77.0194 8.79689 76.199C9.1089 76.1556 9.40438 76.0325 9.65459 75.8418C9.90481 75.6511 10.1013 75.3993 10.225 75.1106C11.3791 72.7935 13.2943 71.3856 15.9166 71.3349C20.9955 71.2375 26.0764 71.2862 31.1558 71.273C31.5416 71.273 31.929 71.273 32.3833 71.273V66.255C27.6707 66.522 23.4335 65.3615 20.079 61.8215C16.7343 58.2909 15.948 53.9807 16.328 49.2063C15.2369 49.2063 14.2577 49.2243 13.2786 49.2004C12.2299 49.2239 11.1808 49.1708 10.1398 49.0416C9.21351 48.8752 8.37614 48.3878 7.77584 47.6656C7.17554 46.9434 6.85099 46.033 6.85969 45.0954C6.84062 41.8015 6.85188 38.5071 6.85384 35.2132C6.85384 32.692 8.08629 31.1881 10.6001 30.6702V9.55637C8.71913 8.80805 7.45737 7.53453 7.16344 5.44839C7.05462 4.5542 7.19723 3.64748 7.57537 2.8293C7.95352 2.01112 8.55232 1.31363 9.30505 0.814599C10.0578 0.315562 10.9349 0.0345872 11.8385 0.00299324C12.7422 -0.0286007 13.6368 0.190427 14.4228 0.635664C15.2088 1.0809 15.8553 1.73485 16.2901 2.52461C16.7249 3.31437 16.9309 4.2089 16.8853 5.10849C16.8397 6.00808 16.5442 6.87736 16.0317 7.61945C15.5192 8.36154 14.8099 8.94725 13.9829 9.31131C13.732 9.46757 13.5212 9.67992 13.3671 9.93151C13.2957 10.0289 13.3539 10.2238 13.3539 10.37V17.0245C13.9667 16.1934 14.4226 15.5069 14.9449 14.8755C18.9894 9.98023 24.2057 7.48192 30.5664 7.45951C39.5847 7.42638 48.6035 7.40446 57.6208 7.46341C62.7985 7.40933 67.7863 9.40434 71.4888 13.0104C75.1913 16.6164 77.3059 21.5388 77.3685 26.6967C77.4037 28.0121 77.3773 29.3275 77.3773 30.6224C80.1131 31.3289 81.1675 32.6867 81.1675 35.4417C81.1675 41.4611 81.1675 47.4802 81.1675 53.4989C81.1675 56.6686 79.137 58.7318 75.9733 58.7956C75.9133 58.7999 75.8532 58.7999 75.7933 58.7956C74.6053 58.6495 73.7392 58.8307 73.0658 60.0964C72.3185 61.5039 70.799 62.0286 69.2052 61.9477C68.7656 61.9209 68.3254 61.9879 67.914 62.144C67.5025 62.3002 67.1292 62.5421 66.819 62.8534C64.2589 65.0821 60.9658 66.2959 57.566 66.2637C56.9952 66.2735 56.424 66.274 55.8543 66.2837C55.7763 66.2989 55.7004 66.3235 55.6284 66.3568V71.2745H56.6857C61.4653 71.2745 66.2453 71.3037 71.0249 71.2643C74.307 71.2365 76.6682 72.5821 78.0743 75.5773C78.2919 75.8639 78.6121 76.0559 78.9683 76.1133C83.3698 77.1105 86.1491 79.7901 86.982 84.1904C87.3283 86.0134 87.1585 87.9481 87.1033 89.8281C87.071 90.9165 86.1594 91.4709 85.3216 92H2.70023ZM27.6956 16.1885C22.7732 17.3743 19.1566 21.6382 19.1082 26.59C19.0226 35.3034 19.0769 44.0177 19.0808 52.7311C19.0759 53.2098 19.1177 53.6879 19.2055 54.1585C20.3333 59.8002 24.6732 63.4093 30.4432 63.4692C33.8666 63.5053 37.2969 63.4804 40.7228 63.477C46.6453 63.4702 52.5668 63.477 58.4879 63.44C60.1525 63.3876 61.7759 62.9112 63.2034 62.0564C62.7431 61.9531 62.4292 61.8844 62.1167 61.8128C61.0542 61.5646 60.1173 60.9427 59.4784 60.0612C58.8395 59.1798 58.5416 58.0982 58.6395 57.0154C58.7361 55.9626 59.2072 54.9788 59.9679 54.2416C60.7285 53.5043 61.7285 53.0621 62.7877 52.9947C64.4368 52.9109 66.0927 52.9557 67.7453 52.9459C68.1218 52.9459 68.4994 52.9459 68.9538 52.9459V51.6461C68.9538 44.0703 68.957 36.4942 68.9635 28.9178C68.9684 26.7868 68.9415 24.6826 68.1057 22.6545C68.0512 22.4045 68.0534 22.1455 68.1121 21.8964C68.1708 21.6474 68.2846 21.4145 68.4451 21.2148C68.618 21.0646 68.8247 20.9583 69.0478 20.905C69.2708 20.8518 69.5035 20.8531 69.726 20.9089C70.1698 21.1264 70.5187 21.4978 70.707 21.9534C71.4454 23.7262 71.8026 25.6334 71.7556 27.5522C71.7595 28.5845 71.7556 29.6164 71.7556 30.6439H74.6132C74.6388 30.4848 74.6551 30.3244 74.6621 30.1635C74.6239 28.6079 74.6621 27.0455 74.5237 25.5001C74.1443 21.3314 72.2158 17.4541 69.116 14.6281C66.0163 11.8021 61.9689 10.2313 57.767 10.2233C48.5986 10.2014 39.4306 10.2233 30.2627 10.2131C28.1547 10.1782 26.0627 10.5817 24.1201 11.3979C17.3286 14.3474 13.7613 19.5593 13.3686 26.9188C13.3021 28.1582 13.3588 29.4035 13.3588 30.6468H16.4028C16.4028 28.9007 16.279 27.1921 16.4248 25.5079C17.0073 18.7555 23.1621 13.1377 29.9585 13.1216C39.3068 13.0999 48.6553 13.1008 58.0042 13.1245C60.9412 13.1418 63.7897 14.1279 66.1045 15.9288C66.3744 16.13 66.7251 16.4949 66.7021 16.7541C66.6819 17.2896 66.4938 17.8053 66.1642 18.2288C65.6991 18.716 65.0535 18.5411 64.5219 18.145C63.2928 17.1978 61.8717 16.528 60.3571 16.1822C58.5705 20.6964 56.0577 22.3894 51.1965 22.3894C46.2971 22.3894 41.3972 22.3997 36.4977 22.3802C35.657 22.3986 34.8167 22.3257 33.9918 22.1629C30.7479 21.4282 28.7148 19.3713 27.6956 16.1885ZM21.1633 89.2576C21.2021 89.1942 21.2313 89.1254 21.2498 89.0535C21.2596 87.7059 21.2557 86.3588 21.2728 85.0098C21.2524 84.5524 21.3275 84.0958 21.4934 83.6689C21.6593 83.2419 21.9123 82.8539 22.2365 82.5294C22.5607 82.2048 22.9489 81.9509 23.3767 81.7835C23.8045 81.6161 24.2625 81.5391 24.7217 81.5571C26.585 81.5352 28.4498 81.5469 30.3131 81.5532C31.3949 81.5571 31.9862 82.0214 32.0096 82.8579C32.0346 83.7154 31.3832 84.2586 30.2979 84.2634C28.5241 84.2703 26.7498 84.2732 24.977 84.2605C24.4214 84.2576 23.9988 84.4125 23.991 85.0327C23.971 86.4305 23.9856 87.8282 23.9856 89.2469H64.0343C64.0343 88.2374 64.0265 87.284 64.0343 86.3306C64.0563 84.1382 64.1135 84.2605 61.9954 84.2625C53.7596 84.269 45.523 84.269 37.2856 84.2625C36.2542 84.2625 35.6072 83.7412 35.5812 82.9276C35.5553 82.1052 36.1906 81.5556 37.2226 81.5547C45.9102 81.5498 54.5975 81.5475 63.2845 81.5479C63.7508 81.5341 64.2148 81.6175 64.6468 81.7926C65.0788 81.9678 65.4694 82.2309 65.7934 82.5651C66.1356 82.9238 66.398 83.3503 66.5637 83.8167C66.7293 84.2832 66.7945 84.7792 66.755 85.2724C66.7188 86.6049 66.7466 87.9388 66.7466 89.2513H75.7688V88.5015C75.7688 85.0878 75.7752 81.674 75.7659 78.2603C75.7915 77.6972 75.6991 77.1349 75.4946 76.6094C75.29 76.0838 74.9778 75.6064 74.5778 75.2077C74.1779 74.8089 73.699 74.4975 73.1715 74.2934C72.6441 74.0892 72.0798 73.9967 71.5145 74.0218C53.1773 74.0153 34.8401 74.0153 16.503 74.0218C15.9378 73.9957 15.3734 74.0872 14.8458 74.2906C14.3181 74.4939 13.8388 74.8047 13.4385 75.2029C13.0381 75.6011 12.7255 76.0781 12.5205 76.6035C12.3156 77.1288 12.2228 77.6909 12.2482 78.254C12.2387 81.6679 12.2387 85.0816 12.2482 88.4952C12.2482 88.7514 12.2834 89.0077 12.3015 89.2586L21.1633 89.2576ZM57.4222 15.8733H30.544C31.2492 17.9945 33.1453 19.5603 35.2208 19.5759C41.0781 19.6194 46.9356 19.6194 52.7932 19.5759C53.8576 19.5228 54.8781 19.1362 55.7089 18.4712C56.5397 17.8062 57.1385 16.8968 57.4198 15.8728L57.4222 15.8733ZM52.8035 66.3091H35.2404V71.2258H52.8035V66.3091ZM16.2267 33.4199C14.3986 33.4199 12.6311 33.3712 10.8685 33.4408C10.6848 33.4469 10.5043 33.4907 10.3383 33.5695C10.1724 33.6483 10.0245 33.7604 9.90408 33.8988C9.78361 34.0371 9.69316 34.1987 9.6383 34.3735C9.58343 34.5483 9.56533 34.7325 9.58522 34.9146C9.5624 38.2664 9.56343 41.6188 9.58821 44.9716C9.5931 45.6478 9.93052 46.3085 10.6465 46.3401C12.4908 46.42 14.3419 46.3669 16.2267 46.3669V33.4199ZM71.8103 33.414V46.3845C73.6565 46.3845 75.4504 46.4205 77.2428 46.3674C77.4116 46.3612 77.5774 46.3206 77.7298 46.2481C77.8822 46.1756 78.0181 46.0727 78.1291 45.9458C78.24 45.8189 78.3237 45.6707 78.3749 45.5104C78.4261 45.35 78.4438 45.1809 78.4269 45.0135C78.4595 41.6321 78.4608 38.2504 78.4308 34.8683C78.4416 34.6787 78.4126 34.4889 78.3458 34.311C78.2789 34.1331 78.1756 33.9711 78.0424 33.8352C77.9092 33.6993 77.7491 33.5925 77.5722 33.5217C77.3953 33.4509 77.2055 33.4175 77.015 33.4238C75.3067 33.3916 73.5983 33.4126 71.8103 33.4126V33.414ZM9.43364 89.2747V78.8142C6.90178 79.4636 5.1402 80.8604 4.1347 83.1814C3.27982 85.1516 3.66271 87.2104 3.60647 89.2747H9.43364ZM78.596 78.9234V89.3049H84.3601C85.1495 82.4964 82.2762 79.6449 78.596 78.9234ZM71.7585 49.1561C71.7585 49.9307 71.7825 50.5275 71.7536 51.1209C71.6886 52.4544 71.5487 53.8005 72.991 54.6029C73.0686 54.6516 73.1266 54.7259 73.1548 54.8128C73.546 56.1477 74.5691 56.1935 75.6866 56.0693C75.8334 56.0532 75.9869 56.0693 76.1366 56.0654C77.3387 56.0196 78.2767 55.3346 78.3604 54.1395C78.4797 52.4548 78.3907 50.756 78.3907 49.1561H71.7585ZM66.3348 55.6873C65.2834 55.6873 64.2319 55.6684 63.1823 55.6932C62.7122 55.6879 62.2588 55.8671 61.9202 56.1921C61.5816 56.5171 61.385 56.9618 61.3728 57.43C61.367 57.6558 61.4067 57.8805 61.4897 58.0907C61.5726 58.3009 61.697 58.4923 61.8556 58.6538C62.0141 58.8152 62.2036 58.9432 62.4128 59.0304C62.622 59.1175 62.8466 59.1619 63.0733 59.161C65.2323 59.2133 67.393 59.2146 69.5553 59.1649C69.7894 59.1682 70.0216 59.1229 70.2371 59.0318C70.4526 58.9407 70.6467 58.8058 70.8069 58.6358C70.9671 58.4657 71.0899 58.2642 71.1675 58.0442C71.2452 57.8242 71.2759 57.5904 71.2577 57.3579C71.2491 57.1257 71.1937 56.8976 71.0949 56.6871C70.9962 56.4766 70.856 56.288 70.6827 56.1325C70.5093 55.9769 70.3064 55.8577 70.086 55.7817C69.8655 55.7058 69.632 55.6747 69.3993 55.6903C68.3747 55.6737 67.3535 55.6878 66.3329 55.6888L66.3348 55.6873ZM14.1076 4.81017C14.0914 4.39615 13.9527 3.99613 13.7088 3.66047C13.465 3.32481 13.1269 3.06851 12.7372 2.9238C12.3475 2.7791 11.9234 2.75245 11.5185 2.84724C11.1136 2.94203 10.7459 3.154 10.4617 3.45649C10.1774 3.75897 9.98935 4.13845 9.92109 4.54718C9.85284 4.9559 9.90747 5.3756 10.0781 5.75346C10.2487 6.13133 10.5278 6.45048 10.8801 6.67074C11.2323 6.89101 11.6421 7.00254 12.0579 6.99132C12.6197 6.97174 13.1508 6.73123 13.535 6.32243C13.9191 5.91364 14.125 5.36987 14.1076 4.81017Z"></path>
      </mask>
      <path d="M2.70023 92C1.17583 91.2205 0.722518 89.9421 0.818374 88.3022C0.927923 86.4275 0.698995 84.5304 1.38075 82.7103C2.68947 79.2166 5.14654 77.0194 8.79689 76.199C9.1089 76.1556 9.40438 76.0325 9.65459 75.8418C9.90481 75.6511 10.1013 75.3993 10.225 75.1106C11.3791 72.7935 13.2943 71.3856 15.9166 71.3349C20.9955 71.2375 26.0764 71.2862 31.1558 71.273C31.5416 71.273 31.929 71.273 32.3833 71.273V66.255C27.6707 66.522 23.4335 65.3615 20.079 61.8215C16.7343 58.2909 15.948 53.9807 16.328 49.2063C15.2369 49.2063 14.2577 49.2243 13.2786 49.2004C12.2299 49.2239 11.1808 49.1708 10.1398 49.0416C9.21351 48.8752 8.37614 48.3878 7.77584 47.6656C7.17554 46.9434 6.85099 46.033 6.85969 45.0954C6.84062 41.8015 6.85188 38.5071 6.85384 35.2132C6.85384 32.692 8.08629 31.1881 10.6001 30.6702V9.55637C8.71913 8.80805 7.45737 7.53453 7.16344 5.44839C7.05462 4.5542 7.19723 3.64748 7.57537 2.8293C7.95352 2.01112 8.55232 1.31363 9.30505 0.814599C10.0578 0.315562 10.9349 0.0345872 11.8385 0.00299324C12.7422 -0.0286007 13.6368 0.190427 14.4228 0.635664C15.2088 1.0809 15.8553 1.73485 16.2901 2.52461C16.7249 3.31437 16.9309 4.2089 16.8853 5.10849C16.8397 6.00808 16.5442 6.87736 16.0317 7.61945C15.5192 8.36154 14.8099 8.94725 13.9829 9.31131C13.732 9.46757 13.5212 9.67992 13.3671 9.93151C13.2957 10.0289 13.3539 10.2238 13.3539 10.37V17.0245C13.9667 16.1934 14.4226 15.5069 14.9449 14.8755C18.9894 9.98023 24.2057 7.48192 30.5664 7.45951C39.5847 7.42638 48.6035 7.40446 57.6208 7.46341C62.7985 7.40933 67.7863 9.40434 71.4888 13.0104C75.1913 16.6164 77.3059 21.5388 77.3685 26.6967C77.4037 28.0121 77.3773 29.3275 77.3773 30.6224C80.1131 31.3289 81.1675 32.6867 81.1675 35.4417C81.1675 41.4611 81.1675 47.4802 81.1675 53.4989C81.1675 56.6686 79.137 58.7318 75.9733 58.7956C75.9133 58.7999 75.8532 58.7999 75.7933 58.7956C74.6053 58.6495 73.7392 58.8307 73.0658 60.0964C72.3185 61.5039 70.799 62.0286 69.2052 61.9477C68.7656 61.9209 68.3254 61.9879 67.914 62.144C67.5025 62.3002 67.1292 62.5421 66.819 62.8534C64.2589 65.0821 60.9658 66.2959 57.566 66.2637C56.9952 66.2735 56.424 66.274 55.8543 66.2837C55.7763 66.2989 55.7004 66.3235 55.6284 66.3568V71.2745H56.6857C61.4653 71.2745 66.2453 71.3037 71.0249 71.2643C74.307 71.2365 76.6682 72.5821 78.0743 75.5773C78.2919 75.8639 78.6121 76.0559 78.9683 76.1133C83.3698 77.1105 86.1491 79.7901 86.982 84.1904C87.3283 86.0134 87.1585 87.9481 87.1033 89.8281C87.071 90.9165 86.1594 91.4709 85.3216 92H2.70023ZM27.6956 16.1885C22.7732 17.3743 19.1566 21.6382 19.1082 26.59C19.0226 35.3034 19.0769 44.0177 19.0808 52.7311C19.0759 53.2098 19.1177 53.6879 19.2055 54.1585C20.3333 59.8002 24.6732 63.4093 30.4432 63.4692C33.8666 63.5053 37.2969 63.4804 40.7228 63.477C46.6453 63.4702 52.5668 63.477 58.4879 63.44C60.1525 63.3876 61.7759 62.9112 63.2034 62.0564C62.7431 61.9531 62.4292 61.8844 62.1167 61.8128C61.0542 61.5646 60.1173 60.9427 59.4784 60.0612C58.8395 59.1798 58.5416 58.0982 58.6395 57.0154C58.7361 55.9626 59.2072 54.9788 59.9679 54.2416C60.7285 53.5043 61.7285 53.0621 62.7877 52.9947C64.4368 52.9109 66.0927 52.9557 67.7453 52.9459C68.1218 52.9459 68.4994 52.9459 68.9538 52.9459V51.6461C68.9538 44.0703 68.957 36.4942 68.9635 28.9178C68.9684 26.7868 68.9415 24.6826 68.1057 22.6545C68.0512 22.4045 68.0534 22.1455 68.1121 21.8964C68.1708 21.6474 68.2846 21.4145 68.4451 21.2148C68.618 21.0646 68.8247 20.9583 69.0478 20.905C69.2708 20.8518 69.5035 20.8531 69.726 20.9089C70.1698 21.1264 70.5187 21.4978 70.707 21.9534C71.4454 23.7262 71.8026 25.6334 71.7556 27.5522C71.7595 28.5845 71.7556 29.6164 71.7556 30.6439H74.6132C74.6388 30.4848 74.6551 30.3244 74.6621 30.1635C74.6239 28.6079 74.6621 27.0455 74.5237 25.5001C74.1443 21.3314 72.2158 17.4541 69.116 14.6281C66.0163 11.8021 61.9689 10.2313 57.767 10.2233C48.5986 10.2014 39.4306 10.2233 30.2627 10.2131C28.1547 10.1782 26.0627 10.5817 24.1201 11.3979C17.3286 14.3474 13.7613 19.5593 13.3686 26.9188C13.3021 28.1582 13.3588 29.4035 13.3588 30.6468H16.4028C16.4028 28.9007 16.279 27.1921 16.4248 25.5079C17.0073 18.7555 23.1621 13.1377 29.9585 13.1216C39.3068 13.0999 48.6553 13.1008 58.0042 13.1245C60.9412 13.1418 63.7897 14.1279 66.1045 15.9288C66.3744 16.13 66.7251 16.4949 66.7021 16.7541C66.6819 17.2896 66.4938 17.8053 66.1642 18.2288C65.6991 18.716 65.0535 18.5411 64.5219 18.145C63.2928 17.1978 61.8717 16.528 60.3571 16.1822C58.5705 20.6964 56.0577 22.3894 51.1965 22.3894C46.2971 22.3894 41.3972 22.3997 36.4977 22.3802C35.657 22.3986 34.8167 22.3257 33.9918 22.1629C30.7479 21.4282 28.7148 19.3713 27.6956 16.1885ZM21.1633 89.2576C21.2021 89.1942 21.2313 89.1254 21.2498 89.0535C21.2596 87.7059 21.2557 86.3588 21.2728 85.0098C21.2524 84.5524 21.3275 84.0958 21.4934 83.6689C21.6593 83.2419 21.9123 82.8539 22.2365 82.5294C22.5607 82.2048 22.9489 81.9509 23.3767 81.7835C23.8045 81.6161 24.2625 81.5391 24.7217 81.5571C26.585 81.5352 28.4498 81.5469 30.3131 81.5532C31.3949 81.5571 31.9862 82.0214 32.0096 82.8579C32.0346 83.7154 31.3832 84.2586 30.2979 84.2634C28.5241 84.2703 26.7498 84.2732 24.977 84.2605C24.4214 84.2576 23.9988 84.4125 23.991 85.0327C23.971 86.4305 23.9856 87.8282 23.9856 89.2469H64.0343C64.0343 88.2374 64.0265 87.284 64.0343 86.3306C64.0563 84.1382 64.1135 84.2605 61.9954 84.2625C53.7596 84.269 45.523 84.269 37.2856 84.2625C36.2542 84.2625 35.6072 83.7412 35.5812 82.9276C35.5553 82.1052 36.1906 81.5556 37.2226 81.5547C45.9102 81.5498 54.5975 81.5475 63.2845 81.5479C63.7508 81.5341 64.2148 81.6175 64.6468 81.7926C65.0788 81.9678 65.4694 82.2309 65.7934 82.5651C66.1356 82.9238 66.398 83.3503 66.5637 83.8167C66.7293 84.2832 66.7945 84.7792 66.755 85.2724C66.7188 86.6049 66.7466 87.9388 66.7466 89.2513H75.7688V88.5015C75.7688 85.0878 75.7752 81.674 75.7659 78.2603C75.7915 77.6972 75.6991 77.1349 75.4946 76.6094C75.29 76.0838 74.9778 75.6064 74.5778 75.2077C74.1779 74.8089 73.699 74.4975 73.1715 74.2934C72.6441 74.0892 72.0798 73.9967 71.5145 74.0218C53.1773 74.0153 34.8401 74.0153 16.503 74.0218C15.9378 73.9957 15.3734 74.0872 14.8458 74.2906C14.3181 74.4939 13.8388 74.8047 13.4385 75.2029C13.0381 75.6011 12.7255 76.0781 12.5205 76.6035C12.3156 77.1288 12.2228 77.6909 12.2482 78.254C12.2387 81.6679 12.2387 85.0816 12.2482 88.4952C12.2482 88.7514 12.2834 89.0077 12.3015 89.2586L21.1633 89.2576ZM57.4222 15.8733H30.544C31.2492 17.9945 33.1453 19.5603 35.2208 19.5759C41.0781 19.6194 46.9356 19.6194 52.7932 19.5759C53.8576 19.5228 54.8781 19.1362 55.7089 18.4712C56.5397 17.8062 57.1385 16.8968 57.4198 15.8728L57.4222 15.8733ZM52.8035 66.3091H35.2404V71.2258H52.8035V66.3091ZM16.2267 33.4199C14.3986 33.4199 12.6311 33.3712 10.8685 33.4408C10.6848 33.4469 10.5043 33.4907 10.3383 33.5695C10.1724 33.6483 10.0245 33.7604 9.90408 33.8988C9.78361 34.0371 9.69316 34.1987 9.6383 34.3735C9.58343 34.5483 9.56533 34.7325 9.58522 34.9146C9.5624 38.2664 9.56343 41.6188 9.58821 44.9716C9.5931 45.6478 9.93052 46.3085 10.6465 46.3401C12.4908 46.42 14.3419 46.3669 16.2267 46.3669V33.4199ZM71.8103 33.414V46.3845C73.6565 46.3845 75.4504 46.4205 77.2428 46.3674C77.4116 46.3612 77.5774 46.3206 77.7298 46.2481C77.8822 46.1756 78.0181 46.0727 78.1291 45.9458C78.24 45.8189 78.3237 45.6707 78.3749 45.5104C78.4261 45.35 78.4438 45.1809 78.4269 45.0135C78.4595 41.6321 78.4608 38.2504 78.4308 34.8683C78.4416 34.6787 78.4126 34.4889 78.3458 34.311C78.2789 34.1331 78.1756 33.9711 78.0424 33.8352C77.9092 33.6993 77.7491 33.5925 77.5722 33.5217C77.3953 33.4509 77.2055 33.4175 77.015 33.4238C75.3067 33.3916 73.5983 33.4126 71.8103 33.4126V33.414ZM9.43364 89.2747V78.8142C6.90178 79.4636 5.1402 80.8604 4.1347 83.1814C3.27982 85.1516 3.66271 87.2104 3.60647 89.2747H9.43364ZM78.596 78.9234V89.3049H84.3601C85.1495 82.4964 82.2762 79.6449 78.596 78.9234ZM71.7585 49.1561C71.7585 49.9307 71.7825 50.5275 71.7536 51.1209C71.6886 52.4544 71.5487 53.8005 72.991 54.6029C73.0686 54.6516 73.1266 54.7259 73.1548 54.8128C73.546 56.1477 74.5691 56.1935 75.6866 56.0693C75.8334 56.0532 75.9869 56.0693 76.1366 56.0654C77.3387 56.0196 78.2767 55.3346 78.3604 54.1395C78.4797 52.4548 78.3907 50.756 78.3907 49.1561H71.7585ZM66.3348 55.6873C65.2834 55.6873 64.2319 55.6684 63.1823 55.6932C62.7122 55.6879 62.2588 55.8671 61.9202 56.1921C61.5816 56.5171 61.385 56.9618 61.3728 57.43C61.367 57.6558 61.4067 57.8805 61.4897 58.0907C61.5726 58.3009 61.697 58.4923 61.8556 58.6538C62.0141 58.8152 62.2036 58.9432 62.4128 59.0304C62.622 59.1175 62.8466 59.1619 63.0733 59.161C65.2323 59.2133 67.393 59.2146 69.5553 59.1649C69.7894 59.1682 70.0216 59.1229 70.2371 59.0318C70.4526 58.9407 70.6467 58.8058 70.8069 58.6358C70.9671 58.4657 71.0899 58.2642 71.1675 58.0442C71.2452 57.8242 71.2759 57.5904 71.2577 57.3579C71.2491 57.1257 71.1937 56.8976 71.0949 56.6871C70.9962 56.4766 70.856 56.288 70.6827 56.1325C70.5093 55.9769 70.3064 55.8577 70.086 55.7817C69.8655 55.7058 69.632 55.6747 69.3993 55.6903C68.3747 55.6737 67.3535 55.6878 66.3329 55.6888L66.3348 55.6873ZM14.1076 4.81017C14.0914 4.39615 13.9527 3.99613 13.7088 3.66047C13.465 3.32481 13.1269 3.06851 12.7372 2.9238C12.3475 2.7791 11.9234 2.75245 11.5185 2.84724C11.1136 2.94203 10.7459 3.154 10.4617 3.45649C10.1774 3.75897 9.98935 4.13845 9.92109 4.54718C9.85284 4.9559 9.90747 5.3756 10.0781 5.75346C10.2487 6.13133 10.5278 6.45048 10.8801 6.67074C11.2323 6.89101 11.6421 7.00254 12.0579 6.99132C12.6197 6.97174 13.1508 6.73123 13.535 6.32243C13.9191 5.91364 14.125 5.36987 14.1076 4.81017Z" fill="url(#paint0_linear_130_160)" stroke="#414141" stroke-opacity="0.13" stroke-width="2" mask="url(#path-1-inside-1_130_160)"></path>
    </g>
    <g id="Path 138440">
      <path d="M44.0665 25.5294C49.5065 25.5294 54.9473 25.5294 60.3889 25.5294C64.2314 25.5294 66.5021 27.7846 66.5065 31.6066C66.512 35.8578 66.512 40.1097 66.5065 44.3622C66.5006 48.136 64.2319 50.4151 60.4573 50.4175C49.4857 50.4243 38.5145 50.4243 27.5436 50.4175C23.8091 50.4146 21.5237 48.1374 21.5154 44.4324C21.5069 40.1497 21.5069 35.8678 21.5154 31.5867C21.5203 27.8168 23.8022 25.5333 27.5646 25.5304C33.0655 25.5265 38.5662 25.5262 44.0665 25.5294ZM43.9197 47.6405C49.4778 47.6405 55.0367 47.6405 60.5967 47.6405C62.6776 47.6405 63.7042 46.633 63.7071 44.581C63.713 40.1807 63.713 35.7797 63.7071 31.3781C63.7042 29.3592 62.7036 28.3035 60.6882 28.3006C49.5702 28.2853 38.4522 28.2853 27.3343 28.3006C25.3154 28.3035 24.3182 29.3563 24.3152 31.3781C24.3104 35.7784 24.3104 40.1794 24.3152 44.581C24.3182 46.633 25.3423 47.6386 27.4238 47.6405C32.9221 47.6428 38.4208 47.6428 43.9197 47.6405Z" fill="url(#paint1_linear_130_160)"></path>
      <path d="M44.0665 26.0294H44.0662C38.5661 26.0262 33.0657 26.0265 27.5649 26.0304M44.0665 26.0294L27.5436 50.4175C23.8091 50.4146 21.5237 48.1374 21.5154 44.4324L22.0154 44.4314M44.0665 26.0294H44.0984H44.1302H44.1621H44.194H44.2259H44.2577H44.2896H44.3215H44.3534H44.3852H44.4171H44.449H44.4809H44.5127H44.5446H44.5765H44.6084H44.6402H44.6721H44.704H44.7359H44.7677H44.7996H44.8315H44.8634H44.8952H44.9271H44.959H44.9909H45.0227H45.0546H45.0865H45.1184H45.1502H45.1821H45.214H45.2459H45.2778H45.3096H45.3415H45.3734H45.4053H45.4371H45.469H45.5009H45.5328H45.5646H45.5965H45.6284H45.6603H45.6921H45.724H45.7559H45.7878H45.8196H45.8515H45.8834H45.9153H45.9471H45.979H46.0109H46.0428H46.0746H46.1065H46.1384H46.1703H46.2022H46.234H46.2659H46.2978H46.3297H46.3615H46.3934H46.4253H46.4572H46.489H46.5209H46.5528H46.5847H46.6165H46.6484H46.6803H46.7122H46.744H46.7759H46.8078H46.8397H46.8716H46.9034H46.9353H46.9672H46.9991H47.0309H47.0628H47.0947H47.1266H47.1584H47.1903H47.2222H47.2541H47.2859H47.3178H47.3497H47.3816H47.4135H47.4453H47.4772H47.5091H47.541H47.5728H47.6047H47.6366H47.6685H47.7003H47.7322H47.7641H47.796H47.8279H47.8597H47.8916H47.9235H47.9554H47.9872H48.0191H48.051H48.0829H48.1148H48.1466H48.1785H48.2104H48.2423H48.2741H48.306H48.3379H48.3698H48.4016H48.4335H48.4654H48.4973H48.5292H48.561H48.5929H48.6248H48.6567H48.6885H48.7204H48.7523H48.7842H48.8161H48.8479H48.8798H48.9117H48.9436H48.9754H49.0073H49.0392H49.0711H49.103H49.1348H49.1667H49.1986H49.2305H49.2623H49.2942H49.3261H49.358H49.3899H49.4217H49.4536H49.4855H49.5174H49.5492H49.5811H49.613H49.6449H49.6768H49.7086H49.7405H49.7724H49.8043H49.8362H49.868H49.8999H49.9318H49.9637H49.9955H50.0274H50.0593H50.0912H50.1231H50.1549H50.1868H50.2187H50.2506H50.2824H50.3143H50.3462H50.3781H50.41H50.4418H50.4737H50.5056H50.5375H50.5694H50.6012H50.6331H50.665H50.6969H50.7287H50.7606H50.7925H50.8244H50.8563H50.8881H50.92H50.9519H50.9838H51.0157H51.0475H51.0794H51.1113H51.1432H51.1751H51.2069H51.2388H51.2707H51.3026H51.3344H51.3663H51.3982H51.4301H51.462H51.4938H51.5257H51.5576H51.5895H51.6214H51.6532H51.6851H51.717H51.7489H51.7808H51.8126H51.8445H51.8764H51.9083H51.9402H51.972H52.0039H52.0358H52.0677H52.0996H52.1314H52.1633H52.1952H52.2271H52.259H52.2908H52.3227H52.3546H52.3865H52.4184H52.4502H52.4821H52.514H52.5459H52.5777H52.6096H52.6415H52.6734H52.7053H52.7372H52.769H52.8009H52.8328H52.8647H52.8965H52.9284H52.9603H52.9922H53.0241H53.056H53.0878H53.1197H53.1516H53.1835H53.2154H53.2472H53.2791H53.311H53.3429H53.3748H53.4066H53.4385H53.4704H53.5023H53.5342H53.566H53.5979H53.6298H53.6617H53.6936H53.7254H53.7573H53.7892H53.8211H53.853H53.8848H53.9167H53.9486H53.9805H54.0124H54.0442H54.0761H54.108H54.1399H54.1718H54.2036H54.2355H54.2674H54.2993H54.3312H54.3631H54.3949H54.4268H54.4587H54.4906H54.5225H54.5543H54.5862H54.6181H54.65H54.6819H54.7137H54.7456H54.7775H54.8094H54.8413H54.8731H54.905H54.9369H54.9688H55.0007H55.0326H55.0644H55.0963H55.1282H55.1601H55.192H55.2238H55.2557H55.2876H55.3195H55.3514H55.3833H55.4151H55.447H55.4789H55.5108H55.5427H55.5745H55.6064H55.6383H55.6702H55.7021H55.7339H55.7658H55.7977H55.8296H55.8615H55.8934H55.9252H55.9571H55.989H56.0209H56.0528H56.0846H56.1165H56.1484H56.1803H56.2122H56.2441H56.2759H56.3078H56.3397H56.3716H56.4035H56.4353H56.4672H56.4991H56.531H56.5629H56.5948H56.6266H56.6585H56.6904H56.7223H56.7542H56.7861H56.8179H56.8498H56.8817H56.9136H56.9455H56.9773H57.0092H57.0411H57.073H57.1049H57.1368H57.1686H57.2005H57.2324H57.2643H57.2962H57.3281H57.3599H57.3918H57.4237H57.4556H57.4875H57.5194H57.5512H57.5831H57.615H57.6469H57.6788H57.7107H57.7425H57.7744H57.8063H57.8382H57.8701H57.9019H57.9338H57.9657H57.9976H58.0295H58.0614H58.0932H58.1251H58.157H58.1889H58.2208H58.2527H58.2845H58.3164H58.3483H58.3802H58.4121H58.444H58.4758H58.5077H58.5396H58.5715H58.6034H58.6353H58.6671H58.699H58.7309H58.7628H58.7947H58.8266H58.8584H58.8903H58.9222H58.9541H58.986H59.0179H59.0497H59.0816H59.1135H59.1454H59.1773H59.2092H59.2411H59.2729H59.3048H59.3367H59.3686H59.4005H59.4324H59.4642H59.4961H59.528H59.5599H59.5918H59.6237H59.6555H59.6874H59.7193H59.7512H59.7831H59.815H59.8468H59.8787H59.9106H59.9425H59.9744H60.0063H60.0382H60.07H60.1019H60.1338H60.1657H60.1976H60.2295H60.2613H60.2932H60.3251H60.357H60.3889C62.2128 26.0294 63.6017 26.5629 64.5346 27.4895C65.4671 28.4158 66.0044 29.7952 66.0065 31.6072V31.6073M44.0665 26.0294L66.0065 31.6073M27.5649 26.0304L27.5646 25.5304L27.5649 26.0304ZM27.5649 26.0304C25.7854 26.0318 24.4126 26.5704 23.4847 27.4993C22.5567 28.4283 22.0177 29.8036 22.0154 31.5873L22.0154 31.5877C22.0069 35.868 22.0069 40.1492 22.0154 44.4312C22.0154 44.4313 22.0154 44.4313 22.0154 44.4314M22.0154 44.4314C22.0193 46.1803 22.5585 47.5381 23.4846 48.4586C24.4111 49.3793 25.7789 49.9161 27.544 49.9175M22.0154 44.4314L27.544 49.9175M27.544 49.9175C38.5147 49.9243 49.4856 49.9243 60.457 49.9175M27.544 49.9175H60.457M66.0065 31.6073C66.012 35.858 66.012 40.1094 66.0065 44.3614M66.0065 31.6073V44.3614M66.0065 44.3614C66.0037 46.148 65.4673 47.523 64.5413 48.4509M66.0065 44.3614L64.5413 48.4509M64.5413 48.4509C63.6154 49.3786 62.2432 49.9163 60.457 49.9175M64.5413 48.4509L60.457 49.9175M64.2071 31.3775V31.3774C64.2055 30.292 63.9355 29.3772 63.3108 28.7348C62.6835 28.0898 61.7796 27.8021 60.6889 27.8006C49.5704 27.7853 38.452 27.7853 27.3336 27.8006H27.3335C26.2417 27.8021 25.3374 28.0888 24.7103 28.7337C24.0857 29.3761 23.8168 30.2912 23.8152 31.3774L23.8152 31.3776C23.8104 35.7783 23.8104 40.1796 23.8152 44.5815L23.8152 44.5817C23.8168 45.6845 24.0933 46.6004 24.7394 47.236C25.384 47.8701 26.3098 48.1395 27.4233 48.1405H27.4235C32.922 48.1428 38.4207 48.1428 43.9197 48.1405C43.9198 48.1405 43.9199 48.1405 43.92 48.1405H43.9523H43.9849H44.0174H44.05H44.0826H44.1151H44.1477H44.1803H44.2128H44.2454H44.278H44.3105H44.3431H44.3757H44.4082H44.4408H44.4734H44.5059H44.5385H44.5711H44.6036H44.6362H44.6688H44.7013H44.7339H44.7665H44.7991H44.8316H44.8642H44.8968H44.9293H44.9619H44.9945H45.027H45.0596H45.0922H45.1247H45.1573H45.1899H45.2224H45.255H45.2876H45.3201H45.3527H45.3853H45.4178H45.4504H45.483H45.5155H45.5481H45.5807H45.6132H45.6458H45.6784H45.7109H45.7435H45.7761H45.8086H45.8412H45.8738H45.9063H45.9389H45.9715H46.004H46.0366H46.0692H46.1017H46.1343H46.1669H46.1995H46.232H46.2646H46.2972H46.3297H46.3623H46.3949H46.4274H46.46H46.4926H46.5251H46.5577H46.5903H46.6228H46.6554H46.688H46.7205H46.7531H46.7857H46.8183H46.8508H46.8834H46.916H46.9485H46.9811H47.0137H47.0462H47.0788H47.1114H47.1439H47.1765H47.2091H47.2416H47.2742H47.3068H47.3393H47.3719H47.4045H47.4371H47.4696H47.5022H47.5348H47.5673H47.5999H47.6325H47.665H47.6976H47.7302H47.7627H47.7953H47.8279H47.8605H47.893H47.9256H47.9582H47.9907H48.0233H48.0559H48.0884H48.121H48.1536H48.1861H48.2187H48.2513H48.2839H48.3164H48.349H48.3816H48.4141H48.4467H48.4793H48.5118H48.5444H48.577H48.6095H48.6421H48.6747H48.7073H48.7398H48.7724H48.805H48.8375H48.8701H48.9027H48.9352H48.9678H49.0004H49.033H49.0655H49.0981H49.1307H49.1632H49.1958H49.2284H49.2609H49.2935H49.3261H49.3587H49.3912H49.4238H49.4564H49.4889H49.5215H49.5541H49.5866H49.6192H49.6518H49.6844H49.7169H49.7495H49.7821H49.8146H49.8472H49.8798H49.9123H49.9449H49.9775H50.0101H50.0426H50.0752H50.1078H50.1403H50.1729H50.2055H50.2381H50.2706H50.3032H50.3358H50.3683H50.4009H50.4335H50.4661H50.4986H50.5312H50.5638H50.5963H50.6289H50.6615H50.694H50.7266H50.7592H50.7918H50.8243H50.8569H50.8895H50.922H50.9546H50.9872H51.0198H51.0523H51.0849H51.1175H51.15H51.1826H51.2152H51.2478H51.2803H51.3129H51.3455H51.378H51.4106H51.4432H51.4758H51.5083H51.5409H51.5735H51.606H51.6386H51.6712H51.7038H51.7363H51.7689H51.8015H51.8341H51.8666H51.8992H51.9318H51.9643H51.9969H52.0295H52.0621H52.0946H52.1272H52.1598H52.1923H52.2249H52.2575H52.2901H52.3226H52.3552H52.3878H52.4203H52.4529H52.4855H52.5181H52.5506H52.5832H52.6158H52.6484H52.6809H52.7135H52.7461H52.7786H52.8112H52.8438H52.8764H52.9089H52.9415H52.9741H53.0067H53.0392H53.0718H53.1044H53.1369H53.1695H53.2021H53.2347H53.2672H53.2998H53.3324H53.365H53.3975H53.4301H53.4627H53.4952H53.5278H53.5604H53.593H53.6255H53.6581H53.6907H53.7233H53.7558H53.7884H53.821H53.8535H53.8861H53.9187H53.9513H53.9838H54.0164H54.049H54.0816H54.1141H54.1467H54.1793H54.2119H54.2444H54.277H54.3096H54.3421H54.3747H54.4073H54.4399H54.4724H54.505H54.5376H54.5702H54.6027H54.6353H54.6679H54.7005H54.733H54.7656H54.7982H54.8308H54.8633H54.8959H54.9285H54.9611H54.9936H55.0262H55.0588H55.0913H55.1239H55.1565H55.1891H55.2216H55.2542H55.2868H55.3194H55.3519H55.3845H55.4171H55.4497H55.4822H55.5148H55.5474H55.58H55.6125H55.6451H55.6777H55.7103H55.7428H55.7754H55.808H55.8406H55.8731H55.9057H55.9383H55.9709H56.0034H56.036H56.0686H56.1012H56.1337H56.1663H56.1989H56.2315H56.264H56.2966H56.3292H56.3618H56.3943H56.4269H56.4595H56.4921H56.5246H56.5572H56.5898H56.6224H56.6549H56.6875H56.7201H56.7527H56.7852H56.8178H56.8504H56.883H56.9155H56.9481H56.9807H57.0133H57.0458H57.0784H57.111H57.1436H57.1761H57.2087H57.2413H57.2739H57.3064H57.339H57.3716H57.4042H57.4367H57.4693H57.5019H57.5345H57.567H57.5996H57.6322H57.6648H57.6973H57.7299H57.7625H57.7951H57.8277H57.8602H57.8928H57.9254H57.958H57.9905H58.0231H58.0557H58.0883H58.1208H58.1534H58.186H58.2186H58.2511H58.2837H58.3163H58.3489H58.3814H58.414H58.4466H58.4792H58.5118H58.5443H58.5769H58.6095H58.6421H58.6746H58.7072H58.7398H58.7724H58.8049H58.8375H58.8701H58.9027H58.9352H58.9678H59.0004H59.033H59.0656H59.0981H59.1307H59.1633H59.1959H59.2284H59.261H59.2936H59.3262H59.3587H59.3913H59.4239H59.4565H59.4891H59.5216H59.5542H59.5868H59.6194H59.6519H59.6845H59.7171H59.7497H59.7822H59.8148H59.8474H59.88H59.9126H59.9451H59.9777H60.0103H60.0429H60.0754H60.108H60.1406H60.1732H60.2058H60.2383H60.2709H60.3035H60.3361H60.3686H60.4012H60.4338H60.4664H60.499H60.5315H60.5641H60.5967C61.7103 48.1405 62.6365 47.8711 63.2817 47.2368C63.9283 46.6011 64.2055 45.6847 64.2071 44.5817C64.213 40.1809 64.213 35.7795 64.2071 31.3775Z" stroke="#414141" stroke-opacity="0.13"></path>
    </g>
    <g id="Path 138441">
      <path d="M44.0245 60.056C42.5877 60.0498 41.1523 59.9655 39.7247 59.8036C38.6995 59.6009 37.7743 59.056 37.102 58.2588C36.4297 57.4616 36.0505 56.4598 36.0268 55.4189C36.0019 54.4933 36.4587 53.914 37.2613 53.8521C38.0638 53.7903 38.6272 54.2965 38.7607 55.1861C38.9745 56.6096 39.595 57.1835 41.0187 57.1982C43.03 57.218 45.0417 57.218 47.0537 57.1982C48.4147 57.183 49.0642 56.5741 49.2545 55.2241C49.389 54.2813 49.9758 53.7664 50.8082 53.8599C51.6117 53.952 52.0235 54.5162 51.9854 55.4716C51.9197 56.6786 51.396 57.8156 50.5202 58.6524C49.6445 59.4891 48.4823 59.963 47.2689 59.9781C46.1891 60.0122 45.1068 59.9839 44.026 59.9839L44.0245 60.056Z" fill="url(#paint2_linear_130_160)"></path>
      <path d="M36.5267 55.4076L36.5267 55.4076L36.5267 55.4055C36.5164 55.0236 36.6069 54.7728 36.7265 54.6211C36.8394 54.4778 37.0172 54.3724 37.2997 54.3507C37.5813 54.3289 37.7841 54.4061 37.9291 54.5354C38.0799 54.67 38.2124 54.9015 38.2663 55.2603L38.2663 55.2603C38.3805 56.0213 38.6166 56.6565 39.1018 57.0924C39.5904 57.5313 40.2441 57.6902 41.0136 57.6981L41.0138 57.6981C43.0284 57.718 45.0433 57.718 47.0586 57.6981L47.0592 57.6981C47.8085 57.6898 48.449 57.5171 48.9289 57.0822C49.4058 56.65 49.6458 56.0294 49.7495 55.2947C49.8046 54.9081 49.9441 54.6656 50.0995 54.5292C50.2476 54.3991 50.4568 54.3237 50.7518 54.3567C51.0416 54.3901 51.2072 54.498 51.3086 54.6369C51.4185 54.7873 51.5016 55.0415 51.4859 55.4481C51.4263 56.5265 50.9579 57.5426 50.1748 58.2909C49.3907 59.04 48.3498 59.4646 47.2627 59.4781L47.2627 59.478L47.2531 59.4783C46.5201 59.5015 45.7924 59.4955 45.0534 59.4895C44.7139 59.4867 44.3719 59.4839 44.026 59.4839H43.5362L43.5348 59.5508C42.2875 59.5297 41.0418 59.4491 39.802 59.3092C38.8958 59.1254 38.0789 58.6415 37.4843 57.9365C36.8854 57.2263 36.5478 56.3342 36.5267 55.4076Z" stroke="#414141" stroke-opacity="0.13"></path>
    </g>
    <g id="Path 138442">
      <path d="M33.6132 32.6993C34.3112 32.695 35.0031 32.8281 35.6494 33.0908C36.2956 33.3535 36.8834 33.7406 37.3792 34.2301C37.8749 34.7195 38.2688 35.3016 38.5382 35.943C38.8077 36.5844 38.9474 37.2725 38.9494 37.9677C38.9506 38.6632 38.8144 39.352 38.5484 39.995C38.2824 40.6379 37.8919 41.2224 37.3992 41.715C36.9064 42.2076 36.3211 42.5987 35.6766 42.866C35.0322 43.1333 34.3412 43.2715 33.6431 43.2728C32.945 43.274 32.2535 43.1383 31.608 42.8733C30.9626 42.6083 30.3759 42.2193 29.8814 41.7284C29.3869 41.2376 28.9943 40.6545 28.726 40.0125C28.4577 39.3705 28.3189 38.6822 28.3177 37.9867C28.3102 37.2913 28.4419 36.6014 28.7053 35.9573C28.9686 35.3132 29.3582 34.7279 29.8513 34.2356C30.3443 33.7433 30.931 33.3538 31.5769 33.0901C32.2229 32.8263 32.9151 32.6934 33.6132 32.6993ZM33.4905 40.5401C34.0003 40.5652 34.5062 40.4391 34.9441 40.1778C35.382 39.9166 35.7324 39.5318 35.9508 39.0722C36.1693 38.6126 36.246 38.0988 36.1714 37.5958C36.0967 37.0927 35.874 36.6231 35.5314 36.2461C35.1888 35.8691 34.7417 35.6018 34.2466 35.4779C33.7516 35.354 33.2307 35.3792 32.75 35.5502C32.2692 35.7212 31.8502 36.0303 31.5458 36.4385C31.2414 36.8467 31.0653 37.3356 31.0398 37.8435C31.0192 38.5214 31.2629 39.1809 31.7198 39.6838C32.1767 40.1866 32.8113 40.4937 33.4905 40.5406V40.5401Z" fill="url(#paint3_linear_130_160)"></path>
      <path d="M33.609 33.1993L33.609 33.1993L33.6163 33.1993C34.2487 33.1954 34.8756 33.316 35.4611 33.554C36.0465 33.7919 36.5789 34.1426 37.0279 34.5859C37.4768 35.0291 37.8334 35.5561 38.0773 36.1367C38.3211 36.7172 38.4476 37.3399 38.4494 37.9692C38.4504 38.5985 38.3271 39.2219 38.0863 39.8038C37.8455 40.3859 37.4919 40.9152 37.0456 41.3614C36.5993 41.8076 36.0691 42.162 35.4851 42.4042C34.9011 42.6464 34.2749 42.7716 33.6422 42.7728C33.0095 42.7739 32.3828 42.6509 31.7979 42.4107C31.2131 42.1706 30.6816 41.8182 30.2336 41.3736C29.7857 40.929 29.4302 40.401 29.1873 39.8197C28.9444 39.2385 28.8188 38.6153 28.8177 37.9858L28.8177 37.9814C28.8109 37.3527 28.93 36.7289 29.1681 36.1465C29.4062 35.5642 29.7585 35.0348 30.2045 34.5894C30.6506 34.1441 31.1814 33.7917 31.766 33.5529C32.3506 33.3142 32.9771 33.194 33.609 33.1993ZM33.9905 41.0763V41.0207C34.4164 40.969 34.8288 40.8289 35.2003 40.6072C35.723 40.2954 36.1414 39.836 36.4024 39.2869C36.6634 38.7377 36.7552 38.1236 36.666 37.5224C36.5767 36.9211 36.3105 36.36 35.9014 35.9098C35.4923 35.4596 34.9587 35.1407 34.368 34.9929C33.7774 34.8451 33.156 34.8751 32.5824 35.0791C32.0088 35.2831 31.5085 35.652 31.1449 36.1396C30.7814 36.6272 30.5709 37.2114 30.5404 37.8185L30.5403 37.8185L30.54 37.8283C30.5155 38.636 30.8059 39.4215 31.3497 40.02C31.8936 40.6185 32.6485 40.9836 33.456 41.0394L33.9905 41.0763Z" stroke="#414141" stroke-opacity="0.13"></path>
    </g>
    <g id="Path 138443">
      <path d="M59.7034 37.9745C59.7076 39.0231 59.3992 40.0493 58.8173 40.9231C58.2354 41.7969 57.4062 42.4789 56.4348 42.8827C55.4634 43.2866 54.3934 43.394 53.3607 43.1915C52.3279 42.989 51.3787 42.4856 50.6334 41.7452C49.8881 41.0047 49.3802 40.0605 49.1742 39.0322C48.9681 38.0039 49.0731 36.9378 49.4759 35.969C49.8787 35.0003 50.5611 34.1724 51.4367 33.5904C52.3123 33.0084 53.3416 32.6984 54.3942 32.6997C55.0922 32.6926 55.7847 32.8241 56.4311 33.0864C57.0776 33.3488 57.6651 33.7369 58.1593 34.2279C58.6536 34.719 59.0447 35.3032 59.3098 35.9465C59.5749 36.5897 59.7087 37.2792 59.7034 37.9745ZM51.8295 37.8528C51.8058 38.5305 52.0486 39.1906 52.5061 39.6927C52.9637 40.1948 53.5998 40.4992 54.2793 40.5411C54.7896 40.5665 55.2961 40.4406 55.7346 40.1791C56.173 39.9176 56.5237 39.5324 56.7422 39.0723C56.9608 38.6121 57.0373 38.0977 56.9622 37.5942C56.887 37.0907 56.6636 36.6207 56.3201 36.2438C55.9766 35.8668 55.5286 35.5999 55.0328 35.4769C54.5369 35.3538 54.0156 35.38 53.5347 35.5523C53.0539 35.7246 52.6352 36.0352 52.3316 36.4447C52.0281 36.8542 51.8533 37.3442 51.8295 37.8528Z" fill="url(#paint4_linear_130_160)"></path>
      <path d="M59.2034 37.9707H59.2034L59.2034 37.9765C59.2072 38.9257 58.928 39.8547 58.4011 40.6459C57.8742 41.4372 57.1231 42.0551 56.2428 42.421C55.3626 42.787 54.3929 42.8844 53.4569 42.7009C52.5209 42.5173 51.6609 42.0612 50.9858 41.3905C50.3107 40.7198 49.8509 39.8648 49.6644 38.9339C49.4779 38.0031 49.5729 37.038 49.9376 36.161C50.3022 35.2839 50.9202 34.5341 51.7135 34.0068C52.5068 33.4795 53.4395 33.1985 54.3935 33.1997V33.1998L54.3993 33.1997C55.0312 33.1933 55.658 33.3123 56.2431 33.5497C56.8282 33.7872 57.3598 34.1384 57.8069 34.5826C58.2541 35.0269 58.6078 35.5553 58.8475 36.137C59.0872 36.7187 59.2082 37.342 59.2034 37.9707ZM51.3301 37.8294L51.3301 37.8294L51.3298 37.8353C51.3015 38.6438 51.5912 39.431 52.1365 40.0295C52.6818 40.6279 53.4396 40.9903 54.2485 41.0401L54.2485 41.0401L54.2543 41.0404C54.8631 41.0708 55.4674 40.9206 55.9906 40.6085C56.5139 40.2965 56.9328 39.8366 57.1939 39.2868C57.455 38.737 57.5465 38.1222 57.4567 37.5204C57.3669 36.9186 57.0998 36.3571 56.6897 35.907C56.2795 35.4569 55.7448 35.1384 55.1533 34.9916C54.5617 34.8447 53.9398 34.8761 53.3661 35.0816C52.7924 35.2872 52.2925 35.6578 51.9299 36.147C51.5674 36.6361 51.3585 37.2216 51.3301 37.8294Z" stroke="#414141" stroke-opacity="0.13"></path>
    </g>
  </g>
  <defs>
    <linearGradient id="paint0_linear_130_160" x1="45.3106" y1="13.3977" x2="44.8253" y2="126.913" gradientUnits="userSpaceOnUse">
      <stop stop-color="#3C3C3C"></stop>
      <stop offset="1" stop-color="#575757" stop-opacity="0"></stop>
    </linearGradient>
    <linearGradient id="paint1_linear_130_160" x1="44.6926" y1="29.1527" x2="44.6244" y2="59.8705" gradientUnits="userSpaceOnUse">
      <stop stop-color="#3C3C3C"></stop>
      <stop offset="1" stop-color="#575757" stop-opacity="0"></stop>
    </linearGradient>
    <linearGradient id="paint2_linear_130_160" x1="44.249" y1="54.7512" x2="44.2371" y2="62.4123" gradientUnits="userSpaceOnUse">
      <stop stop-color="#3C3C3C"></stop>
      <stop offset="1" stop-color="#575757" stop-opacity="0"></stop>
    </linearGradient>
    <linearGradient id="paint3_linear_130_160" x1="33.7947" y1="34.2389" x2="33.7426" y2="47.2854" gradientUnits="userSpaceOnUse">
      <stop stop-color="#3C3C3C"></stop>
      <stop offset="1" stop-color="#575757" stop-opacity="0"></stop>
    </linearGradient>
    <linearGradient id="paint4_linear_130_160" x1="54.5487" y1="34.2419" x2="54.4965" y2="47.3107" gradientUnits="userSpaceOnUse">
      <stop stop-color="#3C3C3C"></stop>
      <stop offset="1" stop-color="#575757" stop-opacity="0"></stop>
    </linearGradient>
  </defs>
</svg>
