<?xml version="1.0" encoding="UTF-8"?>
<svg xmlns="http://www.w3.org/2000/svg" width="126" height="122" viewBox="0 0 126 122" fill="none">
  <g clip-path="url(#clip0_355_954)">
    <path d="M105.498 28.1743L42.7435 7.72464C35.4288 5.34101 27.5723 9.35573 25.1956 16.6918L4.80532 79.629C2.4286 86.965 6.43167 94.8444 13.7464 97.228L76.501 117.678C83.8157 120.061 91.6722 116.047 94.0489 108.711L114.439 45.7733C116.816 38.4373 112.813 30.5579 105.498 28.1743Z" fill="#989898" fill-opacity="0.22"></path>
    <path d="M112.371 26.1281L49.9464 4.5534C42.6701 2.03863 34.7388 5.91577 32.2313 13.2132L10.7192 75.8195C8.21175 83.117 12.0776 91.0714 19.3539 93.5862L81.7785 115.161C89.0548 117.676 96.9861 113.798 99.4936 106.501L121.006 43.8947C123.513 36.5973 119.647 28.6429 112.371 26.1281Z" fill="#7A7A7A"></path>
    <path d="M33.952 57.7875L39.9483 40.3493C40.2429 39.8017 40.5066 39.2349 40.8376 38.7103C42.2743 36.3142 44.4983 34.4947 47.1272 33.5647C49.7562 32.6346 52.626 32.6519 55.2434 33.6138C65.8317 37.2653 76.4157 40.9285 86.9954 44.6035C87.8751 44.8969 88.7191 45.2888 89.5113 45.7718C91.882 47.2058 93.684 49.4191 94.6111 52.0354C95.5382 54.6517 95.5331 57.5094 94.5966 60.1225C92.805 65.4229 90.9726 70.7081 89.139 75.9939C88.4791 78.0256 87.2753 79.8365 85.659 81.2286C84.0457 82.6864 82.0629 83.6699 79.9286 84.071C77.7943 84.4721 75.5911 84.2753 73.5613 83.5021C63.0041 79.8777 52.4597 76.2134 41.9109 72.5645C41.6426 72.4717 41.3742 72.379 41.1123 72.2704C38.7432 71.3196 36.7383 69.6358 35.3887 67.4638C34.0391 65.2918 33.4153 62.7447 33.6078 60.1927C33.6704 59.3892 33.8351 58.5872 33.952 57.7875ZM56.8522 55.9833C56.0505 58.3147 55.2489 60.6461 54.4472 62.9775C54.0976 63.9942 54.3668 64.3336 55.4227 64.2135C60.9777 63.5819 66.5306 62.9436 72.0814 62.2986C72.4119 62.26 72.8944 62.0473 72.9788 61.8018C73.0632 61.5563 72.8219 61.0868 72.5894 60.8459C68.6613 56.7499 64.7205 52.6661 60.767 48.5947C60.0588 47.8626 59.6069 47.9641 59.2727 48.9332C58.466 51.2792 57.6599 53.6273 56.8542 55.9775L56.8522 55.9833Z" fill="white"></path>
  </g>
  <defs>
    <clipPath id="clip0_355_954">
      <rect width="125" height="122" fill="white" transform="translate(0.5)"></rect>
    </clipPath>
  </defs>
</svg>
