<?xml version="1.0" encoding="UTF-8"?>
<svg xmlns="http://www.w3.org/2000/svg" width="45" height="50" viewBox="0 0 45 50" fill="none">
  <g id="Group 87151 1" clip-path="url(#clip0_217_273)">
    <g id="Group 87151">
      <path id="Path 146583" d="M34.2807 37.2831C34.2821 37.5308 34.286 37.7692 34.2897 38.0004C34.3011 38.7143 34.3114 39.3598 34.2466 40.0004C34.2359 40.1061 34.1536 40.2358 34.0193 40.3692C33.8886 40.4989 33.724 40.617 33.5797 40.7002L33.5796 40.7002C26.1645 44.9836 18.6602 45.1513 11.129 41.0662L11.1285 41.066C7.88156 39.3293 5.17621 36.7313 3.30967 33.5572C-3.40597 22.1249 0.900617 8.50037 11.7576 2.6662L11.7576 2.6662C22.7037 -3.2176 36.5421 1.38228 41.9025 12.7372C43.2207 15.5436 43.9217 18.6001 43.9581 21.7005L43.9581 21.7011C43.9606 21.8417 43.9496 21.9796 43.9378 22.1277C43.9348 22.166 43.9317 22.2049 43.9288 22.2448C43.7538 22.2234 43.5811 22.204 43.4104 22.1848C42.8538 22.1222 42.3181 22.062 41.7936 21.9441L41.7936 21.9441C41.7936 21.9441 41.7885 21.9428 41.7785 21.9345C41.7682 21.9259 41.7555 21.9123 41.7411 21.8926C41.7124 21.8528 41.6831 21.7966 41.6564 21.7297C41.6028 21.5958 41.5661 21.4369 41.5595 21.3228C41.5595 21.3227 41.5595 21.3226 41.5595 21.3225L41.4596 21.3282M34.2807 37.2831L33.633 37.6296C31.5608 39.1807 29.1985 40.3004 26.686 40.9225C24.1735 41.5446 21.5617 41.6565 19.0052 41.2515C16.4487 40.8465 13.9993 39.9329 11.8021 38.5647C9.60485 37.1965 7.70435 35.4015 6.21299 33.2859M34.2807 37.2831C34.233 37.3174 34.1885 37.3493 34.1467 37.3793C33.959 37.5139 33.8248 37.61 33.6933 37.7094L33.6929 37.7097C31.61 39.2688 29.2356 40.3942 26.7101 41.0196C24.1845 41.6449 21.5593 41.7573 18.9896 41.3502C16.4198 40.9432 13.9578 40.0248 11.7492 38.6496C9.54078 37.2744 7.63057 35.4703 6.13155 33.344M34.2807 37.2831L6.13155 33.344M41.4596 21.3282C41.3302 18.6287 40.6608 15.9825 39.491 13.5461C37.703 9.8843 34.8094 6.87699 31.2192 4.94917C27.629 3.02134 23.5238 2.27051 19.4837 2.80277C15.4442 3.33895 11.6759 5.13291 8.71295 7.9304C5.75 10.7279 3.74268 14.387 2.97551 18.389C1.96874 23.8011 3.0038 28.8312 6.21299 33.2859M41.4596 21.3282C41.4742 21.5812 41.6181 22.0072 41.7716 22.0417M41.4596 21.3282L41.7716 22.0417M6.21299 33.2859L6.13126 33.3435C6.13135 33.3437 6.13145 33.3438 6.13155 33.344M6.21299 33.2859L6.13185 33.3444C6.13175 33.3442 6.13165 33.3441 6.13155 33.344M44.0581 21.6993C44.0215 18.5846 43.3173 15.5139 41.993 12.6945C36.6084 1.28844 22.7074 -3.33314 11.7103 2.57812C0.804284 8.43862 -3.5215 22.1257 3.22347 33.6079C5.09933 36.7978 7.81819 39.4088 11.0813 41.1542L44.0581 21.6993ZM44.0581 21.6993C44.0606 21.8448 44.0491 21.9906 44.0371 22.1416C44.0341 22.1797 44.031 22.2182 44.0282 22.2571L44.0581 21.6993ZM41.7716 22.0417C42.302 22.1609 42.8457 22.222 43.4041 22.2848C43.5753 22.304 43.748 22.3234 43.922 22.3447L41.7716 22.0417Z" fill="white" stroke="#252525" stroke-width="0.2"></path>
      <path id="Path 146584" d="M21.1672 19.1386C17.4444 19.6121 13.7217 20.0859 9.99911 20.5602C9.16207 20.6675 8.33088 20.8331 7.49134 20.903C7.14346 20.883 6.80017 20.8138 6.47168 20.6975C6.62167 20.4053 6.81306 20.1362 7.03995 19.8987C8.4572 18.7943 9.8904 17.7107 11.3395 16.6479C12.0546 16.1369 12.5485 15.373 12.7211 14.5112C13.1649 12.4913 13.6261 10.4751 14.1048 8.4627C14.3994 7.21796 15.0754 6.91343 16.2008 7.50085C17.6248 8.24387 19.0463 8.99188 20.4546 9.76443C20.7196 9.9313 21.0268 10.0189 21.34 10.017C21.6532 10.0151 21.9593 9.92372 22.2223 9.75361C23.5178 9.00477 24.8365 8.2942 26.1483 7.5724C27.3518 6.91051 28.0095 7.21256 28.3195 8.57087C28.7688 10.5337 29.2243 12.4952 29.6557 14.4621C29.8337 15.3521 30.3443 16.1406 31.0835 16.6671C32.5535 17.7465 34.0088 18.8458 35.4497 19.9649C35.6496 20.188 35.8108 20.4431 35.9264 20.7195C35.6519 20.8385 35.3589 20.9089 35.0603 20.9275C31.361 20.4545 27.6676 19.9378 23.9683 19.4685C23.053 19.3525 22.1208 19.3687 21.1964 19.3238L21.1672 19.1386Z" fill="white"></path>
      <path id="Path 146585" d="M36.5285 33.251C36.5283 33.8194 36.5279 34.3876 36.5274 34.9556C36.5262 36.6047 36.5249 38.2526 36.531 39.901C36.5345 40.575 36.688 40.9466 36.9053 41.1597C37.1247 41.3748 37.5081 41.5259 38.1959 41.5291C38.1961 41.5291 38.1963 41.5291 38.1966 41.5291L38.1943 42.0291C39.4188 42.0321 40.6432 42.0321 41.8674 42.0291L36.5285 33.251ZM36.5285 33.251L36.5335 33.2493V32.8887C36.5335 32.19 36.5329 31.4919 36.5323 30.7939C36.5308 29.1541 36.5293 27.5158 36.536 25.877L36.536 25.877C36.5387 25.2271 36.6915 24.8517 36.9078 24.6329C37.1233 24.415 37.4911 24.2622 38.1275 24.2582M36.5285 33.251L42.0388 24.2582C40.7349 24.2502 39.4312 24.2502 38.1275 24.2582M38.1275 24.2582L38.1245 23.7582L38.1275 24.2582Z" stroke="white"></path>
      <path id="Path 146586" d="M12.2411 36.4615C12.8056 36.0388 13.4009 35.6552 13.9988 35.28C14.4888 34.9721 14.5284 34.7084 14.0974 34.2711L12.2411 36.4615ZM12.2411 36.4615L12.5408 36.8617C12.5478 36.8565 12.5547 36.8512 12.5618 36.846C12.5679 36.8403 12.574 36.8346 12.5802 36.8289L12.2411 36.4615ZM19.3314 31.953C19.4269 32.3958 19.6167 32.7999 19.8085 33.1618C19.8858 33.3076 19.96 33.4409 20.0312 33.569C20.149 33.7807 20.2588 33.9781 20.3613 34.1935L20.3614 34.1936C20.4294 34.3365 20.5131 34.479 20.62 34.5942C20.7251 34.7074 20.8971 34.8402 21.1362 34.8531C21.3844 34.8665 21.5739 34.7445 21.6939 34.6252C21.811 34.5089 21.9 34.3606 21.9711 34.2118M19.3314 31.953L27.918 33.7987M19.3314 31.953L19.8202 31.8474L19.3314 31.9527C19.3314 31.9528 19.3314 31.9529 19.3314 31.953ZM21.9711 34.2118C21.9711 34.2119 21.971 34.212 21.971 34.2121L21.52 33.9961L21.9711 34.2118ZM21.9711 34.2118C22.1453 33.8481 22.3125 33.4881 22.4782 33.1314C22.8031 32.4318 23.1223 31.7446 23.4771 31.066L23.4807 31.059L23.4841 31.052C23.5791 30.8555 23.7432 30.7015 23.9444 30.619C26.8132 30.0451 29.6932 29.5186 32.5777 28.9982M32.5777 28.9982C31.0381 30.611 29.4849 32.2112 27.918 33.7987M32.5777 28.9982C32.5782 28.9976 32.5788 28.997 32.5793 28.9964L27.918 33.7987M32.5777 28.9982C32.5779 28.9981 32.5781 28.9981 32.5783 28.9981C32.5711 29.0097 32.5637 29.0213 32.5562 29.0328L32.9748 29.3063M27.918 33.7987L28.2737 34.15M32.9748 29.3063C31.4216 30.9338 29.8546 32.5484 28.2737 34.15M32.9748 29.3063L32.6505 28.9969C32.8047 29.0047 32.9573 29.0327 33.1044 29.0804C33.0657 29.158 33.0224 29.2335 32.9748 29.3063ZM28.2737 34.15C27.6984 34.7325 27.7192 35.0237 28.4514 35.4568L12.4423 36.9625C12.4883 36.9733 12.5347 36.983 12.5813 36.9915C14.8069 37.0095 17.0322 37.0079 19.2602 37.0062C19.8109 37.0058 20.3619 37.0054 20.9131 37.0053L20.9143 37.0032H21.1972C21.8083 37.0032 22.4193 37.0035 23.0302 37.0038C25.3433 37.0049 27.6546 37.0059 29.9659 36.9915C29.9762 36.9891 29.9864 36.9867 29.9966 36.9841C29.5601 36.6895 29.1086 36.4242 28.6417 36.1498C28.4946 36.0633 28.3461 35.976 28.196 35.8866C27.9988 35.77 27.8179 35.645 27.6777 35.5028C27.534 35.3571 27.4064 35.1656 27.376 34.921C27.3457 34.6768 27.4225 34.4612 27.5237 34.2875C27.6225 34.1178 27.7632 33.9554 27.9179 33.7988L28.2737 34.15ZM32.6279 28.9128C32.6979 28.7845 32.7516 28.6479 32.7876 28.5059C32.7096 28.4981 32.6311 28.4943 32.5525 28.4946M32.6279 28.9128L32.5525 28.4946M32.6279 28.9128L32.5525 28.4946M32.6279 28.9128L32.5546 28.9946L32.5525 28.4946M33.2768 28.6107L32.9196 28.5231C33.0407 28.5426 33.1601 28.5718 33.2768 28.6107ZM33.2768 28.6107L33.1609 28.9582C33.2088 28.8459 33.2476 28.7297 33.2768 28.6107ZM12.0842 37.3816C11.921 37.3294 11.762 37.2642 11.6087 37.1866C11.7064 37.0464 11.8121 36.9121 11.9251 36.7843L12.0842 37.3816ZM10.5307 29.0934C10.5389 29.0949 10.5471 29.0964 10.5554 29.0978C10.5634 29.0984 10.5715 29.099 10.5795 29.0997L10.6182 28.6012L10.5307 29.0934ZM9.94877 29.0812C9.85337 28.9224 9.76633 28.7586 9.68806 28.5905C9.51231 28.6001 9.33687 28.6163 9.16211 28.639C9.23172 28.8014 9.30866 28.9603 9.39268 29.1154C9.57755 29.0961 9.76308 29.0847 9.94877 29.0812ZM10.2225 29.4921C10.2172 29.4848 10.2118 29.4775 10.2065 29.4702C10.2001 29.4632 10.1937 29.4563 10.1872 29.4493L9.81984 29.7885L10.2225 29.4921Z" fill="white" stroke="white"></path>
      <path id="Path 146587" d="M19.5445 22.4772L19.5663 22.4871L19.5889 22.4949C20.6568 22.8631 21.8224 22.8286 22.8667 22.3979L22.8819 22.3917L22.8966 22.3844C24.2985 21.6955 25.8753 21.4446 27.4216 21.6642C28.2263 21.8327 28.942 22.2891 29.4342 22.948C29.9272 23.6079 30.1618 24.4252 30.0941 25.2458C30.0634 25.4751 29.9896 25.6965 29.8767 25.8984L29.8766 25.8983L29.8741 25.903C29.356 26.8526 28.3725 27.467 27.2976 27.6418C26.2261 27.8162 25.1225 27.5448 24.3592 26.8014C23.7301 26.1365 23.1672 25.4122 22.6781 24.6385L22.6734 24.631L22.6684 24.6237C22.2896 24.0691 21.7515 23.7278 21.147 23.7286C20.5461 23.7293 20.0063 24.0679 19.6187 24.6073L19.6187 24.6072L19.6129 24.6156C19.0007 25.5055 18.3123 26.3404 17.5554 27.111C16.8404 27.8044 15.7248 27.8967 14.6139 27.5363C13.4929 27.1725 12.5759 26.4085 12.2898 25.6683C12.0592 25.0703 12.1683 24.229 12.5859 23.4348C12.9979 22.6513 13.6533 22.0252 14.3651 21.7999C14.9513 21.6607 15.5464 21.5617 16.1461 21.5035C17.3208 21.6576 18.4662 21.9858 19.5445 22.4772Z" stroke="white"></path>
      <path id="Path 146588" d="M38.0409 49.4918L38.0411 49.4918C38.5026 49.5036 38.959 49.5007 39.4244 49.4977C39.6362 49.4963 39.8499 49.4949 40.0668 49.4949C40.2774 49.4949 40.4857 49.4959 40.6925 49.4969C41.136 49.4989 41.573 49.5009 42.013 49.4933C42.6541 49.4818 43.0197 49.3275 43.2344 49.1091C43.4507 48.8891 43.6033 48.5133 43.6143 47.859L43.6145 47.8462L43.6147 47.8462C43.6277 47.5395 43.6233 47.2324 43.6014 46.9262L43.6005 46.9135L43.6002 46.9007C43.5936 46.5747 43.4596 46.2642 43.2269 46.0358C42.9942 45.8074 42.6814 45.6792 42.3553 45.6786L42.3412 45.6786L42.3412 45.6784C40.8288 45.6332 39.3176 45.6332 37.8078 45.6784L37.799 45.6787L37.7902 45.6786C37.624 45.6778 37.4593 45.7102 37.3058 45.774C37.1523 45.8379 37.0132 45.9318 36.8966 46.0503C36.7801 46.1688 36.6884 46.3094 36.6271 46.4639C36.5658 46.6183 36.536 46.7835 36.5396 46.9497L36.54 46.9699L36.5388 46.99C36.5194 47.3185 36.5242 47.6547 36.5337 48.0054L38.0409 49.4918ZM38.0409 49.4918C37.4846 49.4776 37.1332 49.3258 36.9166 49.1111M38.0409 49.4918L36.9166 49.1111M36.9166 49.1111C36.7005 48.897 36.5489 48.5513 36.5337 48.0057L36.9166 49.1111Z" stroke="white"></path>
    </g>
  </g>
  <defs>
    <clipPath id="clip0_217_273">
      <rect width="44.1224" height="50" fill="white"></rect>
    </clipPath>
  </defs>
</svg>
