<?xml version="1.0" encoding="UTF-8"?>
<svg xmlns="http://www.w3.org/2000/svg" width="32" height="32" viewBox="0 0 32 32" fill="none">
  <g id="microphone-black-shape">
    <g id="Group">
      <g id="Group_2">
        <path id="Vector" d="M15.9998 21.0533C17.3982 21.0533 18.5676 20.5683 19.5681 19.5682L15.9998 21.0533ZM15.9998 21.0533C14.6014 21.0533 13.4317 20.5682 12.4314 19.5682M15.9998 21.0533L12.4314 19.5682M12.4314 19.5682C11.4312 18.5683 10.9459 17.3983 10.9459 16M12.4314 19.5682L10.9459 16M10.9459 16V6.15402M10.9459 16V6.15402M10.9459 6.15402C10.9459 4.75563 11.4309 3.58602 12.4314 2.58573M10.9459 6.15402L12.4314 2.58573M12.4314 2.58573C13.432 1.58526 14.6017 1.1 15.9998 1.1M12.4314 2.58573L15.9998 1.1M15.9998 1.1C17.3981 1.1 18.5674 1.58524 19.568 2.58571M15.9998 1.1L19.568 2.58571M19.568 2.58571C20.5685 3.5861 21.0532 4.75547 21.0532 6.15402M19.568 2.58571L21.0532 6.15402M21.0532 6.15402V16M21.0532 6.15402V16M21.0532 16C21.0532 17.3985 20.5681 18.5684 19.5681 19.5682L21.0532 16Z" fill="#575757" stroke="#F5F5F5" stroke-width="2.2"></path>
        <path id="Vector_2" d="M26.711 12.6731C26.4681 12.4295 26.179 12.3076 25.8457 12.3076C25.5127 12.3076 25.2243 12.4295 24.9804 12.6731C24.737 12.9167 24.6152 13.2051 24.6152 13.5383V16C24.6152 18.3718 23.7721 20.4006 22.0861 22.0864C20.4007 23.7723 18.3718 24.6153 15.9998 24.6153C13.6279 24.6153 11.5991 23.7723 9.91315 22.0864C8.22736 20.401 7.38453 18.3719 7.38453 16V13.5383C7.38453 13.2051 7.26268 12.9167 7.01918 12.6731C6.77556 12.4295 6.48741 12.3076 6.15386 12.3076C5.82031 12.3076 5.53182 12.4295 5.28833 12.6731C5.04463 12.9167 4.92285 13.2051 4.92285 13.5383V16C4.92285 18.8333 5.86853 21.2981 7.75936 23.3941C9.65026 25.4901 11.9868 26.6919 14.769 26.9994V29.5381H9.846C9.51265 29.5381 9.22423 29.6601 8.98067 29.9037C8.73704 30.1472 8.61519 30.4357 8.61519 30.7691C8.61519 31.1019 8.73704 31.391 8.98067 31.6344C9.22423 31.8778 9.51265 32 9.846 32H22.1533C22.4866 32 22.7754 31.8779 23.0186 31.6344C23.2625 31.391 23.3844 31.1019 23.3844 30.7691C23.3844 30.4358 23.2625 30.1472 23.0186 29.9037C22.7755 29.6601 22.4866 29.5381 22.1533 29.5381H17.2309V26.9994C20.0126 26.6919 22.349 25.4901 24.2401 23.3941C26.1311 21.2981 27.0771 18.8333 27.0771 16V13.5383C27.0771 13.2051 26.955 12.9169 26.711 12.6731Z" fill="#F5F5F5"></path>
      </g>
    </g>
  </g>
</svg>
