<?xml version="1.0" encoding="UTF-8"?>
<svg xmlns="http://www.w3.org/2000/svg" width="50" height="53" viewBox="0 0 50 53" fill="none">
  <g id="Group">
    <path id="Vector" d="M49.2278 22.4672C48.386 21.734 47.1144 21.7315 46.2698 22.4613L39.0446 28.704C38.9297 28.5062 38.7887 28.3217 38.6226 28.1556C37.6479 27.1808 36.1104 27.1066 35.0463 27.9829L28.7902 33.135C27.2533 34.4007 26.3718 36.2685 26.3718 38.2595V42.7144C25.9685 43.0649 25.7119 43.5802 25.7119 44.1552V51.4605C25.7119 51.876 26.0487 52.2128 26.4642 52.2128C26.8797 52.2128 27.2165 51.876 27.2165 51.4605V44.1552C27.2165 43.9316 27.3985 43.7497 27.622 43.7497H36.8086C37.0322 43.7497 37.2141 43.9316 37.2141 44.1552V51.4605C37.2141 51.876 37.551 52.2128 37.9664 52.2128C38.3819 52.2128 38.7187 51.876 38.7187 51.4605V44.1552C38.7187 43.425 38.3065 42.7897 37.7028 42.4685V39.1049L39.4173 38.4665C40.8602 37.9293 42.0686 36.9644 42.9117 35.676L49.6339 25.4053C50.2482 24.4668 50.0735 23.2037 49.2278 22.4672ZM48.3751 24.5812L41.653 34.852C40.9869 35.8697 40.0323 36.632 38.8925 37.0564L35.9012 38.1702C35.5118 38.3152 35.3137 38.7484 35.4587 39.1378C35.5715 39.4406 35.8586 39.6278 36.1638 39.6278C36.1754 39.6278 36.1869 39.6268 36.1985 39.6263V42.2451H27.8765V38.2596C27.8765 36.7198 28.5582 35.2753 29.7468 34.2965L36.0028 29.1445C36.4657 28.7633 37.1348 28.7955 37.5588 29.2196C38.0106 29.6714 38.0106 30.4065 37.5588 30.8583L35.0907 33.3264C34.7969 33.6202 34.7969 34.0966 35.0907 34.3903C35.3844 34.6841 35.8608 34.6841 36.1545 34.3903L38.6226 31.9222C39.0383 31.5065 39.2991 30.9776 39.3774 30.405L47.2535 23.5998C47.5351 23.3566 47.959 23.3574 48.2397 23.6019C48.5217 23.8474 48.5798 24.2685 48.3751 24.5812Z" fill="white"></path>
    <path id="Vector_2" d="M23.628 42.7144V38.2595C23.628 36.295 22.7647 34.4429 21.2592 33.1779C20.9411 32.9106 20.4666 32.9518 20.1993 33.2699C19.932 33.5879 19.9732 34.0625 20.2913 34.3298C21.4556 35.3081 22.1234 36.7405 22.1234 38.2594V42.2449H13.8014V39.6261C13.813 39.6266 13.8246 39.6276 13.8362 39.6276C14.1414 39.6276 14.4285 39.4404 14.5413 39.1376C14.6862 38.7482 14.4881 38.315 14.0988 38.17L11.1075 37.0562C9.96764 36.6318 9.01303 35.8695 8.34699 34.8518L1.62487 24.5813C1.42004 24.2685 1.47832 23.8474 1.76028 23.6018C2.04094 23.3573 2.46483 23.3564 2.74649 23.5998L10.624 30.4061C10.7007 30.961 10.9515 31.4963 11.3773 31.922L13.8455 34.3901C13.9923 34.5369 14.1849 34.6105 14.3774 34.6105C14.5699 34.6105 14.7625 34.537 14.9093 34.3901C15.2031 34.0963 15.2031 33.6199 14.9093 33.3262L12.4412 30.8581C11.9894 30.4063 11.9894 29.6712 12.4412 29.2194C12.8654 28.7954 13.5342 28.7631 13.9971 29.1443L17.7686 32.2501C18.0892 32.5143 18.5634 32.4682 18.8275 32.1476C19.0916 31.8269 19.0458 31.3527 18.725 31.0886L14.9536 27.9828C13.8893 27.1065 12.3518 27.1807 11.3772 28.1555C11.2095 28.3232 11.0693 28.5081 10.9558 28.7043L3.73009 22.4613C2.88542 21.7313 1.61363 21.734 0.772063 22.4671C-0.0736193 23.2036 -0.248253 24.4667 0.365923 25.4053L7.08805 35.6759C7.93122 36.9643 9.13961 37.9292 10.5825 38.4664L12.297 39.1048V42.4684C11.6933 42.7897 11.2811 43.4249 11.2811 44.1551V51.4604C11.2811 51.8759 11.6179 52.2127 12.0333 52.2127C12.4488 52.2127 12.7856 51.8759 12.7856 51.4604V44.1551C12.7856 43.9315 12.9675 43.7496 13.1912 43.7496H22.3777C22.6013 43.7496 22.7833 43.9315 22.7833 44.1551V51.4604C22.7833 51.8759 23.1201 52.2127 23.5356 52.2127C23.951 52.2127 24.2879 51.8759 24.2879 51.4604V44.1551C24.2879 43.5802 24.0314 43.065 23.628 42.7144Z" fill="white"></path>
    <path id="Vector_3" d="M12.3181 24.6199C18.8888 24.6199 24.2344 19.2743 24.2344 12.7036C24.2344 6.13298 18.8887 0.787354 12.3181 0.787354C5.74758 0.787354 0.401855 6.13298 0.401855 12.7036C0.401855 19.2743 5.74748 24.6199 12.3181 24.6199ZM12.3181 2.29195C18.0592 2.29195 22.7298 6.96261 22.7298 12.7036C22.7298 18.4447 18.0592 23.1153 12.3181 23.1153C6.57711 23.1153 1.90645 18.4447 1.90645 12.7036C1.90645 6.96261 6.57711 2.29195 12.3181 2.29195Z" fill="white"></path>
    <path id="Vector_4" d="M9.65946 17.4293C10.0806 17.8283 10.6317 18.048 11.2117 18.048C11.8241 18.048 12.3971 17.8069 12.8255 17.369L14.4234 15.7351C14.7139 15.438 14.7086 14.9618 14.4115 14.6712C14.1145 14.3807 13.6382 14.386 13.3476 14.6831L11.7498 16.317C11.607 16.4631 11.4158 16.5434 11.2117 16.5434C11.0185 16.5434 10.8348 16.4702 10.6944 16.3372L8.43753 14.1985L9.47259 13.1063L10.3488 13.9368C10.8137 14.3772 11.5562 14.3632 12.0039 13.9054L16.4005 9.40984L17.4762 10.4618L15.5895 12.391C15.299 12.688 15.3043 13.1643 15.6014 13.4549C15.8984 13.7454 16.3747 13.7401 16.6653 13.443L18.779 11.2816C18.9994 11.0562 19.1188 10.7586 19.1153 10.4434C19.1118 10.1282 18.9857 9.83333 18.7604 9.61306L17.2204 8.10716C16.995 7.88679 16.6978 7.76712 16.3822 7.77084C16.067 7.77435 15.7721 7.90043 15.5519 8.12572L11.1518 12.6249L10.272 11.7911C10.0432 11.5741 9.74372 11.4591 9.42866 11.4679C9.1136 11.4763 8.8207 11.607 8.60394 11.8357L7.12222 13.3992C6.67475 13.8714 6.69481 14.6196 7.16705 15.0673L9.65946 17.4293Z" fill="white"></path>
    <path id="Vector_5" d="M37.6819 24.6199C40.478 24.6199 43.1964 23.6312 45.3363 21.8359C45.6546 21.5688 45.6961 21.0944 45.4291 20.7761C45.162 20.4578 44.6875 20.4164 44.3692 20.6833C42.4999 22.2517 40.1251 23.1154 37.682 23.1154C31.941 23.1154 27.2703 18.4448 27.2703 12.7037C27.2703 6.96271 31.9409 2.29195 37.6819 2.29195C43.4229 2.29195 48.0936 6.96261 48.0936 12.7036C48.0936 14.7573 47.496 16.7442 46.3653 18.4493C46.1357 18.7955 46.2302 19.2624 46.5765 19.4921C46.9226 19.7217 47.3896 19.6271 47.6193 19.2809C48.9139 17.3285 49.5982 15.0541 49.5982 12.7037C49.5982 6.13298 44.2526 0.787354 37.6819 0.787354C31.1112 0.787354 25.7656 6.13298 25.7656 12.7036C25.7656 19.2743 31.1112 24.6199 37.6819 24.6199Z" fill="white"></path>
    <path id="Vector_6" d="M43.8014 8.45461L42.0759 6.68752C41.8565 6.46273 41.5627 6.33695 41.2486 6.33324C40.9346 6.32922 40.638 6.44819 40.4132 6.66766L37.6824 9.3342L34.9503 6.66635C34.7256 6.44688 34.4293 6.32752 34.1148 6.33203C33.8008 6.33574 33.507 6.46163 33.2876 6.68631L31.5621 8.45331C31.3427 8.678 31.2239 8.9748 31.2276 9.28886C31.2314 9.60282 31.3572 9.89662 31.5819 10.1161L34.2318 12.7037L31.5818 15.2913C31.3571 15.5108 31.2313 15.8045 31.2276 16.1185C31.2239 16.4326 31.3427 16.7293 31.562 16.954L33.2875 18.721C33.507 18.9457 33.8008 19.0715 34.1148 19.0752C34.1197 19.0752 34.1245 19.0753 34.1293 19.0753C34.4379 19.0753 34.729 18.9569 34.9504 18.7408L37.6824 16.073L40.4133 18.7395C40.638 18.959 40.9362 19.0756 41.2487 19.0738C41.5628 19.0701 41.8566 18.9442 42.0759 18.7196L43.8014 16.9525C44.2543 16.4886 44.2455 15.7429 43.7817 15.2897L41.1331 12.7034L43.7818 10.117C44.2455 9.66421 44.2543 8.91833 43.8014 8.45461ZM39.5307 12.1653C39.3857 12.307 39.304 12.501 39.304 12.7036C39.304 12.9062 39.3857 13.1003 39.5307 13.2418L42.4952 16.1366L41.2291 17.4332L38.208 14.4832C37.9157 14.1977 37.4491 14.1978 37.1569 14.4832L34.1345 17.4345L32.8684 16.138L35.8343 13.2418C35.9792 13.1002 36.061 12.9062 36.061 12.7036C36.061 12.501 35.9792 12.3069 35.8343 12.1653L32.8684 9.2692L34.1345 7.97264L37.1569 10.924C37.4492 11.2093 37.9157 11.2093 38.208 10.924L41.2291 7.97395L42.4952 9.27061L39.5307 12.1653Z" fill="white"></path>
  </g>
</svg>
