<?xml version="1.0" encoding="UTF-8"?>
<svg xmlns="http://www.w3.org/2000/svg" width="84" height="92" viewBox="0 0 84 92" fill="none">
  <g id="Group 90174">
    <g id="Path 138445">
      <mask id="path-1-inside-1_642_1476" fill="white">
        <path d="M38.8043 91.999C38.4962 91.7454 38.2558 91.4189 38.105 91.0489C37.9542 90.6789 37.8976 90.277 37.9405 89.8796C37.9573 80.9858 37.9605 72.0919 37.9502 63.1977V61.99C37.5908 61.99 37.2766 61.9934 36.9625 61.99C35.8485 61.9749 35.3114 61.5429 35.2804 60.4686C35.2315 58.7934 35.2315 57.1167 35.2804 55.4385C35.3105 54.3603 35.8475 53.9128 36.9537 53.9093C39.2171 53.902 41.4805 53.9064 43.8648 53.9064C43.8648 52.2044 43.8648 50.57 43.8648 48.9347C43.8648 48.3961 43.8356 47.8541 43.8774 47.3184C43.9575 46.2816 44.4543 45.8272 45.4988 45.8238C47.8835 45.815 50.2698 45.8209 52.7186 45.8209V43.1229H49.8793C48.4459 43.1229 47.0143 43.1283 45.5789 43.1229C44.3994 43.1166 43.9191 42.6394 43.8667 41.4389C43.857 41.1993 43.8667 40.9602 43.8667 40.7206V21.5623H42.9489C40.9191 21.5623 38.8879 21.5696 36.8571 21.5589C35.8976 21.5536 35.2886 21.0042 35.3003 20.1997C35.3045 20.0114 35.3476 19.826 35.4268 19.6552C35.5061 19.4844 35.6197 19.3319 35.7607 19.2073C35.9016 19.0828 36.0668 18.9889 36.2457 18.9315C36.4246 18.8742 36.6134 18.8546 36.8003 18.8741C42.5332 18.8654 48.2662 18.8561 53.9996 18.8965C54.4927 18.9465 54.9546 19.1616 55.3107 19.5072C56.2334 20.3536 57.0725 21.2857 58.0844 22.3274V2.75029H27.3559V22.0065L27.5244 22.1623C28.0178 21.6266 28.499 21.0787 29.0084 20.5581C29.4774 20.0565 29.976 19.5836 30.5016 19.142C30.6206 19.0364 30.7594 18.9555 30.9098 18.9041C31.0601 18.8526 31.2192 18.8316 31.3778 18.8422C31.5363 18.8528 31.6912 18.8948 31.8335 18.9658C31.9758 19.0368 32.1025 19.1354 32.2065 19.2559C32.4465 19.4657 32.5978 19.7592 32.6296 20.0768C32.6615 20.3944 32.5715 20.7123 32.378 20.9658C32.2447 21.1637 32.0916 21.3474 31.921 21.5141C30.3404 23.1056 28.752 24.6893 27.1738 26.2818C26.6829 26.7775 26.1424 27.1428 25.4257 26.8662C24.6642 26.574 24.5132 25.9073 24.5132 25.1768C24.5132 17.3904 24.5147 9.60438 24.5176 1.81867C24.5176 0.462884 25.0085 0.00121748 26.3629 0.00121748C37.2626 -0.000405827 48.1618 -0.000405827 59.0605 0.00121748C60.4401 0.00121748 60.8392 0.417595 60.8402 1.84302C60.8402 7.1441 60.8402 12.4447 60.8402 17.7448V18.8649H61.8138C65.6368 18.8649 69.4591 18.8649 73.2807 18.8649C74.637 18.8649 75.126 19.327 75.126 20.6818C75.1357 27.5699 75.1357 34.4577 75.126 41.3454C75.126 42.6467 74.6209 43.1171 73.3268 43.1195C71.0003 43.1229 68.6738 43.1195 66.2808 43.1195V45.817H69.7354C70.8707 45.817 72.0057 45.817 73.1404 45.817C74.7026 45.817 75.127 46.2494 75.1313 47.8536C75.1357 49.5298 75.1313 51.207 75.1313 52.8837V53.902H76.7581C78.5188 53.902 80.2811 53.8967 82.0428 53.905C83.1481 53.9093 83.6846 54.3564 83.7152 55.4351C83.7625 57.1103 83.7625 58.787 83.7152 60.4652C83.6861 61.5103 83.1534 61.9622 82.122 61.9846C81.8005 61.9919 81.4785 61.9846 81.0454 61.9846V63.1047C81.0454 72.0287 81.0489 80.9528 81.0561 89.8771C81.0985 90.2744 81.0417 90.6761 80.8909 91.0459C80.74 91.4157 80.4997 91.7421 80.1917 91.9955H79.1171C78.8177 91.7546 78.5823 91.4433 78.4318 91.0892C78.2813 90.7351 78.2203 90.3492 78.2542 89.9658C78.2714 82.93 78.2746 75.8941 78.2639 68.8581V67.8066H75.6703C75.6703 70.8099 75.6703 73.7431 75.6703 76.6762C75.6703 78.332 75.1556 79.7443 73.6716 80.6384C70.8649 82.3278 67.5851 80.316 67.5225 76.8506C67.4841 74.7565 67.5152 72.659 67.5142 70.5625V67.8047H40.7321V68.9477C40.7321 75.9532 40.7354 82.9591 40.7419 89.9653C40.7758 90.3487 40.7148 90.7346 40.5643 91.0887C40.4137 91.4428 40.1783 91.7542 39.879 91.9951L38.8043 91.999ZM72.3134 21.6247H60.8407C60.8407 22.9128 60.8222 24.1366 60.8489 25.3609C60.8946 25.6678 60.8368 25.9813 60.6845 26.2515C60.5322 26.5217 60.2943 26.7331 60.0085 26.8522C59.7227 26.9713 59.4055 26.9912 59.1071 26.9087C58.8087 26.8263 58.5464 26.6462 58.3617 26.3972C57.6702 25.694 56.9742 24.9959 56.2737 24.3031C55.3632 23.3997 54.5891 22.1569 53.4912 21.7001C52.3933 21.2433 50.9685 21.5721 49.6861 21.5633C48.6848 21.557 47.6835 21.5633 46.6958 21.5633V40.3724H72.3139L72.3134 21.6247ZM72.3134 48.568H46.7167V53.8519H72.3153L72.3134 48.568ZM80.9026 56.6521H38.1094V59.2331H80.9045L80.9026 56.6521ZM40.772 65.0045H78.2042V62.0494H40.7739L40.772 65.0045ZM70.3181 67.7925C70.3181 71.0033 70.2807 74.1663 70.3667 77.3264C70.3773 77.716 70.9926 78.3135 71.4165 78.407C71.7958 78.4908 72.344 78.0661 72.7247 77.7544C72.8951 77.6137 72.8801 77.1973 72.8811 76.9061C72.8908 74.0354 72.8916 71.1646 72.8835 68.2936C72.8725 68.1252 72.8497 67.9577 72.815 67.7925H70.3181ZM63.4799 45.7834V43.1814H55.5297V45.7834H63.4799Z"></path>
      </mask>
      <path d="M38.8043 91.999C38.4962 91.7454 38.2558 91.4189 38.105 91.0489C37.9542 90.6789 37.8976 90.277 37.9405 89.8796C37.9573 80.9858 37.9605 72.0919 37.9502 63.1977V61.99C37.5908 61.99 37.2766 61.9934 36.9625 61.99C35.8485 61.9749 35.3114 61.5429 35.2804 60.4686C35.2315 58.7934 35.2315 57.1167 35.2804 55.4385C35.3105 54.3603 35.8475 53.9128 36.9537 53.9093C39.2171 53.902 41.4805 53.9064 43.8648 53.9064C43.8648 52.2044 43.8648 50.57 43.8648 48.9347C43.8648 48.3961 43.8356 47.8541 43.8774 47.3184C43.9575 46.2816 44.4543 45.8272 45.4988 45.8238C47.8835 45.815 50.2698 45.8209 52.7186 45.8209V43.1229H49.8793C48.4459 43.1229 47.0143 43.1283 45.5789 43.1229C44.3994 43.1166 43.9191 42.6394 43.8667 41.4389C43.857 41.1993 43.8667 40.9602 43.8667 40.7206V21.5623H42.9489C40.9191 21.5623 38.8879 21.5696 36.8571 21.5589C35.8976 21.5536 35.2886 21.0042 35.3003 20.1997C35.3045 20.0114 35.3476 19.826 35.4268 19.6552C35.5061 19.4844 35.6197 19.3319 35.7607 19.2073C35.9016 19.0828 36.0668 18.9889 36.2457 18.9315C36.4246 18.8742 36.6134 18.8546 36.8003 18.8741C42.5332 18.8654 48.2662 18.8561 53.9996 18.8965C54.4927 18.9465 54.9546 19.1616 55.3107 19.5072C56.2334 20.3536 57.0725 21.2857 58.0844 22.3274V2.75029H27.3559V22.0065L27.5244 22.1623C28.0178 21.6266 28.499 21.0787 29.0084 20.5581C29.4774 20.0565 29.976 19.5836 30.5016 19.142C30.6206 19.0364 30.7594 18.9555 30.9098 18.9041C31.0601 18.8526 31.2192 18.8316 31.3778 18.8422C31.5363 18.8528 31.6912 18.8948 31.8335 18.9658C31.9758 19.0368 32.1025 19.1354 32.2065 19.2559C32.4465 19.4657 32.5978 19.7592 32.6296 20.0768C32.6615 20.3944 32.5715 20.7123 32.378 20.9658C32.2447 21.1637 32.0916 21.3474 31.921 21.5141C30.3404 23.1056 28.752 24.6893 27.1738 26.2818C26.6829 26.7775 26.1424 27.1428 25.4257 26.8662C24.6642 26.574 24.5132 25.9073 24.5132 25.1768C24.5132 17.3904 24.5147 9.60438 24.5176 1.81867C24.5176 0.462884 25.0085 0.00121748 26.3629 0.00121748C37.2626 -0.000405827 48.1618 -0.000405827 59.0605 0.00121748C60.4401 0.00121748 60.8392 0.417595 60.8402 1.84302C60.8402 7.1441 60.8402 12.4447 60.8402 17.7448V18.8649H61.8138C65.6368 18.8649 69.4591 18.8649 73.2807 18.8649C74.637 18.8649 75.126 19.327 75.126 20.6818C75.1357 27.5699 75.1357 34.4577 75.126 41.3454C75.126 42.6467 74.6209 43.1171 73.3268 43.1195C71.0003 43.1229 68.6738 43.1195 66.2808 43.1195V45.817H69.7354C70.8707 45.817 72.0057 45.817 73.1404 45.817C74.7026 45.817 75.127 46.2494 75.1313 47.8536C75.1357 49.5298 75.1313 51.207 75.1313 52.8837V53.902H76.7581C78.5188 53.902 80.2811 53.8967 82.0428 53.905C83.1481 53.9093 83.6846 54.3564 83.7152 55.4351C83.7625 57.1103 83.7625 58.787 83.7152 60.4652C83.6861 61.5103 83.1534 61.9622 82.122 61.9846C81.8005 61.9919 81.4785 61.9846 81.0454 61.9846V63.1047C81.0454 72.0287 81.0489 80.9528 81.0561 89.8771C81.0985 90.2744 81.0417 90.6761 80.8909 91.0459C80.74 91.4157 80.4997 91.7421 80.1917 91.9955H79.1171C78.8177 91.7546 78.5823 91.4433 78.4318 91.0892C78.2813 90.7351 78.2203 90.3492 78.2542 89.9658C78.2714 82.93 78.2746 75.8941 78.2639 68.8581V67.8066H75.6703C75.6703 70.8099 75.6703 73.7431 75.6703 76.6762C75.6703 78.332 75.1556 79.7443 73.6716 80.6384C70.8649 82.3278 67.5851 80.316 67.5225 76.8506C67.4841 74.7565 67.5152 72.659 67.5142 70.5625V67.8047H40.7321V68.9477C40.7321 75.9532 40.7354 82.9591 40.7419 89.9653C40.7758 90.3487 40.7148 90.7346 40.5643 91.0887C40.4137 91.4428 40.1783 91.7542 39.879 91.9951L38.8043 91.999ZM72.3134 21.6247H60.8407C60.8407 22.9128 60.8222 24.1366 60.8489 25.3609C60.8946 25.6678 60.8368 25.9813 60.6845 26.2515C60.5322 26.5217 60.2943 26.7331 60.0085 26.8522C59.7227 26.9713 59.4055 26.9912 59.1071 26.9087C58.8087 26.8263 58.5464 26.6462 58.3617 26.3972C57.6702 25.694 56.9742 24.9959 56.2737 24.3031C55.3632 23.3997 54.5891 22.1569 53.4912 21.7001C52.3933 21.2433 50.9685 21.5721 49.6861 21.5633C48.6848 21.557 47.6835 21.5633 46.6958 21.5633V40.3724H72.3139L72.3134 21.6247ZM72.3134 48.568H46.7167V53.8519H72.3153L72.3134 48.568ZM80.9026 56.6521H38.1094V59.2331H80.9045L80.9026 56.6521ZM40.772 65.0045H78.2042V62.0494H40.7739L40.772 65.0045ZM70.3181 67.7925C70.3181 71.0033 70.2807 74.1663 70.3667 77.3264C70.3773 77.716 70.9926 78.3135 71.4165 78.407C71.7958 78.4908 72.344 78.0661 72.7247 77.7544C72.8951 77.6137 72.8801 77.1973 72.8811 76.9061C72.8908 74.0354 72.8916 71.1646 72.8835 68.2936C72.8725 68.1252 72.8497 67.9577 72.815 67.7925H70.3181ZM63.4799 45.7834V43.1814H55.5297V45.7834H63.4799Z" fill="url(#paint0_linear_642_1476)" stroke="#414141" stroke-opacity="0.13" stroke-width="2" mask="url(#path-1-inside-1_642_1476)"></path>
    </g>
    <g id="Path 138446">
      <path d="M11.927 91.9995C10.3594 91.4521 8.7944 90.8994 7.22543 90.3579C5.94637 89.9162 5.69967 89.5835 5.6987 88.1932C5.69676 80.7389 5.69676 73.2841 5.6987 65.8285V64.6856C4.36088 64.6856 3.11485 64.6768 1.86929 64.688C1.01561 64.6968 0.402301 64.2721 0.395017 63.4549C0.361511 59.5132 -0.0663055 55.5403 0.722789 51.6468C1.02823 50.1449 1.96252 48.7736 2.58165 47.3306C2.80721 46.8922 2.94668 46.4144 2.99247 45.9232C3.02695 42.301 2.99977 38.6782 3.0158 35.055C3.02794 32.2894 4.4653 30.3521 6.93358 29.7619C7.37152 29.6749 7.81789 29.6381 8.26411 29.6523C11.0113 29.6435 13.7578 29.6421 16.5037 29.6479C19.848 29.6508 21.888 31.6933 21.9162 35.0706C21.9293 36.6504 21.9162 38.2307 21.9162 39.8855C23.9693 39.9882 26.0138 39.5551 27.8501 38.6285C29.3682 37.7553 30.8381 36.8006 32.2535 35.7684C32.3769 35.6876 32.4701 35.562 32.5862 35.4694C33.3024 34.9016 34.0692 34.9006 34.5941 35.4621C35.1438 36.0514 35.0797 36.8676 34.3892 37.5284C32.6402 39.3012 30.5082 40.647 28.158 41.4619C26.4427 41.931 24.705 42.3136 22.9514 42.6082C22.6373 42.675 22.3134 42.6974 21.9176 42.75V62.1883C21.9176 64.3797 21.7234 64.5882 19.579 64.6904C19.4753 64.7063 19.3729 64.7297 19.2726 64.7606C19.2585 65.0528 19.2318 65.345 19.2318 65.6337C19.2294 72.7292 19.2415 79.8247 19.2124 86.9202C19.2095 87.6351 19.3872 87.9998 20.0961 88.1898C21.1295 88.4659 22.1396 88.8326 23.1554 89.1788C24.7992 89.7399 25.0293 90.838 23.7537 91.998H22.6781C21.1727 91.4623 19.6674 90.9194 18.1557 90.3993C16.6246 89.8733 16.4498 89.6478 16.4498 88.0198V64.7362H8.58314C8.54722 64.802 8.5206 64.8725 8.50401 64.9456C8.49624 72.4229 8.4972 79.9003 8.50691 87.3779C8.53663 87.5213 8.59959 87.6557 8.6907 87.7702C8.78181 87.8847 8.89852 87.976 9.03137 88.0368C10.1434 88.4561 11.284 88.797 12.4096 89.1818C14.051 89.7428 14.2787 90.8409 13.0055 92L11.927 91.9995ZM19.0623 61.9521V48.514H7.36868C4.6979 48.514 4.64933 48.5496 3.67279 51.0722C3.59932 51.2351 3.54364 51.4056 3.50673 51.5806C3.32061 52.4834 3.19392 53.3975 3.12747 54.317C3.076 56.8494 3.10999 59.3817 3.10999 61.9521H19.0623ZM19.1351 39.7301C19.1351 38.014 19.1478 36.4035 19.1318 34.7935C19.1157 33.2668 18.2091 32.3585 16.6683 32.3473C13.8651 32.3304 11.0615 32.3304 8.25733 32.3473C6.68642 32.3571 5.80118 33.2785 5.79535 34.885C5.78467 37.9658 5.79291 41.0474 5.79194 44.1286V45.7664H19.1356C19.1356 44.8523 19.1162 43.9898 19.1434 43.1288C19.1585 42.6418 18.9706 42.4695 18.4903 42.3857C15.0625 41.8009 11.8804 40.2228 9.33632 37.846C8.3491 36.9426 8.16457 36.1571 8.78614 35.4728C9.39847 34.7998 10.2162 34.9201 11.1845 35.8264C11.25 35.8878 11.3132 35.9511 11.3787 36.0105C13.5607 37.9628 16.2513 39.2527 19.1366 39.7296L19.1351 39.7301Z" fill="url(#paint1_linear_642_1476)"></path>
      <path d="M2.99247 45.9232C2.94668 46.4144 2.80721 46.8922 2.58165 47.3306C2.37371 47.8153 2.13022 48.2918 1.88694 48.7679C1.40587 49.7095 0.925644 50.6494 0.722789 51.6468M2.99247 45.9232L5.6987 64.6856C5.28446 64.6856 4.87902 64.6847 4.47966 64.6839C3.58928 64.6821 2.72917 64.6803 1.86929 64.688C1.01561 64.6968 0.402301 64.2721 0.395017 63.4549M2.99247 45.9232C3.01274 43.7934 3.0117 41.6634 3.01066 39.5332M2.99247 45.9232L3.01066 39.5332M0.722789 51.6468C0.126741 54.5878 0.225018 57.5741 0.323218 60.558C0.355023 61.5244 0.38682 62.4906 0.395017 63.4549M0.722789 51.6468L1.21283 51.7461C1.35247 51.0597 1.63916 50.388 1.98339 49.687C2.09048 49.469 2.20519 49.2444 2.32201 49.0157C2.567 48.536 2.82131 48.0381 3.03438 47.5435C3.28442 47.0526 3.43915 46.5185 3.49031 45.9696L3.49225 45.9488L3.49245 45.928C3.51273 43.7974 3.51169 41.6612 3.51066 39.5278C3.50994 38.0353 3.50922 36.5441 3.51579 35.0572L3.51579 35.0572C3.52148 33.7605 3.86046 32.6936 4.45543 31.8903C5.04669 31.092 5.91425 30.5217 7.04048 30.2504C7.43808 30.1721 7.84321 30.1391 8.2482 30.152L8.25695 30.1523L8.26571 30.1523C11.012 30.1435 13.7577 30.1421 16.5027 30.1479L16.5033 30.1479C18.0727 30.1493 19.281 30.627 20.0996 31.4471C20.9189 32.2677 21.4029 33.4862 21.4162 35.0747C21.4249 36.1199 21.422 37.1631 21.4191 38.2311C21.4177 38.7749 21.4162 39.3252 21.4162 39.8855V40.3611L21.8912 40.3848C24.0309 40.4919 26.1617 40.0406 28.0754 39.0749L28.0876 39.0688L28.0995 39.062C29.6301 38.1815 31.1122 37.219 32.5396 36.1787M0.722789 51.6468L1.21276 51.7465C1.21278 51.7464 1.21279 51.7463 1.21281 51.7462C0.629479 54.6245 0.724784 57.5286 0.822225 60.4979C0.854277 61.4746 0.88656 62.4583 0.894997 63.4505M0.395017 63.4549L0.894997 63.4505M0.395017 63.4549L0.894999 63.4507C0.897471 63.7226 0.993858 63.8849 1.12569 63.9896C1.27154 64.1055 1.51489 64.1916 1.86416 64.188L1.8648 64.188C2.72751 64.1803 3.59212 64.1821 4.48393 64.1839C4.88266 64.1847 5.28683 64.1856 5.6987 64.1856H6.1987V64.6856V65.8285V65.8287C6.19676 73.284 6.19676 80.7388 6.1987 88.1928C6.19919 88.8898 6.2696 89.1716 6.39045 89.3418C6.51047 89.5108 6.74688 89.6636 7.38864 89.8852C8.43936 90.2479 9.48925 90.6159 10.538 90.9835C11.0295 91.1558 11.5208 91.328 12.0119 91.4995L12.8054 91.4999C13.2756 91.0277 13.3549 90.6773 13.3112 90.4695C13.2633 90.2419 13.0116 89.9159 12.2479 89.6549C11.8603 89.5224 11.4629 89.3927 11.0619 89.2618C10.3267 89.0218 9.57899 88.7777 8.85496 88.5047L8.83883 88.4986L8.82316 88.4914C8.61885 88.3979 8.43947 88.2574 8.29949 88.0816L8.6907 87.7702L8.29949 88.0816C8.15954 87.9057 8.06291 87.6994 8.01731 87.4794L8.00698 87.4295L8.00691 87.3786C7.9972 79.9006 7.99624 72.4228 8.00401 64.9451L8.00407 64.8894L8.0164 64.835C8.04319 64.7169 8.08619 64.603 8.14429 64.4966L8.28646 64.2362H8.58314H16.4498H16.9498V64.7362V88.0198C16.9498 88.8658 17.0091 89.1571 17.134 89.3301C17.1907 89.4087 17.2841 89.4922 17.474 89.591C17.6696 89.6927 17.9364 89.7952 18.3181 89.9264L18.3184 89.9265C19.4929 90.3306 20.6643 90.7487 21.8317 91.1654C22.1429 91.2765 22.4538 91.3875 22.7644 91.498H23.5537C24.0251 91.0252 24.104 90.6748 24.0601 90.4673C24.012 90.2395 23.7592 89.9133 22.9941 89.6521C22.8018 89.5865 22.6109 89.5207 22.4211 89.4553C21.5956 89.1706 20.7899 88.8927 19.9671 88.6728L19.9668 88.6727C19.5484 88.5607 19.1938 88.3719 18.968 88.0242C18.7533 87.6937 18.7108 87.3009 18.7124 86.9181C18.7339 81.6754 18.7329 76.4331 18.7319 71.1895C18.7315 69.3377 18.7312 67.4859 18.7318 65.6337L0.894997 63.4505M0.894997 63.4505L32.5396 36.1787M19.579 64.6904C21.7234 64.5882 21.9176 64.3797 21.9176 62.1883V42.75C22.0465 42.7328 22.1677 42.7189 22.2835 42.7056C22.5233 42.6781 22.7396 42.6532 22.9514 42.6082C24.705 42.3136 26.4427 41.931 28.158 41.4619C30.5082 40.647 32.6402 39.3012 34.3892 37.5284C35.0797 36.8676 35.1438 36.0514 34.5941 35.4621C34.0692 34.9006 33.3024 34.9016 32.5862 35.4694C32.5365 35.509 32.4911 35.5546 32.4457 35.6002C32.3849 35.6612 32.3241 35.7222 32.2535 35.7684M19.579 64.6904L21.9162 39.8855C23.9693 39.9882 26.0138 39.5551 27.8501 38.6285C29.3682 37.7553 30.8381 36.8006 32.2535 35.7684M19.579 64.6904C19.4753 64.7063 19.3729 64.7297 19.2726 64.7606L19.579 64.6904ZM32.2535 35.7684L32.5276 36.1866C32.5316 36.184 32.5356 36.1813 32.5396 36.1787M32.2535 35.7684L32.5481 36.1724C32.5453 36.1745 32.5424 36.1766 32.5396 36.1787M32.5396 36.1787C32.6422 36.1095 32.7233 36.0295 32.7756 35.9774C32.7854 35.9676 32.7944 35.9587 32.8026 35.9505C32.8489 35.9042 32.872 35.8811 32.8976 35.8606C33.1898 35.6292 33.4546 35.5429 33.6634 35.5423C33.8629 35.5417 34.0554 35.6181 34.2288 35.8035C34.413 36.0011 34.4783 36.2137 34.4589 36.422C34.4387 36.6379 34.3214 36.9012 34.0435 37.1672L34.0383 37.1722L34.0333 37.1773C32.342 38.8915 30.2813 40.1937 28.0099 40.984C26.316 41.4467 24.6001 41.8242 22.8686 42.1152L22.858 42.1169L22.8476 42.1192C22.6586 42.1593 22.4792 42.1798 22.256 42.2053C22.1366 42.2189 22.0045 42.234 21.8518 42.2543L21.4176 42.312V42.75V62.1883C21.4176 62.7377 21.4048 63.1257 21.3598 63.4118C21.3154 63.6946 21.2482 63.816 21.1871 63.8814C21.1273 63.9455 21.0152 64.0178 20.7448 64.0755C20.4696 64.1342 20.0928 64.1654 19.5552 64.191L19.5292 64.1922L19.5034 64.1962C19.3755 64.2157 19.2493 64.2446 19.1256 64.2826L18.7901 64.3858L18.7732 64.7365C18.7693 64.8162 18.764 64.9023 18.7584 64.9921C18.7457 65.1975 18.7318 65.4224 18.7318 65.6336L32.5396 36.1787ZM3.01066 39.5332C3.00993 38.0405 3.00919 36.5478 3.0158 35.055L3.01066 39.5332ZM19.0623 62.4521H19.5623V61.9521V48.514V48.014H19.0623H7.36868C6.70974 48.014 6.17595 48.0156 5.74804 48.0619C5.31333 48.1089 4.93208 48.2065 4.60068 48.4361C4.27002 48.6651 4.04258 48.9884 3.84175 49.3801C3.64493 49.7639 3.45005 50.2626 3.21118 50.8796C3.12577 51.0715 3.06086 51.2719 3.01749 51.4774L3.01703 51.4796C2.82649 52.4039 2.69679 53.3397 2.62877 54.281L2.62784 54.2939L2.62758 54.3068C2.59066 56.1229 2.59756 57.9419 2.60448 59.7678C2.60723 60.4947 2.60999 61.2227 2.60999 61.9521V62.4521H3.10999H19.0623ZM18.6351 40.1477V40.4158L19.288 40.2062L19.2895 40.2057L19.2545 39.7301H19.6351C19.6351 39.2004 19.6364 38.6797 19.6376 38.1652C19.6402 37.0181 19.6428 35.9022 19.6317 34.7885L19.6317 34.7882C19.6227 33.9269 19.36 33.1806 18.8246 32.6477C18.2892 32.1148 17.5399 31.8536 16.672 31.8473L16.6713 31.8473C13.8662 31.8304 11.0605 31.8304 8.25432 31.8473L8.25423 31.8473C7.37151 31.8528 6.61496 32.1169 6.08012 32.6697C5.54741 33.2202 5.29859 33.991 5.29535 34.8832L5.29535 34.8833C5.28816 36.9562 5.28954 39.0303 5.29092 41.1033C5.29159 42.112 5.29226 43.1205 5.29194 44.1285V44.1286V45.7664V46.2664H5.79194H19.1356H19.6356V45.7664C19.6356 45.4868 19.6339 45.2151 19.6322 44.9487C19.6282 44.3298 19.6244 43.7394 19.6432 43.1446L19.6432 43.1443C19.6524 42.8461 19.6049 42.5227 19.3708 42.2678C19.1494 42.0267 18.8421 41.9395 18.5762 41.8931L18.5744 41.8928C15.2431 41.3245 12.1504 39.7908 9.67766 37.4806L9.67768 37.4806L9.67386 37.4771C9.2104 37.053 9.00328 36.7148 8.94493 36.4639C8.896 36.2536 8.93781 36.0496 9.15597 35.8093C9.36463 35.58 9.56191 35.5201 9.77895 35.552C10.0354 35.5898 10.391 35.7686 10.8428 36.1914C10.8582 36.2059 10.8798 36.2265 10.904 36.2498C10.9483 36.2923 11.0015 36.3434 11.043 36.381L11.043 36.381L11.0453 36.3831C13.1918 38.3037 15.8152 39.6034 18.6351 40.1477Z" stroke="#414141" stroke-opacity="0.13"></path>
    </g>
    <g id="Path 138447">
      <path d="M16.5779 8.95714C21.498 11.6775 22.6139 16.6419 21.464 20.2958C20.8685 22.2232 19.6733 23.9089 18.0535 25.1058C16.4336 26.3028 14.4742 26.9482 12.4621 26.9475C10.45 26.9467 8.49101 26.3 6.87199 25.1019C5.25296 23.9038 4.05898 22.2173 3.46487 20.2894C2.33683 16.6984 3.38231 11.712 8.36162 8.9469C7.32293 7.52196 6.80041 5.96018 7.22919 4.18363C7.51339 2.91665 8.24877 1.79719 9.29736 1.03523C10.3186 0.290414 11.5679 -0.0716408 12.8278 0.0120928C14.0878 0.0958264 15.2786 0.620042 16.1928 1.49348C18.2236 3.42538 18.3707 6.06781 16.5779 8.95714ZM19.1273 17.5569C19.1256 16.2355 18.7333 14.9442 17.9999 13.8464C17.2665 12.7486 16.2249 11.8936 15.0069 11.3895C13.789 10.8853 12.4493 10.7548 11.1573 11.0142C9.86528 11.2737 8.67903 11.9116 7.74855 12.8472C6.81806 13.7828 6.18512 14.9741 5.92978 16.2705C5.67444 17.5669 5.80817 18.9101 6.31404 20.1303C6.81992 21.3504 7.67524 22.3927 8.77181 23.1254C9.86839 23.858 11.157 24.2481 12.4746 24.2463C14.2364 24.2282 15.9208 23.5171 17.165 22.266C18.4092 21.0149 19.1139 19.3239 19.1273 17.5569ZM12.4328 2.70366C11.9045 2.7101 11.3898 2.87326 10.9537 3.17256C10.5177 3.47185 10.1797 3.8939 9.98237 4.38551C9.78507 4.87713 9.7373 5.41632 9.84505 5.93513C9.9528 6.45393 10.2113 6.92915 10.5879 7.30088C10.9645 7.67262 11.4424 7.92424 11.9614 8.02404C12.4803 8.12384 13.0171 8.06734 13.5041 7.86169C13.9911 7.65603 14.4066 7.31041 14.698 6.86837C14.9895 6.42634 15.144 5.90767 15.142 5.37773C15.1178 4.66903 14.8233 3.99668 14.3192 3.49944C13.8151 3.00221 13.1398 2.71805 12.4328 2.70561V2.70366Z" fill="url(#paint2_linear_642_1476)"></path>
      <path d="M16.153 8.69351L15.8758 9.14029L16.336 9.39471C21.0274 11.9886 22.0728 16.6955 20.987 20.1457L20.9863 20.1482C20.4222 21.9739 19.2902 23.5703 17.7563 24.7037C16.2225 25.8371 14.3672 26.4481 12.4623 26.4475C10.5573 26.4468 8.7025 25.8345 7.16941 24.7C5.6363 23.5655 4.50544 21.9683 3.9427 20.1422L3.94189 20.1396C2.87691 16.7493 3.85526 12.0213 8.60436 9.38402L9.09883 9.10943L8.76567 8.65237C7.78609 7.30853 7.33046 5.89517 7.71523 4.30094L7.7153 4.30095L7.71707 4.29307C7.9747 3.14453 8.64126 2.13005 9.59128 1.43971L9.59199 1.4392C10.5186 0.763413 11.6519 0.435044 12.7947 0.510992C13.9375 0.586941 15.0178 1.06243 15.8474 1.85502L15.8482 1.85574C16.7798 2.74196 17.2607 3.76859 17.3199 4.89257C17.3796 6.0266 17.0121 7.30912 16.153 8.69351ZM19.6273 17.5607L19.6273 17.5563C19.6255 16.1363 19.2039 14.7486 18.4156 13.5687C17.6274 12.3887 16.5077 11.4695 15.1982 10.9275C13.8886 10.3854 12.448 10.245 11.0588 10.524C9.66958 10.803 8.39425 11.4889 7.39402 12.4946C6.39381 13.5004 5.7136 14.7808 5.43921 16.1739C5.16481 17.567 5.3085 19.0105 5.85217 20.3218C6.39584 21.6331 7.31515 22.7535 8.49404 23.5411C9.67296 24.3288 11.0584 24.7482 12.4753 24.7463L12.4797 24.7462C14.3731 24.7268 16.1829 23.9626 17.5195 22.6186C18.8562 21.2746 19.6129 19.4583 19.6273 17.5607ZM12.9328 2.25175V2.19752L12.4267 2.2037C11.7993 2.21135 11.1884 2.40509 10.6708 2.76031C10.1533 3.11552 9.75232 3.61626 9.51834 4.19929C9.28436 4.7823 9.22774 5.42165 9.3555 6.0368C9.48326 6.65198 9.78978 7.21566 10.2366 7.65673C10.6835 8.09782 11.2507 8.39655 11.8669 8.51504C12.4831 8.63354 13.1205 8.56645 13.6986 8.3223C14.2768 8.07816 14.7697 7.66797 15.1154 7.14361C15.4612 6.61929 15.6443 6.00421 15.642 5.37587L15.642 5.36828L15.6417 5.3607C15.6132 4.52437 15.2656 3.73066 14.6703 3.14347C14.193 2.67265 13.5855 2.36343 12.9328 2.25175Z" stroke="#414141" stroke-opacity="0.13"></path>
    </g>
    <g id="Path 138448">
      <path d="M38.6462 10.8226C38.6456 11.0013 38.6088 11.178 38.5378 11.3419C38.4669 11.5058 38.3634 11.6535 38.2336 11.776C38.1039 11.8984 37.9506 11.9931 37.7832 12.0541C37.6158 12.1152 37.4377 12.1414 37.2598 12.1312C36.9047 12.1162 36.5697 11.9614 36.3277 11.7003C36.0857 11.4392 35.9561 11.0929 35.9671 10.7366C35.9781 10.3803 36.1288 10.0428 36.3865 9.79719C36.6441 9.55161 36.988 9.41786 37.3433 9.42495C37.5217 9.42684 37.6977 9.46496 37.8609 9.53704C38.0242 9.60911 38.1711 9.71364 38.2929 9.84429C38.4147 9.97493 38.5088 10.129 38.5695 10.2971C38.6302 10.4653 38.6563 10.6441 38.6462 10.8226Z" fill="url(#paint3_linear_642_1476)"></path>
      <path d="M38.147 10.7943L38.1462 10.8077L38.1462 10.821C38.1458 10.932 38.1229 11.0417 38.0789 11.1433C38.035 11.245 37.9708 11.3365 37.8905 11.4123C37.8101 11.4882 37.7153 11.5467 37.6119 11.5844L37.7832 12.0541L37.6119 11.5844C37.5084 11.6221 37.3984 11.6383 37.2886 11.632L37.2886 11.6319L37.2808 11.6316C37.0577 11.6222 36.8469 11.5249 36.6944 11.3604C36.5419 11.1958 36.46 10.9772 36.4669 10.7521C36.4738 10.5269 36.5691 10.3139 36.7314 10.1591C36.8937 10.0044 37.1101 9.92039 37.3334 9.92487L37.3381 9.92492C37.4486 9.92609 37.5577 9.94972 37.659 9.99442C37.7602 10.0391 37.8514 10.104 37.9271 10.1852C38.0028 10.2664 38.0614 10.3623 38.0992 10.467C38.137 10.5717 38.1533 10.6831 38.147 10.7943Z" stroke="#414141" stroke-opacity="0.13"></path>
    </g>
    <g id="Path 138449">
      <path d="M42.7265 9.4259C43.0758 9.44027 43.4059 9.58983 43.6476 9.84315C43.8893 10.0965 44.0237 10.4339 44.0225 10.7844C44.0214 11.135 43.8849 11.4715 43.6416 11.7233C43.3983 11.975 43.0672 12.1224 42.7178 12.1346C42.5374 12.1388 42.358 12.1067 42.1902 12.0403C42.0223 11.9738 41.8695 11.8744 41.7406 11.7477C41.6117 11.621 41.5095 11.4698 41.4399 11.3028C41.3702 11.1359 41.3347 10.9567 41.3353 10.7757C41.3359 10.5948 41.3726 10.4158 41.4433 10.2493C41.514 10.0828 41.6172 9.93221 41.7469 9.80639C41.8766 9.68057 42.0301 9.58208 42.1983 9.51673C42.3666 9.45138 42.5462 9.4205 42.7265 9.4259Z" fill="url(#paint4_linear_642_1476)"></path>
      <path d="M42.3793 9.98281C42.4843 9.94203 42.5963 9.9226 42.7088 9.92559C42.9273 9.93531 43.1341 10.0292 43.2858 10.1883C43.4383 10.3481 43.5233 10.5612 43.5225 10.7828C43.5218 11.0045 43.4355 11.217 43.282 11.3758C43.1293 11.5339 42.9219 11.6265 42.7033 11.6348C42.5908 11.637 42.4789 11.6169 42.3742 11.5754C42.2686 11.5336 42.1723 11.4709 42.0911 11.3911C42.0099 11.3113 41.9453 11.2158 41.9013 11.1104C41.8574 11.005 41.8349 10.8917 41.8353 10.7773C41.8356 10.663 41.8589 10.5499 41.9035 10.4447C41.9481 10.3396 42.0133 10.2446 42.0951 10.1652C42.1768 10.0859 42.2735 10.0239 42.3793 9.98281Z" stroke="#414141" stroke-opacity="0.13"></path>
    </g>
    <g id="Path 138450">
      <path d="M49.3965 10.7808C49.4006 10.9596 49.3687 11.1373 49.3027 11.3034C49.2367 11.4695 49.1378 11.6205 49.0122 11.7473C48.8865 11.8742 48.7366 11.9743 48.5714 12.0416C48.4062 12.1089 48.2292 12.142 48.0509 12.139C47.696 12.1323 47.3578 11.9861 47.1092 11.732C46.8606 11.4779 46.7213 11.1361 46.7213 10.7801C46.7213 10.424 46.8606 10.0822 47.1092 9.8281C47.3578 9.57398 47.696 9.42785 48.0509 9.42111C48.2293 9.4179 48.4066 9.45095 48.572 9.51827C48.7374 9.5856 48.8874 9.6858 49.0132 9.81284C49.1389 9.93988 49.2377 10.0911 49.3035 10.2575C49.3694 10.4239 49.401 10.6019 49.3965 10.7808Z" fill="url(#paint5_linear_642_1476)"></path>
      <path d="M48.0509 9.42111L48.0599 9.92103C48.1707 9.91904 48.2808 9.93955 48.3835 9.98137C48.4862 10.0232 48.5795 10.0855 48.6578 10.1645C48.736 10.2436 48.7976 10.3378 48.8387 10.4416C48.8797 10.5453 48.8995 10.6564 48.8966 10.7681L48.8963 10.7802L48.8966 10.7924C48.8992 10.9041 48.8793 11.0151 48.8381 11.1187L49.3027 11.3034L48.8381 11.1187C48.7969 11.2223 48.7352 11.3164 48.657 11.3954L48.657 11.3954C48.5787 11.4744 48.4854 11.5367 48.3827 11.5785C48.2802 11.6203 48.1704 11.6409 48.0598 11.6391C47.8365 11.6347 47.6235 11.5427 47.4666 11.3823C47.3095 11.2218 47.2213 11.0056 47.2213 10.7801C47.2213 10.5546 47.3095 10.3383 47.4666 10.1778C47.6236 10.0173 47.8368 9.92527 48.0604 9.92102L48.0509 9.42111ZM48.0509 9.42111C48.2293 9.4179 48.4066 9.45095 48.572 9.51827C48.7374 9.5856 48.8874 9.6858 49.0132 9.81284C49.1389 9.93988 49.2377 10.0911 49.3035 10.2575C49.3694 10.4239 49.401 10.6019 49.3965 10.7808L48.0509 12.139C47.696 12.1323 47.3578 11.9861 47.1092 11.732C46.8606 11.4779 46.7213 11.1361 46.7213 10.7801C46.7213 10.424 46.8606 10.0822 47.1092 9.8281C47.3578 9.57398 47.696 9.42785 48.0509 9.42111Z" stroke="#414141" stroke-opacity="0.13"></path>
    </g>
    <path id="Path 138451" d="M15.1332 51.2157C15.3963 51.2148 15.6538 51.2916 15.8735 51.4367C16.0932 51.5817 16.2654 51.7885 16.3686 52.0312C16.4718 52.2739 16.5013 52.5417 16.4535 52.8011C16.4057 53.0605 16.2827 53.3001 16.0999 53.4898C15.9171 53.6795 15.6825 53.8109 15.4256 53.8676C15.1687 53.9244 14.9008 53.9039 14.6555 53.8087C14.4101 53.7136 14.1982 53.548 14.0462 53.3327C13.8941 53.1174 13.8088 52.862 13.8007 52.5983C13.7985 52.2388 13.9367 51.8928 14.1858 51.6344C14.4348 51.3759 14.775 51.2256 15.1332 51.2157Z" fill="url(#paint6_linear_642_1476)" stroke="#414141" stroke-opacity="0.13" stroke-width="0.5" stroke-miterlimit="10"></path>
    <path id="Path 138452" d="M16.5047 57.9091C16.5094 58.2695 16.3711 58.6171 16.1203 58.8754C15.8695 59.1336 15.5266 59.2813 15.1672 59.286C14.8077 59.2907 14.4611 59.1521 14.2036 58.9005C13.9461 58.6489 13.7988 58.3051 13.7941 57.9446C13.8043 57.5994 13.9431 57.2706 14.1833 57.0231C14.4234 56.7756 14.7473 56.6274 15.0911 56.6078C15.4504 56.5932 15.8009 56.7218 16.0659 56.9657C16.3308 57.2096 16.4886 57.5488 16.5047 57.9091Z" fill="url(#paint7_linear_642_1476)" stroke="#414141" stroke-opacity="0.13" stroke-width="0.5" stroke-miterlimit="10"></path>
  </g>
  <defs>
    <linearGradient id="paint0_linear_642_1476" x1="49.8333" y1="14.1226" x2="49.1449" y2="116.144" gradientUnits="userSpaceOnUse">
      <stop stop-color="#3C3C3C"></stop>
      <stop offset="1" stop-color="#575757" stop-opacity="0.36"></stop>
    </linearGradient>
    <linearGradient id="paint1_linear_642_1476" x1="15.0868" y1="39.2165" x2="14.5471" y2="108.364" gradientUnits="userSpaceOnUse">
      <stop stop-color="#3C3C3C"></stop>
      <stop offset="1" stop-color="#575757" stop-opacity="0.36"></stop>
    </linearGradient>
    <linearGradient id="paint2_linear_642_1476" x1="11.0997" y1="4.13687" x2="10.9139" y2="34.02" gradientUnits="userSpaceOnUse">
      <stop stop-color="#3C3C3C"></stop>
      <stop offset="1" stop-color="#575757" stop-opacity="0.36"></stop>
    </linearGradient>
    <linearGradient id="paint3_linear_642_1476" x1="37.1128" y1="9.84048" x2="37.0996" y2="12.8443" gradientUnits="userSpaceOnUse">
      <stop stop-color="#3C3C3C"></stop>
      <stop offset="1" stop-color="#575757" stop-opacity="0.36"></stop>
    </linearGradient>
    <linearGradient id="paint4_linear_642_1476" x1="42.4839" y1="9.84124" x2="42.4707" y2="12.8461" gradientUnits="userSpaceOnUse">
      <stop stop-color="#3C3C3C"></stop>
      <stop offset="1" stop-color="#575757" stop-opacity="0.36"></stop>
    </linearGradient>
    <linearGradient id="paint5_linear_642_1476" x1="47.8649" y1="9.83818" x2="47.8516" y2="12.8527" gradientUnits="userSpaceOnUse">
      <stop stop-color="#3C3C3C"></stop>
      <stop offset="1" stop-color="#575757" stop-opacity="0.36"></stop>
    </linearGradient>
    <linearGradient id="paint6_linear_642_1476" x1="14.9441" y1="51.6276" x2="14.9311" y2="54.6033" gradientUnits="userSpaceOnUse">
      <stop stop-color="#3C3C3C"></stop>
      <stop offset="1" stop-color="#575757" stop-opacity="0.36"></stop>
    </linearGradient>
    <linearGradient id="paint7_linear_642_1476" x1="14.9528" y1="57.018" x2="14.94" y2="59.9894" gradientUnits="userSpaceOnUse">
      <stop stop-color="#3C3C3C"></stop>
      <stop offset="1" stop-color="#575757" stop-opacity="0.36"></stop>
    </linearGradient>
  </defs>
</svg>
