<?xml version="1.0" encoding="UTF-8"?>
<svg xmlns="http://www.w3.org/2000/svg" width="95" height="74" viewBox="0 0 95 74" fill="none">
  <g id="Group">
    <path id="Vector" d="M47.2345 39.0524C34.162 39.0524 21.0894 39.0524 8.01692 39.0472C7.24886 39.0472 6.32616 39.2534 5.75398 38.9029C5.06324 38.4854 4.32611 37.6039 4.26941 36.8668C4.22301 36.2946 5.06839 35.4286 5.72305 35.0884C6.34162 34.7688 7.2231 34.944 7.99116 34.944C34.1362 34.9389 60.2812 34.9389 86.4314 34.944C87.117 34.944 87.9624 34.7224 88.4418 35.0368C89.1892 35.5317 90.0707 36.3513 90.1635 37.1245C90.2305 37.6761 89.1995 38.573 88.4727 38.9441C87.8541 39.2586 86.9675 39.0472 86.1994 39.0472C73.2094 39.0524 60.2245 39.0524 47.2345 39.0524Z" fill="white"></path>
    <path id="Vector_2" d="M20.7227 12.459C23.4289 12.459 25.9599 12.459 28.6198 12.459C28.6198 18.521 28.6198 24.4696 28.6198 30.6296C26.0888 30.6296 23.4959 30.6296 20.7227 30.6296C20.7227 24.6861 20.7227 18.6808 20.7227 12.459Z" fill="white"></path>
    <path id="Vector_3" d="M49.4453 12.4021C52.131 12.4021 54.6001 12.4021 57.2754 12.4021C57.2754 18.428 57.2754 24.4385 57.2754 30.6449C54.7908 30.6449 52.2031 30.6449 49.4453 30.6449C49.4453 24.6602 49.4453 18.6497 49.4453 12.4021Z" fill="white"></path>
    <path id="Vector_4" d="M28.5729 61.5375C25.8615 61.5375 23.3356 61.5375 20.6758 61.5375C20.6758 55.4755 20.6758 49.5269 20.6758 43.3669C23.2068 43.3669 25.7996 43.3669 28.5729 43.3669C28.5729 49.3104 28.5729 55.3209 28.5729 61.5375Z" fill="white"></path>
    <path id="Vector_5" d="M49.4102 43.2793C52.07 43.2793 54.601 43.2793 57.4877 43.2793C57.4877 46.3309 57.4877 49.3723 57.4877 52.4084C57.4877 55.3827 57.4877 58.357 57.4877 61.4911C54.7247 61.4911 52.137 61.4911 49.4102 61.4911C49.4102 55.4755 49.4102 49.5269 49.4102 43.2793Z" fill="white"></path>
    <path id="Vector_6" d="M18.4439 0.0668444C18.4439 1.50503 18.4439 2.61331 18.4439 4.12881C16.2377 4.12881 14.0572 4.12881 11.8767 4.12881C4.55695 4.12881 4.12395 4.57211 4.12395 12.0156C4.12395 14.0621 4.12395 16.1033 4.12395 18.3302C2.76824 18.3302 1.54656 18.3302 0.118688 18.3302C0.118688 14.5105 -0.128742 10.6651 0.190854 6.87114C0.494986 3.28342 3.64971 0.345205 7.23743 0.118395C10.8767 -0.11357 14.5469 0.0668444 18.4439 0.0668444Z" fill="white"></path>
    <path id="Vector_7" d="M94.3958 18.3921C92.9112 18.3921 91.7462 18.3921 90.3287 18.3921C90.3287 15.222 90.3493 12.16 90.3235 9.10324C90.2926 5.59799 88.839 4.1598 85.3079 4.13403C82.3233 4.11341 79.3387 4.12889 76.1582 4.12889C76.1582 2.7938 76.1582 1.57211 76.1582 0.113312C79.9315 0.113312 83.7667 -0.13411 87.5554 0.185486C91.2359 0.494773 94.1587 3.75259 94.3597 7.46403C94.5453 11.0311 94.3958 14.6188 94.3958 18.3921Z" fill="white"></path>
    <path id="Vector_8" d="M0.0680203 55.5374C1.54229 55.5374 2.65057 55.5374 4.12483 55.5374C4.12483 58.6199 4.10937 61.6664 4.12999 64.7129C4.15061 68.414 5.55786 69.8367 9.22291 69.8676C12.0426 69.8934 14.8622 69.8883 17.687 69.9037C17.8468 69.9037 18.0066 69.9862 18.3262 70.079C18.3262 71.2543 18.3262 72.4811 18.3262 73.9038C14.5478 73.9038 10.7951 74.1203 7.07852 73.842C3.3877 73.5636 0.341229 70.4037 0.114419 66.7129C-0.112391 63.0736 0.0680203 59.4034 0.0680203 55.5374Z" fill="white"></path>
    <path id="Vector_9" d="M90.3227 55.6096C91.7351 55.6096 92.9001 55.6096 94.23 55.6096C94.23 59.584 94.5599 63.5995 94.132 67.5326C93.7351 71.1564 90.4309 73.7699 86.7916 73.9245C83.3019 74.074 79.8069 73.9555 76.1367 73.9555C76.1367 72.6101 76.1367 71.3884 76.1367 69.8677C79.1987 69.8677 82.2451 69.8883 85.2968 69.8626C88.8278 69.8368 90.2917 68.3883 90.3175 64.8934C90.3484 61.8366 90.3227 58.7798 90.3227 55.6096Z" fill="white"></path>
    <path id="Vector_10" d="M16.2992 30.7172C15.026 30.7172 13.861 30.7172 12.5156 30.7172C12.5156 24.7119 12.5156 18.6962 12.5156 12.5105C13.7167 12.5105 14.9384 12.5105 16.2992 12.5105C16.2992 18.5674 16.2992 24.583 16.2992 30.7172Z" fill="white"></path>
    <path id="Vector_11" d="M33.0059 12.3918C34.377 12.3918 35.4802 12.3918 36.774 12.3918C36.774 18.4487 36.774 24.4643 36.774 30.6604C35.5987 30.6604 34.377 30.6604 33.0059 30.6604C33.0059 24.6344 33.0059 18.6188 33.0059 12.3918Z" fill="white"></path>
    <path id="Vector_12" d="M45.0336 30.7172C43.7604 30.7172 42.5954 30.7172 41.25 30.7172C41.25 24.7119 41.25 18.6962 41.25 12.5105C42.4511 12.5105 43.6727 12.5105 45.0336 12.5105C45.0336 18.5674 45.0336 24.583 45.0336 30.7172Z" fill="white"></path>
    <path id="Vector_13" d="M65.4917 30.7428C64.2339 30.7428 63.0689 30.7428 61.7441 30.7428C61.7441 24.6551 61.7441 18.6394 61.7441 12.4846C62.9555 12.4846 64.1205 12.4846 65.4917 12.4846C65.4917 18.4332 65.4917 24.4437 65.4917 30.7428Z" fill="white"></path>
    <path id="Vector_14" d="M69.9414 12.4641C71.2146 12.4641 72.3796 12.4641 73.725 12.4641C73.725 18.4694 73.725 24.4851 73.725 30.6708C72.5239 30.6708 71.3023 30.6708 69.9414 30.6708C69.9414 24.6139 69.9414 18.5983 69.9414 12.4641Z" fill="white"></path>
    <path id="Vector_15" d="M78.1211 30.7016C78.1211 24.6035 78.1211 18.6549 78.1211 12.5208C79.3737 12.5208 80.5954 12.5208 81.9666 12.5208C81.9666 18.5364 81.9666 24.552 81.9666 30.7016C80.7243 30.7016 79.5593 30.7016 78.1211 30.7016Z" fill="white"></path>
    <path id="Vector_16" d="M12.5059 43.2742C13.8461 43.2742 15.0111 43.2742 16.3049 43.2742C16.3049 49.4032 16.3049 55.4188 16.3049 61.5427C15.0111 61.5427 13.8461 61.5427 12.5059 61.5427C12.5059 55.5168 12.5059 49.5011 12.5059 43.2742Z" fill="white"></path>
    <path id="Vector_17" d="M36.7861 61.5478C35.4562 61.5478 34.2912 61.5478 32.9922 61.5478C32.9922 55.424 32.9922 49.4083 32.9922 43.2793C34.2809 43.2793 35.4459 43.2793 36.7861 43.2793C36.7861 49.2949 36.7861 55.3105 36.7861 61.5478Z" fill="white"></path>
    <path id="Vector_18" d="M41.166 61.5323C41.166 55.4033 41.166 49.4495 41.166 43.3308C42.4444 43.3308 43.6661 43.3308 45.0321 43.3308C45.0321 49.3825 45.0321 55.3981 45.0321 61.5323C43.764 61.5323 42.599 61.5323 41.166 61.5323Z" fill="white"></path>
    <path id="Vector_19" d="M65.5538 61.5323C64.2909 61.5323 63.1259 61.5323 61.7754 61.5323C61.7754 55.5424 61.7754 49.5217 61.7754 43.3359C62.9661 43.3359 64.1878 43.3359 65.5538 43.3359C65.5538 49.3773 65.5538 55.393 65.5538 61.5323Z" fill="white"></path>
    <path id="Vector_20" d="M73.7346 61.5427C72.3944 61.5427 71.2294 61.5427 69.9355 61.5427C69.9355 55.4137 69.9355 49.398 69.9355 43.2742C71.2294 43.2742 72.3944 43.2742 73.7346 43.2742C73.7346 49.3001 73.7346 55.3157 73.7346 61.5427Z" fill="white"></path>
    <path id="Vector_21" d="M78.1055 61.5478C78.1055 55.3776 78.1055 49.4238 78.1055 43.3206C79.4148 43.3206 80.6365 43.3206 81.9819 43.3206C81.9819 49.4135 81.9819 55.4291 81.9819 61.5478C80.6829 61.5478 79.5179 61.5478 78.1055 61.5478Z" fill="white"></path>
  </g>
</svg>
