<?xml version="1.0" encoding="UTF-8"?>
<svg xmlns="http://www.w3.org/2000/svg" width="73" height="74" viewBox="0 0 73 74" fill="none">
  <g id="Frame" clip-path="url(#clip0_762_635)">
    <g id="Group_88449_1_">
      <path id="Path_164400_1_" d="M29.8686 48.1602C28.7186 48.1469 28.2397 47.5527 28.3961 46.3973C29.8784 35.5574 31.3574 24.7142 32.8267 13.8744C32.8821 13.4693 32.641 12.9846 32.4423 12.5862C31.9894 11.6964 31.5008 10.8232 30.9763 9.97663C30.7906 9.67782 30.4811 9.30266 30.1814 9.25286C25.526 8.4627 20.8642 7.70242 16.1958 6.97866C15.8765 6.92554 15.554 7.01518 15.3097 7.23098C15.1728 7.41358 15.2608 7.8817 15.3976 8.14067C16.1893 9.62471 17.007 11.0922 17.854 12.543C18.0885 12.9281 18.3883 13.2635 18.7401 13.539C22.3139 16.3776 23.8776 20.0662 23.1967 24.6578C22.4442 29.7441 18.5512 33.4691 13.3518 34.163C8.82021 34.7673 3.99219 31.9618 2.0636 27.596C0.00468791 22.9446 1.10907 17.4301 4.88808 14.2362C5.9436 13.3431 6.81668 12.2442 7.45194 11.0058C7.92432 10.1061 8.39018 9.19975 8.93423 8.3465C9.27304 7.90826 9.28607 7.29073 8.96029 6.84252C7.96993 5.02315 8.61497 2.72902 10.4002 1.71973C10.4589 1.68653 10.5142 1.65666 10.5729 1.62678C12.3777 0.703814 14.5799 1.44418 15.4856 3.28679C15.5377 3.39635 15.5866 3.50591 15.6289 3.61879C15.7658 4.12344 16.2121 4.47868 16.7235 4.49196C20.9814 5.16261 25.2361 5.83325 29.4842 6.56033C30.5625 6.74293 31.5203 6.9023 32.022 5.58757C32.136 5.32528 32.3413 5.11612 32.5986 4.99992C34.1852 4.38239 34.4295 3.01455 34.5142 1.54378C34.524 1.40434 34.5403 1.26157 34.5696 1.12545C34.7162 0.421609 35.1527 -0.132831 35.8336 0.0298501C36.3516 0.215771 36.7718 0.610847 36.9934 1.12213C37.2507 1.74961 37.1595 2.51653 37.3452 3.1905C37.456 3.63206 37.7101 4.02383 38.0652 4.29607C39.3487 5.02316 40.2804 6.25822 40.6453 7.70907C40.7756 8.06431 41.0623 8.33321 41.4207 8.43946C46.076 9.22962 50.7379 9.98327 55.4062 10.7037C55.7907 10.7236 56.1653 10.5809 56.439 10.3086C57.905 8.70174 59.9345 8.37306 61.5471 9.54835C63.1467 10.717 63.5409 12.7522 62.5994 14.6346C62.4463 14.9832 62.4398 15.3816 62.5864 15.7336C63.3585 17.2276 64.1892 18.6917 65.0362 20.1392C65.2675 20.5244 65.5672 20.863 65.9191 21.1385C69.4993 23.9705 71.0663 27.6591 70.3887 32.2507C69.6329 37.3569 65.7627 41.062 60.5568 41.7692C56.0317 42.3834 51.2037 39.5846 49.2589 35.2188C47.1934 30.5807 48.2945 25.0495 52.0638 21.8557C53.1193 20.9626 53.9924 19.867 54.6309 18.6286C55.087 17.7621 55.5822 16.9155 56.0545 16.0556C56.5986 15.1691 56.3347 13.9972 55.4649 13.4427C55.2303 13.2933 54.9664 13.2004 54.6928 13.1672C50.6108 12.4899 46.5191 11.8823 42.4469 11.1619C41.1307 10.9295 40.0752 10.893 39.3618 12.3173C39.1109 12.8219 38.6288 13.124 38.7297 13.8511C40.2414 24.6877 41.7334 35.5275 43.2027 46.3707C43.3688 47.5759 42.8867 48.1569 41.665 48.1669C39.7331 48.1835 37.8013 48.1702 35.8694 48.1702C33.8692 48.1669 31.8689 48.1801 29.8686 48.1602ZM59.4166 39.2792C64.2152 39.2526 68.092 35.2785 68.0855 30.3881C68.0724 25.5376 64.2446 21.5967 59.485 21.5336C54.6667 21.5071 50.7346 25.4645 50.7085 30.3782C50.7085 30.3948 50.7085 30.4114 50.7085 30.428C50.7248 35.3184 54.6179 39.2758 59.4166 39.2792ZM20.8967 22.8085C20.9 17.9181 17.0233 13.9441 12.2213 13.9208C7.40308 13.9341 3.50353 17.9281 3.51657 22.8384C3.51657 22.855 3.51657 22.8716 3.51657 22.8915C3.57521 27.7421 7.43565 31.6464 12.1952 31.6697C16.9939 31.6597 20.8837 27.6989 20.8967 22.8085ZM40.5671 45.5706C40.1925 42.7951 39.8309 40.0859 39.4627 37.3768C38.5213 30.4413 37.5798 23.5057 36.635 16.5702C36.5927 16.0091 36.5112 15.4514 36.3842 14.9036C36.2245 14.5483 36.016 14.2163 35.7652 13.9208C35.5762 14.2329 35.2635 14.5284 35.2146 14.8604C34.6608 18.7249 34.1493 22.596 33.6248 26.4639C32.8006 32.5296 31.9797 38.5919 31.1554 44.6576C31.1196 44.9332 31.1001 45.2154 31.0642 45.5706H40.5671ZM38.2769 8.83123C38.2541 7.46671 37.1823 6.35781 35.8434 6.31465C34.4621 6.30801 33.3349 7.44345 33.3284 8.85446C33.3479 10.2223 34.4197 11.3312 35.7619 11.371C37.1432 11.3777 38.2704 10.2422 38.2769 8.83123C38.2769 8.83456 38.2769 8.83456 38.2769 8.83123ZM14.3291 11.4607C13.8795 10.6406 13.5505 9.74091 12.9576 9.09019C12.7165 8.82458 11.6838 8.87438 11.4036 9.16986C10.8302 9.76747 10.524 10.6307 10.0647 11.464H14.3291V11.4607ZM60.1756 16.7395C59.915 16.4573 58.879 16.4573 58.6184 16.7395C58.032 17.3703 57.7095 18.2601 57.2632 19.0735H61.5308C61.0845 18.2568 60.762 17.3703 60.1756 16.7395ZM13.4169 4.99329C13.4397 4.35252 12.9478 3.81799 12.3223 3.79475C12.2604 3.79143 12.1952 3.79476 12.1333 3.80472C11.5111 3.79808 10.9964 4.30603 10.9899 4.94016C10.9899 4.97336 10.9899 5.00655 10.9931 5.03643C10.9964 5.81664 11.4883 6.21172 12.2278 6.30801C12.9641 6.18184 13.4527 5.77349 13.4169 4.99329ZM59.4035 13.8909C60.0258 13.9341 60.5633 13.456 60.6056 12.8219C60.6089 12.7887 60.6089 12.7555 60.6089 12.7223C60.6903 12.0882 60.2505 11.5072 59.6283 11.4242C59.5664 11.4175 59.5045 11.4142 59.4394 11.4142C58.6738 11.381 58.2763 11.879 58.1558 12.636C58.2535 13.3863 58.6412 13.8876 59.4035 13.8909Z" fill="white"></path>
      <path id="Path_164401_1_" d="M55.3215 69.6242C53.6307 69.3918 51.9757 69.2258 50.2426 69.6707C44.535 71.1382 38.785 72.4363 33.0644 73.8606C32.0578 74.1129 30.9957 74.0199 30.0445 73.5983C24.4672 71.3772 18.8703 69.2059 13.28 67.0114C9.73231 65.617 6.17482 64.2524 2.65644 62.785C1.02429 62.1077 0.170762 60.6967 0.0209045 58.9304C-0.138726 57.0679 0.62033 55.5971 2.14496 54.548C3.6696 53.4989 5.27243 53.7578 6.90782 54.1961C13.8403 56.052 20.7989 57.795 27.6924 59.7936C29.7382 60.3846 31.4746 60.2584 33.2827 59.3056C33.9961 58.9304 34.765 58.6615 35.511 58.3461C34.6021 57.9809 33.6704 57.6721 32.7256 57.4198C30.7872 56.8687 29.5721 54.9099 29.9207 52.888C30.2139 50.8528 32.0056 49.3986 34.0189 49.5646C40.4107 49.8701 46.8024 50.2519 53.1974 50.544C55.3345 50.6403 57.4781 50.5606 59.6152 50.5606C59.7455 48.2466 59.8237 48.1702 62.0618 48.1702C65.0948 48.1702 68.1277 48.1702 71.1575 48.1702C72.6463 48.1702 72.9981 48.5288 73.0014 50.0394C73.0046 57.0447 73.0046 64.0466 73.0014 71.0518C73.0014 72.5126 72.6365 72.8911 71.2324 72.8944C68.3004 72.8978 65.3684 72.8978 62.4397 72.8944C59.8726 72.8944 59.8726 72.8944 59.5696 70.2716C58.1166 70.0492 56.7223 69.8168 55.3215 69.6242ZM47.6201 52.7353C43.1472 52.5228 38.6743 52.2705 34.2014 52.0513C32.9015 51.9883 32.0252 52.7751 32.3835 53.8109C32.6344 54.4185 33.1198 54.8899 33.729 55.1124C37.1366 56.0553 40.5768 56.8786 44.004 57.7418C44.3949 57.8414 44.7859 57.9444 45.1768 58.0473C45.9717 58.2531 46.4799 58.7345 46.2518 59.5977C46.0303 60.4344 45.3951 60.6502 44.5774 60.4344C43.2742 60.0924 41.9679 59.7505 40.6517 59.4849C40.1729 59.3819 39.6777 59.4118 39.2118 59.5712C36.6056 60.5871 34.032 61.6927 31.4192 62.6953C30.8622 62.8979 30.2595 62.931 29.6829 62.7916C22.0597 60.8062 14.443 58.7744 6.82638 56.7591C6.33772 56.6296 5.84905 56.5002 5.35713 56.3906C3.99212 56.0852 2.92032 56.6462 2.52613 57.8581C2.15148 59.0068 2.7672 60.212 4.03447 60.7266C5.62752 61.374 7.23685 61.9848 8.83642 62.6123C16.0556 65.441 23.2748 68.273 30.494 71.1116C31.2596 71.4535 32.1132 71.5332 32.9276 71.3407C39.1434 69.8234 45.3527 68.2796 51.6044 66.935C52.9824 66.6395 54.5233 67.0711 55.9795 67.2271C57.1491 67.3533 58.3088 67.5658 59.5663 67.7517V53.2432C55.5495 53.0772 51.5848 52.9245 47.6201 52.7353ZM70.5124 70.3779V50.6968H62.153V70.3745L70.5124 70.3779Z" fill="white"></path>
      <path id="Path_164412_1_" d="M57.3486 31.7162C59.1046 29.8968 60.6878 28.2202 62.3167 26.5901C62.6327 26.2514 63.0562 26.0356 63.5123 25.9825C63.8511 25.9825 64.418 26.3743 64.4766 26.6764C64.5711 27.1844 64.4571 27.7089 64.1606 28.1306C63.1377 29.3092 62.0007 30.3849 60.9061 31.5004C60.0982 32.3238 59.2968 33.1571 58.4758 33.9672C57.6483 34.7839 57.1271 34.7872 56.3159 33.9971C55.6383 33.333 54.9705 32.6558 54.3189 31.9619C53.625 31.2282 53.5501 30.5144 54.1332 29.9931C54.8011 29.3955 55.4363 29.588 55.9967 30.1857C56.4136 30.6305 56.8046 31.102 57.3486 31.7162Z" fill="white"></path>
      <path id="Path_164413_1_" d="M13.5512 23.8477C14.522 24.8769 15.3332 25.7468 16.1541 26.6067C16.7177 27.1976 17.3497 27.3968 18.0176 26.7992C18.6007 26.278 18.5356 25.5575 17.8319 24.8338C17.0077 23.9838 16.1541 23.1671 15.167 22.191C16.1053 21.2813 16.949 20.4613 17.796 19.6412C18.402 19.0536 18.6854 18.4062 18.0599 17.6692C17.5354 17.0516 16.8252 17.1446 16.0564 17.9215C15.2485 18.7382 14.4634 19.5782 13.5153 20.5642C12.639 19.6213 11.8376 18.7581 11.0362 17.8949C10.4596 17.2707 9.82103 16.9919 9.10106 17.626C8.49512 18.1605 8.58309 18.8909 9.35192 19.6678C10.1598 20.4845 10.9971 21.2714 11.9809 22.2209L9.31934 24.784C8.71014 25.3716 8.43648 26.0223 9.05871 26.7561C9.58321 27.3736 10.2967 27.2806 11.059 26.4971C11.8799 25.6604 12.6716 24.7906 13.5512 23.8477Z" fill="white"></path>
    </g>
  </g>
  <defs>
    <clipPath id="clip0_762_635">
      <rect width="73" height="74" fill="white"></rect>
    </clipPath>
  </defs>
</svg>
