<?xml version="1.0" encoding="UTF-8"?>
<svg xmlns="http://www.w3.org/2000/svg" width="74" height="74" viewBox="0 0 74 74" fill="none">
  <g id="Group">
    <path id="Vector" d="M70.8703 49.2325C64.9987 49.75 64.9987 49.75 63.2977 45.5896C62.1705 42.8331 62.1705 42.8331 58.5174 43.3404C58.5174 45.2668 58.5174 47.224 58.5174 49.2684C56.4628 49.2684 54.6132 49.2684 52.5996 49.2684C52.5996 41.1475 52.5996 33.0317 52.5996 24.8698C56.2835 24.8698 60.1723 24.2755 63.7947 24.9979C70.7832 26.3864 73.2067 34.6917 68.4776 40.051C67.7603 40.8657 67.6476 41.4139 68.0831 42.3771C69.0617 44.5598 69.8969 46.8142 70.8703 49.2325ZM58.5993 37.0127C60.7205 36.8334 62.9236 37.6583 64.3224 35.45C65.0448 34.3126 64.9577 33.1239 64.1738 32.0633C62.6931 30.0651 60.6078 30.9464 58.5993 30.8081C58.5993 32.9087 58.5993 34.8147 58.5993 37.0127Z" fill="white"></path>
    <path id="Vector_2" d="M21.55 37.0487C21.4014 38.7856 21.468 40.5737 21.0684 42.2491C20.018 46.6451 16.0421 49.5656 11.7742 49.3043C7.12707 49.0174 3.37148 45.6307 2.99745 40.9375C2.75665 37.9504 2.77714 34.866 3.24339 31.9148C3.99143 27.2011 8.36185 24.2294 13.2088 24.6752C17.7227 25.0902 21.3758 29.1378 21.4168 33.7747C21.427 34.8609 21.4168 35.9522 21.4168 37.0384C21.4629 37.0435 21.5039 37.0487 21.55 37.0487ZM15.2172 36.9052C15.2275 36.9052 15.2377 36.9052 15.2428 36.9052C15.2428 36.3621 15.2428 35.819 15.2428 35.2759C15.2428 34.7328 15.2736 34.1846 15.2326 33.6466C15.1147 32.007 13.9158 30.8542 12.2916 30.7928C10.6828 30.7313 9.20212 31.797 9.11502 33.3904C8.98693 35.7985 8.98693 38.2271 9.14576 40.6352C9.24311 42.1722 10.8622 43.2738 12.3992 43.1611C13.8953 43.0535 15.0994 41.9007 15.1967 40.3534C15.2736 39.2057 15.2172 38.0529 15.2172 36.9052Z" fill="white"></path>
    <path id="Vector_3" d="M46.0555 33.7901C44.2622 33.7901 42.5253 33.8311 40.7884 33.7492C40.4708 33.7338 40.0609 33.2675 39.8918 32.9191C39.0464 31.1822 37.827 30.4444 36.1413 30.8748C34.5069 31.2898 33.8101 32.4939 33.7845 34.1027C33.7537 35.9728 33.7537 37.848 33.7845 39.7233C33.8152 41.5524 34.8297 42.8743 36.4283 43.11C38.0883 43.3559 39.1489 42.531 39.8816 41.0708C40.0967 40.6353 40.6398 40.1485 41.0856 40.0922C42.1513 39.9487 43.2529 40.0358 44.3391 40.0512C44.8771 40.0614 45.415 40.128 45.9376 40.169C46.3834 43.9092 43.2785 48.0132 39.3231 48.9918C33.805 50.3598 28.4662 46.886 27.8514 41.2296C27.5286 38.2528 27.5696 35.1786 27.9129 32.207C28.4047 27.898 32.437 24.6497 36.751 24.6497C41.3828 24.6497 45.3331 27.8365 46.0504 32.1865C46.117 32.6425 46.0555 33.1292 46.0555 33.7901Z" fill="white"></path>
    <path id="Vector_4" d="M73.8668 73.959C68.7893 73.959 63.804 73.959 58.7266 73.959C58.7266 71.9455 58.7266 70.0344 58.7266 67.9696C61.6726 67.9696 64.6084 67.9696 67.7697 67.9696C67.7697 64.8493 67.7697 61.8725 67.7697 58.783C69.896 58.783 71.802 58.783 73.8668 58.783C73.8668 63.7733 73.8668 68.7996 73.8668 73.959Z" fill="white"></path>
    <path id="Vector_5" d="M73.9224 0C73.9224 5.03649 73.9224 10.0269 73.9224 15.1402C71.9652 15.1402 70.008 15.1402 67.8612 15.1402C67.8612 12.1327 67.8612 9.14561 67.8612 5.97923C64.7358 5.97923 61.8051 5.97923 58.7617 5.97923C58.7617 3.89905 58.7617 2.00332 58.7617 0C63.8494 0 68.8347 0 73.9224 0Z" fill="white"></path>
    <path id="Vector_6" d="M15.1043 74.0001C10.0217 74.0001 5.0826 74.0001 0 74.0001C0 68.9636 0 63.9886 0 58.8394C1.86499 58.8394 3.76072 58.8394 5.90238 58.8394C5.90238 61.7649 5.90238 64.752 5.90238 67.8517C9.08925 67.8517 12.0302 67.8517 15.1043 67.8517C15.1043 69.9319 15.1043 71.884 15.1043 74.0001Z" fill="white"></path>
    <path id="Vector_7" d="M5.98948 5.93315C5.98948 9.13539 5.98948 12.0815 5.98948 15.1454C3.95541 15.1454 2.04944 15.1454 0 15.1454C0 10.1755 0 5.20048 0 0.0512695C4.9955 0.0512695 10.0166 0.0512695 15.1402 0.0512695C15.1402 1.97774 15.1402 3.88371 15.1402 5.93315C12.1429 5.93315 9.20197 5.93315 5.98948 5.93315Z" fill="white"></path>
  </g>
</svg>
