<?xml version="1.0" encoding="UTF-8"?>
<svg xmlns="http://www.w3.org/2000/svg" width="107" height="93" viewBox="0 0 107 93" fill="none">
  <g id="Group 88497">
    <path id="Polygon 26" d="M49.011 2.45627C49.441 1.70963 50.0601 1.08947 50.806 0.658256C51.5518 0.227042 52.3982 0 53.2598 0C54.1213 0 54.9677 0.227042 55.7136 0.658256C56.4595 1.08947 57.0786 1.70963 57.5085 2.45627L105.409 85.6508C105.838 86.3962 106.063 87.2413 106.063 88.1015C106.062 88.9616 105.835 89.8064 105.404 90.5511C104.974 91.2957 104.355 91.914 103.61 92.3439C102.865 92.7737 102.02 93 101.16 93H5.35978C4.49965 93 3.65465 92.7737 2.90963 92.3439C2.16461 91.914 1.54579 91.2957 1.11529 90.5511C0.684794 89.8064 0.457777 88.9616 0.457033 88.1015C0.456289 87.2413 0.681843 86.3962 1.11105 85.6508L49.011 2.45627Z" fill="white"></path>
    <g id="Group 88488">
      <path id="Path 164439" d="M48.7629 63.1025C47.4882 53.346 47.4274 43.5057 46.8121 33.7041C46.7351 32.4813 47.2568 31.8543 48.5114 31.8979C48.6516 31.9023 48.7933 31.8906 48.9335 31.895C61.8861 32.3853 59.9289 29.0788 59.1803 41.8907C58.7699 48.9017 58.4189 55.9215 58.0418 62.9363C54.9649 63.8713 51.8658 63.6242 48.7629 63.1025Z" fill="#252525"></path>
      <path id="Path 164440" d="M52.9768 80.0298C48.7011 79.9543 45.9918 77.096 46.0477 72.7247C46.1036 68.4068 48.9335 65.6083 53.2317 65.6221C57.53 65.6358 60.6349 68.8819 60.4672 73.1919C60.304 77.374 57.3128 80.1063 52.9768 80.0298Z" fill="#252525"></path>
    </g>
  </g>
</svg>
