<?xml version="1.0" encoding="UTF-8"?>
<svg xmlns="http://www.w3.org/2000/svg" width="128" height="93" viewBox="0 0 128 93" fill="none">
  <g id="Group 90280">
    <path id="Path 164470" d="M33.4217 46.4223C33.4217 31.6244 33.4217 16.827 33.4217 2.03008C33.4217 0.0931211 33.5041 0.0032593 35.4238 0.00232807C54.5171 -0.000776025 73.6106 -0.000776025 92.7043 0.00232807C94.6286 0.00232807 94.7152 0.0879986 94.7152 2.02496C94.7174 31.7157 94.7174 61.4064 94.7152 91.0971C94.7152 92.845 94.5793 92.9828 92.8504 92.9828C73.7568 92.9881 54.6634 92.9906 35.57 92.9903C33.4589 92.9903 33.418 92.9348 33.418 90.8163C33.4195 76.0172 33.4208 61.2192 33.4217 46.4223ZM64.589 6.25972C56.4477 5.77409 49.3131 12.3462 48.7604 20.8395C48.2166 29.2206 54.8009 36.3673 63.5572 36.8986C71.7725 37.3968 78.9085 30.6943 79.4002 22.0161C79.8658 13.8162 73.2476 6.77562 64.589 6.25972ZM56.5842 90.7506H71.5709V66.2309H56.5842V90.7506ZM42.0379 57.482C42.0379 60.1802 42.0109 62.79 42.0775 65.3947C42.0849 65.6694 42.6432 66.1518 42.9565 66.1601C45.2902 66.2238 47.6246 66.2224 49.9599 66.1559C50.1584 66.111 50.3421 66.016 50.4936 65.8801C50.6451 65.7442 50.7593 65.5718 50.8254 65.3793C50.8925 62.7751 50.865 60.1691 50.865 57.4825L42.0379 57.482ZM77.2803 57.4746C77.2803 60.2249 77.2533 62.7947 77.318 65.363C77.3776 65.555 77.4853 65.7285 77.631 65.8671C77.7766 66.0056 77.9553 66.1046 78.15 66.1545C80.4846 66.2235 82.8216 66.2193 85.1561 66.1704C85.4704 66.1629 86.0408 65.7872 86.0469 65.5711C86.1083 62.878 86.0874 60.1835 86.0874 57.4736L77.2803 57.4746ZM50.8674 82.5135C50.8674 79.7757 50.8892 77.1673 50.8319 74.5612C50.7726 74.3856 50.6695 74.2281 50.5323 74.1035C50.3951 73.979 50.2283 73.8914 50.0479 73.8493C47.6692 73.795 45.2893 73.797 42.9081 73.8554C42.6148 73.8628 42.0863 74.2791 42.0803 74.5151C42.0207 77.1621 42.0426 79.8101 42.0426 82.5135H50.8674ZM77.3794 73.9317V82.4799H86.0334V73.9317H77.3794ZM42.0519 41.1124C42.0519 43.819 42.0328 46.4241 42.0821 49.0278C42.1284 49.187 42.2147 49.3316 42.3329 49.4478C42.451 49.5641 42.597 49.6481 42.7568 49.6918C45.4048 49.7384 48.055 49.7221 50.777 49.7221V41.1124H42.0519ZM77.3622 41.1198V49.6327H86.011V41.1198H77.3622ZM68.3414 48.8779H59.7992V57.3013H68.3414V48.8779Z" fill="white"></path>
    <path id="Path 164471" d="M97.4238 92.8952V15.1017C97.9574 15.0696 98.417 15.0169 98.8761 15.0169C107.704 15.0129 116.533 15.0129 125.36 15.0169C127.263 15.0169 127.378 15.1347 127.378 17.0624C127.378 41.7338 127.382 66.4051 127.391 91.0765C127.391 92.2052 127.322 93.007 125.839 93C116.582 92.9604 107.325 92.9799 98.0669 92.9772C97.8511 92.9624 97.6364 92.935 97.4238 92.8952ZM115.364 66.1545H106.84V74.7269H115.364V66.1545ZM115.325 58.3322V49.7504H106.798V58.3312L115.325 58.3322ZM115.325 41.8792V33.3785H106.799V41.8778L115.325 41.8792Z" fill="white"></path>
    <path id="Path 164472" d="M30.7265 15.0096V92.8934C30.2143 92.926 29.7073 92.9833 29.2021 92.9866C20.3737 92.9897 11.5453 92.9886 2.71695 92.9833C0.86567 92.9833 0.761395 92.8757 0.761395 91.0529C0.759222 66.3815 0.759222 41.7101 0.761395 17.0387C0.761395 15.1414 0.884772 15.0184 2.80497 15.017C11.6324 15.0139 20.4605 15.0122 29.2891 15.0119L30.7265 15.0096ZM21.3741 49.7444H12.8399V58.2983H21.3718L21.3741 49.7444ZM21.3583 66.1448H12.8329V74.7363H21.3583V66.1448ZM21.3206 41.8732V33.3753H12.7933V41.8737L21.3206 41.8732Z" fill="white"></path>
    <path id="Path 164473" d="M64.5885 6.2596C73.249 6.77551 79.8658 13.8161 79.3997 22.016C78.9081 30.6941 71.772 37.3967 63.5567 36.8985C54.8004 36.3672 48.2157 29.2195 48.76 20.8394C49.3127 12.3461 56.4473 5.77443 64.5885 6.2596ZM61.1262 30.3733H67.0195C67.0195 28.8415 67.08 27.4111 67.0009 25.9877C66.938 24.8758 67.3007 24.4372 68.4489 24.4977C69.9454 24.5769 71.4498 24.5178 72.9002 24.5178V18.6254C71.3204 18.6254 69.8439 18.57 68.3749 18.6431C67.2923 18.6962 66.9497 18.2841 67.0009 17.2323C67.074 15.7316 67.0195 14.2253 67.0195 12.7289H61.1248C61.1248 14.3431 61.082 15.8624 61.1416 17.3766C61.177 18.3078 60.8501 18.6682 59.9137 18.6403C58.3609 18.5937 56.8053 18.6277 55.2111 18.6277V24.5168C56.8463 24.5168 58.4084 24.5494 59.9673 24.5033C60.8361 24.4782 61.163 24.8074 61.1388 25.6706C61.0969 27.1927 61.1262 28.7195 61.1262 30.3733Z" fill="#252525"></path>
    <path id="Path 164474" d="M56.584 90.7507V66.231H71.5707V90.7507H56.584Z" fill="#252525"></path>
    <path id="Path 164475" d="M42.0396 57.4819H50.8667C50.8667 60.1685 50.8937 62.7746 50.8271 65.3788C50.7611 65.5718 50.6467 65.7447 50.4948 65.881C50.343 66.0173 50.1587 66.1124 49.9597 66.1573C47.627 66.224 45.2925 66.2254 42.9564 66.1615C42.643 66.1531 42.0843 65.6707 42.0773 65.396C42.0103 62.7885 42.0396 60.1802 42.0396 57.4819Z" fill="#252525"></path>
    <path id="Path 164476" d="M77.2791 57.4745H86.0867C86.0867 60.1839 86.1077 62.8789 86.0462 65.572C86.0411 65.788 85.4698 66.1643 85.1555 66.1712C82.8209 66.2201 80.484 66.2243 78.1494 66.1554C77.9546 66.1055 77.776 66.0065 77.6303 65.8679C77.4847 65.7294 77.3769 65.5559 77.3173 65.3639C77.2517 62.7946 77.2791 60.2249 77.2791 57.4745Z" fill="#252525"></path>
    <path id="Path 164477" d="M50.8673 82.5148H42.043C42.043 79.8114 42.0211 77.1635 42.0807 74.5165C42.0868 74.2804 42.6152 73.8646 42.9086 73.8567C45.2882 73.8002 47.6681 73.7982 50.0483 73.8506C50.2288 73.8928 50.3955 73.9803 50.5327 74.1049C50.6699 74.2294 50.7731 74.387 50.8324 74.5626C50.8897 77.1677 50.8673 79.7756 50.8673 82.5148Z" fill="#252525"></path>
    <path id="Path 164478" d="M77.377 73.9294H86.0309V82.48H77.377V73.9294Z" fill="#252525"></path>
    <path id="Path 164479" d="M42.0504 41.1123H50.7755V49.7225C48.0535 49.7225 45.4032 49.7401 42.7553 49.6922C42.5954 49.6485 42.4495 49.5644 42.3314 49.4482C42.2132 49.332 42.1269 49.1874 42.0806 49.0282C42.0317 46.4245 42.0504 43.8171 42.0504 41.1123Z" fill="#252525"></path>
    <path id="Path 164480" d="M77.3613 41.1207H86.0101V49.6335H77.3613V41.1207Z" fill="#252525"></path>
    <path id="Path 164481" d="M68.3405 48.8778V57.3013H59.7988V48.8778H68.3405Z" fill="#252525"></path>
    <path id="Path 164482" d="M115.362 66.1546V74.727H106.838V66.1546H115.362Z" fill="#252525"></path>
    <path id="Path 164483" d="M115.324 58.3308H106.797V49.7499H115.324V58.3308Z" fill="#252525"></path>
    <path id="Path 164484" d="M115.324 41.878H106.799V33.3787H115.324V41.878Z" fill="#252525"></path>
    <path id="Path 164485" d="M21.3737 49.7444V58.2983H12.8418V49.7444H21.3737Z" fill="#252525"></path>
    <path id="Path 164486" d="M21.3613 66.1452V74.7367H12.8359V66.1452H21.3613Z" fill="#252525"></path>
    <path id="Path 164487" d="M21.3184 41.8737H12.793V33.3753H21.3184V41.8737Z" fill="#252525"></path>
    <path id="Path 164488" d="M61.127 30.3725C61.127 28.7187 61.0977 27.1928 61.1387 25.6698C61.1629 24.8061 60.836 24.4774 59.9672 24.5025C58.4083 24.5491 56.8476 24.516 55.2109 24.516V18.6269C56.8066 18.6269 58.3622 18.5925 59.9137 18.6395C60.85 18.6679 61.1769 18.3052 61.1415 17.3758C61.0819 15.8616 61.1247 14.3423 61.1247 12.7281H67.019C67.019 14.2245 67.0734 15.7313 67.0003 17.2315C66.9491 18.2828 67.2918 18.6954 68.3743 18.6423C69.8433 18.5692 71.3198 18.6246 72.8996 18.6246V24.5156C71.4493 24.5156 69.9449 24.5752 68.4484 24.4955C67.2997 24.4359 66.9375 24.8746 67.0003 25.9855C67.0799 27.4089 67.019 28.8393 67.019 30.3711L61.127 30.3725Z" fill="white"></path>
  </g>
</svg>
