<?xml version="1.0" encoding="UTF-8"?>
<svg xmlns="http://www.w3.org/2000/svg" width="100" height="103" viewBox="0 0 100 103" fill="none">
  <g id="Group">
    <path id="Vector" d="M50.1582 102.967C46.3429 102.967 42.5342 102.934 38.7189 102.98C37.3573 103 36.8573 102.454 36.8639 101.099C36.9034 94.981 36.8968 88.8568 36.8639 82.7392C36.8573 81.4565 37.3309 80.9302 38.6334 80.95C41.7448 80.996 44.8563 80.9105 47.9611 80.9631C48.8492 80.9763 49.0531 80.7 49.0268 79.8712C48.9742 78.1148 48.9873 76.3585 49.0268 74.6021C49.0465 73.8193 48.9018 73.4773 47.9875 73.4575C43.8038 73.3523 43.7512 73.3326 42.6395 69.2344C42.225 67.6951 41.5409 66.7742 39.9096 66.3729C38.469 66.0243 37.0744 65.3599 35.7654 64.6429C34.7918 64.1166 34.0682 64.143 33.167 64.7481C32.1277 65.4388 30.9633 65.9388 29.8911 66.5834C29.0557 67.0834 28.4242 66.9452 27.7796 66.2479C26.9639 65.3665 26.0627 64.564 25.2404 63.6825C24.7997 63.2089 24.4774 63.1957 24.0169 63.6562C21.3001 66.3992 18.5702 69.1292 15.8272 71.8459C15.4259 72.2472 15.3667 72.7011 15.3733 73.2141C15.3799 75.3718 15.4193 77.5294 15.3601 79.687C15.3338 80.6737 15.6627 80.9894 16.656 80.9697C19.4649 80.9105 22.2737 80.95 25.0825 80.9434C26.9376 80.9368 27.2139 81.1868 27.2139 82.9695C27.2204 88.9358 27.2204 94.9087 27.2204 100.875C27.2204 102.677 26.9573 102.941 25.1089 102.941C17.5375 102.947 9.95951 102.927 2.38813 102.96C1.06593 102.967 0.487063 102.513 0.500219 101.118C0.546266 95.0008 0.546266 88.8766 0.500219 82.7589C0.487063 81.3644 1.06594 80.9105 2.39471 80.9237C5.5522 80.9697 8.71626 80.8908 11.8737 80.9434C12.8144 80.9566 13.0775 80.6803 13.0512 79.7528C12.9854 77.4965 13.0446 75.2402 13.0052 72.9839C12.9854 71.813 13.3209 70.9184 14.209 70.0698C16.8928 67.5044 19.4517 64.8139 22.1224 62.2353C22.8591 61.5249 22.7736 61.1565 22.0895 60.4921C19.5569 58.0253 19.3004 58.545 21.3528 55.3152C22.6552 53.2694 22.9644 51.513 21.4778 49.5067C21.0765 48.9607 20.8002 48.2371 20.7081 47.5596C20.3989 45.3362 18.9912 44.5468 16.9586 44.0337C12.8736 42.9944 13.5314 43.639 13.4854 39.4949C13.4525 36.936 13.5183 34.3771 13.4656 31.8182C13.4393 30.7263 13.834 30.0356 14.9062 29.9172C18.511 29.5159 20.3068 27.5622 21.5698 24.089C22.4842 21.5696 22.5039 19.8395 21.1291 17.7016C19.5833 15.3006 19.6951 15.2283 21.7409 13.1956C23.734 11.2156 25.7601 9.26853 27.7072 7.25563C28.4703 6.46626 29.207 6.2755 30.0622 6.95962C32.825 9.16986 35.4299 9.19617 38.7387 7.59112C41.1265 6.43337 42.7579 5.40061 43.0407 2.71675C43.0999 2.17735 43.3762 1.66426 43.4946 1.13143C43.6788 0.328905 44.1985 0 45.0076 0C48.4677 0.00657809 51.9277 0.00657809 55.3944 0C56.289 0 56.7495 0.434154 56.9731 1.28931C57.3218 2.64439 57.7822 3.97974 58.1309 5.33483C58.3085 6.01895 58.6045 6.44653 59.3347 6.65045C61.3673 7.21616 63.3342 7.97265 65.1431 9.06461C65.6891 9.39351 66.1364 9.33431 66.6692 9.01856C67.9191 8.28182 69.2215 7.62401 70.4714 6.88068C71.2936 6.3939 71.9251 6.47284 72.6027 7.15696C74.9576 9.55139 77.3389 11.9261 79.7399 14.2745C80.4306 14.952 80.5227 15.5967 80.0622 16.4123C79.3715 17.6359 78.7795 18.912 78.0362 20.0961C77.5955 20.7933 77.5889 21.3262 77.9967 22.0169C79.0295 23.7469 79.7465 25.6282 80.2925 27.5556C80.4964 28.2924 80.8713 28.6147 81.5883 28.7923C82.8974 29.1146 84.1735 29.5817 85.4891 29.9106C86.5219 30.1671 86.9889 30.6736 86.9692 31.7985C86.91 35.0612 86.9232 38.3174 86.9692 41.5801C86.9889 42.6589 86.6403 43.3562 85.5484 43.4943C82.0817 43.9285 80.1083 45.6322 78.9374 49.1712C78.0888 51.7235 77.7796 53.5522 79.3452 55.8217C80.8977 58.0714 80.7463 58.2424 78.6808 60.1632C77.7467 61.0315 77.5362 61.5841 78.6019 62.584C81.2397 65.0507 83.7065 67.6885 86.3114 70.1882C87.1073 70.9579 87.4165 71.7604 87.3902 72.8392C87.3376 75.0955 87.456 77.3583 87.3442 79.608C87.285 80.825 87.7783 81.0026 88.8111 80.9829C91.8173 80.9302 94.83 80.9697 97.8428 80.95C99.6518 80.9434 99.9083 81.1473 99.9083 82.8708C99.9149 88.9424 99.882 95.0074 99.928 101.079C99.9412 102.441 99.4479 102.973 98.0862 102.967C90.4096 102.941 82.7395 102.947 75.0629 102.98C73.7144 102.987 73.1881 102.447 73.1947 101.099C73.2276 95.0797 73.2013 89.0608 73.2078 83.0418C73.2078 81.1802 73.5039 80.9302 75.451 80.9368C78.2598 80.9434 81.0687 80.9105 83.8775 80.9631C84.7919 80.9829 85.1997 80.7197 85.0484 79.7857C85.0353 79.687 85.0484 79.5883 85.0484 79.4831C85.0353 77.1281 85.647 74.5166 84.8248 72.4906C84.0025 70.4711 81.7331 69.0371 80.0885 67.3596C78.8913 66.1427 77.6612 64.9652 76.4772 63.7351C75.9838 63.222 75.6286 63.2155 75.1418 63.7483C74.3261 64.6363 73.4381 65.4454 72.6027 66.3137C71.9975 66.9452 71.3923 67.0702 70.5964 66.6229C69.0703 65.7612 67.5375 64.4127 65.9522 64.3271C64.4393 64.2416 62.9 65.7085 61.2818 66.123C59.1044 66.6821 58.0783 67.8398 57.5323 70.0567C56.5784 73.9114 57.2099 73.5431 52.9408 73.4707C51.7172 73.451 51.2765 73.7075 51.3818 75.0034C51.5067 76.5953 51.4607 78.2135 51.3883 79.8185C51.3423 80.7526 51.6449 81.0223 52.5658 81.0026C55.572 80.9434 58.5848 81.0223 61.5975 80.9566C62.9987 80.9237 63.5841 81.3973 63.5775 82.8642C63.5249 88.9358 63.5249 95.0008 63.5775 101.072C63.5907 102.533 63.0052 103.013 61.6107 103C57.7822 102.934 53.967 102.967 50.1582 102.967Z" fill="#575757"></path>
    <path id="Vector_2" d="M34.5946 61.5117C33.4434 61.8012 32.4699 62.4261 31.4832 62.9984C29.2992 64.2548 29.2926 64.2811 27.4705 62.5511C26.1286 61.2749 24.8393 59.9461 23.4842 58.6831C22.8922 58.124 22.5896 57.532 23.1553 56.8676C25.6023 53.9732 25.6155 51.1118 23.3987 48.0266C22.6751 47.0202 22.458 45.6125 22.1225 44.3626C21.8594 43.3628 21.2805 42.8497 20.307 42.6129C18.8532 42.2511 16.9653 42.2511 16.1365 41.192C15.3011 40.1198 15.926 38.2911 15.8733 36.7978C15.8404 35.844 15.9917 34.8705 15.8405 33.9429C15.5905 32.3905 16.3535 31.713 17.6955 31.5551C20.4912 31.2328 22.3659 30.1145 22.8395 27.0031C23.1027 25.2599 24.096 23.6351 25.0695 22.1155C25.4905 21.4511 25.5629 20.892 25.1156 20.1882C24.4183 19.0962 23.846 17.9187 23.2145 16.7873C22.8395 16.1229 22.7474 15.5703 23.4053 14.9454C25.109 13.3272 26.7601 11.6498 28.4046 9.97238C28.9966 9.37378 29.5755 9.24221 30.2465 9.78162C32.904 11.9129 35.5484 12.3076 38.4888 10.1566C39.5282 9.39351 40.9753 9.13039 42.2778 8.7949C43.3566 8.51862 44.0341 8.00553 44.3038 6.90041C44.5801 5.73609 44.9814 4.59808 45.2643 3.43376C45.4616 2.63781 45.8365 2.26944 46.718 2.28917C49.0203 2.3418 51.3292 2.33522 53.6382 2.29575C54.467 2.2826 55.0196 2.49309 55.0985 3.38114C55.4471 7.03855 57.3614 9.14354 61.0517 9.80135C62.3344 10.025 63.5316 10.8473 64.6959 11.5182C65.4919 11.9787 66.1694 11.9853 66.9391 11.5445C68.0705 10.8999 69.248 10.3408 70.3531 9.65663C70.9912 9.26195 71.399 9.34089 71.9055 9.86056C73.5764 11.584 75.2735 13.2877 77.0035 14.952C77.5956 15.5177 77.6745 16.0637 77.2009 16.6491C74.8788 19.5106 74.7801 22.3589 76.9443 25.4112C77.6087 26.3518 77.8982 27.6214 78.135 28.7857C78.3981 30.0684 79.1546 30.6276 80.3189 30.9039C81.0951 31.0881 81.845 31.4696 82.6278 31.5485C84.3381 31.7195 84.6802 32.6668 84.5749 34.2061C84.4434 36.1532 84.496 38.1135 84.5684 40.0671C84.6012 40.9683 84.3118 41.4617 83.4369 41.6788C82.3252 41.9551 81.2333 42.3103 80.1281 42.6063C79.2072 42.8497 78.5823 43.2575 78.2994 44.31C77.6416 46.7242 76.7602 49.0725 75.438 51.2104C74.8788 52.1116 74.9512 52.8484 75.4971 53.6969C76.0365 54.5324 76.3392 55.5388 76.9575 56.3084C77.839 57.407 77.4969 58.1503 76.6286 58.9857C75.0762 60.4724 73.5632 61.9985 72.0502 63.5246C71.4779 64.0969 70.932 64.2745 70.2281 63.722C67.4785 61.5512 64.7288 61.2091 61.7226 63.3996C60.6438 64.189 59.144 64.4719 57.7955 64.8008C56.8812 65.0244 56.4141 65.4849 56.1707 66.3269C55.8155 67.5767 55.3748 68.8068 55.0853 70.0764C54.9012 70.8789 54.4736 71.142 53.7237 71.142C51.3687 71.1355 49.0072 71.1289 46.6522 71.1552C45.8892 71.1618 45.4945 70.925 45.3169 70.1027C45.0472 68.8331 44.567 67.6096 44.2315 66.3532C44.0144 65.5441 43.5605 65.0507 42.7514 64.8337C40.186 64.1364 37.7258 63.1628 35.43 61.8077C35.1866 61.6564 34.884 61.6104 34.5946 61.5117Z" fill="#575757"></path>
    <path id="Vector_3" d="M13.8342 100.618C10.6767 100.618 7.51924 100.586 4.36175 100.638C3.31584 100.651 2.85538 100.441 2.87512 99.2371C2.94748 94.3759 2.93431 89.5147 2.88827 84.6534C2.88169 83.6404 3.1185 83.2589 4.20389 83.2655C10.6175 83.3115 17.0377 83.3115 23.4514 83.272C24.5697 83.2655 24.9117 83.6009 24.8986 84.7258C24.8394 89.5344 24.8394 94.3495 24.892 99.1647C24.9051 100.257 24.6223 100.671 23.4645 100.645C20.2544 100.572 17.0443 100.612 13.8342 100.618Z" fill="white"></path>
    <path id="Vector_4" d="M86.6015 83.2786C89.8116 83.2786 93.0217 83.3049 96.2319 83.2655C97.1725 83.2523 97.554 83.4759 97.5409 84.5153C97.4883 89.4817 97.4883 94.4482 97.5343 99.4147C97.5409 100.447 97.1593 100.658 96.2187 100.651C89.7985 100.612 83.3783 100.605 76.9581 100.651C75.8069 100.658 75.5175 100.257 75.524 99.1647C75.5701 94.3495 75.5767 89.5344 75.5175 84.7192C75.5043 83.5944 75.8464 83.2391 76.9712 83.2589C80.1813 83.3181 83.3914 83.2786 86.6015 83.2786Z" fill="white"></path>
    <path id="Vector_5" d="M50.2705 83.3049C53.4806 83.3049 56.6907 83.3378 59.9009 83.2852C60.8613 83.272 61.2033 83.522 61.1902 84.5482C61.1375 89.5147 61.1441 94.4745 61.1902 99.441C61.1967 100.388 60.881 100.625 59.9798 100.618C53.4609 100.586 46.942 100.586 40.4231 100.618C39.5351 100.625 39.2128 100.428 39.2193 99.4542C39.272 94.4877 39.2719 89.5278 39.2259 84.5614C39.2193 83.5878 39.489 83.2589 40.4889 83.272C43.7516 83.3378 47.0144 83.2984 50.2705 83.3049Z" fill="white"></path>
    <path id="Vector_6" d="M50.099 56.5387C39.6399 56.6637 30.4898 47.7569 30.3648 37.3372C30.2332 25.9966 38.8176 17.057 49.9478 16.9386C60.8345 16.8202 69.8531 25.5624 70.0965 36.2124C70.3464 46.9741 61.512 56.736 50.099 56.5387Z" fill="white"></path>
    <path id="Vector_7" d="M13.7556 93.126C11.6046 93.126 9.46014 93.1063 7.3091 93.1326C6.44079 93.1458 5.76984 92.909 5.77642 91.9486C5.77642 91.0079 6.42105 90.7382 7.30252 90.7448C11.598 90.7645 15.8935 90.7513 20.189 90.7448C21.0441 90.7448 21.8796 90.85 21.8927 91.942C21.9059 93.0668 21.0376 93.126 20.1956 93.126C18.0445 93.1326 15.9001 93.126 13.7491 93.126C13.7556 93.1326 13.7556 93.126 13.7556 93.126Z" fill="#575757"></path>
    <path id="Vector_8" d="M13.8928 85.8638C15.9978 85.8638 18.0962 85.8638 20.2012 85.8638C21.03 85.8638 21.9049 85.8573 21.9246 87.0084C21.9444 88.0609 21.1024 88.1991 20.3525 88.2056C15.9978 88.2188 11.6431 88.1793 7.29497 88.1596C6.45298 88.153 5.72937 87.9096 5.782 86.9295C5.8412 85.9362 6.63059 85.8573 7.43969 85.8638C9.58415 85.877 11.7418 85.8638 13.8928 85.8638Z" fill="#575757"></path>
    <path id="Vector_9" d="M13.9465 98.0267C11.7428 98.0267 9.53258 98.0201 7.32892 98.0333C6.48035 98.0399 5.75676 97.836 5.78965 96.8427C5.82254 95.9546 6.50009 95.7704 7.28946 95.7704C11.6507 95.7836 16.0186 95.7704 20.3799 95.7639C21.2153 95.7639 21.9389 95.9349 21.906 96.9611C21.8797 97.9017 21.1758 98.0399 20.4128 98.0399C18.2551 98.0399 16.0975 98.0399 13.9399 98.0399C13.9465 98.0333 13.9465 98.0333 13.9465 98.0267Z" fill="#575757"></path>
    <path id="Vector_10" d="M86.4894 93.1458C84.3844 93.1458 82.2795 93.1458 80.1679 93.1458C79.293 93.1458 78.4839 92.9879 78.53 91.8893C78.576 90.9092 79.3259 90.7513 80.1481 90.7513C84.4634 90.7579 88.772 90.7645 93.0873 90.7447C93.9687 90.7382 94.6331 91.0408 94.666 91.9551C94.7055 92.9484 93.9292 93.1458 93.107 93.1458C90.9033 93.1458 88.6931 93.1392 86.4894 93.1458Z" fill="#575757"></path>
    <path id="Vector_11" d="M86.6408 85.8638C88.7919 85.8638 90.9429 85.8704 93.0939 85.8638C93.857 85.8638 94.574 86.0086 94.6464 86.8966C94.7187 87.8767 93.9623 88.2056 93.1663 88.2122C88.7656 88.2254 84.3582 88.1991 79.9575 88.1596C79.155 88.153 78.4314 87.9294 78.5103 86.8769C78.5827 85.8901 79.2997 85.8638 80.0364 85.8638C82.2401 85.8638 84.4372 85.8638 86.6408 85.8638Z" fill="#575757"></path>
    <path id="Vector_12" d="M86.5743 95.7704C88.7254 95.7704 90.8698 95.7704 93.0209 95.7704C93.8234 95.7704 94.6259 95.902 94.6522 96.8821C94.6786 97.8688 93.9287 98.0333 93.0867 98.0333C88.7385 98.0201 84.3904 98.0267 80.0423 98.0267C79.2266 98.0267 78.4767 97.9083 78.5096 96.8558C78.5425 95.7967 79.3384 95.7639 80.1212 95.7639C82.2788 95.7704 84.4233 95.7704 86.5743 95.7704Z" fill="#575757"></path>
    <path id="Vector_13" d="M50.2241 90.7513C52.3751 90.7513 54.5196 90.7579 56.6706 90.7513C57.5653 90.7513 58.348 90.9881 58.2888 92.0472C58.2362 93.0076 57.4468 93.1523 56.6377 93.1523C52.3422 93.1457 48.0402 93.1457 43.7447 93.1523C42.9224 93.1523 42.1528 92.9813 42.1265 92.0143C42.0936 90.9552 42.8961 90.7447 43.7842 90.7513C45.9286 90.7513 48.0796 90.7447 50.2241 90.7513Z" fill="#575757"></path>
    <path id="Vector_14" d="M50.2107 85.8441C52.3617 85.8441 54.5128 85.8507 56.6572 85.8375C57.4729 85.831 58.2425 85.9428 58.3017 86.9295C58.3675 87.9228 57.6242 88.1859 56.8019 88.1859C52.4012 88.1859 48.007 88.1662 43.6063 88.1596C42.7577 88.1596 42.0473 87.9096 42.1065 86.9229C42.1657 85.9362 42.9485 85.8375 43.7576 85.8441C45.9152 85.8507 48.0597 85.8441 50.2107 85.8441Z" fill="#575757"></path>
    <path id="Vector_15" d="M50.0668 98.0596C47.9618 98.0596 45.8568 98.0465 43.7518 98.0662C42.9295 98.0728 42.1665 97.9412 42.127 96.9545C42.0875 95.9612 42.8177 95.7507 43.6597 95.7507C48.021 95.7573 52.3823 95.7573 56.7435 95.7507C57.5855 95.7507 58.3157 95.948 58.296 96.9413C58.2762 97.9609 57.4803 98.0662 56.6778 98.0662C54.4741 98.0662 52.2704 98.0596 50.0668 98.0596Z" fill="#575757"></path>
    <path id="Vector_16" d="M32.7334 36.6729C32.7466 27.0229 40.6074 19.2212 50.2969 19.2607C59.9733 19.3002 67.7026 27.1215 67.6894 36.8637C67.6762 46.3888 59.7496 54.2562 50.1851 54.2364C40.5482 54.2233 32.7203 46.3493 32.7334 36.6729Z" fill="#575757"></path>
    <path id="Vector_17" d="M41.554 36.9886C41.554 35.5217 41.5343 34.4495 41.5606 33.3773C41.5803 32.6208 41.8039 31.9367 42.7249 31.9301C43.7182 31.9169 43.9418 32.5747 43.9352 33.443C43.9155 35.5941 43.9221 37.7517 43.9352 39.9027C43.9418 40.5408 43.8695 41.1394 43.1788 41.3762C42.521 41.6065 42.0408 41.2776 41.6198 40.771C40.4752 39.4028 39.3043 38.0543 37.8637 36.3637C37.8637 37.8701 37.8571 38.9884 37.8637 40.1067C37.8703 40.9223 37.5479 41.5407 36.6993 41.5604C35.8639 41.5801 35.4758 41.0079 35.4758 40.1724C35.4824 37.8701 35.4758 35.5612 35.4824 33.2589C35.4824 32.6734 35.6534 32.1735 36.2915 31.9696C36.9033 31.7788 37.3506 31.9959 37.7387 32.4695C38.9096 33.8772 40.1002 35.2718 41.554 36.9886Z" fill="white"></path>
    <path id="Vector_18" d="M57.0845 36.6926C57.0845 35.5414 57.0911 34.3968 57.0845 33.2457C57.078 32.3905 57.5055 31.9037 58.3212 31.8709C59.4132 31.8248 60.5249 31.7853 61.6103 31.9169C63.3798 32.134 64.623 33.6469 64.5572 35.3178C64.4915 37.0807 63.1101 38.5937 61.2879 38.5674C59.9592 38.5476 59.229 38.7186 59.4329 40.2777C59.525 40.9618 59.0711 41.5735 58.2752 41.5538C57.4069 41.5341 57.0977 40.9355 57.1043 40.1264C57.1109 38.9752 57.1043 37.8306 57.1043 36.6794C57.0911 36.6926 57.0845 36.6926 57.0845 36.6926Z" fill="white"></path>
    <path id="Vector_19" d="M50.3163 35.8308C50.3294 39.2054 50.3294 39.2185 53.6382 39.2317C54.5263 39.2383 55.5195 39.1988 55.5524 40.3697C55.5853 41.659 54.5263 41.6195 53.5922 41.6195C52.2371 41.613 50.882 41.6064 49.5269 41.6195C48.4678 41.6261 47.9745 41.1393 47.9942 40.0605C48.0205 37.8569 48.0074 35.6466 47.9942 33.4364C47.9876 32.5747 48.2179 31.9169 49.2309 31.9432C50.1847 31.9695 50.3163 32.6668 50.3163 33.4232C50.3163 34.2192 50.3163 35.0283 50.3163 35.8308Z" fill="white"></path>
    <path id="Vector_20" d="M60.4725 36.2453C59.6897 36.4097 59.42 36.0742 59.4134 35.2059C59.4068 34.2718 59.8278 34.1403 60.5909 34.1797C61.3211 34.2192 62.0973 34.2192 62.117 35.1796C62.1433 36.2321 61.3408 36.2913 60.4725 36.2453Z" fill="#575757"></path>
  </g>
</svg>
