<?xml version="1.0" encoding="UTF-8"?>
<svg xmlns="http://www.w3.org/2000/svg" width="51" height="51" viewBox="0 0 51 51" fill="none">
  <g id="data-visualization 1">
    <path id="Vector" d="M45.765 5.57739H5.235C4.37657 5.57872 3.55374 5.92066 2.94721 6.52813C2.34067 7.13561 2 7.95896 2 8.81739V42.7574C2 43.6158 2.34067 44.4392 2.94721 45.0466C3.55374 45.6541 4.37657 45.9961 5.235 45.9974H45.765C46.6234 45.9961 47.4463 45.6541 48.0528 45.0466C48.6593 44.4392 49 43.6158 49 42.7574V8.81739C49 7.95896 48.6593 7.13561 48.0528 6.52813C47.4463 5.92066 46.6234 5.57872 45.765 5.57739ZM47.545 42.7574C47.545 43.2299 47.3576 43.6832 47.024 44.0178C46.6903 44.3524 46.2375 44.5411 45.765 44.5424H5.235C4.76246 44.5411 4.30972 44.3524 3.97605 44.0178C3.64237 43.6832 3.455 43.2299 3.455 42.7574V12.5124H47.545V42.7574ZM47.545 11.0574H3.455V8.81739C3.455 8.34485 3.64237 7.89158 3.97605 7.55697C4.30972 7.22236 4.76246 7.03372 5.235 7.03239H45.765C46.2375 7.03372 46.6903 7.22236 47.024 7.55697C47.3576 7.89158 47.545 8.34485 47.545 8.81739V11.0574Z" fill="white"></path>
    <path id="Vector_2" d="M18.025 24.1874L26.61 26.9024C26.6809 26.9262 26.7552 26.938 26.83 26.9374C26.9837 26.9379 27.1337 26.8898 27.2585 26.8C27.3833 26.7102 27.4766 26.5833 27.525 26.4374C27.8224 25.4874 27.9741 24.4978 27.975 23.5024C27.9684 20.9253 26.9407 18.4558 25.1169 16.6349C23.2932 14.8139 20.8222 13.79 18.245 13.7874C18.1498 13.7847 18.055 13.8009 17.966 13.8349C17.877 13.8688 17.7956 13.92 17.7264 13.9855C17.6572 14.051 17.6016 14.1295 17.5628 14.2164C17.5239 14.3034 17.5026 14.3972 17.5 14.4924V23.4924C17.5004 23.6495 17.5518 23.8022 17.6465 23.9275C17.7412 24.0529 17.874 24.1441 18.025 24.1874ZM18.97 15.2524C20.1429 15.3562 21.2802 15.7089 22.306 16.2871C23.3318 16.8653 24.2224 17.6557 24.9185 18.6054C25.6146 19.5551 26.1001 20.6424 26.3426 21.7947C26.5852 22.9469 26.5792 24.1376 26.325 25.2874L18.97 22.9624V15.2524Z" fill="white"></path>
    <path id="Vector_3" d="M15.4146 35.2274C17.4836 35.234 19.5004 34.5779 21.1695 33.3551C22.8386 32.1323 24.0722 30.4072 24.6896 28.4324C24.719 28.3418 24.7302 28.2462 24.7225 28.1513C24.7148 28.0563 24.6883 27.9638 24.6446 27.8792C24.6009 27.7946 24.5408 27.7194 24.4679 27.6582C24.3949 27.5969 24.3105 27.5508 24.2196 27.5224L16.1396 24.9674V16.4974C16.1356 16.3077 16.0575 16.1271 15.922 15.9944C15.7864 15.8616 15.6043 15.7873 15.4146 15.7874C12.834 15.7874 10.3591 16.8125 8.53442 18.6372C6.70969 20.4619 5.68457 22.9368 5.68457 25.5174C5.68457 28.0979 6.70969 30.5728 8.53442 32.3975C10.3591 34.2222 12.834 35.2474 15.4146 35.2474V35.2274ZM14.6846 17.2524V25.4974C14.6841 25.6511 14.7322 25.8011 14.822 25.9258C14.9118 26.0506 15.0387 26.1439 15.1846 26.1924L23.0446 28.6924C22.4781 30.0447 21.5625 31.2223 20.3914 32.1045C19.2204 32.9868 17.8359 33.5421 16.3798 33.7135C14.9236 33.885 13.448 33.6665 12.1041 33.0803C10.7601 32.4942 9.59603 31.5615 8.73094 30.3777C7.86585 29.1939 7.33083 27.8015 7.18064 26.343C7.03044 24.8845 7.27046 23.4123 7.87613 22.077C8.48181 20.7417 9.43138 19.5914 10.6277 18.7436C11.824 17.8959 13.224 17.3813 14.6846 17.2524Z" fill="white"></path>
    <path id="Vector_4" d="M26.6904 42.8173H31.8404V33.3523H26.6904V42.8173ZM28.1454 34.8173H30.3854V41.3623H28.1454V34.8173Z" fill="white"></path>
    <path id="Vector_5" d="M33.4297 42.8174H38.5747V30.8674H33.4297V42.8174ZM34.8847 32.3174H37.1247V41.3624H34.8847V32.3174Z" fill="white"></path>
    <path id="Vector_6" d="M40.165 42.8173H45.315V27.2323H40.165V42.8173ZM41.62 28.6873H43.86V41.3623H41.62V28.6873Z" fill="white"></path>
    <path id="Vector_7" d="M32.8047 13.7673H44.5897V15.2223H32.8047V13.7673Z" fill="white"></path>
    <path id="Vector_8" d="M32.8047 17.8623H44.5897V19.3173H32.8047V17.8623Z" fill="white"></path>
    <path id="Vector_9" d="M6.41016 37.2673H18.1952V38.7223H6.41016V37.2673Z" fill="white"></path>
    <path id="Vector_10" d="M6.41016 41.3623H18.1952V42.8173H6.41016V41.3623Z" fill="white"></path>
    <path id="Vector_11" d="M6.41016 7.96741H9.93016V9.42241H6.41016V7.96741Z" fill="white"></path>
    <path id="Vector_12" d="M32.8047 22.2974H44.5897V23.7524H32.8047V22.2974Z" fill="white"></path>
  </g>
</svg>
