<?xml version="1.0" encoding="UTF-8"?>
<svg xmlns="http://www.w3.org/2000/svg" width="126" height="122" viewBox="0 0 126 122" fill="none">
  <g id="Group 88679 1" clip-path="url(#clip0_355_894)">
    <g id="Group 88679">
      <path id="Rectangle 39141" d="M106.374 28.1743L43.0962 7.72464C35.7204 5.34101 27.7984 9.35573 25.4019 16.6918L4.84157 79.629C2.44504 86.965 6.48149 94.8444 13.8572 97.228L77.1351 117.678C84.5109 120.061 92.4329 116.047 94.8294 108.711L115.39 45.7733C117.786 38.4373 113.75 30.5579 106.374 28.1743Z" fill="#989898" fill-opacity="0.22"></path>
      <g id="Group 87150">
        <path id="Rectangle 38462" d="M112.154 24.6842L48.9441 4.30176C41.5763 1.92597 33.6543 5.95339 31.2499 13.2973L10.6216 76.3017C8.21712 83.6456 12.2407 91.5249 19.6086 93.9007L82.8185 114.283C90.1863 116.659 98.1083 112.632 100.513 105.288L121.141 42.2832C123.546 34.9393 119.522 27.06 112.154 24.6842Z" fill="#7A7A7A"></path>
        <g id="Group 86025">
          <g id="Group 86026">
            <path id="Path 139584" d="M57.1769 85.8351C52.8461 84.4404 48.5127 83.0534 44.1844 81.651C40.9974 80.6823 38.2647 78.6136 36.4752 75.815C34.6858 73.0164 33.9564 69.6705 34.4175 66.3759C34.5399 65.466 34.7487 64.5695 35.0411 63.6983C37.8587 55.0482 40.6904 46.403 43.5362 37.7626C44.095 35.9634 45.0104 34.293 46.228 32.8505C47.4455 31.408 48.9405 30.2229 50.6241 29.3655C52.3077 28.5081 54.1456 27.9958 56.0287 27.8592C57.9118 27.7226 59.8018 27.9643 61.5863 28.5701C70.2522 31.3465 78.9141 34.1359 87.572 36.9385C89.3748 37.4882 91.047 38.3937 92.4893 39.6013C93.9315 40.8089 95.1145 42.294 95.9679 43.9684C96.8213 45.6428 97.3277 47.4724 97.4571 49.3486C97.5866 51.2248 97.3363 53.1093 96.7213 54.8903C93.9005 63.5388 91.0665 72.1833 88.2194 80.8239C87.6601 82.6228 86.7445 84.2929 85.5268 85.7351C84.3091 87.1773 82.8142 88.3622 81.1308 89.2196C79.4473 90.0769 77.6096 90.5892 75.7266 90.7261C73.8437 90.863 71.9539 90.6216 70.1693 90.0164C65.8366 88.6333 61.5086 87.2301 57.1769 85.8351ZM72.7199 38.4817C68.3899 37.0873 64.0647 35.6784 59.73 34.2984C58.6957 33.9424 57.5989 33.7987 56.5057 33.8759C55.4124 33.9531 54.3452 34.2496 53.3681 34.7477C52.391 35.2457 51.5242 35.935 50.8196 36.7742C50.1151 37.6134 49.5874 38.5851 49.2682 39.631C46.4265 48.2433 43.6014 56.861 40.7927 65.4839C40.4248 66.5207 40.2716 67.6203 40.3426 68.7161C40.4135 69.8119 40.707 70.881 41.2053 71.8586C41.7036 72.8362 42.3963 73.702 43.2414 74.4035C44.0866 75.105 45.0665 75.6275 46.1219 75.9394C54.7275 78.7252 63.3375 81.4979 71.9517 84.2577C72.9957 84.6264 74.1052 84.7787 75.212 84.705C76.3189 84.6313 77.3999 84.3333 78.389 83.8291C79.378 83.325 80.2542 82.6254 80.9639 81.7731C81.6736 80.9209 82.2019 79.9339 82.5164 78.8727C85.336 70.3084 88.1429 61.74 90.9369 53.1675C91.163 52.4958 91.3118 51.801 91.3805 51.0964C91.5481 49.2663 91.0851 47.4365 90.0678 45.9087C89.0504 44.381 87.5396 43.2466 85.7844 42.6928C81.4373 41.2674 77.0743 39.8878 72.7196 38.4854L72.7199 38.4817Z" fill="white"></path>
            <path id="Path 139585" d="M71.9502 40.8284C75.8109 42.0717 79.6764 43.2977 83.5312 44.5645C85.0884 45.0558 86.4287 46.0625 87.3307 47.4182C88.2327 48.774 88.6425 50.3978 88.4923 52.0213C88.4314 52.6463 88.2994 53.2627 88.099 53.8586C85.6192 61.4629 83.1291 69.0642 80.6287 76.6625C80.3506 77.6042 79.8827 78.4802 79.2538 79.2368C78.6248 79.9934 77.8479 80.6146 76.9708 81.0624C76.0937 81.5101 75.1348 81.7751 74.1529 81.8409C73.171 81.9067 72.1868 81.7721 71.2605 81.4452C63.6257 78.9971 55.9941 76.5394 48.3656 74.0721C47.4295 73.7954 46.5603 73.3318 45.8107 72.7094C45.0611 72.0871 44.4468 71.319 44.005 70.4517C43.5632 69.5844 43.3031 68.636 43.2405 67.6639C43.1779 66.6919 43.3142 65.7166 43.6409 64.797C46.1346 57.1483 48.6409 49.5034 51.1598 41.8622C51.4425 40.9348 51.91 40.0731 52.5342 39.3288C53.1585 38.5846 53.9267 37.973 54.7927 37.531C55.6587 37.0889 56.6047 36.8254 57.5739 36.7563C58.5431 36.6872 59.5155 36.8138 60.4327 37.1287C64.2782 38.3436 68.1126 39.5925 71.9502 40.8284ZM61.8993 71.3977C65.1187 72.4327 68.6238 72.1496 71.6443 70.6106C74.6648 69.0715 76.9533 66.4026 78.0069 63.1903C79.053 59.9883 78.7871 56.5089 77.2673 53.512C75.7474 50.515 73.0972 48.244 69.8952 47.1947C66.6787 46.1506 63.1727 46.4241 60.148 47.9549C57.1233 49.4858 54.8275 52.1487 53.7653 55.3582C52.706 58.5689 52.9678 62.0623 54.4931 65.0701C56.0185 68.078 58.6825 70.354 61.8993 71.3977ZM83.4662 48.0055C83.0976 47.8789 82.7072 47.8268 82.3176 47.852C81.928 47.8773 81.547 47.9794 81.1967 48.1525C80.8465 48.3256 80.5339 48.5663 80.2773 48.8604C80.0207 49.1546 79.8251 49.4964 79.7019 49.8661C79.5676 50.2382 79.5099 50.6331 79.5322 51.0273C79.5545 51.4216 79.6564 51.8069 79.8317 52.1603C80.0071 52.5138 80.2523 52.828 80.5528 53.0843C80.8532 53.3406 81.2027 53.5336 81.5803 53.6519C81.9555 53.778 82.3524 53.8282 82.748 53.7996C83.1435 53.771 83.5297 53.6643 83.884 53.4855C84.2383 53.3067 84.5535 53.0595 84.8114 52.7583C85.0693 52.4571 85.2646 52.108 85.3859 51.7313C85.6272 50.9815 85.5607 50.1681 85.2008 49.4696C84.8409 48.7711 84.217 48.2445 83.4662 48.0055Z" fill="white"></path>
            <path id="Path 139587" d="M83.39 48.0466C84.2307 48.3138 84.9293 48.9029 85.3327 49.6846C85.7361 50.4664 85.8113 51.3769 85.5418 52.2165C85.4058 52.6382 85.187 53.029 84.8981 53.3662C84.6093 53.7033 84.2562 53.9799 83.8594 54.18C83.4626 54.38 83.0302 54.4994 82.5873 54.5312C82.1444 54.563 81.7 54.5066 81.2799 54.3652C80.8572 54.2329 80.4659 54.0169 80.1295 53.7301C79.793 53.4433 79.5183 53.0916 79.3218 52.696C79.1253 52.3004 79.011 51.8691 78.9857 51.4278C78.9605 50.9865 79.0248 50.5443 79.1749 50.1276C79.313 49.7139 79.5322 49.3313 79.8196 49.0021C80.1071 48.6729 80.4571 48.4037 80.8493 48.2101C81.2415 48.0165 81.6681 47.9023 82.1042 47.8742C82.5404 47.8462 82.9775 47.9048 83.39 48.0466Z" fill="white"></path>
            <path id="Path 139589" d="M68.2324 52.1668C70.1267 52.7688 71.7008 54.0963 72.6094 55.8579C73.518 57.6195 73.6867 59.6712 73.0785 61.5628C72.7722 62.5128 72.2792 63.3931 71.6285 64.1525C70.9778 64.9118 70.1823 65.535 69.2886 65.9855C68.3948 66.4361 67.4206 66.7049 66.4229 66.7765C65.4253 66.848 64.4241 66.7208 63.4779 66.4022C62.5256 66.1044 61.6442 65.6178 60.8863 64.9718C60.1285 64.3258 59.5098 63.5336 59.0672 62.6425C58.6247 61.7513 58.3673 60.7797 58.3106 59.7856C58.2539 58.7915 58.399 57.7954 58.7373 56.8569C59.0483 55.9248 59.5419 55.0628 60.1893 54.321C60.8367 53.5793 61.625 52.9725 62.5085 52.5362C63.392 52.0998 64.353 51.8424 65.3356 51.779C66.3182 51.7155 67.3029 51.8474 68.2324 52.1668Z" fill="white"></path>
          </g>
        </g>
      </g>
    </g>
  </g>
  <defs>
    <clipPath id="clip0_355_894">
      <rect width="125" height="122" fill="white" transform="translate(0.5)"></rect>
    </clipPath>
  </defs>
</svg>
