<?xml version="1.0" encoding="UTF-8"?>
<svg xmlns="http://www.w3.org/2000/svg" width="70" height="93" viewBox="0 0 70 93" fill="none">
  <g id="Group 90277">
    <path id="Path 164489" d="M1.69018 0.0207192H68.1974C68.3249 0.614251 68.8915 0.801853 69.0884 1.53457C69.2797 2.24588 69.0884 3.50278 69.0884 4.35327C69.1349 32.5467 69.094 60.7402 69.1349 88.9337C69.1391 91.7877 68.1219 93.0102 65.1548 92.9999C44.7652 92.9292 24.3756 92.9279 3.98605 92.9962C1.01932 93.006 0.0413126 91.7943 0.0468988 88.9243C0.10183 60.7309 0.0492123 32.5379 0.137195 4.34489C0.141384 2.90226 -0.213776 -0.286521 1.69018 0.0207192ZM32.4421 72.5177C32.4421 76.8591 32.3681 80.9901 32.5022 85.1132C32.5305 85.986 33.3238 86.8356 33.7646 87.694C34.2129 86.8323 35.0187 85.9823 35.048 85.1071C35.1854 80.9868 35.109 76.8601 35.109 72.6313H41.3516V87.6209H52.5877C53.7315 81.7945 56.8663 77.029 58.9849 71.8795L64.0124 73.6671V63.6604H4.9385C4.9385 71.2329 4.86635 78.6272 5.05721 86.0144C5.0749 86.7038 6.75961 87.3509 8.52158 88.6409V72.5447H14.5319C14.5319 76.948 14.476 81.0935 14.5784 85.2351C14.5989 86.0503 15.2371 86.85 15.5899 87.6558C16.068 86.8253 16.9297 86.0088 16.959 85.1625C17.1024 81.0418 17.0238 76.9141 17.0238 72.5908H23.054C23.054 76.8903 22.9539 80.9049 23.1276 84.9074C23.169 85.8566 24.128 86.7658 24.6638 87.6935C25.1675 86.7583 26.0673 85.8394 26.1069 84.8865C26.268 80.8002 26.1753 76.7046 26.1753 72.5168L32.4421 72.5177ZM64.1967 33.5974C44.7312 33.5974 25.8849 33.5676 7.0394 33.7133C6.32809 33.7189 5.04747 35.4143 5.01954 36.3514C4.84124 42.384 4.86685 48.4259 5.01954 54.4599C5.04281 55.3709 6.09021 56.2564 6.66373 57.1534C7.25866 56.288 8.33072 55.4431 8.36889 54.553C8.55044 50.3206 8.44993 46.0755 8.44993 41.7714H14.5314C14.5314 46.1426 14.4607 50.2754 14.5868 54.4031C14.6143 55.3118 15.339 56.1991 15.7422 57.0966C16.1653 56.2121 16.9274 55.3393 16.9525 54.4432C17.0815 50.213 17.0098 45.9768 17.0098 41.7085H23.0708C23.0708 46.0029 22.9777 50.1204 23.1364 54.2281C23.1751 55.2285 24.0349 56.1982 24.5167 57.1823C25.08 56.1581 26.0799 55.1582 26.1279 54.1122C26.3169 50.0091 26.2051 45.8931 26.2051 41.7933H32.4156C32.4156 46.2003 32.3397 50.3345 32.4761 54.4618C32.5054 55.3523 33.3 56.2163 33.7423 57.0929C34.2036 56.228 35.0355 55.3751 35.0648 54.4958C35.2045 50.2596 35.1277 46.0178 35.1277 41.0135L42.0387 42.6535L41.8576 43.801L47.1235 41.5419L54.4056 57.1753C56.5367 57.1753 59.3107 57.3149 62.0549 57.0864C62.8146 57.024 64.0902 55.8937 64.1032 55.2318C64.2545 48.2127 64.1967 41.19 64.1967 33.5974ZM41.278 27.083H52.4322L58.6934 11.9491L63.9304 13.6468V5.52776H4.94458C4.94458 12.3103 4.84542 18.8415 5.07352 25.3587C5.10099 26.1501 6.88903 26.88 7.86661 27.6397L8.82838 26.806V11.4296H14.9266C14.9266 16.1173 14.8596 20.5132 14.9853 24.903C15.0095 25.7409 15.7976 26.5537 16.2338 27.3777L17.5037 26.86V11.3299H23.5856C23.5856 15.8231 23.5265 20.0816 23.6322 24.3355C23.6555 25.287 24.2486 26.2246 24.5791 27.1682C25.0283 26.2097 25.8359 25.2624 25.8653 24.2904C26.0049 19.955 25.9267 15.6122 25.9267 11.3318H32.0306C32.0306 15.9558 32.0655 20.3386 32.0157 24.7205C31.9919 26.8009 32.4998 27.9465 35.2203 26.5779V11.3914H41.278V27.083ZM42.0829 45.3973L41.2064 45.5476C41.2064 47.8706 41.2105 50.1935 41.2064 52.5169C41.1956 57.6725 42.0029 58.2287 47.3279 56.436L42.0829 45.3973ZM63.889 87.6014V77.2874L63.2964 77.2152L58.6473 87.6014H63.889ZM64.0394 16.9133L63.4063 16.7248L59.1073 27.0546H64.0417L64.0394 16.9133Z" fill="white"></path>
    <path id="Path 164490" d="M32.4424 72.5177H26.1779C26.1779 76.7073 26.271 80.8015 26.1095 84.8874C26.0718 85.8403 25.172 86.7597 24.6664 87.6944C24.1292 86.7667 23.1698 85.8575 23.1302 84.9083C22.9565 80.9049 23.0567 76.8912 23.0567 72.5917H17.0264C17.0264 76.9145 17.105 81.0427 16.9617 85.1634C16.9323 86.0097 16.0706 86.8262 15.5926 87.6567C15.2392 86.8504 14.601 86.0502 14.581 85.236C14.4767 81.093 14.5345 76.9499 14.5345 72.5456H8.52419V88.6408C6.76221 87.3509 5.07937 86.7043 5.05982 86.0144C4.86896 78.6271 4.94111 71.2333 4.94111 63.6603H64.015V73.6675L58.9875 71.8799C56.8689 77.0299 53.7341 81.7954 52.5899 87.6213H41.3537V72.6331H35.1112C35.1112 76.86 35.1875 80.9868 35.0502 85.1089C35.0209 85.9846 34.2146 86.8342 33.7667 87.6958C33.3264 86.836 32.5327 85.9878 32.5043 85.115C32.3684 80.9896 32.4424 76.8591 32.4424 72.5177Z" fill="#252525"></path>
    <path id="Path 164491" d="M64.1969 33.5974C64.1969 41.1899 64.2542 48.2145 64.1038 55.2313C64.0903 55.8932 62.8148 57.0235 62.0555 57.0859C59.3113 57.3126 56.5373 57.1748 54.4062 57.1748L47.1283 41.5414L41.8624 43.8005L42.0435 42.653L35.131 41.0149C35.131 46.0192 35.2078 50.2614 35.0682 54.4971C35.0393 55.377 34.2075 56.2293 33.7457 57.0942C33.303 56.2177 32.5088 55.3532 32.4795 54.4632C32.3431 50.3359 32.419 46.2012 32.419 41.7946H26.2085C26.2085 45.8944 26.3202 50.0105 26.1312 54.1136C26.0847 55.1596 25.0834 56.1618 24.5206 57.1836C24.0388 56.2 23.179 55.2285 23.1403 54.2295C22.9825 50.1213 23.0747 46.0043 23.0747 41.7099H17.0127C17.0127 45.9787 17.0844 50.2149 16.9555 54.4445C16.928 55.3407 16.1641 56.2135 15.7452 57.098C15.3416 56.2005 14.6167 55.3132 14.5897 54.4045C14.4636 50.2772 14.5343 46.1444 14.5343 41.7727H8.45285C8.45285 46.0769 8.55291 50.3215 8.37136 54.5544C8.33319 55.444 7.26158 56.2894 6.66665 57.1548C6.09313 56.2577 5.04574 55.3728 5.022 54.4613C4.86745 48.4273 4.84231 42.3854 5.022 36.3528C5.04993 35.4157 6.33056 33.7203 7.04187 33.7147C25.885 33.5666 44.7314 33.5974 64.1969 33.5974Z" fill="#252525"></path>
    <path id="Path 164492" d="M41.2772 27.083V11.3896H35.2157V26.5761C32.4952 27.9447 31.9873 26.799 32.0111 24.7187C32.0609 20.3368 32.0255 15.9539 32.0255 11.33H25.9217C25.9217 15.6104 26.0017 19.9532 25.8602 24.2885C25.8286 25.2605 25.0223 26.2078 24.574 27.1663C24.2435 26.2227 23.6504 25.2852 23.6272 24.3337C23.5233 20.0798 23.5806 15.8213 23.5806 11.3281H17.4986V26.8582L16.2287 27.3758C15.7925 26.5514 15.0044 25.7377 14.9802 24.9011C14.8541 20.5109 14.9211 16.1155 14.9211 11.4277H8.82284V26.8051L7.86107 27.6388C6.88814 26.8805 5.09777 26.1492 5.07031 25.3578C4.84221 18.8406 4.94137 12.3089 4.94137 5.52686H63.9277V13.6459L58.6907 11.9482L52.4295 27.0821L41.2772 27.083Z" fill="#252525"></path>
    <path id="Path 164493" d="M42.0822 45.3973L47.3267 56.4365C42.0017 58.2292 41.1945 57.6729 41.2052 52.5173C41.2098 50.1939 41.2052 47.871 41.2052 45.5481L42.0822 45.3973Z" fill="#252525"></path>
    <path id="Path 164494" d="M63.8901 87.6014H58.6484L63.2975 77.2158L63.8901 77.2879V87.6014Z" fill="#252525"></path>
    <path id="Path 164495" d="M64.04 16.9133V27.0546H59.1055L63.4046 16.7248L64.04 16.9133Z" fill="#252525"></path>
  </g>
</svg>
