<?xml version="1.0" encoding="UTF-8"?>
<svg xmlns="http://www.w3.org/2000/svg" width="50" height="50" viewBox="0 0 50 50" fill="none">
  <g id="market-analysis" clip-path="url(#clip0_217_216)">
    <g id="Group">
      <g id="Group_2">
        <path id="Vector" d="M47.4573 48.4353H45.7179V34.1798C45.7179 33.7201 45.3453 33.3474 44.8854 33.3474C44.4256 33.3474 44.053 33.7201 44.053 34.1798V48.4353H40.5741V28.3992H44.053V30.7618C44.053 31.2215 44.4256 31.5942 44.8854 31.5942C45.3453 31.5942 45.7179 31.2215 45.7179 30.7618V27.9575C45.7179 27.2831 45.1693 26.7345 44.4948 26.7345H40.1323C39.4579 26.7345 38.9093 27.2831 38.9093 27.9575V48.4353H37.8736V37.1847C37.8736 36.5102 37.3251 35.9616 36.6506 35.9616H32.2881C31.6136 35.9616 31.065 36.5102 31.065 37.1847V48.4353H30.0295V32.1695C30.0295 31.4951 29.4809 30.9465 28.8064 30.9465H24.4439C23.7695 30.9465 23.2209 31.4951 23.2209 32.1695V48.4353H22.1853V44.629C22.1853 44.1693 21.8127 43.7966 21.3528 43.7966C20.893 43.7966 20.5204 44.1693 20.5204 44.629V48.4353H17.0415V28.2392H20.5204V41.211C20.5204 41.6707 20.893 42.0435 21.3528 42.0435C21.8127 42.0435 22.1853 41.6707 22.1853 41.211V27.7974C22.1853 27.1229 21.6367 26.5743 20.9622 26.5743H16.5997C15.9252 26.5743 15.3767 27.1229 15.3767 27.7974V48.4353H14.3411V37.0578C14.3411 36.3833 13.7925 35.8348 13.1181 35.8348H8.75547C8.081 35.8348 7.53242 36.3833 7.53242 37.0578V48.4353H5.79297C5.33314 48.4353 4.96055 48.808 4.96055 49.2677C4.96055 49.7274 5.33314 50.1001 5.79297 50.1001H47.4573C47.9171 50.1001 48.2897 49.7274 48.2897 49.2677C48.2897 48.808 47.917 48.4353 47.4573 48.4353ZM12.6762 48.4353H9.19727V37.4996H12.6762V48.4353ZM28.3645 48.4353H24.8856V32.6113H28.3645V48.4353ZM36.2088 48.4353H32.7299V37.6265H36.2088V48.4353Z" fill="white" stroke="white" stroke-width="0.2"></path>
        <path id="Vector_2" d="M24.0811 13.528L24.081 13.5281C23.6558 13.7029 23.4528 14.1892 23.6276 14.6145C23.8879 15.2478 24.0199 15.9173 24.0199 16.6048C24.0199 17.5085 23.7889 18.3586 23.3843 19.1013L21.9025 17.9596C22.0835 17.5441 22.1847 17.086 22.1847 16.6047C22.1847 14.7275 20.6576 13.2004 18.7804 13.2004C16.9032 13.2004 15.3761 14.7275 15.3761 16.6047C15.3761 17.2218 15.5411 17.8012 15.8295 18.3009L14.4854 19.6008C13.8906 18.751 13.5408 17.7182 13.5408 16.6047C13.5408 15.9292 13.6701 15.2838 13.904 14.6905H14.2383C14.9548 14.6905 15.5373 14.1078 15.5373 13.3914V12.4958C16.4302 11.789 17.5562 11.3652 18.7804 11.3652C19.8547 11.3652 20.8877 11.6889 21.7683 12.3016C22.1457 12.5642 22.6643 12.471 22.9269 12.0937C23.1895 11.7163 23.0964 11.1975 22.719 10.935L22.6619 11.017L22.719 10.935C21.5582 10.1273 20.1961 9.70024 18.7804 9.70024C17.6088 9.70024 16.5048 9.99451 15.5373 10.5118V8.54946C15.5373 7.83301 14.9546 7.25034 14.2383 7.25034H1.65703C0.940562 7.25034 0.358008 7.83301 0.358008 8.54946V13.3916C0.358008 14.108 0.940665 14.6907 1.65703 14.6907H12.1491C11.9725 15.2986 11.8761 15.9404 11.8761 16.6048C11.8761 18.1679 12.3996 19.6102 13.2783 20.7685L12.729 21.2997C12.208 20.9755 11.5938 20.7875 10.9362 20.7875C9.05903 20.7875 7.53193 22.3146 7.53193 24.1918C7.53193 26.069 9.05903 27.5961 10.9362 27.5961C12.8134 27.5961 14.3405 26.069 14.3405 24.1918C14.3405 23.5748 14.1755 22.9954 13.8871 22.4957L14.4351 21.9658C15.6225 22.93 17.1349 23.5092 18.7804 23.5092C20.7039 23.5092 22.4447 22.7173 23.6977 21.4444L31.3466 27.3379C31.1656 27.7533 31.0645 28.2113 31.0645 28.6926C31.0645 30.5698 32.5915 32.0969 34.4688 32.0969C36.346 32.0969 37.873 30.5698 37.873 28.6926C37.873 28.0358 37.6854 27.422 37.3617 26.9014L40.6153 23.5412C41.1154 23.8301 41.6953 23.9956 42.313 23.9956C44.1902 23.9956 45.7173 22.4685 45.7173 20.5913C45.7173 18.7141 44.1902 17.187 42.313 17.187C40.4358 17.187 38.9087 18.7141 38.9087 20.5913C38.9087 21.2481 39.0964 21.8619 39.42 22.3824L36.1664 25.7426C35.6664 25.4538 35.0864 25.2882 34.4688 25.2882C33.6745 25.2882 32.9429 25.5618 32.3632 26.0193L24.7162 20.1274C25.3309 19.0954 25.6848 17.8906 25.6848 16.6047C25.6848 15.6992 25.5106 14.8166 25.1674 13.9815L25.0749 14.0195L25.1674 13.9815C24.9926 13.5562 24.5065 13.3536 24.0811 13.528ZM10.9362 25.9313C9.9772 25.9313 9.19678 25.1509 9.19678 24.1918C9.19678 23.2328 9.9772 22.4524 10.9362 22.4524C11.8953 22.4524 12.6757 23.2328 12.6757 24.1918C12.6757 25.1509 11.8953 25.9313 10.9362 25.9313ZM42.3131 18.8518C43.2721 18.8518 44.0525 19.6322 44.0525 20.5913C44.0525 21.5503 43.2721 22.3307 42.3131 22.3307C41.3541 22.3307 40.5736 21.5503 40.5736 20.5913C40.5736 19.6322 41.3541 18.8518 42.3131 18.8518ZM34.4688 26.9532C35.4279 26.9532 36.2083 27.7336 36.2083 28.6926C36.2083 29.6517 35.4279 30.4321 34.4688 30.4321C33.5098 30.4321 32.7294 29.6517 32.7294 28.6926C32.7294 27.7336 33.5098 26.9532 34.4688 26.9532ZM18.7804 14.8654C19.7394 14.8654 20.5198 15.6458 20.5198 16.6048C20.5198 17.5639 19.7394 18.3443 18.7804 18.3443C17.8213 18.3443 17.0409 17.5639 17.0409 16.6048C17.0409 15.6458 17.8214 14.8654 18.7804 14.8654ZM15.6435 20.797L16.9877 19.4969C17.5086 19.8211 18.1229 20.009 18.7805 20.009C19.5747 20.009 20.3063 19.7355 20.8861 19.2779L22.3674 20.4194C21.429 21.3023 20.1671 21.8443 18.7805 21.8443C17.6045 21.8443 16.5188 21.4538 15.6435 20.797ZM2.02275 13.0257V8.91509H13.8725V13.0257H2.02275Z" fill="white" stroke="white" stroke-width="0.2"></path>
        <path id="Vector_3" d="M5.49902 10.238H3.73633C3.33174 10.238 3.00391 10.566 3.00391 10.9705C3.00391 11.375 3.33174 11.7029 3.73633 11.7029H5.49912C5.90371 11.7029 6.23154 11.375 6.23154 10.9705C6.23154 10.566 5.90361 10.238 5.49902 10.238Z" fill="white"></path>
        <path id="Vector_4" d="M12.1587 10.238H7.78711C7.38252 10.238 7.05469 10.566 7.05469 10.9705C7.05469 11.375 7.38252 11.7029 7.78711 11.7029H12.1587C12.5633 11.7029 12.8911 11.375 12.8911 10.9705C12.8911 10.566 12.5632 10.238 12.1587 10.238Z" fill="white"></path>
        <path id="Vector_5" d="M40.6591 14.3543L40.6589 14.354C40.6558 14.3487 40.6527 14.3434 40.6497 14.338C37.1998 13.5307 34.8384 10.3956 35.0191 6.83597C35.1108 5.02866 35.8747 3.32373 37.1694 2.0353C38.4639 0.747058 40.1726 -0.00867126 41.9803 -0.0920545L41.9804 -0.0920565C44.0012 -0.18441 45.9186 0.531022 47.3778 1.92438L47.3088 1.99671L47.3778 1.92438C48.8376 3.31835 49.6419 5.19819 49.6419 7.21614C49.6419 10.5948 47.2778 13.569 44.0016 14.3378C43.9986 14.3432 43.9955 14.3487 43.9923 14.354L40.6591 14.3543ZM40.6591 14.3543L41.6077 15.9709L41.6077 15.971C41.7572 16.2256 42.0304 16.3821 42.3257 16.3821C42.621 16.3821 42.8942 16.2256 43.0437 15.9709L43.0437 15.9708L43.9921 14.3543L40.6591 14.3543ZM42.057 1.57111L42.0571 1.57111C43.6202 1.49883 45.1007 2.05193 46.228 3.1285L46.2971 3.05618L46.228 3.1285C47.3561 4.20573 47.977 5.65704 47.977 7.21624C47.977 9.8586 46.1044 12.1815 43.5255 12.7387C43.077 12.8356 42.7015 13.1491 42.5231 13.5681L42.3257 13.9048L42.1281 13.5681C41.9496 13.1491 41.5733 12.8356 41.1238 12.7382L41.1238 12.7382C38.4086 12.1504 36.5405 9.70416 36.6817 6.92053C36.8272 4.0537 39.1889 1.70331 42.057 1.57111Z" fill="white" stroke="white" stroke-width="0.2"></path>
        <path id="Vector_6" d="M41.5808 8.04868H43.071C43.3553 8.04868 43.5868 8.28018 43.5868 8.5645C43.5868 8.84893 43.3553 9.08042 43.071 9.08042H40.4454C39.9856 9.08042 39.613 9.45313 39.613 9.91284C39.613 10.3726 39.9856 10.7453 40.4454 10.7453H41.4935V11.2965C41.4935 11.7562 41.8661 12.129 42.3259 12.129C42.7857 12.129 43.1583 11.7562 43.1583 11.2965V10.7435C44.3205 10.6976 45.2517 9.73785 45.2517 8.5645C45.2517 7.36201 44.2735 6.38384 43.071 6.38384H41.5808C41.2963 6.38384 41.0648 6.15234 41.0648 5.86792C41.0648 5.58361 41.2963 5.3521 41.5808 5.3521H44.2063C44.6662 5.3521 45.0388 4.97939 45.0388 4.51968C45.0388 4.05997 44.6662 3.68726 44.2063 3.68726H43.1583V3.13599C43.1583 2.67627 42.7857 2.30356 42.3259 2.30356C41.8661 2.30356 41.4935 2.67627 41.4935 3.13599V3.68898C40.3313 3.73496 39.4 4.69466 39.4 5.86802C39.4 7.07052 40.3783 8.04868 41.5808 8.04868Z" fill="white" stroke="white" stroke-width="0.2"></path>
      </g>
    </g>
  </g>
  <defs>
    <clipPath id="clip0_217_216">
      <rect width="50" height="50" fill="white"></rect>
    </clipPath>
  </defs>
</svg>
