<?xml version="1.0" encoding="UTF-8"?>
<svg xmlns="http://www.w3.org/2000/svg" width="92" height="105" viewBox="0 0 92 105" fill="none">
  <g id="Group">
    <path id="Vector" d="M8.817 52.9079C6.52444 51.0853 4.42809 49.4175 2.3369 47.7445C-0.32226 45.6224 -0.105384 44.0785 3.05979 42.7205C8.05282 40.588 13.0613 38.4762 18.0595 36.354C18.643 36.1062 19.2213 35.8377 20.032 35.4762C16.6706 32.9307 17.9717 29.4815 18.0285 26.3628C18.0595 24.726 19.3968 23.7191 21.0233 23.3319C21.6481 23.1821 22.2935 23.1305 22.9235 23.0117C25.5878 22.516 26.7289 19.7175 25.2315 17.4507C24.6222 16.5316 23.8993 15.6126 23.5947 14.585C22.6601 11.4405 28.0198 5.75043 31.2004 6.57141C32.4397 6.89154 33.5343 7.83646 34.6496 8.5645C36.307 9.64882 39.1263 8.48704 39.5084 6.52494C40.5824 1.02074 40.887 0.767733 46.4841 0.767733C50.7233 0.762569 51.6837 1.37185 52.2362 5.60585C52.5408 7.95005 54.0744 8.47155 55.737 9.08599C56.0778 9.21508 56.6354 9.00855 56.9969 8.79169C57.7456 8.34247 58.4116 7.75901 59.1397 7.27364C61.0398 5.99828 62.7334 6.10671 64.3806 7.6609C65.4442 8.6626 66.4769 9.70045 67.4528 10.7848C68.8469 12.3338 68.9399 14.1771 67.7988 15.9327C67.5767 16.2735 67.3289 16.6039 67.1017 16.9396C65.7695 18.8913 65.7489 20.3732 67.1068 22.2424C67.3134 22.5264 67.7471 22.7226 68.1085 22.8104C68.9605 23.0169 69.8331 23.1098 70.6954 23.2854C72.895 23.7398 74.0258 25.0668 74.1033 27.3077C74.1394 28.361 74.1394 29.4092 74.1446 30.4626C74.1601 33.1475 74.0671 33.3799 72.074 35.4143C72.8382 35.786 73.5353 36.1681 74.2633 36.4779C79.2615 38.6053 84.27 40.7068 89.2682 42.8393C91.9842 43.9959 92.2062 45.6585 89.9395 47.4709C87.7502 49.2213 85.5816 50.9923 83.2219 52.8976C85.1788 54.4828 87.0273 55.975 88.881 57.4724C89.4283 57.9113 89.9963 58.3244 90.5075 58.8046C92.0203 60.2142 91.7932 61.8355 89.8982 62.703C87.776 63.6788 85.628 64.6031 83.4439 65.4292C82.1995 65.8991 81.8278 66.6375 81.8381 67.9283C81.8949 74.238 81.8123 80.5529 81.8949 86.8677C81.9155 88.7008 81.3011 89.7644 79.5765 90.4821C68.9037 94.9433 58.2826 99.513 47.5994 103.953C46.701 104.325 45.374 104.325 44.4756 103.953C33.9525 99.5904 23.4863 95.0879 12.9684 90.7145C10.903 89.8574 10.0356 88.6853 10.0872 86.3721C10.2369 80.1811 10.1027 73.9798 10.1646 67.7889C10.175 66.5394 9.78772 65.8836 8.61562 65.4396C6.48829 64.6289 4.40744 63.6995 2.32658 62.7597C0.13729 61.7735 -0.105388 60.1264 1.74828 58.5877C4.01502 56.7082 6.35405 54.8855 8.817 52.9079ZM61.4787 11.0068C61.0915 11.2546 60.7507 11.3941 60.5131 11.6316C58.1328 14.0326 55.8816 14.1358 52.6028 12.6901C49.608 11.3682 48.2036 9.89666 48.0848 6.80377C48.0642 6.25129 47.5736 5.38383 47.1141 5.23409C45.0177 4.55768 44.1451 5.1773 43.8043 7.32528C43.6856 8.07398 43.7217 8.92593 43.3706 9.54555C42.8904 10.3872 42.183 11.141 41.424 11.7555C40.9593 12.1324 40.1331 12.0498 39.6375 12.4061C36.6582 14.5592 33.9783 14.2133 31.4379 11.6522C31.1694 11.3837 30.5498 11.1823 30.2194 11.3011C28.4793 11.9362 27.8184 13.8312 28.9853 15.2201C30.8235 17.4094 31.6187 19.5677 29.6875 22.0978C29.45 22.4076 29.3055 22.8414 29.2435 23.2338C28.8407 25.9549 27.1265 27.0702 24.5345 27.158C24.3021 27.1631 24.0749 27.2716 23.8426 27.2716C22.1231 27.2819 22.2057 28.4643 22.1593 29.688C22.1128 30.9531 22.4226 31.6863 23.8477 31.7018C26.8735 31.7224 28.3296 33.1837 29.5739 36.132C30.9577 39.4108 30.9681 41.7808 28.5877 44.2953C28.2934 44.6052 28.1592 45.4313 28.3605 45.7876C29.543 47.8943 30.493 48.0492 32.4242 46.6137C32.7546 46.3711 33.1109 46.1645 33.4155 45.8909C34.7167 44.7343 36.0179 44.6 37.5514 45.5604C38.5738 46.2007 39.7665 46.6241 40.9335 46.9648C42.4618 47.4089 43.3603 48.2609 43.4945 49.8873C43.5513 50.5844 43.8095 51.2711 43.825 51.963C43.8611 53.6411 44.8422 53.8425 46.2466 53.889C47.8628 53.9458 48.0951 53.0267 48.1468 51.8185C48.2604 49.1335 49.0865 47.0268 52.1536 46.5879C52.6028 46.5259 53.0727 46.3143 53.4341 46.0406C55.7267 44.3367 57.7766 44.822 59.6612 46.6964C60.8798 47.9098 61.8557 47.9872 63.0587 46.5311C63.8384 45.5914 64.0811 44.9873 63.2343 44.032C62.656 43.3814 62.2739 42.5656 61.742 41.8737C60.9004 40.7687 60.8797 39.7051 61.5148 38.4555C62.1964 37.1079 62.7231 35.6724 63.1878 34.2318C63.5957 32.9617 64.3702 32.2698 65.6663 32.0942C66.3582 32.0013 67.0501 31.7586 67.7368 31.7586C69.3891 31.7586 69.8951 31.015 69.8434 29.3834C69.8021 28.0099 69.4304 27.3232 68.0259 27.2251C67.2721 27.1735 66.5389 26.8998 65.785 26.8223C64.3031 26.6778 63.5028 25.8826 63.1207 24.4627C62.8161 23.3422 62.4907 22.1649 61.8711 21.2097C60.6939 19.3973 60.9882 17.9361 62.2326 16.2735C64.3238 13.4904 64.2412 13.4336 61.4787 11.0068ZM74.0155 52.9028C71.7384 51.9217 69.7815 51.1834 67.9227 50.2436C66.606 49.5775 65.7695 49.7996 64.773 50.8736C62.785 53.0164 61.1534 53.0835 58.7576 51.4002C58.138 50.9665 57.5494 50.4656 56.8833 50.1094C56.5218 49.9132 55.9952 49.8202 55.6028 49.9235C53.7181 50.4243 52.2155 51.2247 52.231 53.6102C52.2414 55.1385 51.8386 56.8115 50.2793 57.4879C47.5014 58.6961 44.5634 58.6032 41.7906 57.5086C40.9954 57.1936 40.4894 55.9647 40.0299 55.0611C39.7252 54.4621 39.7511 53.6979 39.622 53.0061C39.0953 50.1662 36.3845 49.1025 34.03 50.8064C30.6479 53.2539 29.6152 53.1713 26.636 50.3624C26.2848 50.0319 25.562 49.7066 25.1902 49.846C22.877 50.7341 20.6154 51.7565 18.0905 52.846C18.7514 53.2126 19.1335 53.4656 19.5466 53.6411C28.0353 57.2504 36.5239 60.8751 45.0436 64.4172C45.6787 64.6805 46.6442 64.5514 47.3206 64.2726C53.8988 61.5412 60.4512 58.7478 67.0087 55.9595C69.2445 55.0095 71.4596 54.0181 74.0155 52.9028ZM48.2345 99.0379C53.145 96.9467 57.7301 94.9433 62.3617 93.0639C63.5596 92.5785 63.8694 91.8866 63.8539 90.6887C63.7919 85.613 63.8229 80.5374 63.8023 75.4566C63.8023 75.0229 63.7042 74.584 63.6267 73.923C61.9538 74.6098 60.3531 75.0487 58.99 75.8748C56.3824 77.4652 54.2499 77.1089 52.1536 74.9661C51.0589 73.8456 49.6906 72.9833 48.2345 71.8422C48.2345 81.0796 48.2345 89.8729 48.2345 99.0379ZM43.6907 98.945C43.6907 89.7851 43.6907 81.0176 43.6907 71.8938C42.3431 72.9627 41.1297 73.701 40.1951 74.7027C37.9593 77.0986 35.6048 77.5116 32.7546 75.7819C31.4121 74.9661 29.8424 74.522 28.123 73.7991C28.123 79.9643 28.092 85.6853 28.1747 91.4064C28.1798 91.9176 28.7943 92.6508 29.3054 92.8831C32.3364 94.2566 35.4189 95.5113 38.4912 96.797C40.1383 97.4837 41.7958 98.1602 43.6907 98.945ZM41.7648 67.7992C38.6512 66.4774 35.8681 65.3001 33.0902 64.1229C26.6979 61.4121 20.3159 58.6858 13.9133 55.9957C13.4176 55.7891 12.6328 55.5619 12.3023 55.7994C10.5313 57.0593 8.86347 58.4638 7.14921 59.8218C7.39706 60.0954 7.45902 60.2193 7.55196 60.2607C16.7842 64.1952 26.0112 68.1245 35.2589 72.0177C35.6513 72.183 36.338 72.121 36.6685 71.8732C38.295 70.6649 39.8492 69.3534 41.7648 67.7992ZM85.0291 60.0283C83.4955 58.7736 82.1634 57.8132 80.9913 56.6876C79.845 55.5826 78.7917 55.5929 77.3821 56.2074C70.5818 59.1712 63.7351 62.0317 56.9091 64.9387C54.7766 65.8475 52.6544 66.7769 50.2483 67.8199C51.8903 69.152 53.336 70.2312 54.663 71.4343C55.5718 72.2604 56.3669 72.3121 57.4822 71.8267C64.0139 68.9817 70.587 66.2141 77.1394 63.4155C79.6591 62.3363 82.1685 61.252 85.0291 60.0283ZM14.4554 67.9541C14.4554 74.1244 14.44 79.9436 14.4916 85.7628C14.4968 86.1604 14.9098 86.7542 15.2816 86.9194C17.9769 88.1173 20.7135 89.2326 23.4605 90.384C23.6102 90.0846 23.7496 89.9348 23.7496 89.7851C23.7651 84.1311 23.7806 78.4772 23.7599 72.8232C23.7599 72.4721 23.5534 71.9145 23.2901 71.7957C20.4399 70.51 17.569 69.2966 14.4554 67.9541ZM68.1344 90.5648C71.3099 89.2171 74.0981 88.076 76.8399 86.8213C77.2117 86.6509 77.4957 85.9074 77.5111 85.422C77.5834 83.3256 77.5421 81.2241 77.5421 79.1226C77.5421 75.5237 77.5421 71.9248 77.5421 67.9955C74.6713 69.214 72.0792 70.3655 69.4407 71.4033C68.4648 71.7906 68.0518 72.3379 68.1499 73.3654C68.2067 73.9437 68.1395 74.5323 68.1395 75.1158C68.1344 80.1192 68.1344 85.1225 68.1344 90.5648ZM66.8177 38.0476C65.6972 39.2559 65.754 40.1801 66.6008 41.3057C67.3857 42.3539 67.8607 43.6344 68.5474 44.7652C68.8985 45.3487 69.3013 46.0613 69.8641 46.3246C72.6059 47.5999 75.4096 48.7617 78.203 49.9183C78.6471 50.099 79.3545 50.2901 79.6488 50.0784C81.4353 48.7669 83.1393 47.3366 85.0601 45.7979C78.7659 43.1233 72.8279 40.6035 66.8177 38.0476ZM6.9117 45.8237C8.84798 47.3521 10.5106 48.7101 12.2404 49.9854C12.5295 50.1971 13.1491 50.1868 13.5157 50.0371C16.5415 48.7875 19.5414 47.4864 22.5414 46.18C22.8357 46.0509 23.161 45.8186 23.3056 45.5449C24.173 43.9236 25.0818 42.3126 25.7892 40.619C26.0267 40.051 25.8253 39.2094 25.5826 38.5846C25.5103 38.3987 24.5551 38.3574 24.1214 38.533C20.9304 39.829 17.76 41.1921 14.5897 42.5398C12.1371 43.5828 9.68446 44.6361 6.9117 45.8237Z" fill="white"></path>
    <path id="Vector_2" d="M61.4784 11.0069C64.2409 13.4337 64.3183 13.4957 62.2374 16.2788C60.9982 17.9363 60.7039 19.3975 61.876 21.215C62.4956 22.1703 62.8209 23.3475 63.1255 24.468C63.5128 25.8827 64.308 26.6831 65.7899 26.8277C66.5437 26.8999 67.2769 27.1736 68.0308 27.2304C69.4352 27.3285 69.807 28.0152 69.8483 29.3887C69.9 31.0203 69.3991 31.7639 67.7416 31.7639C67.0497 31.7639 66.363 32.0066 65.6711 32.0995C64.3751 32.2751 63.6006 32.967 63.1927 34.2372C62.728 35.6778 62.2013 37.1132 61.5197 38.4608C60.8846 39.7104 60.9104 40.7741 61.7469 41.879C62.2736 42.5761 62.6608 43.3919 63.2391 44.0373C64.0859 44.9926 63.8433 45.5915 63.0636 46.5364C61.8605 47.9925 60.8795 47.9151 59.6661 46.7017C57.7763 44.8222 55.7315 44.3368 53.439 46.0459C53.0724 46.3196 52.6025 46.5261 52.1584 46.5932C49.0914 47.0321 48.2652 49.1388 48.1516 51.8238C48.1 53.0269 47.8677 53.9511 46.2515 53.8943C44.8471 53.8427 43.8608 53.6413 43.8299 51.9683C43.8144 51.2765 43.5562 50.5897 43.4994 49.8927C43.3651 48.2662 42.4719 47.4142 40.9383 46.9702C39.7714 46.6294 38.5787 46.206 37.5563 45.5657C36.0176 44.6053 34.7216 44.7344 33.4204 45.8962C33.1158 46.1647 32.7595 46.3764 32.429 46.619C30.4979 48.0493 29.5478 47.8996 28.3654 45.7929C28.164 45.4366 28.2983 44.6105 28.5926 44.3007C30.9729 41.7861 30.9626 39.4161 29.5788 36.1373C28.3344 33.189 26.8784 31.7277 23.8526 31.7071C22.4275 31.6968 22.1125 30.9636 22.1642 29.6933C22.2106 28.4645 22.128 27.2872 23.8474 27.2769C24.0798 27.2769 24.307 27.1736 24.5393 27.1633C27.1314 27.0755 28.8404 25.9602 29.2484 23.2391C29.3051 22.8467 29.4549 22.4129 29.6924 22.1031C31.6184 19.5731 30.8284 17.4199 28.9902 15.2255C27.8232 13.8365 28.4842 11.9364 30.2242 11.3064C30.5547 11.1877 31.1743 11.3839 31.4428 11.6575C33.9832 14.2186 36.663 14.5645 39.6423 12.4114C40.138 12.0551 40.9642 12.1377 41.4289 11.7608C42.1827 11.1464 42.8953 10.3925 43.3755 9.55086C43.7266 8.93125 43.6904 8.07927 43.8092 7.33058C44.15 5.18776 45.0226 4.56299 47.119 5.2394C47.5785 5.38914 48.069 6.2566 48.0897 6.80908C48.2033 9.90197 49.6129 11.3735 52.6077 12.6954C55.8864 14.1411 58.1377 14.0379 60.518 11.6369C60.7504 11.389 61.0912 11.2496 61.4784 11.0069ZM58.7573 29.6107C58.8348 22.4129 53.186 16.7177 45.9159 16.6661C39.1415 16.6196 33.3068 22.3148 33.2139 29.0583C33.1158 36.3955 38.5942 42.1372 45.7971 42.2508C52.9123 42.3592 58.6799 36.7363 58.7573 29.6107Z" fill="#575757"></path>
    <path id="Vector_3" d="M74.0161 52.9028C71.4653 54.0181 69.2451 55.0095 67.0093 55.9596C60.4569 58.7478 53.9045 61.5464 47.3212 64.2727C46.6448 64.5515 45.6844 64.6806 45.0441 64.4172C36.5245 60.8751 28.041 57.2504 19.5472 53.6412C19.1341 53.4656 18.752 53.2126 18.0911 52.846C20.616 51.7617 22.8776 50.7342 25.1908 49.8461C25.5625 49.7015 26.2854 50.0319 26.6365 50.3624C29.6158 53.1713 30.6537 53.2539 34.0305 50.8065C36.3851 49.1025 39.101 50.1714 39.6225 53.0061C39.7516 53.698 39.7258 54.457 40.0304 55.0611C40.49 55.9647 40.996 57.1988 41.7912 57.5086C44.5588 58.6032 47.5019 58.6962 50.2798 57.4879C51.8392 56.8115 52.2419 55.1437 52.2316 53.6102C52.2161 51.2247 53.7135 50.4244 55.6033 49.9235C55.9906 49.8203 56.5224 49.9132 56.8838 50.1094C57.5499 50.4657 58.1334 50.9614 58.7582 51.4003C61.154 53.0835 62.7856 53.0164 64.7735 50.8736C65.7701 49.7996 66.6066 49.5776 67.9232 50.2437C69.7821 51.1834 71.739 51.9218 74.0161 52.9028Z" fill="#575757"></path>
    <path id="Vector_4" d="M48.2351 99.0379C48.2351 89.8728 48.2351 81.0795 48.2351 71.8422C49.6912 72.9884 51.0595 73.8456 52.1541 74.966C54.2505 77.1089 56.383 77.4651 58.9905 75.8748C60.3537 75.0435 61.9543 74.6098 63.6273 73.923C63.7047 74.5839 63.7977 75.0177 63.8028 75.4566C63.8183 80.5322 63.7925 85.613 63.8545 90.6886C63.8699 91.8866 63.5601 92.5785 62.3622 93.0638C57.7306 94.9485 53.1455 96.9519 48.2351 99.0379Z" fill="#575757"></path>
    <path id="Vector_5" d="M43.69 98.9451C41.7951 98.1655 40.1376 97.4891 38.4853 96.7972C35.4182 95.5115 32.3305 94.2516 29.2996 92.8833C28.7884 92.6509 28.1791 91.9177 28.1688 91.4065C28.0913 85.6855 28.1172 79.9644 28.1172 73.7993C29.8418 74.5222 31.4063 74.9662 32.7488 75.782C35.599 77.5118 37.9535 77.0987 40.1892 74.7029C41.1238 73.7012 42.3372 72.9628 43.6849 71.894C43.69 81.0126 43.69 89.7852 43.69 98.9451Z" fill="#575757"></path>
    <path id="Vector_6" d="M41.7649 67.7994C39.8493 69.3484 38.3003 70.6651 36.6738 71.8785C36.3433 72.1264 35.6566 72.1883 35.2642 72.0231C26.0165 68.1299 16.7843 64.2005 7.55729 60.266C7.45918 60.2247 7.40239 60.1008 7.15454 59.8271C8.8688 58.4691 10.5366 57.0647 12.3076 55.8048C12.6381 55.5673 13.4281 55.7945 13.9186 56.001C20.3213 58.6911 26.7032 61.4123 33.0956 64.1282C35.8683 65.3055 38.6514 66.4827 41.7649 67.7994Z" fill="#575757"></path>
    <path id="Vector_7" d="M85.0291 60.0283C82.1685 61.2521 79.6591 62.3364 77.1394 63.4104C70.5818 66.209 64.0139 68.9765 57.4822 71.8216C56.3669 72.3069 55.5718 72.2553 54.663 71.4292C53.336 70.2261 51.8903 69.1469 50.2483 67.8148C52.6544 66.7718 54.7766 65.8423 56.9091 64.9336C63.7351 62.0266 70.5818 59.166 77.3821 56.2022C78.7865 55.5878 79.845 55.5826 80.9913 56.6825C82.1634 57.8132 83.4904 58.7685 85.0291 60.0283Z" fill="#575757"></path>
    <path id="Vector_8" d="M14.4551 67.9542C17.5686 69.2967 20.4446 70.5101 23.2897 71.7958C23.553 71.9146 23.7596 72.4722 23.7596 72.8233C23.7802 78.4773 23.7699 84.1312 23.7492 89.7852C23.7492 89.9349 23.6098 90.0846 23.4601 90.3841C20.7131 89.2327 17.9765 88.1174 15.2812 86.9195C14.9094 86.7542 14.4912 86.1604 14.4912 85.7629C14.4396 79.9437 14.4551 74.1245 14.4551 67.9542Z" fill="#575757"></path>
    <path id="Vector_9" d="M68.1348 90.5648C68.1348 85.1226 68.1348 80.1192 68.1348 75.1159C68.1348 74.5324 68.202 73.9438 68.1452 73.3655C68.0471 72.338 68.4601 71.7906 69.436 71.4034C72.0745 70.3604 74.6666 69.2141 77.5374 67.9955C77.5374 71.9197 77.5374 75.5186 77.5374 79.1227C77.5374 81.2242 77.5787 83.3257 77.5065 85.4221C77.491 85.9074 77.207 86.651 76.8352 86.8214C74.1038 88.0761 71.3103 89.2172 68.1348 90.5648Z" fill="#575757"></path>
    <path id="Vector_10" d="M66.8171 38.0477C72.8274 40.6036 78.7653 43.1233 85.0595 45.798C83.1387 47.3418 81.4348 48.7669 79.6482 50.0784C79.3539 50.2953 78.6465 50.1042 78.2025 49.9184C75.4039 48.7618 72.6053 47.6 69.8636 46.3246C69.3008 46.0613 68.898 45.3487 68.5469 44.7653C67.8601 43.6345 67.3851 42.354 66.6003 41.3058C65.7586 40.1802 65.7018 39.2559 66.8171 38.0477Z" fill="#575757"></path>
    <path id="Vector_11" d="M6.91211 45.8239C9.68487 44.6363 12.1323 43.5829 14.5901 42.5399C17.7605 41.1923 20.9256 39.8291 24.1218 38.5331C24.5555 38.3576 25.5107 38.3937 25.583 38.5847C25.8257 39.2095 26.0271 40.0512 25.7896 40.6191C25.0822 42.3127 24.1786 43.9237 23.306 45.545C23.1614 45.8187 22.8361 46.0511 22.5418 46.1801C19.5418 47.4865 16.5419 48.7877 13.5161 50.0372C13.1495 50.187 12.5299 50.2024 12.2408 49.9856C10.5162 48.7102 8.84839 47.3522 6.91211 45.8239Z" fill="#575757"></path>
    <path id="Vector_12" d="M58.7585 29.6106C58.681 36.7361 52.9135 42.3643 45.7983 42.2507C38.5953 42.1371 33.1118 36.3954 33.2151 29.0581C33.308 22.3147 39.1427 16.6195 45.9171 16.6659C53.1872 16.7124 58.8411 22.4076 58.7585 29.6106ZM37.5626 29.4351C37.573 34.1751 41.2803 37.9186 45.9687 37.9237C50.6158 37.9289 54.447 34.1131 54.4419 29.4867C54.4367 24.7105 50.6571 20.9929 45.8345 21.0342C41.2339 21.0652 37.5523 24.8086 37.5626 29.4351Z" fill="white"></path>
    <path id="Vector_13" d="M37.5615 29.435C37.5512 24.8085 41.2327 21.0702 45.8334 21.0341C50.656 20.9928 54.4356 24.7104 54.4408 29.4866C54.4459 34.1182 50.6147 37.9288 45.9676 37.9236C41.2792 37.9133 37.577 34.175 37.5615 29.435Z" fill="#575757"></path>
  </g>
</svg>
