<?xml version="1.0" encoding="UTF-8"?>
<svg xmlns="http://www.w3.org/2000/svg" width="94" height="93" viewBox="0 0 94 93" fill="none">
  <g id="Group 90279">
    <path id="Path 164496" d="M72.7996 32.9947C75.0345 32.9947 77.1818 33.0762 79.3181 32.9654C80.6846 32.8942 81.4435 33.398 82.1047 34.5755C85.8174 41.1922 89.6131 47.7619 93.3514 54.3637C93.6193 54.8294 93.7422 55.3644 93.7044 55.9002C93.6539 56.2012 93.4989 56.4748 93.2667 56.6727C93.0344 56.8707 92.7398 56.9805 92.4347 56.9828C92.1605 57.002 91.8856 57.0062 91.611 56.9954C62.0664 56.9954 32.5223 56.9954 2.9786 56.9954C2.77839 56.9954 2.57865 56.9995 2.37937 56.9954C1.08266 56.9488 0.416836 55.8267 1.05192 54.6836C2.2625 52.5022 3.51312 50.3404 4.7507 48.1735C7.42561 43.4928 10.115 38.8204 12.768 34.1271C12.9423 33.7558 13.2265 33.4469 13.5821 33.2424C13.9377 33.0379 14.3475 32.9475 14.7561 32.9836C17.0739 33.0278 19.3936 32.9975 21.8026 32.9975V32.0589C21.8026 22.0601 21.8026 12.0614 21.8026 2.06263C21.8026 0.446048 22.2403 0 23.8261 0H70.7681C72.3512 0 72.7982 0.450705 72.7982 2.06077C72.7982 12.0344 72.7982 22.0081 72.7982 31.982L72.7996 32.9947ZM24.8286 32.9365H69.7536V3.05716H24.8286V32.9365Z" fill="white"></path>
    <path id="Path 164497" d="M87.7589 60.0488V65.9941H44.7867C43.2897 65.9941 42.8037 66.4737 42.8037 67.952C42.8037 75.9744 42.8037 83.9968 42.8037 92.0192V92.9467H36.8337V67.5432H15.846V92.9914H14.2904C12.3413 92.9914 10.3923 93.0002 8.44282 92.9877C8.22348 93.0104 8.00181 92.9841 7.7939 92.9106C7.58599 92.8371 7.39703 92.7183 7.24072 92.5627C7.08441 92.4072 6.96466 92.2188 6.89015 92.0112C6.81565 91.8037 6.78825 91.5822 6.80994 91.3627C6.8056 81.0411 6.8056 70.7193 6.80994 60.3971C6.80994 60.2993 6.8267 60.2015 6.8416 60.0483L87.7589 60.0488Z" fill="white"></path>
    <path id="Path 164498" d="M87.7405 82.4579H45.8457V69.0522H87.7405V82.4579Z" fill="white"></path>
    <path id="Path 164499" d="M45.8203 92.9592V85.5524H87.7281C87.7609 85.7014 87.7821 85.8527 87.7915 86.0049C87.7975 87.7784 87.8041 89.5524 87.7915 91.3259C87.8175 91.5515 87.792 91.7801 87.717 91.9944C87.6419 92.2087 87.5192 92.4032 87.3582 92.5633C87.1971 92.7234 87.0018 92.8449 86.787 92.9186C86.5722 92.9924 86.3435 93.0164 86.1181 92.989C72.8545 92.9928 59.5903 92.9928 46.3255 92.989C46.1807 92.9895 46.035 92.9723 45.8203 92.9592Z" fill="white"></path>
    <path id="Path 164500" d="M24.8262 32.937V3.05759H69.7511V32.937H24.8262ZM38.3022 24.7856C38.3022 25.9347 38.2994 27.0833 38.3022 28.2311C38.2917 28.455 38.31 28.6794 38.3567 28.8987C38.4517 29.2386 38.6636 29.534 38.9551 29.733C39.2466 29.932 39.5989 30.0217 39.95 29.9864C40.3286 29.9522 40.6794 29.7734 40.9296 29.4873C41.1799 29.2012 41.3102 28.8296 41.2937 28.4499C41.3099 26.1265 41.3099 23.8033 41.2937 21.4802C41.2597 21.2677 41.301 21.05 41.4106 20.8648C41.5203 20.6796 41.6912 20.5385 41.8939 20.4661C42.5217 20.1626 43.0932 19.7541 43.5836 19.2584C46.5537 16.2631 46.5402 10.6982 43.5896 7.67826C41.3706 5.40749 38.1337 5.4196 35.9593 7.74065C35.1352 8.61984 34.5181 9.67209 34.153 10.8204C33.7879 11.9688 33.6841 13.1842 33.8492 14.3779C34.1388 17.131 35.3107 19.3831 37.9688 20.6268C38.0654 20.7022 38.144 20.798 38.199 20.9074C38.2541 21.0169 38.2843 21.1371 38.2873 21.2595C38.3185 22.4366 38.3013 23.6104 38.3022 24.7856ZM56.3012 17.5598C56.3012 14.194 56.3012 10.9948 56.3012 7.79885C56.3012 6.65299 55.7136 5.9746 54.7647 5.99835C53.8432 6.02116 53.3055 6.67813 53.3041 7.79652C53.3019 10.7454 53.3019 13.6942 53.3041 16.643V17.4732C52.8329 17.236 52.4407 16.8671 52.1752 16.4113C51.9097 15.9554 51.7823 15.4323 51.8085 14.9054C51.802 12.5052 51.8085 10.1059 51.8034 7.70666C51.8006 6.65998 51.2275 6.00999 50.3279 5.99649C49.3939 5.98159 48.8082 6.64322 48.8063 7.7332C48.802 10.1575 48.802 12.5817 48.8063 15.006C48.7989 16.2127 49.164 17.3924 49.8518 18.384C50.5396 19.3756 51.5165 20.1308 52.6494 20.5467C52.8622 20.5899 53.0503 20.7133 53.1746 20.8913C53.2989 21.0694 53.3499 21.2884 53.3171 21.5031C53.2864 23.7273 53.3022 25.9515 53.3045 28.1766C53.3045 29.3299 53.8744 30.0027 54.8284 29.9887C55.748 29.9757 56.3012 29.3122 56.304 28.1999C56.3086 25.9757 56.3179 23.7505 56.2974 21.5263C56.2567 21.3124 56.3005 21.0911 56.4195 20.9088C56.5386 20.7264 56.7236 20.5973 56.9358 20.5486C58.0727 20.1408 59.055 19.3902 59.7472 18.4005C60.4394 17.4107 60.8073 16.2305 60.8003 15.0227C60.8185 12.5983 60.8101 10.1744 60.8055 7.74997C60.8055 6.65533 60.2234 5.99137 59.2983 5.99509C58.3731 5.99882 57.8083 6.66091 57.8083 7.76114C57.8046 10.1604 57.8125 12.5597 57.8009 14.959C57.8028 15.4863 57.6651 16.0048 57.4017 16.4616C57.1383 16.9184 56.7586 17.2974 56.3012 17.5598Z" fill="#252525"></path>
    <path id="Path 164501" d="M38.3027 24.7848C38.3027 23.61 38.3195 22.4362 38.2878 21.2624C38.2847 21.14 38.2546 21.0197 38.1995 20.9103C38.1445 20.8009 38.0658 20.7051 37.9693 20.6297C35.3112 19.386 34.1392 17.1339 33.8496 14.3808C33.6846 13.1871 33.7884 11.9717 34.1535 10.8234C34.5186 9.675 35.1357 8.62275 35.9598 7.74355C38.1342 5.42204 41.3711 5.4104 43.5901 7.68116C46.5411 10.7011 46.5542 16.266 43.5841 19.2613C43.0936 19.757 42.5222 20.1655 41.8944 20.469C41.6912 20.5413 41.5197 20.6826 41.4099 20.8682C41.3001 21.0538 41.2588 21.2721 41.2933 21.485C41.3132 23.8084 41.3132 26.1316 41.2933 28.4547C41.3098 28.8344 41.1794 29.2059 40.9292 29.4921C40.6789 29.7782 40.3281 29.9569 39.9496 29.9912C39.5984 30.0265 39.2461 29.9367 38.9546 29.7377C38.6632 29.5388 38.4513 29.2434 38.3562 28.9035C38.3096 28.6842 38.2913 28.4598 38.3018 28.2358C38.3004 27.0825 38.3032 25.9339 38.3027 24.7848Z" fill="white"></path>
    <path id="Path 164502" d="M56.3017 17.5599C56.7567 17.2965 57.1341 16.9176 57.3957 16.4616C57.6574 16.0055 57.7939 15.4885 57.7917 14.9628C57.8033 12.5635 57.7954 10.1642 57.7991 7.76496C57.7991 6.66473 58.3648 6.0017 59.289 5.99891C60.2133 5.99612 60.7939 6.6596 60.7962 7.75377C60.8004 10.1782 60.8092 12.6021 60.7911 15.0265C60.7981 16.2343 60.4301 17.4145 59.7379 18.4043C59.0457 19.394 58.0634 20.1446 56.9266 20.5524C56.7144 20.6012 56.5293 20.7303 56.4103 20.9126C56.2913 21.0949 56.2475 21.3162 56.2882 21.5301C56.3087 23.7543 56.2994 25.9795 56.2947 28.2037C56.2919 29.316 55.7388 29.979 54.8192 29.9925C53.8652 30.0065 53.2967 29.3337 53.2953 28.1804C53.2953 25.9553 53.2771 23.7311 53.3079 21.5069C53.3407 21.2922 53.2896 21.0732 53.1653 20.8951C53.041 20.7171 52.853 20.5937 52.6402 20.5505C51.5073 20.1347 50.5303 19.3794 49.8425 18.3878C49.1547 17.3962 48.7897 16.2166 48.7971 15.0098C48.789 12.5855 48.789 10.1613 48.7971 7.73702C48.7971 6.64704 49.3847 5.98587 50.3187 6.0003C51.2182 6.01334 51.7914 6.66379 51.7942 7.71048C51.8016 10.1097 51.7942 12.509 51.7993 14.9092C51.7731 15.4361 51.9005 15.9592 52.166 16.4151C52.4315 16.8709 52.8236 17.2399 53.2948 17.477V16.6455C53.2948 13.6966 53.2948 10.7478 53.2948 7.79894C53.2948 6.68149 53.834 6.02359 54.7554 6.00077C55.7067 5.97703 56.2919 6.65542 56.2919 7.80127C56.3036 10.9963 56.3017 14.194 56.3017 17.5599Z" fill="white"></path>
  </g>
</svg>
