<?xml version="1.0" encoding="UTF-8"?>
<svg xmlns="http://www.w3.org/2000/svg" width="89" height="61" viewBox="0 0 89 61" fill="none">
  <g id="Group 90180">
    <path id="Vector" d="M44.1267 60.454C34.6797 60.454 25.2326 60.3884 15.7906 60.4994C13.5449 60.5246 12.9293 59.7828 12.9646 57.6128C13.0756 50.255 12.9242 42.8972 13.0605 35.5394C13.0958 33.5763 12.4953 33.1726 10.6937 33.2735C7.94332 33.4299 5.17784 33.2685 2.42245 33.329C0.736913 33.3643 -0.00996921 32.7083 0.000123801 30.9723C0.0404958 24.0334 0.0404958 17.0944 0.000123801 10.1504C-0.00996921 8.46994 0.595611 7.62213 2.35179 7.76343C2.93214 7.80885 3.52258 7.73315 4.10798 7.77857C6.40918 7.95015 8.11995 7.83912 9.20999 4.98785C10.5978 1.34428 15.0639 -0.194908 18.9598 0.804299C22.6186 1.74295 25.5001 5.61866 25.3588 9.40859C25.2175 13.3146 22.2502 16.9279 18.546 17.705C14.6098 18.5327 10.3757 16.7815 9.01823 13.032C7.93323 10.0293 5.8793 10.7863 3.86575 10.7005C2.78579 10.6551 2.95737 11.4171 2.95737 12.063C2.93719 17.7505 2.96242 23.4379 2.92205 29.1202C2.917 30.0992 3.22989 30.4222 4.20386 30.397C6.71197 30.3415 9.22009 30.3162 11.7282 30.4071C12.9797 30.4525 12.9797 29.8116 13.0201 28.878C13.2977 22.8424 13.3178 22.8424 19.414 22.8424C26.353 22.8424 33.2919 22.8827 40.2258 22.7869C40.9878 22.7768 42.6633 23.7003 42.5472 21.9845C42.4412 20.4251 43.8694 18.3611 41.2149 17.2963C36.557 15.4341 34.4627 11.0033 35.906 6.59264C37.1777 2.70178 40.685 0.299649 44.697 0.567114C48.603 0.829532 51.9438 3.70604 52.615 7.38494C53.377 11.5534 51.4442 15.3937 47.7299 17.1247C47.0083 17.4628 45.8325 17.3568 45.671 18.2349C45.4388 19.5319 45.4691 20.9146 45.6357 22.2267C45.782 23.3824 46.872 22.802 47.4928 22.802C55.6832 22.8474 63.8788 22.9029 72.0692 22.7869C74.4108 22.7515 75.3596 23.3167 75.2536 25.8501C75.0669 30.3617 75.2132 30.3667 79.7197 30.3667C85.3113 30.3667 85.3113 30.3667 85.3113 24.8963C85.3113 21.0509 85.3668 17.2004 85.2709 13.36C85.2457 12.4718 86.0582 10.761 84.4483 10.7964C82.8536 10.8317 80.6735 9.41868 79.6491 12.3053C78.3572 15.9539 75.2687 17.8362 71.5343 17.811C67.2852 17.8009 63.7829 14.8487 63.1167 10.7358C62.4102 6.39582 64.7064 2.42423 68.7436 1.00616C72.7657 -0.411908 77.4034 1.20802 79.1495 5.1342C80.1235 7.32943 81.2387 7.93501 83.545 7.83912C88.7025 7.62717 88.2382 7.31933 88.2382 12.5021C88.2382 18.5226 88.1726 24.543 88.2736 30.5635C88.3089 32.6225 87.6478 33.4552 85.5434 33.3492C82.9596 33.223 80.3506 33.4552 77.7718 33.2735C75.7734 33.1322 75.082 33.5813 75.1375 35.7766C75.304 42.882 75.1981 49.9875 75.1981 57.098C75.1981 60.4489 75.1981 60.454 71.9633 60.454C62.6827 60.454 53.4022 60.454 44.1267 60.454Z" fill="url(#paint0_linear_180_461)"></path>
    <path id="Vector_2" d="M44.0963 57.5877C35.492 57.5877 26.8826 57.5423 18.2784 57.623C16.5474 57.6382 15.8409 57.4161 15.8712 55.3824C16.0074 46.1927 15.9721 36.998 15.8914 27.8032C15.8762 26.1783 16.2951 25.7342 17.9453 25.7392C35.4062 25.7998 52.8721 25.8048 70.333 25.7342C72.0438 25.7291 72.3617 26.2741 72.3466 27.8386C72.2759 37.114 72.2759 46.3945 72.3516 55.67C72.3668 57.2142 71.9732 57.6331 70.4188 57.623C61.643 57.5473 52.8671 57.5877 44.0963 57.5877Z" fill="white"></path>
    <path id="Vector_3" d="M71.6197 14.9597C68.3395 14.9597 65.6648 12.28 65.7557 9.08556C65.8415 5.9971 68.5161 3.35778 71.5894 3.34264C74.804 3.32246 77.403 6.0072 77.3576 9.30761C77.3122 12.5475 74.8646 14.9597 71.6197 14.9597Z" fill="#FBFBFB"></path>
    <path id="Vector_4" d="M44.1976 14.8995C40.872 14.9147 38.4749 12.6236 38.4043 9.36857C38.3336 6.0732 40.8972 3.37332 44.1169 3.35314C47.276 3.33295 50.0465 6.12871 50.0011 9.28278C49.9507 12.4368 47.4274 14.8793 44.1976 14.8995Z" fill="#FBFBFB"></path>
    <path id="Vector_5" d="M10.9155 9.12135C10.9407 5.91682 13.4387 3.37843 16.5878 3.3532C19.7267 3.32796 22.5426 6.154 22.4922 9.28284C22.4417 12.4975 19.7216 15.0459 16.4263 14.9551C13.2167 14.8693 10.8903 12.4117 10.9155 9.12135Z" fill="#FCFCFC"></path>
    <path id="Vector_6" d="M43.925 53.4248C37.0012 53.4248 30.0723 53.3542 23.1536 53.4652C21.0593 53.5005 20.2821 52.8344 20.4335 50.7502C20.5748 48.8426 20.5748 46.9047 20.4335 44.9972C20.2771 42.9281 21.029 42.2468 23.1233 42.262C35.3863 42.3427 47.6493 42.3023 59.9174 42.3023C61.835 42.3023 63.7577 42.3478 65.6754 42.2922C67.149 42.2468 67.8151 42.8019 67.7647 44.3411C67.689 46.5061 67.6536 48.6862 67.7748 50.8461C67.8807 52.7789 67.2247 53.4955 65.2111 53.4702C58.1057 53.3592 51.0153 53.4248 43.925 53.4248Z" fill="url(#paint1_linear_180_461)"></path>
    <path id="Vector_7" d="M44.0053 33.3186C36.9907 33.3186 29.976 33.3186 22.9563 33.3186C22.0429 33.3186 20.8974 33.5003 20.6047 32.4001C20.1101 30.5582 21.402 30.3664 22.81 30.3664C29.6581 30.3815 36.5062 30.3714 43.3543 30.3714C50.5355 30.3714 57.7217 30.3563 64.9029 30.3866C66.0686 30.3916 67.7592 29.9374 67.7037 31.8904C67.6482 33.8081 65.9576 33.2934 64.8019 33.2984C57.8681 33.3337 50.9392 33.3186 44.0053 33.3186Z" fill="#575757"></path>
    <path id="Vector_8" d="M23.9416 39.3947C22.6951 39.0565 20.6261 40.081 20.5705 37.9009C20.515 35.6603 22.5992 36.3668 23.8154 36.4526C25.1629 36.5484 27.565 35.3726 27.5297 37.9211C27.4994 40.2021 25.2032 38.9758 23.9416 39.3947Z" fill="#575757"></path>
    <path id="Vector_9" d="M34.0242 36.2866C35.4019 36.7055 37.5264 35.565 37.5769 37.7602C37.6324 40.1623 35.4069 39.2792 34.115 39.2742C32.8231 39.2691 30.5825 40.1825 30.6127 37.8157C30.6481 35.3984 32.9694 36.8872 34.0242 36.2866Z" fill="#575757"></path>
    <path id="Vector_10" d="M44.1617 39.4303C42.8092 39.0468 40.7099 40.1015 40.6392 37.9567C40.5585 35.489 42.8042 36.4529 44.0759 36.4529C45.3627 36.4529 47.6185 35.494 47.6034 37.8659C47.5832 40.2226 45.287 38.9156 44.1617 39.4303Z" fill="#575757"></path>
    <path id="Vector_11" d="M53.9982 39.3341C53.4128 39.3341 52.8325 39.3493 52.2471 39.3291C51.3084 39.2988 50.607 38.9456 50.5868 37.8858C50.5666 36.8361 51.1974 36.4021 52.1714 36.392C53.3371 36.3769 54.5079 36.4021 55.6737 36.3819C56.7788 36.3618 57.7679 36.5586 57.7124 37.9363C57.667 39.1373 56.7486 39.3493 55.7493 39.3392C55.169 39.3291 54.5836 39.3341 53.9982 39.3341Z" fill="#575757"></path>
    <path id="Vector_12" d="M64.1416 39.3397C63.0616 38.9662 60.7705 40.2177 60.715 37.9468C60.6544 35.3781 63.0717 36.7659 64.3939 36.3925C64.5503 36.3471 64.727 36.3723 64.8935 36.3874C66.0542 36.4884 67.7397 35.9282 67.7094 37.8762C67.6792 39.7837 66.0037 39.2337 64.843 39.3346C64.6714 39.3497 64.5049 39.3397 64.1416 39.3397Z" fill="#575757"></path>
    <path id="Vector_13" d="M71.4988 12.7894C71.085 12.7894 70.6661 12.7591 70.2523 12.7944C69.2682 12.8802 68.5365 12.4664 68.481 11.5025C68.4204 10.3873 69.2329 9.92803 70.2725 9.90279C71.1001 9.88261 71.9328 9.88765 72.7604 9.89775C73.8555 9.91289 74.8345 10.1804 74.7588 11.5278C74.6882 12.7793 73.7041 12.8247 72.7402 12.7894C72.3314 12.7793 71.9126 12.7894 71.4988 12.7894Z" fill="#1C1A1A"></path>
    <path id="Vector_14" d="M69.8592 5.24048C70.6515 5.2859 71.146 5.7199 71.1965 6.61313C71.252 7.52654 70.6969 8.09175 69.9248 8.15736C68.9912 8.23305 68.32 7.58206 68.3553 6.64341C68.3856 5.88643 68.8549 5.25057 69.8592 5.24048Z" fill="#2F2D2D"></path>
    <path id="Vector_15" d="M73.2703 5.24536C74.2998 5.28069 74.754 5.77524 74.7792 6.65333C74.8044 7.55161 74.2846 8.12187 73.457 8.14205C72.6294 8.16729 72.0844 7.60712 72.0692 6.71894C72.0541 5.8459 72.5083 5.34629 73.2703 5.24536Z" fill="#201E1E"></path>
    <path id="Vector_16" d="M45.818 9.56269C47.1346 10.1575 47.1536 12.5141 45.7202 12.6952C45.5735 12.7138 45.4498 12.6776 45.3656 12.5735C43.5363 10.7442 41.5377 14.7027 41.1492 11.2963C40.9574 9.62086 42.8044 9.2777 44.2982 9.26761C44.875 9.26564 45.3824 9.36588 45.818 9.56269Z" fill="#3C3C3C"></path>
    <path id="Vector_17" d="M46.019 8.21264C45.151 7.99564 44.5757 7.62724 44.5807 6.71382C44.5858 5.84583 44.9794 5.3008 45.8726 5.25538C46.9122 5.19987 47.3967 5.8761 47.3815 6.77438C47.3714 7.60201 46.7204 8.02087 46.019 8.21264Z" fill="#2A2828"></path>
    <path id="Vector_18" d="M43.7026 6.58285C43.6925 7.57701 43.1626 8.14222 42.3501 8.14726C41.5326 8.15231 40.9825 7.59719 40.9876 6.69387C40.9926 5.82082 41.4165 5.26571 42.33 5.25562C43.2484 5.25562 43.6521 5.81578 43.7026 6.58285Z" fill="#1F1E1E"></path>
    <path id="Vector_19" d="M16.5821 13.5875C15.6687 13.4614 14.7149 13.2393 13.9579 12.4874C13.4028 11.9373 13.3271 11.3166 13.6652 10.6706C13.7634 10.4831 14.0686 10.4355 14.4159 10.459C15.3327 10.521 15.9877 11.7227 16.805 11.3026C17.7148 10.8348 18.8492 9.30406 19.6605 10.8372C20.2862 12.0281 18.6108 13.5471 16.5821 13.5875Z" fill="#1F1D1D"></path>
    <path id="Vector_20" d="M18.4642 5.23022C19.3927 5.29078 19.9024 5.88122 19.8923 6.66848C19.8772 7.59703 19.2211 8.26317 18.2774 8.1471C17.5154 8.05627 16.93 7.48097 17.0158 6.57259C17.0915 5.6945 17.6365 5.27564 18.4642 5.23022Z" fill="#333130"></path>
    <path id="Vector_21" d="M16.2296 6.67783C16.0883 7.57611 15.629 8.18674 14.7661 8.14132C13.9334 8.10095 13.4187 7.54583 13.4641 6.63746C13.5095 5.74927 13.9435 5.23958 14.867 5.26481C15.8057 5.29004 16.1135 5.9259 16.2296 6.67783Z" fill="#21201F"></path>
    <path id="Vector_22" d="M26.071 50.4567C23.9263 51.0219 23.2753 50.2751 23.134 47.878C22.9523 44.8198 24.5823 45.173 26.5555 45.0267C28.8769 44.8551 29.3311 45.6726 29.4471 47.8982C29.5935 50.7797 28.1048 50.7292 26.071 50.4567Z" fill="#EAE9E9"></path>
    <path id="Vector_23" d="M43.8943 50.4267C41.7042 51.0322 41.1339 50.25 40.9522 47.8782C40.71 44.7039 42.446 45.2288 44.3738 45.0521C46.7355 44.8351 47.1039 45.7385 47.2351 47.9185C47.4118 50.8354 45.9129 50.7597 43.8943 50.4267Z" fill="#F8F8F8"></path>
    <path id="Vector_24" d="M52.9322 50.4317C50.7723 50.9818 49.9951 50.356 49.9447 47.8883C49.8841 45.2035 50.9691 45.0622 53.1189 45.037C55.3394 45.0118 56.2225 45.3146 56.2578 47.9135C56.2982 50.7951 54.9357 50.7698 52.9322 50.4317Z" fill="#F8F7F7"></path>
    <path id="Vector_25" d="M35.4111 50.4416C33.3976 50.704 32.0401 50.8302 31.9745 47.9335C31.9088 44.9207 33.3421 45.1731 35.3657 45.0519C37.6063 44.9207 38.2624 45.5566 38.2674 47.8679C38.2725 50.2498 37.5811 51.0472 35.4111 50.4416Z" fill="#F5F5F5"></path>
    <path id="Vector_26" d="M61.9252 50.3915C59.5483 51.0626 58.9578 50.2098 58.8771 47.8632C58.7862 45.1835 59.9066 45.0169 62.0463 45.0321C64.1355 45.0472 65.0439 45.345 65.0338 47.8127C65.0136 50.4116 64.1204 51.0576 61.9252 50.3915Z" fill="#F0F0F0"></path>
  </g>
  <defs>
    <linearGradient id="paint0_linear_180_461" x1="42.8049" y1="14.0366" x2="41.3415" y2="95.2561" gradientUnits="userSpaceOnUse">
      <stop stop-color="#3C3C3C"></stop>
      <stop offset="1" stop-color="#575757" stop-opacity="0"></stop>
    </linearGradient>
    <linearGradient id="paint1_linear_180_461" x1="44.0996" y1="42.2617" x2="43.9022" y2="63.0614" gradientUnits="userSpaceOnUse">
      <stop stop-color="#3C3C3C"></stop>
      <stop offset="1" stop-color="#575757" stop-opacity="0"></stop>
    </linearGradient>
  </defs>
</svg>
