<?xml version="1.0" encoding="UTF-8"?>
<svg xmlns="http://www.w3.org/2000/svg" width="87" height="93" viewBox="0 0 87 93" fill="none">
  <g id="Group 88496">
    <path id="Path 164441" d="M6.88183 87.9177V36.4562C9.90117 36.4562 12.7445 36.4389 15.5883 36.4645C16.8045 36.4757 17.9866 36.3467 18.0001 34.8285C18.0127 33.2897 16.7784 33.1649 15.5958 33.1621C12.7929 33.1547 9.98823 33.1817 7.18538 33.15C5.20523 33.1277 4.80203 32.7086 4.77736 30.7713C4.7578 29.2572 4.75361 27.745 4.77736 26.2295C4.80948 24.3606 5.23876 23.8759 7.04571 23.868C12.9331 23.842 18.8205 23.8652 24.7078 23.8541C26.1907 23.8541 26.8528 24.579 26.8328 26.0321C26.8128 27.4335 26.8216 28.8359 26.8328 30.2373C26.8412 31.4231 26.9678 32.6183 25.5003 33.1859C25.2605 33.279 25.1418 33.9518 25.1418 34.3568C25.1247 48.0935 25.1193 61.8306 25.1255 75.5679C25.1255 76.7273 25.5063 77.6109 26.7955 77.6203C28.0847 77.6296 28.4716 76.7557 28.4716 75.5884C28.4619 68.6358 28.4977 61.6822 28.4419 54.73C28.3898 54.1587 28.4971 53.5841 28.7519 53.0701C29.0067 52.5561 29.3989 52.1228 29.8852 51.8183C35.0122 48.1992 40.0723 44.4862 45.1593 40.8099C45.5597 40.5207 45.9792 40.2591 46.5705 39.8624C46.6357 40.4327 46.719 40.8401 46.7223 41.2438C46.7381 43.6546 46.7223 46.0664 46.7442 48.4772C46.7563 49.9317 46.8959 51.3378 45.2589 52.2485C44.8753 52.4612 44.7147 53.9525 45.0503 54.3534C45.4163 54.7887 46.5975 54.9275 47.2125 54.6793C48.2219 54.2687 49.0614 53.4399 49.9735 52.789C54.8482 49.3106 59.7234 45.8326 65.0059 42.0642C65.0059 44.339 64.9231 46.2545 65.0306 48.1634C65.1237 49.7883 64.9142 51.1031 63.2693 51.9263C63.0405 52.0134 62.8358 52.1539 62.6724 52.3362C62.5089 52.5184 62.3913 52.737 62.3294 52.9739C62.2676 53.2108 62.2632 53.459 62.3167 53.6979C62.3702 53.9368 62.4801 54.1595 62.637 54.3473C63.382 55.4098 64.3402 55.1598 65.2718 54.4945C70.7456 50.5879 76.2223 46.6854 81.702 42.7872C82.0619 42.5312 82.432 42.29 83.0908 41.8426V87.7301C83.4846 87.7882 83.8751 87.8667 84.2608 87.9652C85.5966 88.4066 86.3588 89.3317 86.1623 90.7447C86.1209 91.3742 85.832 91.9617 85.3588 92.3788C84.8857 92.796 84.2666 93.009 83.637 92.9712C80.4412 93.0047 77.2449 92.9959 74.0491 92.9949C50.611 92.9928 27.1734 92.989 3.73632 92.9838C3.34475 93.0108 2.95157 93.0041 2.56115 92.9637C1.16438 92.7151 0.312828 91.8407 0.32633 90.4417C0.338435 89.064 1.11785 88.0671 2.56396 87.9484C3.89369 87.8316 5.24342 87.9177 6.88183 87.9177ZM34.325 68.3481H40.7939V62.016H34.3246L34.325 68.3481ZM70.3258 61.9378V68.3685H76.7975V61.9378H70.3258ZM59.038 61.9932H52.6734V68.369H59.0385L59.038 61.9932Z" fill="white"></path>
    <path id="Path 164442" d="M52.672 4.27697C55.717 3.36675 59.2345 4.70113 61.332 7.65203C62.3531 9.14059 62.8908 10.9076 62.8719 12.7126C62.8531 14.5176 62.2787 16.273 61.2268 17.7399C58.6777 21.1853 55.1094 21.9768 49.8105 20.2257C47.8983 23.0854 45.2599 24.7489 41.6855 24.62C38.2234 24.4952 35.3601 22.2366 34.7543 19.0739C34.6146 18.3368 34.8665 17.5328 34.8209 16.7659C34.7306 16.3333 34.5768 15.9165 34.3646 15.5289C34.0243 15.8352 33.4977 16.0815 33.3738 16.46C32.7811 18.2684 33.1694 19.9925 34.0457 21.6351C34.1975 21.9186 34.3218 22.2166 34.4563 22.5025C30.9323 24.4491 27.4725 23.6231 23.9806 20.2318C22.4977 20.7127 21.1824 21.3869 19.8233 21.4912C18.9504 21.5592 17.8842 20.953 17.1308 20.3607C16.3921 19.7409 15.8913 18.8841 15.7138 17.9363C15.5363 16.9885 15.693 16.0085 16.1573 15.1634C17.2198 13.0598 19.0141 12.4387 22.3082 13.0803C23.3506 9.46783 25.5808 6.67942 29.4075 6.43871C32.0842 6.27063 33.4693 5.16625 35.1133 3.30203C38.8496 -0.934824 46.0323 -1.06146 49.411 2.73215C50.7194 4.20016 51.5965 5.83437 51.0648 7.94163C50.9717 8.30246 51.3442 8.77969 51.5011 9.20337C51.8908 8.89562 52.5831 8.6186 52.6185 8.27546C52.7032 6.94437 52.7211 5.60986 52.672 4.27697Z" fill="white"></path>
    <path id="Path 164443" d="M34.3242 68.3485V62.0165H40.7931V68.3485H34.3242Z" fill="#252525"></path>
    <path id="Path 164444" d="M70.3242 61.9388H76.7959V68.3695H70.3242V61.9388Z" fill="#252525"></path>
    <path id="Path 164445" d="M59.0389 61.9937V68.3695H52.6738V61.9937H59.0389Z" fill="#252525"></path>
  </g>
</svg>
