<?xml version="1.0" encoding="UTF-8"?>
<svg xmlns="http://www.w3.org/2000/svg" width="126" height="122" viewBox="0 0 126 122" fill="none">
  <g id="Group 88677 1">
    <g id="Group 88677">
      <path id="Rectangle 38463" d="M105.498 28.1743L42.7435 7.72464C35.4288 5.34101 27.5723 9.35573 25.1956 16.6918L4.80532 79.629C2.4286 86.965 6.43167 94.8444 13.7464 97.228L76.501 117.678C83.8157 120.061 91.6722 116.047 94.0489 108.711L114.439 45.7733C116.816 38.4373 112.813 30.5579 105.498 28.1743Z" fill="#989898" fill-opacity="0.22"></path>
      <path id="Rectangle 38462" d="M112.25 24.7656L49.4955 4.31595C42.1808 1.93232 34.3243 5.94704 31.9476 13.2831L11.5573 76.2203C9.18056 83.5563 13.1836 91.4357 20.4984 93.8193L83.2529 114.269C90.5677 116.653 98.4242 112.638 100.801 105.302L121.191 42.3646C123.568 35.0286 119.565 27.1492 112.25 24.7656Z" fill="#7A7A7A"></path>
      <path id="Path 139582" fill-rule="evenodd" clip-rule="evenodd" d="M73.6265 50.0899L74.985 45.8964C75.0483 45.56 75.1847 45.2416 75.3845 44.9639C75.5843 44.6862 75.8425 44.456 76.1409 44.2897C76.4393 44.1233 76.7706 44.0249 77.1112 44.0013C77.4518 43.9778 77.7935 44.0298 78.1118 44.1535L83.9591 46.0589L86.8649 37.0898L78.7933 34.4596C69.8434 31.5431 65.6809 37.5369 64.2913 41.8263L62.7611 46.5493L57.5679 44.857L54.1794 55.3161L59.4183 57.0233L50.9563 83.1423L61.3851 86.5407L69.8473 60.4208L77.5762 62.9394L79.2523 58.9413L81.9217 52.7921L73.6265 50.0899Z" fill="white"></path>
    </g>
  </g>
</svg>
