<?xml version="1.0" encoding="UTF-8"?>
<svg xmlns="http://www.w3.org/2000/svg" width="75" height="75" viewBox="0 0 75 75" fill="none">
  <g id="Group">
    <path id="Vector" d="M5.05105 55.0927C1.56982 48.9485 0.141156 42.3161 0.584222 35.3175C1.62859 18.8201 12.9675 5.44218 29.058 1.56309C50.4608 -3.59998 72.0218 11.7536 74.1241 33.6582C76.041 53.6098 62.3693 71.1516 42.576 74.0043C35.5322 75.0171 28.7053 74.0676 22.2086 71.0521C22.0503 70.4734 22.4798 70.1433 22.7646 69.7636C26.6211 64.6457 25.6129 57.62 20.486 53.8132C20.0023 53.4515 19.3422 53.2345 19.2337 52.5021C19.401 51.8782 19.9842 51.7878 20.4544 51.5572C22.5883 50.5038 24.7675 49.5498 26.7794 48.2568C28.7641 46.9819 28.8545 45.6301 28.6375 43.3333C28.5968 42.9038 28.2984 42.6009 27.9548 42.3749C26.8472 41.6425 26.264 40.5484 25.8254 39.3503C25.3462 38.0392 25.0478 36.6828 24.7539 35.322C24.6138 34.6619 24.4872 33.9114 24.7539 33.3237C25.5903 31.452 25.0071 29.6345 24.7494 27.7944C23.8587 21.4016 27.5208 15.8135 33.5655 14.4436C35.2338 14.0684 36.9337 13.9147 38.5432 14.837C39.1264 15.1715 39.8362 15.1851 40.4963 15.3253C45.9804 16.4827 49.9047 21.2976 49.9137 26.8857C49.9182 28.8523 50.0946 30.7647 50.5195 32.7269C51.2113 35.9369 50.1172 38.862 47.7481 41.1768C46.107 42.7818 45.8945 45.6165 47.4407 47.33C48.1143 48.076 48.9417 48.6004 49.864 48.9937C51.3921 49.6448 52.9248 50.2868 54.3986 51.0599C58.2099 53.0491 62.0166 55.0429 63.2283 59.6318C63.7211 59.6047 63.8477 59.2837 64.0376 59.0486C68.6174 53.456 71.0905 47.0497 71.5923 39.8431C72.2252 30.7241 69.6347 22.5771 63.7889 15.6372C57.161 7.76601 48.6523 3.53428 38.186 3.30823C29.4604 3.12286 21.8288 5.83099 15.237 11.41C8.74929 16.8986 4.8476 23.9063 3.53197 32.32C2.46951 39.1152 3.45059 45.6165 6.30339 51.8556C6.54301 52.3846 6.79619 52.9135 6.85044 53.5103C6.54753 54.3693 5.94622 54.8983 5.05105 55.0927Z" fill="#F9F9F9"></path>
    <path id="Vector_2" d="M5.05145 55.0927C5.61206 54.5818 6.17268 54.0664 6.73329 53.5556C6.83727 53.2481 7.01812 53.004 7.29391 52.8322C10.7299 50.6756 14.3513 50.219 18.1671 51.6974C18.6237 51.8737 19.0668 52.1043 19.32 52.5609C24.5011 56.015 26.4859 60.8119 24.9804 66.201C24.465 68.0547 23.389 69.5828 22.2089 71.0521C19.0171 73.9366 15.3595 75.2658 11.0735 74.1852C2.87681 72.1191 -0.500435 62.8328 4.4185 55.9608C4.62647 55.6669 4.83896 55.3821 5.05145 55.0927Z" fill="#F9F9F9"></path>
    <path id="Vector_3" d="M19.3242 52.5608C14.9387 50.4947 10.7432 50.8293 6.73748 53.5555C-1.5813 37.8447 3.55013 18.1735 18.4923 8.47128C33.6379 -1.36207 53.603 1.96545 64.7746 16.2385C75.8512 30.385 73.5816 49.595 63.043 60.6581C62.4914 56.6208 59.6929 54.4416 56.5281 52.5789C54.9051 51.6205 53.2368 50.7615 51.4736 50.0788C50.6372 49.7578 49.8143 49.3916 49.0186 48.9756C46.4009 47.6057 45.3701 44.9926 46.2698 42.1624C46.3738 41.8323 46.5546 41.6515 46.8214 41.4571C49.968 39.1649 51.2023 34.6935 49.6561 31.1716C49.2854 30.3262 49.4843 29.4807 49.5792 28.6534C49.9138 25.7147 49.1949 23.0563 47.6306 20.5878C46.098 18.169 44.0138 16.4058 41.1791 15.8949C39.4204 15.5784 37.8922 14.5024 36.1064 14.4934C30.0934 14.4572 25.3101 19.0687 25.0524 25.0862C24.9981 26.3431 25.0524 27.5954 25.2604 28.8433C25.4954 30.2629 25.3779 31.6328 25.2287 33.0886C24.8851 36.4794 25.396 39.9199 28.502 42.2257C28.8817 42.5105 28.9767 42.8405 29.0535 43.2339C29.5599 45.7837 28.8998 47.3209 26.7207 48.7225C24.3652 50.228 21.7294 51.1729 19.3242 52.5608Z" fill="#1F1F1F"></path>
    <path id="Vector_4" d="M44.8549 39.0429C44.2672 38.5817 43.8061 39.07 43.3178 39.3367C42.0971 40.0059 40.89 40.6886 39.6783 41.3712C39.1086 41.6922 38.4667 41.8957 38.3627 42.7276C38.3129 43.1345 37.8925 43.3786 37.4404 43.3695C37.0064 43.365 36.5407 43.1932 36.5 42.7637C36.4186 41.8459 35.6726 41.6696 35.0849 41.3215C34.0043 40.684 32.9012 40.0737 31.7981 39.4769C31.1968 39.1514 30.6904 38.74 29.8404 39.0112C29.0357 39.2689 28.3394 38.2246 28.8684 37.5238C29.3386 36.8999 29.1849 36.3845 29.0899 35.7832C28.8865 34.4992 28.6921 33.2152 28.4751 31.9312C28.3666 31.2892 28.3259 30.6698 27.6387 30.2268C27.0735 29.8606 27.182 29.2367 27.6522 28.7122C28.9633 27.2655 29.4516 25.5972 28.8729 23.6938C28.7192 23.192 28.8413 22.7851 29.2391 22.5048C29.6867 22.1973 30.1162 22.2606 30.5909 22.5907C32.544 23.947 34.687 24.381 37.0154 23.7933C37.2279 23.739 37.4992 23.6622 37.6664 23.7481C39.7009 24.8241 41.5455 23.3547 43.4941 23.3366C43.9281 23.3321 43.9914 22.8665 44.2356 22.6178C44.6425 22.2064 45.1307 22.1793 45.5828 22.4776C46.044 22.7806 46.0982 23.2236 45.9536 23.7797C45.4743 25.6153 45.8586 27.2745 47.1652 28.6806C47.5405 29.0829 47.8208 29.6616 47.4003 29.9781C46.1208 30.9321 46.4464 32.3788 46.1073 33.6131C45.9038 34.341 45.8722 35.1186 45.7456 35.8691C45.6507 36.4342 45.5467 36.8999 45.9581 37.4876C46.5142 38.2788 45.8631 39.1243 44.8549 39.0429Z" fill="#F9F9F9"></path>
    <path id="Vector_5" d="M21.1286 60.2603C20.9115 60.4999 20.7171 60.7441 20.4956 60.9565C17.8417 63.4883 15.1653 66.0066 12.534 68.561C12.0141 69.0674 11.6795 69.194 11.1325 68.6062C9.88012 67.268 8.60065 65.9433 7.25789 64.6955C6.42601 63.9224 7.2172 63.6285 7.57888 63.2397C7.9677 62.8147 8.35199 62.1682 9.0392 63.0091C9.63146 63.7325 10.4 64.3112 11.0013 65.03C11.5936 65.7308 11.996 65.7579 12.6787 65.0752C14.7041 63.0498 16.8019 61.0967 18.8951 59.1391C19.1302 58.9175 19.3247 58.2801 19.8174 58.7412C20.2876 59.1888 20.8302 59.6002 21.1286 60.2603Z" fill="#1F1F1F"></path>
    <path id="Vector_6" d="M23.9047 47.4791C22.1234 47.5967 20.5455 47.5289 19.8357 45.6888C19.2887 44.2692 19.6006 42.7772 19.6368 41.3169C19.6504 40.8377 20.1251 40.6659 20.541 40.7337C20.9615 40.8015 21.2418 41.0954 21.2418 41.5791C21.2418 42.4743 21.2734 43.3695 21.2508 44.2601C21.2237 45.3407 21.7798 45.8109 22.8016 45.8244C23.6515 45.8335 24.5015 45.8199 25.3514 45.8244C25.9121 45.8289 26.3416 46.0505 26.3551 46.6608C26.3687 47.2938 25.9166 47.4746 25.3605 47.4791C24.827 47.4791 24.2935 47.4791 23.9047 47.4791Z" fill="#F9F9F9"></path>
    <path id="Vector_7" d="M23.8279 11.8577C24.4111 11.8577 24.9943 11.8351 25.5775 11.8622C26.0387 11.8848 26.3416 12.147 26.3597 12.6217C26.3823 13.1642 26.0658 13.4672 25.5414 13.4898C24.7773 13.5214 24.0133 13.5033 23.2492 13.5079C21.59 13.5259 21.2735 13.8379 21.2599 15.4564C21.2554 16.2205 21.2644 16.98 21.2373 17.7441C21.2192 18.255 20.957 18.6121 20.41 18.6076C19.8719 18.5986 19.5871 18.2505 19.5826 17.7351C19.5736 16.5686 19.5148 15.3931 19.6369 14.2403C19.7725 12.9653 20.8621 12.0204 22.2048 11.8712C22.7383 11.8124 23.2808 11.8622 23.8189 11.8622C23.8279 11.8622 23.8279 11.8622 23.8279 11.8577Z" fill="#F9F9F9"></path>
    <path id="Vector_8" d="M51.0309 11.8439C52.0889 11.8575 53.1784 11.6676 54.1053 12.4362C55.0909 13.25 55.8233 17.1472 55.1496 18.2187C54.9417 18.5487 54.6162 18.6798 54.2228 18.5849C53.825 18.4854 53.617 18.2096 53.6034 17.8163C53.5854 17.0568 53.5853 16.2972 53.5853 15.5422C53.5808 13.8423 53.2779 13.5394 51.5418 13.5122C50.8275 13.5032 50.1132 13.4896 49.3988 13.5077C48.8473 13.5213 48.5353 13.2319 48.4991 12.7346C48.4584 12.1333 48.8292 11.853 49.4214 11.853C49.9594 11.8439 50.4975 11.8439 51.0309 11.8439Z" fill="#F9F9F9"></path>
    <path id="Vector_9" d="M55.2525 43.3244C55.2525 43.8624 55.2932 44.4004 55.2434 44.9339C55.1259 46.1908 54.0996 47.321 52.8247 47.4386C51.6718 47.5471 50.4963 47.4748 49.3344 47.4793C48.7873 47.4793 48.4799 47.1764 48.4844 46.6564C48.4844 46.1365 48.8054 45.8427 49.3434 45.8381C50.2386 45.8291 51.1338 45.8155 52.0335 45.8291C53.0959 45.8427 53.6068 45.3499 53.5887 44.2829C53.5752 43.4329 53.6023 42.583 53.5978 41.733C53.5932 41.1543 53.8419 40.7429 54.4296 40.7293C55.0355 40.7158 55.2706 41.1498 55.2706 41.7149C55.2706 42.2529 55.2706 42.7909 55.2706 43.3244C55.266 43.3244 55.2615 43.3244 55.2525 43.3244Z" fill="#F9F9F9"></path>
    <path id="Vector_10" d="M37.1422 27.5412C37.1422 27.9436 37.1648 28.346 37.1377 28.7484C37.0834 29.5848 36.6132 30.0459 35.7813 29.9736C33.8689 29.8154 31.9565 29.6119 30.0486 29.3994C29.2122 29.3045 28.8053 28.8433 29.0088 27.9662C29.2303 27.0123 29.4111 26.0403 29.696 25.1089C29.9672 24.2183 30.5866 23.7435 31.5858 23.9379C32.594 24.1369 33.6022 24.3222 34.6149 24.5121C36.9026 24.9371 37.1467 25.2265 37.1422 27.5412Z" fill="#1C1C1C"></path>
    <path id="Vector_11" d="M39.6789 29.8967C37.988 30.0052 37.7077 29.752 37.7032 28.0928C37.7032 27.6 37.6987 27.1072 37.7032 26.6144C37.7167 25.5429 38.2728 24.8919 39.3036 24.6794C40.6193 24.4126 41.944 24.1911 43.2596 23.9379C44.2587 23.748 44.8827 24.2182 45.163 25.1179C45.4387 26.0131 45.5879 26.9444 45.8185 27.8532C46.0627 28.7936 45.6829 29.2909 44.7561 29.3903C43.0652 29.5757 41.3743 29.7294 39.6789 29.8967Z" fill="#1C1C1C"></path>
    <path id="Vector_12" d="M29.9947 29.9554C32.0065 30.1544 33.9144 30.3397 35.8268 30.5296C36.5457 30.6019 36.6904 30.9003 36.193 31.4655C35.4516 32.3019 34.7418 33.1609 33.9868 33.9837C33.3945 34.6302 32.7841 34.5805 32.219 33.9114C31.36 32.8851 30.4874 31.8678 29.642 30.8325C29.4612 30.611 29.095 30.394 29.3436 30.0413C29.5199 29.7881 29.8409 29.9645 29.9947 29.9554Z" fill="#1D1D1D"></path>
    <path id="Vector_13" d="M44.7598 29.942C45.013 29.9601 45.3294 29.7793 45.5058 30.0415C45.7454 30.3941 45.3837 30.6111 45.2028 30.8327C44.3574 31.868 43.4893 32.8852 42.6349 33.9161C42.0697 34.6033 41.4594 34.6259 40.8807 33.9794C40.1392 33.152 39.443 32.2794 38.7241 31.4249C38.3172 30.9412 38.1816 30.5569 39.0316 30.48C40.944 30.2992 42.8519 30.1184 44.7598 29.942Z" fill="#1D1D1D"></path>
    <path id="Vector_14" d="M37.9925 31.3931C38.7972 32.3425 39.6517 33.2557 40.3886 34.2549C40.9176 34.9783 41.0171 35.9187 40.5921 36.6873C39.7873 38.1611 38.8289 39.5536 37.7031 40.9506C37.7031 39.3818 37.7031 37.813 37.7031 36.2442C37.7031 34.6573 37.7031 33.0659 37.7031 31.479C37.7981 31.4473 37.8975 31.4202 37.9925 31.3931Z" fill="#1D1D1D"></path>
    <path id="Vector_15" d="M37.0829 31.2439C37.0829 34.689 37.0829 37.7949 37.0829 41.249C35.9707 39.4632 34.9309 37.9396 34.0764 36.3211C33.8413 35.8825 33.9634 35.01 34.2663 34.5805C35.0349 33.4683 36.0024 32.4962 37.0829 31.2439Z" fill="#1C1C1C"></path>
    <path id="Vector_16" d="M36.188 41.3214C34.7186 40.4986 33.2447 39.6848 31.7844 38.8484C31.3504 38.5998 30.6044 38.4822 30.8079 37.7769C31.0158 37.0581 31.7437 36.6783 32.3722 36.4251C32.8831 36.2171 33.4708 36.398 33.8325 37.0264C34.6372 38.4144 35.5098 39.7662 36.3552 41.1316C36.301 41.1903 36.2422 41.2581 36.188 41.3214Z" fill="#1E1E1E"></path>
    <path id="Vector_17" d="M38.4883 41.1272C39.3337 39.7618 40.2108 38.419 41.0156 37.0311C41.3772 36.4026 41.965 36.2218 42.4759 36.4207C43.1088 36.6694 43.7779 37.0672 44.0537 37.7725C44.212 38.1704 43.8819 38.4055 43.5429 38.5908C41.9153 39.4951 40.2922 40.4128 38.6691 41.3261C38.6058 41.2583 38.5471 41.1905 38.4883 41.1272Z" fill="#1E1E1E"></path>
    <path id="Vector_18" d="M46.0427 30.6924C45.7262 32.6138 45.4956 34.1148 45.2289 35.6113C45.1339 36.1493 45.247 37.0988 44.5779 37.0264C43.8274 36.945 43 36.4206 42.8011 35.4802C42.7242 35.114 42.5976 34.7297 42.9367 34.3499C43.9087 33.2513 44.8356 32.1165 46.0427 30.6924Z" fill="#1D1D1D"></path>
    <path id="Vector_19" d="M28.8145 30.697C30.0125 32.1212 30.9936 33.256 31.9385 34.4179C32.3545 34.9333 32.2143 35.6114 31.8662 35.9867C31.4412 36.4478 30.9529 37.0491 30.2476 37.0537C29.7548 37.0582 29.7503 36.4976 29.687 36.1133C29.4112 34.454 29.149 32.7903 28.8145 30.697Z" fill="#1E1E1E"></path>
  </g>
</svg>
